<svg width="272" height="273" viewBox="0 0 272 273" fill="none" xmlns="http://www.w3.org/2000/svg">
<path d="M268.799 257.56C268.799 257.56 273.953 271.194 268.799 271.535C263.644 271.877 8.2104 276.097 2.2924 268.433C-3.6256 260.769 3.78399 219.442 3.78399 219.442C3.78399 219.442 12.0279 160.73 50.5932 143.739C89.1585 126.749 92.976 119.275 95.84 115.135L97.367 112.715L99.4675 109.478C99.4675 109.478 88.2049 109.955 82.477 97.9704C76.749 85.9862 83.0504 76.6308 83.0504 76.6308L80.9499 72.6232C80.9499 72.6232 76.1756 75.1393 75.6054 78.0805C75.0352 81.0218 70.831 80.8317 71.4045 77.2043C71.9779 73.5768 82.8603 52.7688 82.8603 52.7688C82.8603 52.7688 76.1788 39.5958 77.1324 30.6238C78.086 21.6517 97.2961 2.37071 130.169 0.460331C130.169 0.460331 149.134 -2.9062 155.838 8.56899C162.542 20.0442 165.619 23.2303 165.619 23.2303C165.619 23.2303 187.815 32.241 190.783 34.989C193.75 37.737 191.333 37.6274 186.056 37.2956C180.78 36.9638 173.634 36.8575 173.634 36.8575C173.634 36.8575 176.166 42.6821 176.166 46.1968C176.166 46.1968 177.706 44.8792 181.991 47.9558C186.276 51.0323 188.089 63.213 186.056 67.6201L185.287 68.7992C185.287 68.7992 197.048 81.8014 189.787 102.851C182.526 123.901 179.414 125.17 179.414 125.17L186.337 133.443C186.337 133.443 228.436 142.409 234.245 144.767C240.053 147.125 247.556 154.928 251.154 166.725C254.753 178.522 258.744 195.406 261.467 214.546C264.189 233.685 268.799 257.56 268.799 257.56Z" fill="#1C1C1C"/>
<path d="M15.7617 190.954C16.0742 191.553 16.5317 192.127 17.0503 192.652C16.3029 192.968 15.6393 193.435 15.1625 194.163C14.0768 195.816 14.1284 198.58 15.0626 200.3C16.2675 202.516 17.8944 202.065 19.3827 200.79C19.5342 201.582 19.7436 202.339 19.9787 203.009C20.7777 205.313 22.2596 207.909 24.8594 208.415C27.4173 208.914 29.5951 207.014 29.6885 204.482C29.7465 202.848 29.186 201.196 28.4514 199.656C29.376 200.213 30.3393 200.706 31.3605 201.092C34.3147 202.217 38.1064 201.792 39.6109 198.634C40.7578 196.228 38.783 194.456 36.7147 193.631C34.1794 192.623 31.4861 192.291 28.7736 192.095C29.9462 190.806 30.4939 189.079 29.8689 186.918C29.6788 186.254 29.0249 185.71 28.3161 185.735C26.0481 185.822 23.8317 186.773 22.2467 188.351C21.0741 186.679 19.0058 185.565 17.2726 186.38C17.3274 186.222 17.3822 186.064 17.4369 185.912C21.8408 173.419 25.8484 165.987 29.1666 161.564C30.8289 163.368 32.9971 164.576 35.5228 165.037C37.3591 165.372 39.2082 165.439 41.0574 165.166C41.3602 165.121 41.663 165.066 41.9627 165.008C41.8531 165.13 41.7371 165.249 41.634 165.381C40.3132 167.063 39.4885 169.167 39.0214 171.238C38.4093 173.97 37.5137 179.028 40.6321 180.645C43.5444 182.156 47.697 179.962 49.8812 178.078C52.0687 176.19 53.9501 173.516 54.6298 170.626C55.7026 173.935 57.6935 179.56 61.5046 180.352C70.6571 182.259 65.9149 167.782 61.9138 164.66C65.4639 165.578 75.222 166.741 76.0596 161.58C77.2709 154.125 67.1359 154.17 62.2359 155.321C64.1237 151.081 70.715 146.903 66.2693 142.109C65.7442 141.542 64.9291 141.664 65.1321 140.843L85.0896 133.437C84.9962 143.91 89.7319 154.554 94.6931 163.584C96.1976 166.319 99.0487 171.464 101.017 173.677C101.861 174.627 103.13 174.869 103.723 175.8C105.746 178.986 107.805 185.455 109.606 189.231C114.174 198.802 119.235 208.663 124.315 217.977C125.391 219.948 127.392 221.797 127.266 223.972C125.105 225.679 125.453 230.09 125.665 232.722C126.332 241.024 129.847 250.524 130.584 259.023C131.425 265.623 138.774 264.667 143.848 264.425C156.347 263.826 171.247 261.068 183.679 258.865C188.434 258.021 194.201 257.276 198.743 255.901C203.482 254.467 204.816 252.953 205.196 247.866C205.982 237.361 202.577 225.956 201.472 215.519C200.579 213.07 198.772 213.447 198.266 212.61C197.535 211.395 198.476 209.733 195.525 209.713C195.338 208.682 196.314 208.344 196.659 207.471C197.641 204.978 196.791 195.938 196.488 192.823C195.483 182.475 191.598 171.013 191.005 161.29C190.969 160.71 190.747 160.066 191.488 160.159C193.121 160.366 198.949 163.294 199.877 161.442C200.544 160.108 198.318 156.091 197.625 154.676C194.565 148.42 190.702 142.512 187.477 136.342C190.734 137.76 198.418 138.34 200.985 140.376C201.178 140.527 202.596 140.859 204.783 141.326C203.666 141.239 202.457 141.323 201.652 142.173C200.615 143.269 200.918 144.97 201.684 146.123C203.353 148.629 207.032 148.649 209.696 148.423C211.107 148.304 212.489 148.082 213.862 147.814C212.547 149.158 211.346 150.611 210.37 152.202C209.004 154.431 207.435 158.584 210.453 160.256C212.976 161.651 216.987 160.053 218.491 157.833C219.367 156.545 219.738 154.96 220.086 153.465C220.173 153.088 220.253 152.711 220.34 152.334C221.51 154.889 223.092 157.302 224.667 159.515C226.513 162.112 230.836 167.095 234.28 163.806C237.176 161.042 235.865 155.926 233.697 153.217C232.205 151.355 230.253 149.937 228.439 148.414C228.41 148.391 228.381 148.365 228.352 148.343C230.06 148.903 231.803 149.206 233.591 148.684C233.739 148.642 233.874 148.578 233.996 148.504C236.564 149.432 238.507 150.375 239.38 151.29C242.978 155.076 246.325 161.883 249.257 170.259C248.055 170.591 247.07 171.493 246.883 172.804C246.67 174.296 247.382 175.974 248.432 177.44C247.263 177.855 246.445 178.745 246.445 180.465C246.445 182.552 248.062 183.96 250.014 184.537C249.524 185.31 249.212 186.161 249.228 187.092C249.267 189.814 252.382 191.431 254.814 190.906C254.879 190.893 254.943 190.87 255.007 190.854C256.773 198.75 258.194 206.965 259.186 214.765C258.416 215.109 257.646 215.577 256.902 216.111C257.343 213.044 257.382 209.891 254.315 208.947C251.338 208.032 247.91 210.052 247.794 213.244C247.772 213.888 247.862 214.513 248.02 215.126C246.329 213.318 244.36 211.901 241.644 212.255C239.203 212.574 237.118 214.52 238.681 216.978C239.576 218.386 241.077 219.468 242.608 220.38C241.68 220.419 240.765 220.56 239.972 220.979C236.909 222.6 237.985 227.432 240.172 229.346C243.004 231.826 247.421 231.047 250.533 228.779C250.961 230.492 251.828 232.119 253.036 233.485C255.004 235.715 257.92 236.926 260.774 236.349C260.777 237.148 260.774 237.928 260.761 238.688C260.529 252.019 266.054 266.832 260.777 267.66C257.185 268.223 251.084 268.407 241.88 268.439C241.361 267.109 240.559 265.852 239.692 264.702C241.316 264.193 242.563 263.182 242.869 261.232C243.313 258.388 241.1 257.363 238.594 257.006C240.349 255.244 242.914 252.615 241.867 249.976C240.659 246.932 235.926 246.317 233.607 248.295C233.33 248.53 233.082 248.784 232.85 249.052C232.321 239.616 230.034 230.376 228.774 220.989C228.755 220.834 228.71 220.696 228.658 220.564C228.707 219.868 228.365 219.14 227.637 218.901C226.722 218.157 224.954 218.553 224.957 220.09C224.966 228.949 225.482 237.986 223.282 246.655C221.407 254.045 218.588 261.129 216.146 268.339C215.386 268.336 214.616 268.33 213.836 268.326C213.775 267.656 213.498 266.999 212.963 266.451C210.84 264.277 207.335 264.528 204.658 265.946C203.891 264.612 202.277 263.829 200.331 264.029C198.302 264.235 196.388 265.295 195.264 266.896C192.709 265.272 188.943 263.842 186.791 266.2C186.259 266.783 185.941 267.518 185.828 268.288L99.1292 268.275L97.3412 267.334C101.574 266.413 108.971 263.993 109.818 259.048C110.443 255.401 108.597 253.717 105.144 253.253C99.1034 252.441 94.8606 256.381 91.2267 260.572C91.8839 256.204 93.1403 252.541 91.9644 248.085C90.8111 243.717 85.9208 239.564 82.2192 244.004C78.7271 248.195 80.5859 255.708 81.5653 260.569C78.8044 258.017 75.9082 255.369 72.1615 254.364C61.5723 251.526 58.1284 261.123 67.7609 266.165L73.521 268.294L54.7071 267.901C54.7683 255.05 54.9713 242.203 54.9745 229.352C54.9745 228.866 54.8167 228.505 54.5718 228.25C54.3495 227.551 53.9726 226.923 53.4121 226.523C53.0706 226.195 52.568 226.047 52.0751 226.095C52.0107 226.095 51.9463 226.089 51.8786 226.092C50.3677 226.153 49.4205 227.322 48.7923 228.611C48.2962 228.505 47.7679 228.527 47.2557 228.692C46.7434 228.859 46.2731 229.133 45.8382 229.478C45.7641 228.553 45.632 227.635 45.4001 226.72C45.239 226.089 44.527 225.467 43.8473 225.538C39.8815 225.956 38.2901 229.355 37.9035 233.198C37.5684 232.767 37.227 232.345 36.8758 231.929C35.6419 230.473 34.0537 228.64 32.1498 228.092C29.3051 227.277 25.3813 230.183 25.3749 233.186C25.3684 235.785 27.8715 237.602 29.9495 238.662C31.0673 239.232 32.3109 239.77 33.5963 240.147C32.4204 243.172 33.4738 247.924 35.1136 249.97C36.6213 251.855 40.4936 253.182 42.4942 251.307C42.8131 251.007 43.0354 250.656 43.1836 250.276C41.8821 256.036 40.6418 261.809 39.3435 267.569L11.4706 266.989C-4.81437 267.093 8.86114 212.819 15.781 190.948L15.7617 190.954ZM207.844 202.072C208.485 201.895 209.084 201.637 209.661 201.334C209.013 202.89 208.578 204.514 208.44 206.125C208.14 209.642 210.08 212.832 213.514 213.898C216.033 214.681 218.018 213.247 218.845 210.892C219.661 208.576 219.603 205.905 219.432 203.46C219.522 203.615 219.615 203.766 219.712 203.915C220.756 205.525 222.154 206.601 223.897 207.387C226.661 208.637 230.701 209.272 232.318 205.992C233.455 203.695 231.906 201.56 230.118 200.19C227.921 198.512 225.285 197.439 222.724 196.447C226.088 195.722 229.216 194.318 229.138 190.613C229.058 186.824 224.844 187.195 222.312 188.151C220.685 188.767 219.258 189.582 218.121 190.916C218.076 190.558 218.021 190.197 217.931 189.843C217.557 188.329 216.652 187.056 215.569 185.961C213.804 184.176 210.044 182.762 208.994 186.083C208.466 187.758 209.232 189.614 210.147 191.173C209.487 191.122 208.814 191.106 208.127 191.115C206.536 191.135 204.79 190.867 203.218 191.164C199.97 191.776 200.09 195.2 201.143 197.652C202.303 200.348 204.642 202.958 207.841 202.069L207.844 202.072ZM111.49 237.557C109.142 238.833 104.49 243.23 107.074 246.004C109.467 248.575 113.443 243.762 115.04 242.225C115.205 243.662 114.812 245.521 115.04 246.893C115.527 249.825 119.551 251.294 122.141 250.453C125.578 249.335 120.002 242.154 121.474 241.095C121.935 240.763 123.036 240.998 123.442 240.395C123.935 239.661 122.717 234.532 122.199 233.614C121.877 233.044 121.326 233.028 121.097 232.445C120.669 231.343 120.762 229.507 120.353 228.063C119.644 225.58 117.086 221.353 114.902 225.19C113.542 227.58 114.316 230.341 114.393 232.889C112.428 231.652 106.713 228.44 105.302 231.684C103.482 235.872 111.513 237.042 111.49 237.557ZM71.8974 203.283C72.0745 204.056 71.7556 203.805 71.4753 203.998C67.9961 206.408 61.8848 211.43 64.4781 216.33C66.3176 219.806 70.0804 216.759 72.0488 215.18C74.5036 213.212 76.8424 210.751 79.2973 208.753C78.1085 212.796 76.9359 216.15 77.374 220.496C78.0828 227.548 86.1399 229.197 88.5496 222.02C90.0025 217.696 88.9587 213.45 88.6398 209.072C91.1687 212.213 93.7524 216.076 97.7504 217.5C105.157 220.135 109.158 213.972 104.545 207.813C101.407 203.621 98.0016 203.473 94.2002 201.109C93.8652 200.899 93.6364 201.125 93.7911 200.384C97.8148 200.242 104.612 198.937 106.407 194.81C109.064 188.689 102.215 186.805 97.5732 187.913C93.6107 188.857 90.8466 191.972 87.9987 194.591C89.123 190.168 89.9639 186.061 88.2435 181.631C85.9434 175.71 79.4326 175.471 77.5899 181.776C76.2787 186.26 77.7542 190.883 78.8237 195.229C75.0609 191.801 65.828 188.393 62.2391 193.464C58.238 199.114 67.1423 203.573 71.9006 203.283H71.8974Z" fill="#1259EA"/>
<path d="M116.642 67.4624L106.094 73.6446C105.231 75.1329 108.794 80.252 108.604 82.098C108.507 83.0515 104.757 86.3923 103.591 85.5128C102.886 84.978 101.085 81.9691 100.083 80.9672C96.3264 77.2076 93.6976 75.948 88.4658 77.7521C74.9804 82.404 84.7482 101.382 93.8909 105.506C96.8451 106.836 98.9166 107.181 101.851 105.615C102.393 105.329 104.793 103.264 105.06 103.515C106.03 109.201 109.132 114.14 111.816 119.127C109.535 118.592 108.23 116.198 106.507 114.781L104.1 111.559C103.424 117.01 104.123 123.708 105.882 128.923C107.885 134.874 113.687 139.783 118.259 143.907C125.755 150.672 133.777 156.957 141.448 163.529C147.356 168.594 153.979 175.51 160.274 179.788C160.542 179.969 160.58 180.246 161.077 180.107C162.291 176.705 163.731 173.381 164.949 169.976C166.94 164.415 171.54 150.956 170.049 145.553C169.939 145.163 169.916 144.119 169.298 144.387C168.853 144.583 167.436 145.943 166.785 146.384C163.322 148.723 159.994 150.376 155.726 150.778C155.258 150.823 154.495 151.123 154.643 150.34C160.046 147.811 165.79 144.103 167.996 138.263C170.86 130.682 164.933 135.531 161.718 136.813C156.785 138.778 153.061 138.662 147.936 137.406C145.658 136.848 142.52 136.03 141.119 134.087C149.414 135.057 157.797 135.544 165.361 131.446C169.949 128.959 173.26 125.228 176.05 120.892L176.215 123.144C178.202 121.407 179.929 118.769 181.301 116.485C189.845 102.246 192.438 84.3885 182.767 70.0139C180.28 70.9997 178.151 72.1562 175.371 72.2593C174.568 72.2883 172.722 71.4733 172.165 72.2722C171.827 72.7587 172.01 76.7051 171.06 77.7585C176.005 78.9344 179.43 89.0404 184.256 81.9465C187.284 89.253 178.528 92.5132 172.7 91.9559C171.134 99.1529 169.994 107.049 163.235 111.298C154.666 116.685 144.453 113.469 138.6 105.87C137.124 103.956 134.106 97.729 132.865 96.7979C132.356 96.4146 129.006 95.0583 128.565 95.2838C127.424 95.8669 127.73 98.3153 127.44 99.3268C125.011 96.8011 123.017 90.2517 126.335 87.9257C126.754 87.6326 128.948 86.4052 128.803 87.5102C128.639 88.7505 128.816 90.0777 130.159 90.4933C134.666 91.8915 139.196 85.4548 142.43 83.0999C142.952 82.7197 145.175 81.721 145.268 81.5922C145.571 81.1798 143.954 76.9853 146.17 76.2218C147.897 75.6258 146.931 76.8823 146.995 77.8455C147.076 79.0632 147.865 81.8434 149.347 81.9723C150.51 82.0722 152.259 79.6077 154.253 79.4466C159.137 79.0471 163.889 82.7874 168.331 77.1368C173.367 70.7323 163.386 67.9424 159.788 64.7434C157.356 62.5785 156.354 58.7352 152.62 59.5052C148.638 60.3234 149.814 66.0353 148.773 69.1763C146.077 77.3043 132.111 82.317 124.625 78.9795C120.491 77.1368 118.256 71.4185 116.648 67.4785L116.642 67.4624ZM86.7101 88.0611C86.6489 88.016 86.3815 86.8562 86.3718 86.6049C86.1109 80.9897 95.2053 82.127 97.3895 87.1977C98.3979 89.5398 96.8966 90.4901 97.3992 92.6614C97.7955 94.3721 100.982 94.633 100.073 96.4339C99.0132 98.5343 91.5714 95.8862 92.1932 91.4662C92.4799 89.4302 95.4921 87.6294 92.2995 85.8511C91.0076 85.1327 89.5451 84.9974 88.4562 86.1088C88.0696 86.5018 87.3512 88.5185 86.7101 88.0578V88.0611ZM149.808 118.959H156.408C157.613 118.959 160.867 118.057 162.127 117.593C162.565 117.432 167.742 114.523 167.513 115.254C163.986 120.541 157.691 122.161 151.753 120.07C151.135 119.851 150.088 119.6 149.808 118.959Z" fill="#FCFCFC"/>
<path d="M194.558 212.935C193.762 212.548 190.309 212.358 191.156 210.686C191.61 209.788 193.379 210.058 192.922 208.94C192.464 207.822 190.154 208.634 189.806 206.92C188.969 202.784 189.217 197.217 188.759 192.823C187.574 181.396 185.654 169.937 182.638 158.868C181.166 160.06 182.503 162.601 182.638 164.183C182.844 166.625 182.819 168.349 181.495 170.433C180.976 171.251 174.127 178.529 173.631 177.855L173.947 174.959C170.983 175.069 170.293 179.163 167.832 180.104C166.663 178.774 171.746 172.482 172.806 171.403C174.675 169.502 179.607 166.583 179.41 163.571C179.23 160.82 174.968 158.417 178.144 155.82C181.93 152.724 191.858 157.734 196.159 158.217C191.523 147.979 185.551 138.317 178.934 129.255C178.296 131.333 175.879 134.886 175.573 136.835C174.739 142.144 176.041 146.384 174.427 152.424C172.226 160.665 168.212 168.774 165.332 176.805C164.42 179.347 163.032 181.67 163.737 184.353C165.648 191.631 168.721 196.109 168.161 204.414C168.128 204.904 168.09 206.324 167.507 206.492C164.43 197.626 164.436 187.713 157.204 180.903C143.168 167.685 126.719 155.991 112.444 142.934C111.026 141.639 107.186 137.096 106.017 136.481C105.07 135.982 103.791 138.958 104.077 139.229C104.902 139.223 108.282 139.355 108.581 140.038C109.106 141.239 105.527 141.909 105.369 142.631C107.943 146.03 111.79 151.803 109.618 156.194C107.876 159.718 106.159 153.829 105.682 153.391C104.851 152.624 104.586 156.261 103.423 155.491C101.935 154.509 102.534 147.74 101.497 145.988C101.184 145.743 99.6381 149.416 99.564 149.847C96.6549 148.874 98.1368 144.335 97.6439 142.351C97.6053 142.193 95.885 140.811 95.434 139.983C92.177 134.02 98.1465 138.382 98.6008 137.94C98.4236 137.061 96.8192 130.93 98.1175 130.869C99.1613 130.821 100.679 134.374 100.859 135.366C104.822 133.556 101.993 131.191 101.023 128.601C99.7831 125.286 99.3707 121.688 100.53 118.311C100.005 117.748 95.9784 121.974 95.5371 122.49C94.0036 124.287 92.3509 126.662 91.6937 128.946C88.9361 138.52 98.2399 155.884 101.739 165.221C102.067 166.094 103.224 170.575 103.462 170.739C104.277 171.319 107.776 168.896 108.555 168.329C113.346 164.837 118.049 157.154 124.889 158.816C130.468 160.172 127.121 165.549 127.885 169.66C127.869 170.568 128.593 171.081 129.286 171.477C135.082 174.789 141.531 175.42 147.514 179.969C148.155 180.458 151.747 183.261 151.083 183.964C147.388 184.386 143.918 185.636 140.133 185.252C140.265 188.851 143.003 190.842 141.85 194.852C141.18 197.185 138.232 198.47 136.151 197.117C135.423 196.644 134.019 194.169 134.019 193.457V188.47C133.394 188.326 133.4 188.699 133.113 189.012C132.15 190.068 131.145 191.483 129.995 192.33C125.913 195.329 120.858 191.554 125.968 186.695C126.348 186.335 129.331 184.408 128.867 183.967C126.074 183.902 120.317 181.209 122.408 177.669C124.441 174.228 132.669 179.888 133.052 179.46C134.743 175.736 125.649 173.6 125.649 172.221V164.979C119.866 165.353 115.002 168.845 110.237 171.789L110.189 172.192C115.572 187.839 123.739 202.307 130.987 217.12C131.548 218.753 129.119 218.853 128.871 220.183C128.584 221.711 129.608 220.612 130.468 220.496C129.966 221.227 130.137 222.226 130.182 223.057C130.211 223.26 130.349 223.192 130.475 223.234C130.829 222.59 131.751 222.181 132.408 221.946C132.414 220.428 132.124 218.431 133.577 217.481C134.431 216.923 140.884 215.422 141.876 215.512C144.028 215.712 143.696 218.853 144.762 218.695C145.262 218.621 147.61 216.36 148.003 215.809C149.092 214.275 150.046 210.825 151.235 209.707C152.762 208.27 158.86 207.484 159.131 207.136C157.529 204.485 154.008 204.346 153.158 201.031C151.653 195.149 162.581 196.988 162.056 202.803C161.924 204.256 158.721 205.474 160.397 206.682C160.796 206.969 164.82 206.395 166.018 206.534C172.236 207.255 172.458 210.735 176.195 214.224C177.049 214.539 177.874 214.555 178.769 214.546C179.275 213.209 177.242 211.646 177.184 211.45C176.675 209.736 179.278 209.204 180.377 208.911C181.939 208.492 186.759 207.481 188.025 208.032C189.291 208.583 189.906 211.73 189.252 212.639C188.791 213.28 183.608 213.315 182.632 214.227C186.498 213.914 190.776 213.067 194.545 212.938L194.558 212.935ZM149.257 201.737C150.075 201.92 152.072 203.534 152.53 204.259C154.575 207.516 150.378 206.969 149.021 208.444C147.272 210.348 147.317 215.416 143.132 213.653C138.948 211.891 147.121 206.843 147.211 206.289C147.314 205.67 145.217 204.778 146.183 202.71C146.699 201.611 148.206 201.498 149.257 201.734V201.737Z" fill="#1259EA"/>
<path d="M81.5587 36.2455C84.1231 35.8396 83.4272 34.9601 83.9524 33.33C84.3679 32.0413 87.2061 29.9989 88.6429 30.6174L87.6765 33.3493C89.2744 32.7823 91.871 31.9769 93.1402 33.5104C93.1274 34.0065 89.6255 34.9987 88.9619 35.2855L93.4624 38.6616C91.7679 40.4045 89.661 38.9226 87.6765 38.8227C88.6236 41.1326 90.3665 44.2059 86.4008 44.28L85.096 39.7892C84.6128 39.4284 83.9234 42.2762 83.8074 42.3632C82.9537 42.9946 82.6154 40.572 82.8441 40.1114C82.5542 40.1114 82.3351 40.4077 82.2643 40.6655C81.7875 42.389 84.3132 49.8694 85.3537 51.6059C85.5084 51.8636 85.2571 52.1471 85.9014 52.015C91.0462 46.5512 96.6389 41.5675 103.03 37.5953C106.671 35.3338 119.538 28.2979 123.249 28.5137C123.52 28.5299 124.37 28.3656 124.054 29.0002C123.739 29.6348 118.423 32.531 117.411 32.982C110.108 36.2455 105.695 37.5599 98.9745 42.5501C87.1514 51.3288 79.0395 64.7724 73.1956 78.0871C79.9673 68.4063 89.1069 60.5908 98.9068 54.0671C125.768 36.1811 154.066 30.6013 186.024 35.6205C186.243 35.6559 187.216 36.1263 187.155 35.4433C187.081 34.6122 173.583 29.6316 171.814 28.9003C169.878 28.1014 167.916 26.787 165.909 26.1137C161.27 24.5544 151.576 25.2213 146.438 25.6304C139.566 26.1749 132.856 28.0047 125.994 28.198L128.349 26.8546C139.015 23.2239 150.555 23.2884 161.727 23.3721C162.014 23.1209 158.287 17.38 157.874 16.7679C155.564 13.337 148.525 3.9687 144.74 2.8637C139.289 1.27225 129.325 2.3998 123.671 3.51768C111.023 6.01761 92.9824 15.0605 84.616 24.9829C81.752 28.3784 80.4376 31.7514 81.5652 36.2519L81.5587 36.2455ZM135.961 10.502C131.705 8.8107 137.498 8.28236 139.524 8.71083C140.884 8.99755 142.005 10.4279 142.285 10.4762C142.707 10.5503 144.031 8.92345 144.982 8.69794C146.918 8.24048 146.895 9.36803 145.623 10.4924C146.856 10.9853 148.342 11.0175 149.505 11.6038C150.268 11.9872 152.536 14.2229 150.613 14.0393C149.286 13.9136 147.968 13.0793 146.589 13.0728L149.108 15.5405C149.695 16.3749 150.294 17.1223 150.13 18.2176C147.826 18.0276 146.225 16.1655 144.015 15.6468C143.935 17.9889 145.845 19.6996 146.277 21.9096C142.34 24.1195 141.818 18.0018 141.161 15.4342C141.08 15.1153 141.286 14.4098 140.639 14.6804C139.411 15.1958 137.011 19.6867 136.132 19.503C135.101 19.2872 135.575 14.5 136.924 13.8685C136.412 13.6173 132.472 15.4568 132.421 14.835C132.421 13.9781 133.155 12.973 133.709 12.3544C134.309 11.6875 135.452 11.2269 135.961 10.4988V10.502ZM103.088 16.2557C103.172 16.1816 103.201 15.4503 103.378 15.1121C104.226 13.5013 105.988 12.0838 107.818 11.81C108.294 11.7391 108.726 11.5909 108.594 12.2642L107.312 14.0361C109.396 13.5657 112.28 12.4446 113.742 14.5193C113.752 14.9993 109.76 15.8949 109.055 16.2589C108.813 16.3846 108.021 16.3846 108.597 16.929C108.662 16.9902 109.831 17.1255 110.295 17.3253C110.91 17.5894 114.986 19.2969 114.39 20.1441C111.487 21.0558 108.591 20.0249 105.698 19.8284C106.581 21.6486 110.347 25.9687 110.53 27.7406C110.685 29.2354 108.559 30.5916 107.467 31.4099C107.46 29.8024 104.503 21.7356 103.275 21.436C101.79 21.0719 100.527 27.3185 100.221 27.5505C99.6027 28.0144 98.4655 25.5338 98.3656 25.0667C98.0789 23.6943 98.4043 22.4443 98.6137 21.117L97.6472 21.5971L95.3986 23.6911C94.5448 20.4019 96.7484 16.9419 100.141 16.3653C100.811 16.2525 102.937 16.3878 103.088 16.2525V16.2557Z" fill="#1259EA"/>
<path d="M102.483 68.7477C102.934 69.2503 107.379 65.5938 108.043 65.1364C118.407 58.0071 127.917 53.3712 140.938 53.2875C145.793 53.2553 151.318 55.7004 155.619 53.4808C156.75 52.8977 157.636 51.9086 158.921 51.3094C163.099 49.3604 169.059 48.6774 173.634 48.1555C173.482 42.8239 172.506 41.1841 167.265 40.1951C150.977 37.1185 128.41 44.3895 114.177 52.2823C112.092 53.4389 106.98 56.0322 106.271 58.2165C105.833 59.5631 106.2 60.6971 105.872 62.0018C105.501 63.4708 101.574 67.7329 102.483 68.751V68.7477Z" fill="#FCFCFC"/>
<path d="M169.192 219.468C153.403 218.743 139.334 233.318 147.433 248.942C152.317 258.369 160.748 258.172 170.21 256.987C196.304 253.717 193.804 220.599 169.192 219.468ZM152.816 227.854C160.509 220.061 178.367 219.629 183.669 230.415C188.073 239.374 184.642 250.514 175.135 254.187C168.067 256.919 163.019 253.794 157.378 249.944C156.608 250.424 157.153 250.862 157.536 251.391C158.583 252.84 160.413 253.585 161.395 255.089C155.787 255.798 150.825 250.524 149.15 245.611C147.066 239.503 148.229 232.496 152.816 227.851V227.854Z" fill="#FCFCFC"/>
<path d="M139.183 97.7193C140.007 102.829 150.197 101.353 154.111 100.896C158.177 100.419 166.853 99.649 167.191 94.501L139.183 97.7193Z" fill="#FCFCFC"/>
<path d="M144.292 68.3836C144.514 68.2483 145.204 65.8192 145.262 65.336C145.745 61.4025 144.772 57.5237 140.265 57.2016C131.911 56.6024 138.271 62.0275 140.603 64.9172C141.296 65.7774 142.945 69.2083 144.292 68.3868V68.3836Z" fill="#FCFCFC"/>
<path d="M183.608 61.9889C183.615 59.4535 183.779 52.2888 181.041 51.2031C179.462 50.5782 174.169 50.3462 175.4 52.9718C177.816 55.2397 179.662 58.3002 181.836 60.7067C182.075 60.9677 183.305 62.3465 183.608 61.9889Z" fill="#FCFCFC"/>
<path d="M146.267 109.307C148.628 111.446 153.006 111.839 156.096 111.569C157.162 111.475 163.051 110.167 162.04 108.666C161.895 108.45 157.645 107.474 157.011 107.413C153.561 107.068 149.331 107.658 146.267 109.31V109.307Z" fill="#FCFCFC"/>
<path d="M91.3747 268.613C92.4797 268.268 91.3747 265.321 90.8947 264.586C89.735 262.818 87.7054 262.431 85.7273 262.969C83.5463 263.562 81.5329 268.613 83.0051 268.613C84.6546 268.613 90.3084 268.945 91.3747 268.613Z" fill="#FCFCFC"/>
<path d="M152.063 217.761C153.396 218.969 154.424 213.715 155.291 213.428C158.589 212.265 165.223 212.316 168.07 210.757C169.127 210.18 168.351 209.491 167.371 209.378C163.341 208.914 158.029 210.822 154.005 211.498C153.606 211.765 151.821 217.542 152.066 217.761H152.063Z" fill="#FCFCFC"/>
<path d="M153.673 93.8597C153.593 94.4106 154.437 94.2012 154.791 94.1722C157.562 93.9499 160.584 93.0479 163.39 92.7869L168.802 91.2825C167.23 91.1568 162.449 88.1543 161.305 88.4314C160.951 88.5151 158.557 91.2116 157.639 91.8623C156.454 92.7032 155.071 93.4377 153.677 93.8565L153.673 93.8597Z" fill="#FCFCFC"/>
<path d="M132.421 221.946C131.767 222.181 130.842 222.59 130.488 223.234C132.182 223.808 138.419 222.558 140.526 222.168C142.005 221.894 149.079 220.441 149.801 219.691C150.252 219.22 149.775 219.108 149.324 219.053C148.38 218.934 146.792 218.995 145.816 219.091C142.601 219.417 135.41 220.876 132.417 221.949L132.421 221.946Z" fill="#FCFCFC"/>
<path d="M186.214 222.938C185.58 223.882 186.855 224.822 187.915 224.816C188.801 224.81 197.731 223.15 198.211 222.861C198.972 222.403 198.746 221.781 198.746 220.979C197.226 220.918 186.572 222.41 186.218 222.938H186.214Z" fill="#FCFCFC"/>
<path d="M131.686 227.193C130.642 226.32 129.131 226.926 128.887 228.231C128.642 229.535 128.732 234.593 130.34 234.838C133.394 235.305 133.339 228.575 131.686 227.193Z" fill="#FCFCFC"/>
<path d="M143.799 228.428C143.132 228.209 134.412 229.777 134.022 230.148C133.113 231.015 134.151 232.277 135.475 232.274C136.544 232.271 142.172 231.259 143.126 230.879C143.983 230.538 144.94 228.805 143.796 228.428H143.799Z" fill="#FCFCFC"/>
<path d="M194.558 212.935C190.789 213.064 186.511 213.911 182.645 214.224C181.314 214.33 180.135 214.53 178.782 214.546C177.883 214.559 177.059 214.539 176.208 214.224C177.178 215.129 177.645 215.886 179.249 215.847L197.78 213.576C197.309 212.59 195.512 212.903 194.561 212.935H194.558Z" fill="#FCFCFC"/>
<path d="M175.338 56.8956C174.182 56.5606 173.602 57.3595 174.198 58.3679C175.013 59.1378 179.774 65.3071 180.219 65.2105C180.39 65.1718 180.931 64.5662 180.992 64.3407C181.266 63.3001 176.373 57.1952 175.338 56.8989V56.8956Z" fill="#FCFCFC"/>
<path d="M136.373 180.481C133.857 180.081 132.595 184.808 134.898 185.516C138.519 186.628 139.482 180.974 136.373 180.481Z" fill="#FCFCFC"/>
<path d="M135.021 63.9476C134.321 64.927 136.683 66.6086 137.24 67.3109C137.83 68.0519 140.23 71.7985 140.948 71.6439C142.733 71.2605 139.463 67.1337 138.989 66.5281C138.429 65.8161 136.064 62.485 135.024 63.9444L135.021 63.9476Z" fill="#FCFCFC"/>
<path d="M189.503 217.535C187.413 220.132 191.784 222.464 193.411 219.997C195.038 217.529 191.076 215.583 189.503 217.535Z" fill="#FCFCFC"/>
<path d="M115.037 246.89C115.524 249.822 119.547 251.291 122.137 250.45C125.575 249.332 119.998 242.151 121.471 241.091C121.931 240.76 123.033 240.995 123.439 240.392C123.932 239.658 122.714 234.529 122.195 233.611C121.873 233.041 121.322 233.025 121.094 232.442C120.665 231.34 120.759 229.504 120.349 228.06C119.641 225.576 117.083 221.35 114.899 225.187C113.539 227.577 114.312 230.338 114.39 232.886C112.424 231.649 106.709 228.437 105.298 231.681C103.478 235.869 111.51 237.039 111.487 237.554C109.138 238.83 104.487 243.227 107.07 246.001C109.464 248.572 113.439 243.759 115.037 242.222C115.201 243.659 114.808 245.518 115.037 246.89ZM115.45 234.909C117.808 232.545 121.342 236.356 118.748 238.688C116.41 240.792 113.455 236.91 115.45 234.909Z" fill="#19191A"/>
<path d="M86.71 88.0609C87.3511 88.5216 88.0695 86.5049 88.4561 86.1119C89.545 85.0004 91.0076 85.1357 92.2994 85.8542C95.492 87.6325 92.4798 89.4301 92.1931 91.4693C91.5745 95.8893 99.0131 98.5342 100.073 96.437C100.982 94.6361 97.7954 94.3752 97.3991 92.6645C96.8966 90.4964 98.3978 89.5428 97.3895 87.2008C95.2052 82.13 86.1076 80.9928 86.3717 86.608C86.3846 86.8593 86.652 88.019 86.71 88.0641V88.0609Z" fill="#19191A"/>
<path d="M149.807 118.959C150.088 119.6 151.135 119.855 151.753 120.07C157.691 122.161 163.985 120.541 167.513 115.254C167.742 114.523 162.565 117.432 162.127 117.593C160.867 118.057 157.616 118.959 156.408 118.959H149.807Z" fill="#19191A"/>
<path d="M149.256 201.737C148.206 201.502 146.695 201.611 146.183 202.713C145.217 204.781 147.314 205.674 147.211 206.292C147.117 206.846 138.902 211.875 143.132 213.657C147.362 215.438 147.272 210.351 149.021 208.447C150.378 206.969 154.575 207.52 152.53 204.263C152.075 203.538 150.078 201.924 149.256 201.74V201.737Z" fill="#19191A"/>
<path d="M182.645 214.224C183.621 213.312 188.807 213.277 189.265 212.636C189.916 211.727 189.326 208.592 188.038 208.029C186.749 207.465 181.952 208.489 180.39 208.908C179.291 209.201 176.688 209.733 177.197 211.447C177.255 211.643 179.291 213.206 178.782 214.543C180.138 214.527 181.314 214.327 182.645 214.221V214.224Z" fill="#19191A"/>
<path d="M103.088 16.2557C102.937 16.391 100.811 16.2557 100.14 16.3684C96.7482 16.9451 94.5446 20.405 95.3984 23.6943L97.647 21.6002L98.6135 21.1202C98.4041 22.4475 98.0819 23.6975 98.3654 25.0699C98.462 25.537 99.5993 28.0176 100.221 27.5537C100.527 27.325 101.79 21.0751 103.275 21.4392C104.502 21.7388 107.46 29.8056 107.466 31.4131C108.555 30.5981 110.685 29.2386 110.53 27.7438C110.346 25.9719 106.58 21.6518 105.698 19.8316C108.591 20.0281 111.487 21.059 114.389 20.1473C114.985 19.3001 110.907 17.5926 110.295 17.3285C109.828 17.1287 108.658 16.9902 108.597 16.9322C108.02 16.3878 108.813 16.3878 109.055 16.2621C109.76 15.8981 113.752 15.0025 113.742 14.5225C112.279 12.4478 109.396 13.5689 107.312 14.0392L108.594 12.2674C108.726 11.5909 108.294 11.7423 107.817 11.8132C105.988 12.087 104.225 13.5045 103.378 15.1152C103.201 15.4535 103.172 16.1848 103.088 16.2589V16.2557Z" fill="#19191A"/>
<path d="M135.961 10.5019C135.452 11.23 134.305 11.6907 133.709 12.3575C133.152 12.9761 132.417 13.9812 132.421 14.8381C132.472 15.4599 136.412 13.6204 136.924 13.8716C135.575 14.5031 135.101 19.2903 136.132 19.5062C137.011 19.6898 139.411 15.1989 140.639 14.6835C141.286 14.4129 141.08 15.1184 141.161 15.4373C141.821 18.0049 142.34 24.1226 146.277 21.9127C145.848 19.7027 143.934 17.992 144.015 15.6499C146.225 16.1686 147.823 18.0307 150.129 18.2208C150.297 17.1222 149.695 16.378 149.108 15.5436L146.589 13.0759C147.968 13.0824 149.285 13.9168 150.613 14.0424C152.536 14.2228 150.268 11.9903 149.505 11.6069C148.342 11.0206 146.853 10.9916 145.623 10.4955C146.892 9.37113 146.918 8.24359 144.981 8.70105C144.031 8.92656 142.707 10.5534 142.285 10.4793C142.005 10.431 140.88 9.00065 139.524 8.71394C137.501 8.28547 131.705 8.8138 135.961 10.5051V10.5019Z" fill="#19191A"/>
<path d="M152.816 227.854C148.229 232.503 147.066 239.506 149.15 245.614C150.829 250.527 155.787 255.801 161.395 255.092C160.41 253.588 158.58 252.844 157.536 251.394C157.156 250.866 156.611 250.427 157.378 249.947C163.019 253.797 168.067 256.922 175.135 254.19C184.642 250.518 188.073 239.377 183.669 230.418C178.367 219.633 160.509 220.061 152.816 227.857V227.854ZM160.429 225.812C160.925 226.343 157.874 229.358 157.401 230.022C154.939 233.463 154.108 236.166 154.318 240.447C154.363 241.362 155.667 244.661 153.86 244.123C152.497 243.717 152.559 237.573 152.7 236.265C153.103 232.545 156.727 227.007 160.429 225.808V225.812ZM168.48 227.097C168.586 226.991 170.983 227.094 171.46 227.171C173.889 227.574 178.225 230.322 179.172 232.657C179.436 233.305 179.517 234.362 178.624 234.171C178.412 234.126 176.45 231.62 175.667 231.008C175.058 230.534 173.995 229.816 173.305 229.507C172.249 229.03 169.282 228.566 168.805 228.212C168.47 227.964 168.309 227.261 168.476 227.094L168.48 227.097ZM166.949 231.688C169.095 231.949 171.128 233.182 172.51 234.819C179.32 242.902 167.42 254.135 161.076 245.605C157.001 240.122 159.24 230.753 166.949 231.688Z" fill="#19191A"/>
<path d="M85.8275 196.595C79.2458 195.242 78.4533 206.022 85.5858 205.216C90.3215 204.682 89.951 197.443 85.8275 196.595Z" fill="#FCFCFC"/>
<path d="M115.45 234.909C113.455 236.91 116.406 240.788 118.748 238.688C121.345 236.356 117.811 232.544 115.45 234.909Z" fill="#FCFCFC"/>
<path d="M166.949 231.687C159.24 230.753 157.001 240.122 161.076 245.605C167.417 254.139 179.32 242.902 172.51 234.819C171.131 233.182 169.098 231.948 166.949 231.687Z" fill="#FCFCFC"/>
<path d="M160.429 225.812C156.727 227.01 153.106 232.548 152.7 236.269C152.559 237.58 152.497 243.723 153.86 244.126C155.667 244.661 154.363 241.362 154.318 240.45C154.108 236.169 154.939 233.466 157.401 230.025C157.874 229.362 160.925 226.346 160.429 225.815V225.812Z" fill="#FCFCFC"/>
<path d="M168.479 227.097C168.309 227.265 168.47 227.967 168.808 228.215C169.285 228.569 172.252 229.033 173.309 229.51C173.998 229.823 175.061 230.538 175.67 231.011C176.453 231.62 178.415 234.13 178.627 234.175C179.52 234.365 179.439 233.308 179.175 232.661C178.228 230.325 173.892 227.577 171.463 227.174C170.986 227.094 168.589 226.994 168.483 227.1L168.479 227.097Z" fill="#FCFCFC"/>
<path d="M55.055 158.703C55.5318 159.299 55.8958 159.985 56.1213 160.717C56.3179 161.351 56.4016 162.073 56.0859 162.659C55.9571 162.901 55.7638 163.107 55.5576 163.291C54.8295 163.941 53.863 164.347 52.8869 164.318C51.9108 164.289 50.9379 163.79 50.4224 162.962C50.2646 162.708 50.1486 162.427 50.0487 162.144C49.849 161.58 49.7105 160.952 49.9263 160.391C50.0423 160.088 50.2549 159.831 50.4611 159.583C51.666 158.133 53.47 156.719 55.055 158.7V158.703Z" fill="white"/>
<path d="M216.526 194.26C217.157 195.252 217.599 196.363 217.815 197.517C217.914 198.042 217.963 198.605 217.734 199.089C217.557 199.462 217.222 199.749 216.858 199.946C215.827 200.5 214.496 200.384 213.52 199.743C212.544 199.102 211.919 197.98 211.787 196.817C211.716 196.205 211.806 195.513 212.28 195.116C212.57 194.872 212.96 194.785 213.333 194.723C214.793 194.488 216.3 194.566 217.724 194.949" fill="white"/>
<path d="M250.691 219.172C251.557 219.05 252.536 218.953 253.219 219.501C253.606 219.81 253.828 220.277 254.006 220.741C254.337 221.608 254.556 222.519 254.653 223.444C254.692 223.818 254.698 224.236 254.444 224.51C254.263 224.707 253.989 224.787 253.732 224.855C252.617 225.155 251.306 225.412 250.401 224.694C249.924 224.314 249.66 223.724 249.492 223.138C249.299 222.468 249.209 221.743 249.412 221.076C249.615 220.409 250.159 219.813 250.848 219.71" fill="white"/>
<path d="M252.421 178.052C252.285 179.334 252.433 180.649 252.855 181.87C251.818 180.829 251.196 179.389 251.154 177.923C251.367 177.73 251.728 177.797 251.94 177.988C252.153 178.178 252.259 178.464 252.359 178.735C252.881 180.169 253.403 181.599 253.922 183.033C253.058 182.314 252.388 181.37 252.002 180.317" fill="white"/>
<path d="M217.032 143.485C219.396 142.986 222.012 144.045 223.362 146.046C223.446 146.172 223.529 146.304 223.555 146.455C223.629 146.858 223.291 147.215 222.943 147.431C221.445 148.372 219.454 148.063 217.879 147.267C216.304 146.471 214.979 145.254 213.485 144.313C213.301 144.197 213.092 144.042 213.108 143.826C213.13 143.54 213.504 143.456 213.791 143.453C215.572 143.417 217.354 143.408 219.135 143.43" fill="white"/>
</svg>
