<svg width="332" height="195" viewBox="0 0 332 195" fill="none" xmlns="http://www.w3.org/2000/svg">
<path d="M164.278 31.4062C167.981 31.6358 180.283 34.9318 182.098 37.65C186.483 44.2123 169.655 46.1157 166.166 46.2416C157.789 46.5527 146.502 45.5306 138.377 43.6197C135.073 42.842 131.318 40.9385 128.341 40.3312C127.637 40.1905 125.593 39.7757 125.808 41.02C137.94 46.5527 155.686 50.2635 169.01 49.0784C172.81 48.7377 180.135 45.9084 183.002 46.3602C186.438 46.8935 187.66 52.8928 184.253 54.7C179.646 57.1442 154.382 57.0553 148.353 56.5961C144.206 56.285 124.423 51.0634 123.223 51.53C122.993 51.6189 120.564 54.5223 119.882 55.0852C124.112 55.2037 128.215 58.3441 132.274 59.3514C146.568 62.8769 174.795 63.699 188.238 57.9441C191.112 56.7146 196.682 54.5 194.845 50.8412C193.771 48.7007 186.831 44.7159 186.083 43.2494C185.572 42.2495 186.757 40.1386 186.512 38.4795C185.846 33.9171 171.425 30.6359 167.248 29.9249C166.04 28.9472 167.344 28.5843 168.344 28.4509C173.003 27.8214 185.727 31.7469 188.682 35.5095C189.853 36.9982 189.393 38.7906 190.401 40.0942C193.637 44.2493 203.296 49.6265 205.221 54.5C205.584 55.4185 207.258 61.9437 207.088 62.351C206.954 62.6547 202.999 66.4099 202.385 66.9209C198.955 69.7725 196.141 69.3947 194.971 74.2979C193.526 80.3269 193.319 86.7337 193.889 92.8367C198.281 92.77 203.073 92.8441 207.384 93.7773C209.717 94.281 214.709 96.9029 216.094 96.1993C218.805 94.8217 216.924 81.275 221.642 79.49L314.58 100.614C316.543 102.065 311.499 111.568 310.41 113.494C309.544 115.027 307.299 115.619 307.877 117.99C313.78 118.76 327.371 122.256 330.393 127.67C334.896 135.736 325.957 154.719 319.017 159.83C310.225 166.303 301.9 165.029 291.716 163.992C290.694 164.622 286.139 183.516 282.272 185.99C280.354 187.212 277.991 186.871 275.873 186.612C264.963 185.271 253.372 180.183 242.366 178.665C212.665 191.108 174.417 193.848 144.317 181.249C142.51 180.494 138.88 177.479 137.273 177.472C135.666 177.465 130.215 182.257 128.03 183.494C103.403 197.485 67.0583 196.522 40.7056 187.893C27.2181 183.479 19.0338 179.331 12.9456 166.066C9.06452 157.622 -0.275228 130.61 0.00622305 122.167C0.435807 109.642 15.8786 103.169 25.5294 98.7546C26.0923 88.3112 17.2933 75.2163 30.2993 69.5206C18.0487 62.3584 9.37559 48.834 6.61293 35.1169C16.2712 34.5021 25.1591 32.3172 34.7359 35.1169L31.788 15.8819C38.8613 17.2151 46.8605 19.8222 52.7487 24.1477C54.1041 25.1402 58.8962 30.6729 59.8961 29.9397C61.3552 25.4513 63.3106 21.1925 66.5325 17.6966L83.9676 4.06096C84.9823 4.12021 90.2929 20.7481 90.2633 23.2811L122.082 7.00882C122.645 17.2522 123.438 27.3696 121.141 37.5093C119.608 44.2641 116.298 47.1823 112.083 52.1373C111.587 52.7225 110.15 53.6261 111.342 54.3593C112.883 53.0335 115.172 53.3446 116.846 52.4632C123.534 48.9377 123.4 36.6057 127.615 33.6282C131.126 31.147 141.702 31.021 146.05 31.5099C154.212 32.4283 148.776 34.317 149.531 36.8575C150.59 40.4127 168.633 41.6866 165.389 35.1243C163.055 30.4063 161.167 36.5612 160.856 36.6501C159.989 36.8797 155.33 36.7242 154.619 36.265C152.997 35.2132 154.945 33.0727 154.612 31.8728C154.219 30.4952 144.443 29.2731 142.473 29.1694C137.458 28.9102 132.94 29.9693 128.015 29.9323C127.763 28.7694 128.37 28.3917 129.118 27.7103C132.859 24.2958 147.183 25.9697 152.405 25.4661L157.982 3.2981C158.982 -1.93097 170.188 -0.323764 170.788 3.82394C170.981 5.12751 168.988 14.6969 168.507 16.7855C167.381 21.7183 165.455 26.503 164.263 31.4136L164.278 31.4062ZM156.915 28.4139C157.493 28.8953 159.478 28.325 160.263 27.7621C162.456 26.1919 165.759 11.9046 165.818 8.83823C165.885 5.20899 163.952 0.95019 161.456 5.27565C160.856 6.31999 156.471 21.5332 156.278 23.096C156.16 24.0959 156.552 28.1028 156.915 28.4065V28.4139ZM82.8566 9.21598C82.3085 8.70492 78.109 12.3046 77.3313 12.9341C71.6504 17.4596 66.5991 22.1257 63.829 29.0287C61.5478 34.7096 66.3473 38.1388 68.073 43.2494L69.9395 42.5458C70.8727 38.6425 87.0784 26.903 87.308 25.7105C88.0561 21.8443 83.0418 13.5637 82.8566 9.22339V9.21598ZM118.386 31.7766C118.927 26.2586 117.986 19.9926 118.386 14.3858C110.239 19.3186 100.277 20.6444 92.7223 26.5475C93.5074 28.1769 94.2702 42.531 95.0776 42.5161C96.744 42.4865 100.077 35.5836 101.358 33.9985C103.403 31.4655 106.306 29.1249 108.758 26.9696C110.543 30.8433 99.4771 37.7907 101.373 40.2867C103.558 38.4869 105.662 37.8944 108.35 37.2797C109.439 37.0278 110.52 35.7909 110.239 37.687C105.802 40.5386 100.351 41.5088 97.7662 46.6787C95.9219 50.3746 97.9958 52.7447 97.6625 56.5665C107.743 53.8779 117.357 42.1754 118.386 31.7766ZM64.3475 58.0404C69.3322 40.0497 52.7487 25.9327 36.9726 21.7924C36.5283 25.9845 37.3208 29.6064 38.0688 33.6356C39.2094 39.7238 41.8832 51.9003 43.8238 57.4849C46.1939 64.3138 55.5114 69.3947 62.1329 70.6316C62.6292 64.0768 61.5922 55.774 54.5041 53.4779L46.5938 50.6486C48.9121 46.6786 51.5637 49.6857 54.7337 49.9079C54.2152 45.4343 51.0674 42.1976 48.7714 38.635C48.4899 38.2055 47.6234 38.0722 47.5567 37.924C47.3863 37.5389 47.9789 35.3169 47.3419 34.3762C48.4751 33.1764 52.4969 39.8349 53.5709 40.3534L64.3549 58.0478L64.3475 58.0404ZM89.5152 31.4062C88.4486 31.2877 87.5895 31.3692 86.5896 31.8136C73.902 37.4574 64.5253 57.4183 67.4657 70.8465C67.9842 73.2018 70.8505 76.2459 71.7171 72.4463C72.9096 67.2098 78.0794 46.5157 82.3678 44.2789C82.8122 44.0493 87.1673 42.2865 86.5451 44.353C86.16 45.6343 84.2121 47.2712 83.4492 48.6636C82.5752 50.2561 78.1534 58.4329 79.1533 59.5365C82.2789 58.5811 85.086 56.5443 88.2931 55.7073C89.256 55.4555 89.1152 54.6704 90.2484 56.211C87.7598 57.7664 83.464 63.0991 80.9902 63.9805C80.4939 64.1583 80.9309 61.4845 79.1607 62.5066C75.9759 67.906 75.3537 74.0387 75.45 80.2528C75.9389 80.8157 79.5459 77.8161 80.2421 77.2754C86.6488 72.313 92.1593 67.2542 93.6259 58.8255C94.8554 51.767 89.2634 39.2202 89.5078 31.4136L89.5152 31.4062ZM39.1798 55.0852C38.254 51.4337 37.0097 41.8051 34.284 39.6424C30.877 36.9464 13.8492 35.028 12.1531 38.7832C11.205 40.8867 19.6634 55.1666 21.5521 57.5516C26.4256 63.7065 36.7356 70.9501 44.7792 68.4245C45.5865 68.1727 46.0976 68.9207 45.8384 67.3135L24.3888 45.4714C30.5437 46.7823 34.1655 51.9373 39.1798 55.0852ZM191.667 60.2624C186.112 60.3957 181.209 62.9658 175.669 63.8694C165.463 65.5285 142.48 65.2322 132.622 62.6769C129.578 61.8844 112.268 53.826 110.994 55.0926C110.661 57.3812 113.09 59.3292 114.772 60.5587C132.288 73.298 166.707 73.3128 186.483 66.558C190.564 65.1656 192.423 65.7655 191.667 60.2698V60.2624ZM99.1438 63.9583C101.107 64.6693 109.935 62.714 109.469 59.9809C108.624 55.0851 99.7363 60.9216 99.1438 63.9583ZM97.6699 78.0235C97.0551 74.4461 96.5441 70.5502 95.6775 67.0469C95.4849 66.284 95.7738 65.2322 94.7146 65.447C95.7367 68.543 87.0784 74.3868 88.0487 75.7867C91.5446 76.9791 93.4925 80.8528 97.0403 81.9712C99.9956 82.9044 104.684 81.9267 107.691 81.0157C110.128 80.2825 119.46 75.8903 119.179 73.2758C110.661 66.6247 104.291 72.6907 97.6699 78.0161V78.0235ZM60.6442 74.3646C56.8742 72.5426 53.008 71.1205 48.764 70.9501L45.0977 80.9861C41.1944 79.6085 45.4829 71.7204 45.0977 71.3723C42.1054 70.3131 21.915 74.098 28.4106 79.5492C31.5954 82.2156 43.6164 84.5487 47.7271 83.9784C49.7787 83.6969 61.496 75.6089 60.6368 74.3646H60.6442ZM63.1106 77.5346C61.3034 81.1638 52.6006 83.4821 55.0892 88.3927C57.7482 93.644 88.7671 92.0219 90.8706 84.8894C91.8186 81.6675 86.7229 77.6087 84.8564 78.0901C83.901 78.3419 83.1011 79.9492 82.0641 80.5491C80.8272 81.2527 75.3167 83.9562 74.3168 83.8969C71.2579 83.7266 67.2509 74.0831 63.118 77.5272L63.1106 77.5346ZM152.071 76.5495C151.027 76.8384 150.427 81.0676 150.309 82.1934C150.042 84.7042 149.094 96.74 149.583 98.2657C150.146 100.006 153.16 100.117 153.775 98.2435C154.708 95.4142 155.945 80.6454 154.834 78.216C154.308 77.0606 153.479 76.1718 152.064 76.5569L152.071 76.5495ZM182.787 76.5421H178.335C179.039 83.5636 177.017 90.2962 176.854 97.2658C177.913 97.0807 179.994 97.8436 180.594 96.7918C181.357 95.4512 183.513 77.2606 182.779 76.5421H182.787ZM119.127 78.7715C116.431 79.5418 115.386 81.8008 112.468 82.8304C107.032 84.7487 100.314 84.5191 94.7072 86.1707C97.0107 89.2815 98.7735 110.99 99.84 111.738C103.425 114.234 118.179 108.887 120.045 104.472C121.275 101.576 119.919 97.7473 119.868 94.6513C119.845 93.2663 120.519 91.9923 120.46 90.9702C120.23 86.9484 119.505 82.7859 119.119 78.7641L119.127 78.7715ZM168.722 80.2455C167.796 80.3936 165.603 79.9121 165.1 80.3269C164.485 80.838 162.604 94.6884 162.744 96.1697C163.048 99.2953 166.329 100.88 167.114 98.2509C168.566 93.4218 167.788 85.4745 168.722 80.2455ZM55.467 116.501L50.349 87.9631C49.0528 86.3929 39.4761 86.5263 36.6542 86.1115C35.0321 85.8745 28.1069 83.3784 27.344 83.9561C30.9289 93.4958 27.7292 108.724 39.3428 113.02C40.9574 113.62 54.8893 117.079 55.467 116.501ZM305.655 102.45C284.628 98.2065 263.941 92.0145 242.906 87.8446C238.796 87.0299 228.752 84.6746 225.301 84.6524C222.99 84.6375 221.805 86.8373 222.812 88.3186C223.545 89.3926 240.032 91.7109 242.869 92.3108C261.164 96.14 279.45 100.206 297.737 104.05L298.937 105.124C299.315 106.376 296.397 111.146 295.567 112.716C294.908 113.968 291.775 116.116 295.849 116.367C299.922 116.619 305.04 106.154 305.64 102.45H305.655ZM128.2 92.6293C127.193 91.6368 127.756 88.1039 123.571 89.1186C124.556 92.022 120.986 101.184 124.074 102.302C128.941 104.065 133.481 103.191 136.777 108.842C146.598 125.67 114.683 137.854 103.158 140.869C83.4862 146.001 65.8214 146.557 45.9791 141.906C33.4767 138.973 15.5823 133.877 17.7895 117.678C18.9968 108.82 28.1217 110.864 25.8553 103.184C12.8271 107.672 -4.07482 118.775 10.3977 133.069C36.9726 159.318 108.832 155.867 137.562 134.566C144.583 129.359 152.516 121.056 149.709 111.45C148.961 108.902 142.813 100.828 140.547 99.1471C138.28 97.4658 129.237 93.6588 128.185 92.6293H128.2ZM55.4744 92.8293C58.2889 99.6434 57.526 116.116 64.5623 119.619C70.8135 122.737 91.8557 120.463 95.0553 113.523C96.0182 111.435 93.6481 100.191 92.9815 97.1251C92.6852 95.7623 91.8853 89.9703 90.6336 89.8814C80.3532 95.7104 66.7176 95.2513 55.4744 92.8293ZM245.617 101.058C244.439 99.473 237.366 97.851 235.329 99.1027C235.085 99.2508 232.685 103.273 232.559 103.739C231.137 109.19 238.603 112.183 242.743 110.213C244.513 109.368 246.298 101.969 245.617 101.058ZM191.489 102.636C178.469 103.873 154.012 112.538 152.42 127.959C151.146 140.261 160.841 137.484 168.366 137.232C186.223 136.632 215.065 135.81 231.796 131.092C242.825 127.974 244.247 119.612 234.974 112.812C230.752 109.716 214.228 102.828 209.095 102.428C203.962 102.028 196.526 102.169 191.497 102.643L191.489 102.636ZM317.972 149.534C321.846 145.564 327.082 134.788 324.075 129.529C322.616 126.974 315.084 123.967 312.158 122.945C306.374 120.937 300.115 120.471 294.567 118.33C287.561 115.634 282.072 110.124 276.08 107.213C260.764 99.7767 258.238 115.901 243.491 113.538C244.795 115.871 252.364 116.027 253.068 118.434C253.49 119.871 249.594 123.7 249.343 126.478C248.513 135.832 256.831 140.706 265.222 140.083C268.104 139.869 271.836 137.928 274.199 137.928C274.732 137.928 280.932 139.224 281.176 139.484C281.369 139.684 281.569 143.565 282.013 144.942C287.124 160.829 307.818 159.948 317.98 149.527L317.972 149.534ZM105.321 128.811C109.861 131.64 120.401 128.951 121.927 123.367C123.045 119.278 122.593 114.708 122.082 110.583C119.645 113.153 101.573 116.286 100.966 117.212C98.7068 120.611 102.284 126.915 105.328 128.811H105.321ZM32.5361 115.76C32.5583 120.108 34.247 128.27 37.4467 131.196C40.9722 134.41 53.3042 138.143 56.2595 133.203C57.4445 131.225 56.5854 122.811 55.1633 121.626C52.3562 119.278 36.7505 117.886 32.5361 115.768V115.76ZM95.3664 120.263C83.6788 123.433 72.6059 127.063 60.659 122.426C60.5849 128.159 61.1478 135.839 67.0657 138.587C72.9836 141.335 86.5155 140.439 92.8778 137.98C99.9289 135.254 97.5958 125.9 95.3664 120.271V120.263ZM241.055 131.447C240.292 131.551 236.885 133.351 236.84 133.884C237.936 136.01 242.595 141.246 244.965 140.639C249.661 139.439 247.113 130.64 241.055 131.447ZM230.893 135.751L164.315 141.98C162.767 148.742 178.009 151.275 180.55 148.675C181.194 148.016 181.231 146.853 181.779 146.172C182.327 145.49 183.364 145.372 183.779 144.446C184.246 143.402 184.142 141.046 184.268 140.92C184.772 140.409 187.483 141.646 188.379 141.594C189.46 141.528 190.245 140.358 191.356 140.18C197.726 139.172 207.762 150.979 220.464 145.661C225.382 143.602 227.375 139.247 230.9 135.751H230.893ZM20.6929 170.517C21.6854 170.717 22.5075 170.228 22.8038 169.273C23.2926 167.703 19.3079 148.52 18.2932 145.898C16.56 141.431 13.4492 139.217 8.84232 137.965C7.59801 139.284 18.7153 166.851 20.6929 170.517ZM140.591 140.928L130.718 146.268C128.83 156.556 128.17 166.999 125.8 177.183C128.533 175.754 133.177 173.643 134.481 170.702L140.591 140.935V140.928ZM151.472 143.291C147.124 144.579 149.798 150.586 155.027 150.579C163.744 150.579 161.945 140.187 151.472 143.291ZM239.033 144.624L227.937 147.942C230.411 154.112 238.218 149.527 239.033 144.624ZM88.0413 186.782C90.4558 189.404 117.653 183.205 121.401 179.079L125.778 146.098L116.934 150.201C114.305 151.453 88.0339 154.615 88.0487 156.089C88.0635 157.563 99.8622 158.156 101.351 157.941C101.706 159.637 101.173 159.126 100.41 159.607C97.7365 161.274 93.0926 161.637 89.9374 161.629C87.7228 167.74 96.3663 164.148 99.8696 166.088L91.715 168.651L90.9891 171.991C93.8406 171.858 96.67 172.369 99.4771 172.769C100.633 172.932 102.41 171.925 102.099 173.835C99.1216 175.946 90.8632 175.695 89.5152 179.035C88.893 180.583 90.5521 180.057 91.3594 180.124C92.1667 180.19 104.491 180.509 101.351 183.086C98.0624 183.768 93.9073 183.39 90.8039 184.027C90.2781 184.138 87.0043 185.664 88.0339 186.782H88.0413ZM250.883 147.586C247.721 157.037 265.163 167.747 269.703 159.37C270.066 158.696 273.192 149.253 273.088 148.705C272.385 144.957 265.022 153.215 263.585 153.986C257.016 157.526 256.683 148.764 250.883 147.586ZM31.6177 149.971L25.8701 148.32C26.9959 152.43 27.3737 156.778 28.4476 160.903C29.0476 163.207 32.899 176.087 33.6767 177.139C34.3433 178.042 38.4392 179.953 39.1946 179.39L31.6177 149.979V149.971ZM209.369 154.267C209.584 154.408 209.776 156.141 210.539 156.445C216.746 149.631 204.11 155.245 203.17 154.978C200.251 154.134 205.051 148.06 199.444 149.031C195.171 149.771 198.681 159.185 201.822 160.052C206.073 161.222 207.466 153.023 209.369 154.267ZM222.59 156.304C223.656 155.541 223.997 150.712 222.39 150.556C220.783 150.401 218.672 156.511 215.361 154.986C216.102 157.667 220.99 157.452 222.597 156.304H222.59ZM241.988 151.275C241.092 150.282 239.24 153.882 238.233 154.549C228.908 160.681 217.109 162.451 206.466 164.962C198.052 166.947 193.126 164.792 186.127 165.281C183.779 165.444 182.631 167.221 181.246 167.207C176.773 167.162 174.077 161.696 170.566 161.689C167.055 161.681 166.159 167.392 159.56 163.755C158.241 163.029 152.997 157.341 151.701 158.674C151.672 165.673 147.879 167.251 153.908 172.376C167.736 184.123 212.095 182.768 228.226 175.62C234.477 172.85 244.002 165.155 243.432 157.674C243.38 156.963 242.21 151.527 241.995 151.282L241.988 151.275ZM163.537 157.933C166.663 158.911 169.766 157.563 172.743 157.97C176.321 158.467 179.928 162.274 182.772 157.571C178.58 153.845 172.055 156.911 166.907 155.03C164.915 155.104 164.078 156.134 163.537 157.933ZM277.436 178.568C277.547 174.969 285.079 161.066 284.754 159.015C284.709 158.756 281.947 156.615 281.576 156.467C280.243 155.941 280.621 156.934 280.413 157.474C279.332 160.259 275.436 173.591 273.318 174.102C270.459 174.791 249.943 166.925 248.661 168.295C248.565 168.399 248.513 170.784 248.765 171.147C249.609 172.369 275.903 179.561 277.436 178.561V178.568ZM194.622 161.637C194.911 157.393 191.06 157.756 187.971 157.941C187.112 160.622 194.2 162.059 194.622 161.637Z" fill="#125BEC"/>
<path d="M266.17 52.3818C269.288 55.5074 268.503 58.6848 269.414 61.9585C269.599 62.6103 270.525 62.5436 270.844 63.0325C271.421 63.9064 271.407 65.136 272.362 65.8026C274.836 67.5283 284.161 67.195 287.909 68.0246C299.107 70.4836 308.181 75.446 306.233 88.6075C306.092 89.5482 304.907 90.8518 304.922 90.9851C304.996 91.7109 310.247 92.8515 308.618 94.6884C304.129 96.3104 300.159 93.3848 296.048 92.4293C280.998 88.9408 265.792 86.1189 250.861 82.1119L250.216 80.0159C253.86 76.3126 263.896 61.7659 262.763 57.0627C262.534 56.1221 260.223 55.2407 259.164 57.085C256.779 61.2179 254.912 66.5877 252.372 71.0094C250.594 74.098 246.017 77.2976 247.92 80.9787C246.12 81.0824 244.365 81.0083 242.573 80.7787C237.203 80.0973 224.975 75.52 220.931 75.8237C220.197 75.8755 215.457 78.2901 214.99 78.7789C213.702 80.1343 211.82 88.3927 210.813 89.0297C203.414 88.0446 199.051 86.8744 199.77 78.3568C200.333 71.6908 208.125 70.528 212.132 65.9285C217.886 59.3366 210.05 49.945 205.036 44.9974C209.665 37.45 222.493 42.805 229.87 43.8938C231.959 44.2049 234.055 43.8197 236.24 44.19C242.417 45.2344 262.334 48.5377 266.17 52.3818ZM226.997 50.0042C223.019 50.5894 217.464 59.2403 223.278 60.9068C228.352 62.3585 233.551 49.034 226.997 50.0042ZM288.501 75.1867C288.249 74.7868 280.872 71.913 279.784 71.7056C275.436 70.8835 273.969 71.0909 270.318 73.3647C269.903 73.6239 267.6 75.5423 267.903 76.1718C274.377 80.6528 277.71 85.8597 286.368 86.1559C287.242 83.6821 289.931 77.4754 288.494 75.1867H288.501ZM267.163 81.7194C268.607 80.2381 264.956 76.0385 262.734 76.5422C259.556 79.9048 266.044 82.86 267.163 81.7194Z" fill="#125BEC"/>
<path d="M239.766 8.47528C241.521 10.1714 243.388 25.9105 245.698 29.1842C241.262 29.1842 233.774 33.8726 229.871 32.7912C228.604 32.4431 226.315 18.0224 224.397 16.0745L224.227 13.6599C228.16 13.9488 231.618 11.9416 235.314 11.0306C236.781 11.5268 238.87 7.60871 239.766 8.48269V8.47528ZM237.551 14.3857C226.041 14.9412 231.618 20.7703 232.404 28.4213C233.018 28.9472 239.699 27.0141 240.21 26.266C240.684 25.5698 237.181 16.3485 237.551 14.3857Z" fill="#125BEC"/>
<path d="M277.525 26.2439L271.451 38.3093C270.496 43.405 269.851 39.8498 266.407 38.4722C262.66 36.9761 257.793 36.1687 253.838 35.1022C253.342 34.5837 255.646 29.0584 255.897 27.9029C256.097 26.9919 255.216 22.2887 257.305 21.7629C259.727 21.1555 276.132 24.7255 277.525 26.2365V26.2439ZM270.866 28.4659C267.155 27.7178 262.637 23.2442 259.867 27.4437C255.697 33.769 263.341 32.9098 267.459 35.0578L270.866 28.4659Z" fill="#125BEC"/>
<path d="M169.351 124.53C168.181 125.27 163.603 124.093 162.507 123.219C159.271 120.641 169.077 117.049 170.092 121.463C170.247 122.122 169.729 124.285 169.344 124.53H169.351Z" fill="#125BEC"/>
<path d="M216.087 115.768C219.99 115.256 224.041 114.679 222.434 120.249C219.138 122.471 215.524 119.426 216.087 115.768Z" fill="#125BEC"/>
<path d="M200 115.212C201.281 113.775 206.466 113.516 205.629 116.753C204.718 120.293 196.548 119.078 200 115.212Z" fill="#125BEC"/>
<path d="M190.927 123.167C191.793 127.389 185.52 127.907 184.32 124.944C184.016 124.196 185.609 121.789 185.757 121.693C185.994 121.545 189.09 124.256 190.927 123.167Z" fill="#125BEC"/>
<path d="M182.779 114.286C184.809 116.16 175.684 117.552 175.387 117.241C172.914 114.634 180.831 112.723 182.779 114.286Z" fill="#125BEC"/>
<path d="M199.807 106.146C202.044 108.324 194.778 110.398 193.149 109.835C193.652 107.894 198.385 104.761 199.807 106.146Z" fill="#125BEC"/>
<path d="M310.617 142.18C307.166 144.979 288.62 142.394 289.716 136.425C290.686 131.121 297.7 130.736 301.996 131.632C306.062 132.477 316.313 137.565 310.617 142.18Z" fill="#125BEC"/>
<path d="M280.213 121.989C280.406 122.108 281.917 123.589 281.939 123.707C283.132 129.781 277.473 130.388 272.777 129.759C271.474 129.581 261.008 125.063 260.578 124.559C260.475 124.441 261.193 123.693 261.023 123.33C260.934 123.152 259.801 123.182 259.719 122.708C259.134 119.352 264.134 117.345 266.778 117.19C270.866 116.953 276.769 119.812 280.213 121.989Z" fill="#125BEC"/>
<path d="M233.114 165.348L223.664 171.799C219.983 173.05 216.398 174.747 212.398 174.213L233.114 165.348Z" fill="#125BEC"/>
<path d="M79.1534 21.0517L78.9016 27.5325L70.2803 38.0648C69.3841 33.9689 72.243 32.095 73.6503 29.2361C75.0575 26.3771 75.2723 24.4958 77.4647 21.9924C77.9091 21.4813 77.4277 20.5777 79.1534 21.0517Z" fill="#125BEC"/>
</svg>
