<svg width="488" height="334" viewBox="0 0 488 334" fill="none" xmlns="http://www.w3.org/2000/svg">
<path d="M0.30603 18.6637C4.08756 15.7361 17.5791 9.80759 41.2929 9.51483" stroke="black"/>
<path d="M133.148 32.2442C136.075 32.2442 175.354 18.3379 194.628 11.3848C201.581 10.5309 216.512 8.82309 220.611 8.82309C225.734 8.82309 238.542 -0.691749 255.01 0.0401595C268.185 0.625686 275.87 9.06703 278.065 13.2145C279.529 12.6046 283.482 11.3848 287.58 11.3848C291.679 11.3848 298.559 9.67698 301.486 8.82309C320.223 1.79677 332.715 13.4585 336.618 20.1677C336.984 15.4103 354.55 9.555 354.55 15.0443C354.55 19.4358 362.601 25.901 366.626 28.5846C367.48 24.6811 373.067 17.0205 388.584 17.606C404.1 18.1915 406.271 32.2442 405.418 39.1973C407.369 36.7576 414.2 34.6595 425.911 45.7845C440.549 59.6907 425.911 72.1332 425.911 74.3289C425.911 76.5246 443.477 86.0394 446.404 87.8692C449.332 89.699 441.281 105.801 430.302 108.729C421.519 111.071 421.763 120.195 422.983 124.465C431.766 134.126 428.595 168.013 425.911 183.749L430.302 186.311C446.112 189.531 460.555 218.881 465.8 233.153C464.092 233.031 461.994 233.08 467.264 234.251C472.534 235.422 482.39 246.693 486.659 252.183C495.076 331.961 418.592 322.08 416.762 319.152C414.932 316.225 403.588 308.54 393.707 308.54C385.802 308.54 380.899 301.221 379.435 297.561C377.971 304.002 361.015 311.467 352.72 314.395V319.152C342.595 323.788 304.853 333.059 234.883 333.059C147.42 333.059 116.314 320.25 112.654 319.152C109.726 318.274 115.582 311.711 118.875 308.54C108.921 310.296 104.481 301.952 103.505 297.561C97.7719 298.781 86.3054 300.489 86.3054 297.561C86.3054 293.901 77.1565 286.216 74.9608 283.289C73.2042 280.947 75.6927 276.458 77.1565 274.506C75.5707 274.872 71.0085 274.725 65.446 271.212C59.8835 267.699 61.4205 259.746 62.8843 256.208C48.6121 256.574 43.8547 239.008 43.8547 232.421C43.8547 225.834 57.029 219.613 59.5907 219.247C62.1524 218.881 40.1951 204.609 37.2675 192.898C34.3399 181.188 37.2675 158.498 47.1483 154.107C55.0529 150.594 54.3454 146.788 53.0035 145.324V130.32C53.0035 125.343 46.9043 119.219 43.8547 116.78C39.9512 112.022 33.1688 102.507 37.2675 102.507C41.3662 102.507 45.5625 96.8961 47.1483 94.0904L20.4336 84.2097L24.825 64.4481L37.2675 54.5674L40.1951 24.5591H59.5907C66.6658 21.0216 81.6212 13.9465 84.8415 13.9465C88.867 13.9465 93.2585 26.7549 99.4797 28.5846C104.457 30.0484 109.36 19.4358 111.19 13.9465C114.362 13.0926 120.778 12.629 121.071 17.606C121.437 23.8272 129.488 32.2442 133.148 32.2442Z" fill="white"/>
<path d="M398.677 185.206C416.521 192.869 435.001 197.721 446.434 214.607C451.982 222.797 454.36 231.382 456.739 240.867C460.003 242.807 475.117 247.594 476.354 250.558C480.87 261.427 465.529 285.528 458.195 293.536C452.64 299.603 439.027 310.801 430.793 311.475C423.869 312.038 412.876 304.521 407.694 300.123C403.632 296.675 404.195 294.041 398.186 293.536C395.551 293.316 392.836 293.792 390.216 293.462C379.457 292.116 365.799 283.099 356.607 277.485L331.275 296.463C330.829 297.093 338.924 307.193 340.021 308.386C340.9 309.345 343.271 308.759 342.971 312.529C336.691 312.638 330.543 314.102 324.315 314.724C269.29 320.192 208.966 321.414 153.897 316.188C149.652 315.786 145.385 314.732 141.089 314.724C139.867 313.583 150.428 296.8 148.81 294.253C148.276 293.411 139.296 289.122 137.488 287.98C102.005 265.613 78.6715 229.523 71.067 188.397C63.8504 149.364 76.1466 95.6714 105.965 67.9394C135.819 40.1708 167.847 23.3296 208.834 18.6893C217.902 17.6646 230.44 18.5648 238.689 17.0937C240.745 16.7278 243.878 14.349 246.249 13.683C253.041 11.7801 261.246 13.2512 266.845 17.5402C269.919 19.8969 269.209 22.1292 270.929 24.4274C272.854 27.0111 285.648 29.2141 289.717 30.5096C349.039 49.3855 386.761 92.6925 396.144 154.444C397.689 164.632 398.435 174.908 398.647 185.206H398.677ZM245.693 66.1169C246.85 60.5178 251.687 57.334 254.783 52.8914C260.617 44.5037 274.618 23.1173 258.297 18.0671C246.959 14.5613 237.02 21.8072 236.94 33.5836C236.903 38.2385 241.909 61.279 244.076 65.1874C244.537 66.0145 244.024 66.4317 245.693 66.1169ZM222.294 22.9856C212.443 22.5611 202.686 24.5738 193.04 26.2718L192.308 28.8262L221.965 25.2179L222.287 22.9856H222.294ZM166.925 41.0344C169.45 43.1862 172.788 40.4269 175.13 39.0729C176.674 33.4592 172.736 29.5142 167.276 31.9368C163.434 33.6422 164.48 38.9485 166.918 41.0271L166.925 41.0344ZM232.541 33.9422C211.747 33.203 191.056 38.18 172.063 46.2456C149.857 55.6726 133.923 66.1389 118.853 85.1831C81.6504 132.23 82.2068 190.3 116.372 238.906C155.742 294.919 239.099 313.326 299.371 280.998C303.675 278.692 308.535 276.511 307.137 270.846C303.258 270.466 300.374 273.708 297.176 275.143C213.753 312.638 109.609 270.89 98.7698 174.6C94.1149 133.262 116.306 85.1905 151.584 63.0576C175.781 47.8778 202.613 39.6511 231.333 38.9485C233.155 38.3483 232.453 35.5012 232.533 33.9276L232.541 33.9422ZM368.588 192.613L375.783 189.209C384.756 146.729 366.641 99.4993 334.949 70.8597C316.059 53.7916 294.841 42.3519 269.853 36.8699C269.487 38.5533 268.185 41.8761 269.831 43.1057C270.71 43.7644 280.854 46.4066 283.196 47.2922C332.249 65.751 375.307 114.269 371.545 169.616C371.318 172.998 367.431 191.42 368.595 192.62L368.588 192.613ZM155.002 39.0729C154.168 38.1654 137.136 49.1074 135.307 50.4541C134.362 51.1494 129.92 54.4869 130.139 55.5116C130.659 57.9269 134.846 54.6699 135.921 53.9965C138.93 52.1082 152.916 43.1936 154.175 41.3931C154.607 40.7709 155.522 40.8002 154.995 39.0729H155.002ZM223.033 44.1816C202.979 45.3527 181.746 51.4861 164.027 60.8765C149.645 68.503 132.825 80.5355 127.278 96.3521C144.09 107.558 160.762 118.763 176.923 130.891C181.527 134.345 186.694 140.435 192.513 142.338C198.331 144.241 213.592 142.579 219.169 139.396C225.785 135.612 224.761 122.137 225.998 115.513L223.048 44.189L223.033 44.1816ZM269.114 60.9936C271.149 61.7255 274.421 61.8279 276.082 63.1673C278.183 64.8654 277.297 68.2175 279.712 69.7618C280.942 69.7618 281.191 64.4482 281.952 63.2405C283.108 61.4181 288.1 60.7667 288.107 59.903C283.906 58.1245 281.3 55.5262 278.248 52.24L276.236 57.8976L269.114 60.9936ZM341.405 66.0072C343.213 61.9817 335.41 56.4557 333.112 60.2617C330.375 64.8068 337.335 69.8204 341.405 66.0072ZM114.235 73.9849C114.396 74.1533 118.034 76.1734 118.26 76.2319C121.722 77.1468 124.921 70.7865 123.494 68.0785C119.175 59.9104 109.858 69.4398 114.242 73.9849H114.235ZM285.524 84.0633C287.829 86.2664 290.771 87.7961 292.887 90.2406C296.356 87.9644 301.867 76.854 299.503 73.3994C297.725 70.7938 290.874 77.4103 288.795 78.8521C287.792 79.5474 283.928 81.2748 283.745 81.4943C282.991 82.3726 284.96 83.529 285.524 84.0706V84.0633ZM264.693 74.9291L239.45 79.2401C238.089 86.8007 240.936 94.0612 242.78 101.212C227.93 100.143 233.887 117.182 243.717 114.972C244.595 114.774 249.814 111.634 250.026 110.968L247.172 92.451L265.462 90.9799C265.301 93.5855 264.869 94.6687 267.643 95.3713L264.693 74.9364V74.9291ZM91.2897 109.182L108.043 80.3745L106.367 78.5667C104.947 78.5447 91.5531 99.0601 90.2576 101.937C89.1158 104.462 87.8424 106.467 89.233 109.226L91.2971 109.182H91.2897ZM366.385 93.1756C367.607 91.6166 360.551 81.4065 357.617 81.4797C356.877 82.2482 365.58 94.2076 366.385 93.1756ZM366.392 165.561C366.392 134.807 352.442 105.054 330.777 83.7486L263.274 141.072C265.66 142.557 276.433 141.767 277.136 144.065C277.202 145.573 276.346 147.029 275.577 148.259C273.777 151.143 267.914 157.108 266.926 159.355C266.326 160.716 271.025 161.228 271.712 161.214C274.23 161.155 279.361 153.368 281.117 150.872C286.248 143.582 290.471 135.458 295.858 128.322C296.978 126.843 302.687 118.734 304.216 120.234C304.136 121.749 303.47 122.606 304.282 124.121C305.724 126.821 312.282 135.582 314.485 138.122C316.388 140.318 319.045 141.723 320.692 144.351H321.768C322.675 141.057 326.291 138.525 329.724 139.352L332.402 144.358C333.895 144.709 333.837 142.601 334.371 142.272C334.774 142.023 335.747 142.755 336.42 142.484C337.452 142.067 338.667 139.776 340.329 140.091L346.279 147.278L348.036 145.302C345.335 137.8 340.073 131.176 334.583 125.35C331.744 129.054 328.267 132.933 324.725 135.963C324.007 136.57 320.157 139.762 319.594 139.235C321.651 135.282 324.798 132.018 327.989 128.973C329.789 127.261 334.459 122.657 336.618 123.257C338.777 123.857 343.974 131.937 345.496 134.177C351.527 143.055 356.826 154.473 362.857 162.912C363.062 163.197 365.85 166.271 366.392 165.554V165.561ZM278.417 85.959C276.433 86.8226 276.133 88.4694 276.558 90.4456C276.682 91.0311 281.527 100.758 281.908 101.219C284.492 104.33 293.494 99.7774 291.43 95.3786C290.435 93.2561 280.693 85.3368 278.417 85.959ZM268.917 109.08C270.973 107.309 268.177 101.344 266.948 99.3383L256.774 102.054C255.31 107.14 258.494 110.844 263.64 110.763C264.357 110.749 268.536 109.409 268.917 109.087V109.08ZM130.879 121.691C131.918 122.708 143.058 117.79 144.024 115.477C144.134 112.33 131.64 117.138 130.139 117.314L130.879 121.698V121.691ZM119.373 133.606C120.895 132.391 127.314 131.213 127.885 129.259L125.009 119.495C116.562 122.32 107.575 128.79 113.701 138.51C116.497 138.261 118.07 134.638 119.373 133.599V133.606ZM234.671 120.285C234.048 119.839 231.523 120.666 231.026 121.457C229.247 124.26 228.691 133.072 226.107 137.566C220.493 147.322 204.962 145.917 195.243 146.561L197.029 152.453L215.012 166.081L213.54 192.613C214.111 193.271 222.389 187.57 223.597 186.955C225.434 186.011 234.597 181.758 235.886 181.671C240.211 181.378 249.777 188.924 255.179 190.11C256.62 190.424 258.926 191.054 259.533 189.217C260.661 185.828 254.205 172.851 254.608 168.291C256.203 163.636 271.632 151.377 271.281 147.637C264.606 143.114 250.121 147.176 244.288 141.76C243.029 140.589 238.872 132.479 238.045 130.452C237.298 128.622 235.739 121.039 234.678 120.278L234.671 120.285ZM89.738 122.598C89.0134 121.866 86.9494 121.632 85.8882 121.632C78.4007 121.632 77.8007 134.148 87.3009 131.14C90.6676 130.071 91.9191 124.787 89.738 122.598ZM378.622 122.569C373.433 124.121 376.697 134.236 382.684 132.53C388.357 130.913 385.275 120.586 378.622 122.569ZM317.384 153.126C315.268 142.528 308.688 133.84 302.394 125.358L286.673 148.003C291.964 149.042 292.974 146.393 295.814 142.909C297.256 142.901 298.369 148.793 299.832 147.286C299.723 145.866 301.406 141.086 303.082 141.46C304.978 142.367 315.861 154.736 317.391 153.126H317.384ZM158.633 131.213C152.609 132.794 118.121 137.683 115.494 140.347C114.857 140.998 114.996 142.279 114.572 142.689C113.006 144.212 111.403 141.862 111.922 147.564C112.544 154.363 116.262 159.669 118.787 165.569C119.527 167.296 122.235 176.555 122.769 176.943C124.899 178.494 137.854 172.573 140.796 171.424C138.966 164.229 134.904 163.234 139.478 155.527C142.516 150.418 147.185 158.132 149.023 160.928C151.021 163.966 152.968 167.955 154.336 171.351L169.326 167.054L169.509 165.364C166.032 153.887 163.573 142.126 158.625 131.198L158.633 131.213ZM176.498 139.696C175.327 138.166 175.225 135.729 173.3 134.85C173.073 139.022 174.559 142.309 170.76 145.119C169.758 145.858 168.096 145.331 168.177 146.539C173.549 146.773 174.369 153.258 179.141 153.126C179.155 151.421 178.921 149.313 179.836 147.783C180.7 146.341 184.601 146.085 184.264 143.626C181.234 143.868 178.24 141.972 176.498 139.696ZM342.993 156.054C339.751 142.579 334.364 150.521 327.242 155.307L326.898 156.778L330.543 156.054C332.073 159.406 321.394 164.595 323.239 166.286C326.203 166.396 330.638 165.151 331.275 169.214C327.455 168.672 325.515 169.514 323.246 172.507C325.61 175.632 330.25 174.03 333.829 174.344C337.409 174.659 350.012 176.862 352.515 175.457C353.591 174.652 352.918 174.571 352.698 173.781C351.651 170.011 348.394 170.472 345.913 168.123L348.826 164.478L341.515 161.902C343.447 159.069 346.923 159.033 345.899 154.605L342.986 156.061L342.993 156.054ZM319.579 173.598C320.179 173.129 316.19 167.201 316.059 166.491C315.407 163.036 316.937 165.21 314.558 160.701C313.073 157.884 312.999 155.132 308.623 155.337C308.615 159.099 306.222 159.984 304.978 163.014L308.601 164.463L300.784 169.565L301.369 171.343L319.572 173.598H319.579ZM119.9 177.989C117.953 174.234 116.614 168.313 114.36 164.895C113.759 163.988 113.13 163.139 111.864 163.38C111.556 169.975 110.802 178.911 119.907 177.996L119.9 177.989ZM260.807 167.128C259.131 167.684 259.329 170.18 259.936 171.446C260.382 172.112 266.135 173.722 267.489 174.125C285.202 179.38 306.449 182.403 324.849 186.977C333.917 189.231 346.667 194.333 355.245 195.401C358.165 195.767 362.542 195.021 360.727 191.339C359.534 188.917 353.218 187.724 350.458 186.977C332.783 182.168 313.534 177.74 295.609 173.81C286.556 171.826 273.572 168.299 264.898 167.223C263.61 167.062 262.044 166.718 260.8 167.135L260.807 167.128ZM209.881 198.468C207.231 192.913 212.318 171.98 208.79 168.467C208.146 167.83 207.495 167.625 206.602 167.699L108.914 196.645C114.411 212.425 123.04 228.33 134.15 240.882C147.478 255.937 167.459 268.146 186.277 275.055C188.56 275.897 199.297 279.695 200.783 279.593C203.169 279.424 203.857 274.242 204.392 272.325C207.868 259.809 209.551 246.232 213.321 233.724C214.66 221.186 218.532 209.081 220.069 196.587C220.252 195.072 219.476 195.365 218.32 195.577C215.758 196.045 212.867 198.49 209.881 198.475V198.468ZM384.785 168.591C383.943 169.118 383.519 174.571 384.309 175.808C388.283 179.526 393.839 175.684 391.606 170.692C390.691 168.65 386.381 167.596 384.785 168.591ZM83.0631 181.832C76.8345 182.52 77.8958 193.762 84.3732 193.337C90.8506 192.913 89.5258 181.114 83.0631 181.832ZM445.394 262.81C445.563 259.612 448.344 257.731 449.398 254.752C453.958 241.899 445.863 218.778 436.282 209.403C429.966 203.225 401.019 189.385 392.309 188.287C389.703 187.958 386.183 187.819 383.987 189.348L380.298 193.33C388.057 194.882 397.506 199.771 403.661 204.711C404.517 205.399 405.425 205.911 405.161 207.222C403.807 208.407 389.777 199.412 386.556 198.409C379.632 196.25 369.466 194.501 364.936 201.366C374.721 204.755 385.136 207.734 393.143 214.548L392.719 217.461C388.913 214.05 383.607 211.657 378.82 209.798C373.096 207.58 356.907 201.908 351.564 203.006C346.653 204.016 336.655 215.097 341.119 218.969C351.22 224.246 363.238 228.549 372.482 235.144C377.305 238.584 383.006 243.29 383.219 249.628C378.439 248.67 373.287 248.516 368.617 247.052C360.515 244.512 344.955 230.972 336.472 236.161C334.4 237.427 332.688 241.753 332.688 244.146C332.666 252.205 349.807 264.201 347.392 248.165H350.312C350.019 252.593 348.19 256.772 351.388 260.622C353.906 263.644 362.279 269.361 365.872 271.732C383.402 283.296 402.292 290.008 421.256 276.687C419.851 282.55 413.79 285.711 408.55 287.6L408.074 289.451C412.905 291.977 418.563 299.091 424.403 297.737C428.114 296.88 441.215 286.012 444.677 282.908C450.401 277.785 468.471 260.248 466.642 252.336L456.761 247.411C454.492 252.636 452.238 262.525 445.402 262.781L445.394 262.81ZM341.522 203.584C342.671 199.39 336.091 195.95 332.739 194.457C317.515 187.658 295.346 187.65 282.274 198.827C272.32 207.331 268.88 216.641 273.681 229.369C278.483 242.097 291.43 246.027 303.821 246.767C307.364 246.979 326.481 246.488 327.528 243.341L327.623 238.694C312.897 243.846 283.643 244.102 277.926 225.856C272.642 209.007 288.071 197.78 302.716 195.145C315.246 192.883 323.239 195.789 334.371 200.876C336.838 202.003 338.287 204.374 341.522 203.591V203.584ZM293.897 258.506C278.439 254.569 267.936 243.092 265.542 227.261C265.147 224.663 264.628 218.969 264.671 216.37C264.708 214.094 265.967 211.21 265.843 209.813C265.791 209.271 263.925 202.142 263.64 201.381C263.383 200.693 263.164 200.012 262.542 199.551C258.926 198.607 255.149 199.734 251.504 198.885C247.106 197.853 239.56 191.325 235.022 191.178C234.085 191.149 225.405 194.252 224.863 194.816L207.641 280.734C227.234 286.253 249.155 284.804 268.69 279.571C273.286 278.341 294.833 271.307 296.034 267.421C296.663 265.379 295.909 263.3 295.426 261.346L293.984 262.085L293.889 258.506H293.897ZM333.478 218.573C334.078 216.59 333.478 207.631 333.478 204.682C333.478 204.323 330.448 201.63 329.46 201.644C324.542 202.918 327.96 206.841 328.296 209.856C328.567 212.286 327.784 216.29 328.721 218.207C329.592 220.001 332.959 220.279 333.478 218.573ZM308.857 206.76C302.299 213.64 304.919 232.934 318.159 228.857C326.994 226.134 326.701 201.337 312.787 204.477C311.953 204.667 309.457 206.138 308.857 206.76ZM291.057 217.476C290.779 208.1 303.009 215.595 302.423 207.953C293.304 203.811 285.838 207.558 285.172 217.82C284.733 224.568 286.285 231.396 294.336 231.433C304.787 231.477 304.89 225.541 302.065 217.073L291.049 217.483L291.057 217.476ZM93.9538 221.142C89.0939 222.189 96.4204 233.709 97.8256 236.249C99.531 239.33 105.43 249.46 108.204 250.741C109.77 251.465 111.834 251.319 111.864 249.314C111.886 247.608 104.332 237.435 102.773 234.961C100.336 231.104 98.2868 226.478 95.9081 222.811C95.447 222.101 95.1175 220.894 93.9538 221.142ZM328.399 221.179C324.754 232.59 336.83 227.049 333.156 221.816L328.399 221.179ZM347.37 230.635C346.023 227.422 345.211 222.965 340.797 223.331C340.285 227.459 343.6 229.955 347.37 230.635ZM364.204 237.222C362.396 241.98 373.748 244.725 373.697 241.973C371.245 239.14 368.222 236.732 364.204 237.222ZM127 262.203C120.551 264.149 126.465 276.672 133.36 272.237C138.622 268.856 130.688 261.083 127 262.203ZM312.07 265.167C311.082 265.386 309.816 265.928 309.464 266.953C308.11 270.568 311.206 275.743 315.202 274.938C322.251 273.511 320.911 263.235 312.07 265.167ZM336.925 265.145C332.841 266.089 318.986 277.997 313.973 280.961C312.246 281.986 310.064 283.172 308.257 284.021C306.449 284.87 300.14 286.019 300.572 288.017C306.127 291.764 308.191 299.647 316.205 294.89C321.263 291.889 317.435 287.351 314.478 284.372C314.463 282.85 336.428 270.415 339.685 267.172C341.932 264.933 338.814 264.698 336.925 265.137V265.145ZM171.836 294.985C171.353 296.595 171.324 299.2 172.554 300.481C174.317 302.318 194.218 306.988 197.804 307.405C199.912 307.654 211.586 308.935 208.073 303.716L171.836 294.977V294.985ZM280.078 300.108L256.013 304.558L255.947 308.144C256.891 309.089 276.748 303.87 279.654 303.102L280.078 300.101V300.108ZM245.474 303.255C242.012 299.464 230.667 301.682 232.687 308.357C234.846 315.485 252.932 311.431 245.474 303.255Z" fill="#1C1C1C"/>
<path d="M380.291 91.719C383.416 91.192 384.69 92.4582 386.454 94.6905C395.998 106.789 406.252 141.145 407.262 156.522C407.562 161.089 405.19 167.091 403.163 160.614C401.136 154.136 401.092 146.883 399.716 140.662C397.227 129.42 392.814 115.418 387.734 105.106C386.988 103.591 379.669 92.2606 380.291 91.7116V91.719Z" fill="#1C1C1C"/>
<path d="M408.448 66.1243C406.559 66.3512 398.333 69.7692 397.813 69.4691L393.041 54.3991C394.834 51.4056 414.801 48.8952 419.06 48.5731L421.98 66.1243C417.669 66.4902 412.656 65.6266 408.448 66.1243ZM413.037 53.8502C411.785 52.2766 401.67 55.4311 399.365 55.9434L400.872 63.0942C404.964 65.3777 407.028 60.474 407.891 60.2983C409.728 59.925 412.026 60.4739 413.944 60.269L413.037 53.8502Z" fill="#1C1C1C"/>
<path d="M416.828 73.4653C417.084 78.0032 419.931 82.7386 423.43 85.5125C426.928 88.2865 430.632 88.6817 434.401 90.6139C429.49 93.3147 424.242 94.0466 420.539 98.6796C416.835 103.313 417.999 106.233 416.85 111.451C415.357 112.564 413.49 102.024 413.029 101.022C410.167 94.8517 404.078 93.849 397.842 94.6248C399.43 91.6606 403.134 91.6606 405.842 89.8308C410.043 86.9837 415.715 78.5374 413.205 73.436L416.828 73.4653ZM415.415 97.5597C416.557 98.3575 421.527 92.3632 422.668 91.2507C422.976 89.538 416.228 86.9178 416.857 83.6754L410.336 91.441C409.999 93.3293 415.723 94.8956 415.415 97.5524V97.5597Z" fill="#1C1C1C"/>
<path d="M116.233 23.7175C117.85 31.8417 123.896 37.17 129.407 42.7178C123.559 43.3326 117.111 48.5145 114.418 53.6891L106.681 43.1423L100.16 39.4462C104.969 37.3529 108.401 34.4985 111.446 30.2534C112.229 29.1629 114.615 22.4952 116.233 23.7175ZM119.761 41.1296C121.217 38.6484 116.562 35.6256 115.128 33.9642L108.987 40.2659L114.425 46.3774L119.768 41.1369L119.761 41.1296Z" fill="#1C1C1C"/>
<path d="M397.842 32.493C398.325 33.1591 393.348 38.4727 392.419 39.856C390.157 43.2228 388.217 50.9298 383.284 48.9244C381.498 48.1998 379.961 46.1065 378.344 45.0379C375.936 43.4497 371.845 43.0471 371.662 39.2998C371.596 37.9238 382.45 24.4493 384.324 23.7101C386.871 28.3577 393.18 30.2753 397.849 32.493H397.842ZM389.776 33.2469L382.962 31.0804L377.4 39.329L384.258 43.4351C385.436 42.0664 390.691 34.5204 389.776 33.2396V33.2469Z" fill="#1C1C1C"/>
<path d="M61.3837 148.025C60.5127 165.525 62.1156 182.176 65.2555 199.354C65.9581 203.181 67.5537 207.324 68.1465 211.108C68.249 211.745 69.0687 212.696 67.5829 213.084C64.2235 213.97 63.9454 210.413 63.2061 207.983C58.3389 192.02 55.4114 167.691 58.5 151.355C58.7855 149.862 59.4661 147.776 61.3837 148.025Z" fill="#1C1C1C"/>
<path d="M66.5071 36.8699L68.0002 54.648L66.1265 55.8849C66.1704 54.6553 61.5594 52.9499 61.0178 52.9499H46.021C47.1262 47.7827 45.7063 41.3126 47.8508 36.8626H66.4998L66.5071 36.8699ZM62.8549 41.254L51.2103 41.3272L50.4124 48.5731C54.6868 47.8266 58.8148 50.4029 62.7452 48.4633L62.8549 41.254Z" fill="#1C1C1C"/>
<path d="M416.711 177.843L413.205 178.721C414.142 159.311 412.341 139.82 405.154 121.698L409.882 123.184C416.762 140.508 419.324 159.34 416.711 177.843Z" fill="#1C1C1C"/>
<path d="M347.977 20.9362C348.936 21.4924 351.417 28.7529 352.515 30.4802C354.667 33.869 359.636 37.0894 363.464 38.3483C362.593 40.339 360.046 39.5559 357.917 40.4708C352.947 42.6153 351.724 47.2117 352.486 52.2252C350.744 51.0835 350.158 48.39 348.833 46.7432C347.509 45.0965 343.871 41.3564 342.268 40.1488C340.665 38.9411 335.996 37.1479 335.674 36.4965C335.044 35.2376 340.314 33.5469 340.819 32.149C343.827 31.0219 345.43 21.185 345.92 20.7825C346.045 20.68 347.567 20.6946 347.977 20.9288V20.9362ZM353.957 39.0582C355.062 37.8286 348.892 31.5854 347.64 30.3412C340.219 35.7207 343.652 37.4187 349.214 41.9785H350.283C350.488 39.878 351.951 38.9557 353.957 39.0582Z" fill="#1C1C1C"/>
<path d="M68.6077 226.354C69.6031 226.932 73.7969 234.617 75.6266 235.839C77.2295 236.908 78.3933 235.488 78.9349 235.759C78.3567 236.542 78.9202 237.757 78.7299 238.203C78.0712 239.769 64.2529 250.587 62.5841 250.265C58.6904 247.747 56.6922 243.81 54.0866 240.479C52.8424 238.884 50.6246 239.118 51.1223 236.849C54.0353 235.18 57.3363 233.797 60.1542 231.967C61.9912 230.767 67.0634 225.461 68.6004 226.346L68.6077 226.354ZM61.413 245.237C63.1037 246.459 71.0961 238.54 73.0869 237.581L68.2345 232.143L58.0462 237.954L61.4203 245.237H61.413Z" fill="#1C1C1C"/>
<path d="M112.588 281.1C109.273 283.391 106.118 286.268 102.729 288.427C100.958 289.554 96.3911 292.621 94.6125 292.774C90.9457 293.089 91.5018 290.579 89.9209 288.771C87.7105 286.231 85.1854 283.618 82.6018 281.452C82.9604 278.502 85.9686 279.263 87.7252 278.546C93.8293 276.05 93.2437 276.745 98.8794 275.867C100.394 275.633 102.634 273.737 104.193 273.137C107.399 276.885 105.606 282.44 112.588 281.108V281.1ZM101.39 284.518C102.093 283.933 102.839 282.081 103.739 281.342C102.246 276.709 99.326 279.856 97.4742 280.142C95.6225 280.427 91.9629 278.59 89.9355 281.51C91.4433 287.556 96.8815 288.28 101.39 284.518Z" fill="#1C1C1C"/>
<path d="M59.1881 72.7113L54.7967 86.5956L31.5001 79.6718L36.9966 68.437C44.6231 67.8515 51.869 71.1743 59.1881 72.7113ZM36.5136 77.8127C42.2005 77.8127 56.0629 86.6908 52.6229 75.2437C46.4236 73.3774 37.4724 67.771 36.5136 77.8127Z" fill="#1C1C1C"/>
<path d="M79.674 44.1889C78.8616 37.7847 72.7795 33.8251 67.4292 31.1756C66.7339 30.8316 66.2435 31.3879 66.507 29.9387C67.1511 28.4456 81.2257 19.5383 83.3702 23.3076L94.2902 35.7647C93.0679 37.4481 91.0113 36.5332 89.2035 37.2651C87.7909 37.836 80.4938 44.9355 79.674 44.1816V44.1889ZM79.4691 26.001C78.4078 26.1694 74.5067 28.6871 74.5067 29.9167L81.3941 36.8113C82.836 35.2157 85.8148 34.5424 85.5659 32.1564C85.4269 30.8609 81.211 25.7229 79.4764 26.001H79.4691Z" fill="#1C1C1C"/>
<path d="M376.544 51.5812L382.494 66.1096L365.894 69.9961C362.747 68.5615 359.732 58.549 359.08 55.1676L376.551 51.5886L376.544 51.5812ZM375.175 63.1966L373.733 56.9534L364.196 57.3487L366.487 64.5653L375.175 63.1966Z" fill="#1C1C1C"/>
<path d="M64.5749 103.883C66.8439 106.145 70.3643 106.84 72.3551 109.256C68.6662 109.402 62.3498 113.493 61.5374 117.094C60.8641 120.081 62.0278 124.194 59.5613 126.799C57.5412 123.228 58.2658 118.778 55.8651 115.155C54.9283 113.735 51.8471 111.349 50.3467 110.434C48.5901 109.365 45.1866 109.739 45.2964 107.075C53.1571 107.916 56.1945 101.49 58.8367 95.3787C60.0883 95.0859 62.8476 102.171 64.5749 103.891V103.883ZM54.072 109.248L59.4516 112.864L64.1724 108.172C62.7964 106.277 61.6181 103.744 58.9246 103.525L54.072 109.248Z" fill="#1C1C1C"/>
<path d="M330.55 41.9859C329.694 42.8349 317.23 35.267 315.18 34.3228C307.019 30.5828 295.36 26.4402 286.687 24.0541C283.972 23.3076 278.051 24.142 278.621 20.0579C280.634 20.0579 282.647 19.9115 284.66 20.2263C292.601 21.4705 324.168 33.1298 329.086 38.6923C329.855 39.5633 330.675 40.7563 330.543 41.9786L330.55 41.9859Z" fill="#1C1C1C"/>
<path d="M76.5491 253.449C84.5122 251.722 88.9256 261.273 82.9752 266.477C74.6168 273.781 66.0023 255.74 76.5491 253.449Z" fill="#1C1C1C"/>
<path d="M49.6734 161.177C49.6295 167.201 49.7906 172.975 50.5152 178.984C51.3569 185.938 54.3283 194.032 54.7455 200.4C54.987 204.03 53.3037 204.806 51.5178 201.381C47.8949 194.428 45.3259 172.009 46.7678 164.478C47.0459 163.036 48.3633 161.792 49.6661 161.17L49.6734 161.177Z" fill="#1C1C1C"/>
<path d="M76.1976 69.5935C73.0065 66.2853 76.4245 59.72 80.955 58.9442C93.1779 56.8436 92.1679 73.4799 81.5552 71.9429C80.7428 71.8258 76.6368 70.0473 76.1976 69.6008V69.5935ZM86.2102 66.8122C86.4079 62.7575 82.4189 61.5425 79.7108 64.375L80.0255 66.8562L81.6503 68.2248L86.2102 66.8122Z" fill="#1C1C1C"/>
<path d="M68.5124 80.9307C80.4644 77.9006 81.5697 93.0804 73.3577 93.6659C64.7724 94.2734 61.6471 82.6727 68.5124 80.9307ZM71.257 83.9828C66.1483 86.2883 72.3769 94.0099 74.2359 88.0815C75.0118 85.6223 73.4527 82.9947 71.257 83.9828Z" fill="#1C1C1C"/>
<path d="M396.152 75.8586C401.209 80.4915 395.142 89.999 387.932 85.9003C379.376 81.0331 388.642 68.9786 396.152 75.8586ZM393.341 77.9299L389.059 77.8201L389.74 82.6287C393.078 84.6781 395.544 79.3132 393.341 77.9299Z" fill="#1C1C1C"/>
<path d="M116.057 290.725C125.265 288.939 127.87 300.518 119.351 302.157C111.512 303.672 109.478 291.998 116.057 290.725ZM116.423 294.421C114.301 296.514 118.465 300.093 120.302 297.21C121.796 294.86 118.077 292.789 116.423 294.421Z" fill="#1C1C1C"/>
<path d="M312.794 15.059C315.071 14.3929 318.511 16.3252 319.272 18.5428C321.629 25.4813 310.423 26.9086 309.45 23.9736C308.688 21.2363 309.742 15.9519 312.794 15.059Z" fill="#1C1C1C"/>
<path d="M370.776 294.26C366.429 299.764 360.603 308.993 352.493 305.941C351.066 304.507 356.782 303.05 357.529 302.575C358.597 301.894 359.871 300.884 360.881 300.079C364.013 297.568 366.429 292.072 370.776 294.26Z" fill="#1C1C1C"/>
<path d="M359.797 287.68L360.537 291.332C357.785 290.117 356.526 293.309 354.645 294.582C351.688 296.58 346.133 301.557 343.732 297.554C345.555 295.768 358.253 286.312 359.797 287.688V287.68Z" fill="#1C1C1C"/>
<path d="M445.394 262.81C452.23 262.554 454.485 252.666 456.754 247.44L466.634 252.366C468.464 260.278 450.393 277.807 444.67 282.937C441.208 286.041 428.107 296.91 424.396 297.766C418.555 299.113 412.89 292.006 408.067 289.481L408.543 287.629C413.783 285.748 419.843 282.579 421.249 276.716C402.285 290.037 383.394 283.325 365.865 271.761C362.271 269.39 353.891 263.674 351.381 260.651C348.175 256.801 350.012 252.622 350.305 248.201H347.384C349.8 264.23 332.658 252.227 332.68 244.176C332.68 241.79 334.4 237.464 336.464 236.19C344.947 230.994 360.507 244.542 368.61 247.081C373.287 248.545 378.432 248.699 383.211 249.658C382.999 243.319 377.297 238.613 372.474 235.173C363.238 228.579 351.22 224.275 341.112 218.998C336.647 215.119 346.645 204.045 351.556 203.035C356.892 201.937 373.089 207.602 378.812 209.827C383.599 211.686 388.905 214.087 392.711 217.49L393.136 214.577C385.129 207.763 374.706 204.784 364.928 201.396C369.459 194.53 379.625 196.279 386.549 198.439C389.769 199.441 403.8 208.436 405.154 207.251C405.418 205.941 404.51 205.428 403.653 204.74C397.498 199.8 388.049 194.911 380.291 193.359L383.98 189.378C386.176 187.848 389.696 187.987 392.302 188.316C401.011 189.414 429.958 203.255 436.275 209.432C445.863 218.8 453.95 241.929 449.391 254.781C448.337 257.76 445.555 259.641 445.387 262.839L445.394 262.81Z" fill="white"/>
<path d="M223.033 44.1816L225.983 115.506C224.746 122.13 225.778 135.612 219.154 139.388C213.577 142.572 198.353 144.248 192.498 142.331C186.643 140.413 181.512 134.338 176.908 130.884C160.748 118.756 144.075 107.55 127.263 96.3448C132.811 80.5282 149.63 68.4956 164.012 60.8691C181.731 51.4714 202.964 45.3454 223.018 44.1743L223.033 44.1816ZM201.83 67.5807L207.604 61.9451C206.88 59.6029 206.294 58.4465 206.931 55.8775C201.515 58.8418 197.98 64.2798 193.786 68.6713C195.169 70.3181 194.789 69.6813 195.843 68.5469C197.489 66.783 198.836 64.7629 200.703 63.1673C201.193 62.7502 206.016 58.9589 205.475 60.6203L201.83 67.5734V67.5807ZM182.068 130.466H199.253C200.432 130.466 207.239 128.71 208.607 128.117C210.825 127.165 213.679 125.328 211.33 122.781C209.449 120.739 201.544 118.902 199.59 116.245C198.763 115.118 198.053 111.781 198.119 110.368C198.265 107.082 206.455 96.3521 208.534 92.2095C209.588 90.1089 215.114 77.3664 214.25 76.3637C205.248 78.7204 195.938 76.9419 186.928 79.3498C181.051 68.6054 168.484 64.2067 158.318 72.7188C150.655 79.1376 148.854 89.699 155.01 97.9257C162.592 108.063 170.738 102.346 180.224 104.162C184.784 105.033 190.214 115.272 190.749 119.707C187.499 124.589 180.787 122.708 182.068 130.466Z" fill="white"/>
<path d="M293.896 258.506L293.992 262.085L295.434 261.346C295.917 263.3 296.67 265.372 296.041 267.421C294.841 271.307 273.286 278.341 268.697 279.571C249.162 284.804 227.242 286.253 207.648 280.734L224.87 194.816C225.412 194.252 234.092 191.149 235.029 191.178C239.567 191.324 247.113 197.853 251.512 198.885C255.149 199.734 258.933 198.607 262.549 199.551C263.171 200.012 263.391 200.693 263.647 201.381C263.932 202.142 265.799 209.271 265.85 209.812C265.982 211.21 264.715 214.101 264.679 216.37C264.642 218.969 265.154 224.656 265.55 227.261C267.936 243.085 278.446 254.569 293.904 258.506H293.896ZM242.026 211.657C239.011 211.247 231.955 214.006 230.733 216.766C227.974 222.979 237.108 221.362 240.555 218.551C243.336 216.283 242.407 214.767 242.019 211.657H242.026ZM252.112 218.383C243.358 218.881 240.072 230.504 250.714 227.232C256.093 225.578 260.009 217.937 252.112 218.383ZM225.229 242.331C229.686 243.649 232.409 244.527 236.925 242.704C239.142 241.804 245.386 236.761 243.922 234.273C242.077 231.126 235.805 235.122 233.251 236.117C229.423 237.61 225.851 236.491 225.222 242.338L225.229 242.331ZM265.96 250.902C266.589 250.192 267.057 249.145 266.582 248.216C261.231 241.387 259.665 235.378 251.548 244.161C249.206 246.693 250.736 247.111 252.785 248.794C256.423 251.787 262.168 255.198 265.96 250.902ZM223.765 262.085C223.494 263.425 224.138 263.52 225.039 264.098C226.224 264.852 240.094 270.751 240.958 270.751C245.883 270.751 250.26 263.886 253.744 260.98C253.751 259.56 239.889 253.083 237.298 253.244C232.811 253.515 228.522 261.749 223.772 262.085H223.765Z" fill="white"/>
<path d="M209.881 198.468C212.867 198.483 215.758 196.038 218.32 195.57C219.476 195.357 220.259 195.072 220.069 196.58C218.532 209.073 214.66 221.179 213.321 233.717C209.551 246.225 207.868 259.802 204.391 272.318C203.857 274.228 203.176 279.417 200.783 279.585C199.297 279.688 188.567 275.889 186.277 275.048C167.459 268.138 147.478 255.93 134.15 240.875C123.04 228.33 114.41 212.418 108.914 196.638L206.602 167.691C207.495 167.618 208.146 167.823 208.79 168.46C212.318 171.973 207.231 192.905 209.881 198.461V198.468ZM137.971 232.311C138.988 233.687 139.237 237.259 141.118 239.777C149.937 251.59 178.804 245.515 190.836 241.226C195.733 239.484 204.896 235.751 206.038 230.108C206.558 227.532 205.562 225.168 205.775 223.653C206.053 221.713 210.481 221.552 208.973 215.068C207.992 210.845 202.576 209.827 200.732 207.229C199.158 205.019 199.67 201.93 197.424 198.834C189.695 188.207 169.552 188.294 158.061 190.915C147.639 193.293 129.122 202.647 131.632 215.617C131.962 217.3 133.689 218.332 133.799 220.089C133.938 222.336 131.705 223.66 132.474 227.181C133.242 230.701 136.873 230.818 137.971 232.311Z" fill="white"/>
<path d="M232.54 33.9422C232.46 35.5159 233.155 38.363 231.34 38.9631C202.613 39.6658 175.788 47.8851 151.591 63.0722C116.321 85.2051 94.1219 133.284 98.7768 174.615C109.616 270.905 213.76 312.653 297.183 275.157C300.381 273.716 303.265 270.473 307.144 270.861C308.542 276.526 303.682 278.7 299.378 281.013C239.106 313.348 155.749 294.941 116.379 238.921C82.2138 190.315 81.6575 132.245 118.86 85.1978C133.923 66.1462 149.864 55.6872 172.07 46.2603C191.056 38.1946 211.754 33.2177 232.548 33.9569L232.54 33.9422Z" fill="white"/>
<path d="M366.392 165.561C365.85 166.278 363.055 163.197 362.857 162.919C356.826 154.48 351.527 143.062 345.496 134.184C343.974 131.945 338.77 123.864 336.618 123.264C334.466 122.664 329.789 127.26 327.989 128.98C324.79 132.025 321.65 135.289 319.594 139.242C320.157 139.769 324.007 136.578 324.724 135.97C328.274 132.947 331.751 129.061 334.583 125.357C340.08 131.183 345.342 137.807 348.036 145.309L346.279 147.285L340.329 140.098C338.66 139.783 337.452 142.067 336.42 142.491C335.74 142.77 334.774 142.03 334.371 142.279C333.844 142.609 333.895 144.716 332.402 144.365L329.723 139.359C326.291 138.532 322.675 141.064 321.768 144.358H320.692C319.045 141.73 316.388 140.318 314.485 138.129C312.282 135.59 305.724 126.829 304.282 124.128C303.477 122.613 304.136 121.749 304.216 120.241C302.687 118.741 296.978 126.851 295.858 128.329C290.471 135.465 286.241 143.589 281.117 150.879C279.361 153.375 274.23 161.17 271.712 161.221C271.024 161.236 266.325 160.723 266.926 159.362C267.914 157.115 273.769 151.143 275.577 148.266C276.345 147.037 277.202 145.58 277.136 144.072C276.426 141.774 265.659 142.565 263.273 141.079L330.777 83.7558C352.442 105.062 366.392 134.814 366.392 165.569V165.561ZM323.707 115.367C315.81 108.004 312.319 116.75 306.412 121.683C313.665 123.689 320.282 122.562 327.623 122.415C328.662 121.398 324.673 116.26 323.707 115.367ZM346.645 114.386C340.907 113.303 337.928 112.512 332.958 115.66C332.227 116.121 331.656 115.594 332.022 117.299C336.472 117.175 341.558 117.907 345.723 116.011C346.704 115.565 346.879 115.952 346.652 114.386H346.645Z" fill="white"/>
<path d="M158.632 131.213C163.58 142.14 166.047 153.902 169.516 165.378L169.333 167.069L154.343 171.365C152.975 167.969 151.02 163.988 149.03 160.943C147.193 158.147 142.523 150.433 139.486 155.541C134.911 163.241 138.973 164.244 140.803 171.439C137.861 172.588 124.906 178.509 122.776 176.957C122.242 176.569 119.534 167.311 118.794 165.583C116.269 159.684 112.551 154.378 111.929 147.578C111.41 141.877 113.012 144.226 114.579 142.704C115.003 142.287 114.857 141.006 115.501 140.362C118.121 137.698 152.616 132.808 158.64 131.227L158.632 131.213ZM154.168 139.337C144.404 141.079 150.567 153.704 157.915 148.361C162.08 145.339 155.368 141.862 154.168 139.337ZM131.596 148.017C128.836 149.635 125.228 145.031 122.806 147.608C118.443 152.233 124.525 161.47 130.161 155.732C132.562 153.287 130.608 150.894 131.588 148.025L131.596 148.017Z" fill="white"/>
<path d="M234.67 120.286C235.732 121.047 237.291 128.629 238.037 130.459C238.864 132.486 243.022 140.596 244.28 141.767C250.114 147.183 264.591 143.114 271.273 147.644C271.624 151.384 256.196 163.644 254.6 168.299C254.198 172.851 260.653 185.835 259.526 189.224C258.918 191.054 256.613 190.432 255.171 190.117C249.77 188.939 240.204 181.385 235.878 181.678C234.59 181.766 225.426 186.018 223.589 186.962C222.382 187.577 214.104 193.279 213.533 192.62L215.004 166.088L197.021 152.46L195.235 146.568C204.955 145.917 220.493 147.33 226.1 137.573C228.683 133.087 229.24 124.267 231.018 121.464C231.516 120.673 234.048 119.846 234.663 120.293L234.67 120.286ZM234.729 133.394C233.397 133.116 233.28 133.753 232.709 134.66C231.296 136.914 230.433 140.72 228.756 143.136C225.265 148.149 214.14 152.021 208.029 151.692C207.348 151.692 207.597 152.943 207.787 153.375C209.098 156.303 221.247 162.348 222.148 165.349L220.837 182.373C221.591 183.222 233.382 175.062 236.544 175.032C241.353 174.988 248.73 180.858 253.005 183.105L248.006 166.806C251.043 161.455 257.125 157.781 260.697 153.126C261.261 152.394 262.117 152.197 261.788 150.931C249.001 151.831 235.358 148.31 234.722 133.379L234.729 133.394Z" fill="white"/>
<path d="M368.588 192.613C367.424 191.412 371.31 172.998 371.537 169.609C375.299 114.262 332.241 65.7437 283.189 47.285C280.847 46.3994 270.702 43.7572 269.824 43.0984C268.177 41.8688 269.48 38.5533 269.846 36.8626C294.833 42.3446 316.051 53.7843 334.942 70.8524C366.634 99.492 384.756 146.722 375.775 189.202L368.58 192.605L368.588 192.613Z" fill="white"/>
<path d="M341.522 203.584C338.287 204.367 336.838 201.996 334.371 200.869C323.239 195.782 315.246 192.876 302.716 195.138C288.071 197.78 272.642 209.007 277.926 225.849C283.643 244.088 312.897 243.832 327.623 238.686L327.528 243.334C326.481 246.481 307.364 246.971 303.821 246.759C291.43 246.027 278.387 241.855 273.681 229.362C268.975 216.868 272.32 207.324 282.274 198.819C295.353 187.643 317.515 187.65 332.739 194.45C336.091 195.95 342.671 199.383 341.522 203.577V203.584Z" fill="white"/>
<path d="M260.807 167.128C262.051 166.71 263.617 167.054 264.906 167.215C273.579 168.291 286.563 171.819 295.616 173.803C313.541 177.733 332.79 182.161 350.466 186.97C353.225 187.723 359.541 188.916 360.734 191.332C362.549 195.013 358.173 195.76 355.252 195.394C346.674 194.325 333.932 189.224 324.856 186.97C306.456 182.395 285.209 179.38 267.497 174.117C266.142 173.715 260.39 172.105 259.943 171.438C259.336 170.172 259.138 167.676 260.814 167.12L260.807 167.128Z" fill="white"/>
<path d="M264.693 74.9291L267.643 95.364C264.862 94.6614 265.301 93.5782 265.462 90.9726L247.171 92.4437L250.026 110.961C249.814 111.634 244.602 114.767 243.717 114.965C233.887 117.175 227.937 100.143 242.78 101.205C240.936 94.0466 238.081 86.7861 239.45 79.2328L264.693 74.9218V74.9291ZM260.338 81.4724L246.52 83.0167L245.715 87.3203C250.655 87.518 255.478 86.0541 260.265 85.0588L260.338 81.4724Z" fill="white"/>
<path d="M342.993 156.054L345.906 154.597C346.93 159.025 343.454 159.062 341.522 161.894L348.833 164.471L345.92 168.116C348.402 170.472 351.659 170.004 352.705 173.773C352.925 174.564 353.591 174.644 352.522 175.449C350.019 176.855 337.496 174.659 333.837 174.337C330.177 174.015 325.617 175.625 323.253 172.5C325.522 169.506 327.462 168.665 331.282 169.206C330.645 165.144 326.203 166.388 323.246 166.279C321.401 164.588 332.08 159.399 330.55 156.046L326.905 156.771L327.249 155.3C334.371 150.506 339.758 142.572 343 156.046L342.993 156.054Z" fill="white"/>
<path d="M245.693 66.1169C244.024 66.4316 244.529 66.0071 244.076 65.1874C241.902 61.2863 236.903 38.2385 236.939 33.5835C237.027 21.8145 246.967 14.5612 258.296 18.0671C274.618 23.1173 260.617 44.5036 254.783 52.8913C251.687 57.334 246.849 60.5178 245.693 66.1169ZM244.976 58.8051C246.388 59.1491 246.381 58.2855 247.032 57.5755C251.234 53.0084 259.65 39.4315 261.019 33.5396C264.466 18.6453 246.352 16.8668 242.421 28.1016C239.12 37.5359 245.137 49.0341 244.976 58.8051Z" fill="white"/>
<path d="M291.057 217.476L302.072 217.066C304.897 225.541 304.794 231.477 294.343 231.426C286.292 231.389 284.74 224.56 285.179 217.812C285.845 207.551 293.304 203.804 302.43 207.946C303.016 215.587 290.778 208.093 291.064 217.468L291.057 217.476ZM296.905 221.135L292.103 222.548L292.557 226.215L296.59 225.563L296.905 221.135Z" fill="white"/>
<path d="M317.383 153.126C315.861 154.736 304.97 142.367 303.075 141.46C301.399 141.086 299.708 145.866 299.825 147.286C298.368 148.793 297.249 142.901 295.807 142.909C292.967 146.393 291.957 149.042 286.665 148.003L302.387 125.358C308.681 133.84 315.261 142.528 317.376 153.126H317.383Z" fill="white"/>
<path d="M308.857 206.76C309.45 206.138 311.953 204.667 312.787 204.477C326.701 201.337 326.993 226.134 318.159 228.857C304.919 232.934 302.299 213.64 308.857 206.76ZM314.192 209.534C310.679 210.2 309.918 224.407 315.517 224.085C319.967 223.682 319.982 209.747 314.192 209.534Z" fill="white"/>
<path d="M336.925 265.145C338.814 264.706 341.932 264.94 339.685 267.179C336.428 270.422 314.463 282.85 314.478 284.379C317.435 287.358 321.27 291.889 316.205 294.897C308.191 299.654 306.127 291.764 300.572 288.024C300.132 286.026 306.522 284.848 308.257 284.028C309.991 283.208 312.245 281.986 313.973 280.969C318.986 278.004 332.841 266.096 336.925 265.152V265.145Z" fill="white"/>
<path d="M171.836 294.985L208.073 303.724C211.586 308.942 199.912 307.661 197.804 307.412C194.218 306.995 174.317 302.326 172.553 300.489C171.324 299.2 171.346 296.602 171.836 294.992V294.985Z" fill="white"/>
<path d="M319.579 173.598L301.377 171.343L300.791 169.565L308.608 164.463L304.985 163.014C306.229 159.984 308.623 159.099 308.63 155.337C313.007 155.139 313.073 157.884 314.566 160.701C316.944 165.21 315.415 163.036 316.066 166.491C316.198 167.201 320.187 173.129 319.586 173.598H319.579Z" fill="white"/>
<path d="M119.373 133.606C118.07 134.646 116.496 138.268 113.701 138.517C107.582 128.798 116.562 122.32 125.009 119.502L127.885 129.266C127.314 131.213 120.888 132.399 119.373 133.614V133.606Z" fill="white"/>
<path d="M93.9538 221.142C95.1176 220.894 95.4471 222.109 95.9082 222.811C98.2869 226.485 100.336 231.104 102.773 234.961C104.332 237.435 111.886 247.608 111.864 249.314C111.842 251.312 109.77 251.465 108.204 250.741C105.437 249.453 99.5383 239.33 97.8257 236.249C96.4204 233.709 89.094 222.189 93.9538 221.142Z" fill="white"/>
<path d="M285.523 84.0633C284.96 83.529 282.998 82.3726 283.745 81.487C283.928 81.2674 287.792 79.5401 288.795 78.8448C290.874 77.4029 297.717 70.7865 299.503 73.392C301.867 76.8467 296.356 87.957 292.886 90.2333C290.771 87.7887 287.829 86.259 285.523 84.0559V84.0633Z" fill="white"/>
<path d="M278.417 85.9589C280.693 85.3368 290.434 93.2633 291.43 95.3785C293.494 99.7773 284.491 104.33 281.908 101.219C281.527 100.758 276.682 91.031 276.557 90.4455C276.133 88.4693 276.433 86.8225 278.417 85.9589Z" fill="white"/>
<path d="M245.473 303.255C252.932 311.431 234.846 315.485 232.687 308.357C230.667 301.682 242.011 299.464 245.473 303.255Z" fill="white"/>
<path d="M91.2897 109.182L89.2257 109.226C87.8423 106.46 89.1158 104.454 90.2503 101.937C91.5457 99.0675 104.94 78.5521 106.36 78.5667L108.036 80.3745L91.2824 109.182H91.2897Z" fill="white"/>
<path d="M268.916 109.08C268.536 109.409 264.364 110.749 263.639 110.756C258.494 110.836 255.303 107.14 256.774 102.046L266.948 99.3309C268.177 101.344 270.973 107.309 268.916 109.073V109.08Z" fill="white"/>
<path d="M269.114 60.9936L276.236 57.8976L278.248 52.24C281.3 55.5263 283.906 58.1245 288.107 59.9031C288.107 60.774 283.108 61.4181 281.952 63.2406C281.183 64.4482 280.942 69.7619 279.712 69.7619C277.297 68.2175 278.182 64.8654 276.082 63.1674C274.42 61.828 271.149 61.7182 269.114 60.9936Z" fill="white"/>
<path d="M176.498 139.696C178.24 141.972 181.234 143.875 184.264 143.626C184.601 146.085 180.699 146.341 179.836 147.783C178.928 149.313 179.155 151.413 179.141 153.126C174.376 153.258 173.549 146.773 168.177 146.539C168.089 145.331 169.757 145.858 170.76 145.119C174.559 142.316 173.073 139.022 173.3 134.85C175.225 135.729 175.327 138.166 176.498 139.696Z" fill="white"/>
<path d="M333.478 218.573C332.958 220.279 329.592 220.001 328.721 218.207C327.784 216.29 328.567 212.286 328.296 209.856C327.959 206.841 324.541 202.918 329.46 201.644C330.441 201.622 333.478 204.323 333.478 204.682C333.478 207.631 334.078 216.59 333.478 218.573Z" fill="white"/>
<path d="M222.294 22.9855L221.972 25.2178L192.315 28.8261L193.047 26.2718C202.693 24.5737 212.45 22.561 222.301 22.9855H222.294Z" fill="white"/>
<path d="M114.235 73.9849C109.851 69.4397 119.168 59.9103 123.486 68.0784C124.921 70.7865 121.722 77.1467 118.253 76.2319C118.034 76.1733 114.389 74.1532 114.228 73.9849H114.235Z" fill="white"/>
<path d="M166.925 41.0345C164.488 38.9558 163.441 33.6495 167.284 31.9441C172.744 29.5142 176.682 33.4665 175.137 39.0803C172.795 40.427 169.457 43.1936 166.932 41.0418L166.925 41.0345Z" fill="white"/>
<path d="M83.0632 181.832C89.5332 181.122 90.9678 192.913 84.3733 193.337C77.7788 193.762 76.8346 182.512 83.0632 181.832Z" fill="white"/>
<path d="M127 262.202C130.689 261.083 138.622 268.856 133.36 272.237C126.465 276.665 120.552 264.149 127 262.202Z" fill="white"/>
<path d="M280.078 300.108L279.653 303.109C276.748 303.877 256.891 309.096 255.947 308.152L256.013 304.565L280.078 300.115V300.108Z" fill="white"/>
<path d="M89.7381 122.598C91.9265 124.787 90.675 130.078 87.3009 131.14C77.8008 134.148 78.4081 121.639 85.8882 121.632C86.9495 121.632 89.0062 121.866 89.7381 122.598Z" fill="white"/>
<path d="M312.07 265.167C320.911 263.227 322.243 273.51 315.202 274.938C311.206 275.75 308.11 270.568 309.464 266.953C309.815 265.928 311.082 265.379 312.07 265.167Z" fill="white"/>
<path d="M155.002 39.0729C155.522 40.8002 154.614 40.7709 154.182 41.3931C152.924 43.1935 138.937 52.1082 135.929 53.9965C134.853 54.6699 130.659 57.9269 130.147 55.5116C129.927 54.4869 134.37 51.1494 135.314 50.4541C137.144 49.1074 154.175 38.1653 155.01 39.0729H155.002Z" fill="white"/>
<path d="M378.622 122.569C385.275 120.585 388.357 130.913 382.684 132.53C376.69 134.236 373.433 124.121 378.622 122.569Z" fill="white"/>
<path d="M119.9 177.989C110.802 178.904 111.556 169.975 111.856 163.373C113.122 163.139 113.752 163.981 114.352 164.888C116.606 168.306 117.946 174.227 119.892 177.982L119.9 177.989Z" fill="white"/>
<path d="M384.785 168.591C386.381 167.603 390.691 168.65 391.606 170.692C393.839 175.676 388.283 179.526 384.309 175.808C383.519 174.571 383.936 169.118 384.785 168.591Z" fill="white"/>
<path d="M341.405 66.0072C337.328 69.8204 330.367 64.8068 333.112 60.2617C335.41 56.4485 343.212 61.9817 341.405 66.0072Z" fill="white"/>
<path d="M130.878 121.691L130.139 117.307C131.639 117.131 144.133 112.33 144.023 115.469C143.057 117.782 131.918 122.701 130.878 121.683V121.691Z" fill="white"/>
<path d="M364.204 237.223C368.215 236.732 371.245 239.14 373.697 241.973C373.755 244.725 362.403 241.973 364.204 237.223Z" fill="white"/>
<path d="M328.399 221.179L333.156 221.816C336.83 227.049 324.754 232.59 328.399 221.179Z" fill="white"/>
<path d="M366.385 93.1756C365.58 94.2076 356.877 82.2482 357.616 81.4797C360.551 81.4065 367.6 91.6167 366.385 93.1756Z" fill="white"/>
<path d="M347.37 230.635C343.6 229.955 340.278 227.459 340.797 223.331C345.211 222.965 346.03 227.422 347.37 230.635Z" fill="white"/>
<path d="M413.037 53.8501L413.944 60.2689C412.019 60.4738 409.728 59.9249 407.891 60.2982C407.028 60.4739 404.964 65.385 400.872 63.0941L399.365 55.9433C401.67 55.431 411.785 52.2765 413.037 53.8501Z" fill="white"/>
<path d="M415.415 97.5597C415.715 94.8956 409.992 93.3293 410.336 91.4483L416.857 83.6827C416.22 86.9251 422.976 89.5453 422.668 91.258C421.526 92.3705 416.564 98.3648 415.415 97.567V97.5597Z" fill="white"/>
<path d="M119.761 41.1295L114.418 46.37L108.98 40.2586L115.121 33.9568C116.555 35.6183 121.21 38.6484 119.753 41.1222L119.761 41.1295Z" fill="white"/>
<path d="M389.776 33.2469C390.691 34.5278 385.436 42.0737 384.258 43.4424L377.4 39.3364L382.962 31.0878L389.776 33.2542V33.2469Z" fill="white"/>
<path d="M62.8549 41.254L62.7452 48.4633C58.8075 50.4029 54.6868 47.8265 50.4125 48.5731L51.2103 41.3272L62.8549 41.254Z" fill="white"/>
<path d="M353.957 39.0583C351.959 38.9558 350.488 39.878 350.283 41.9859H349.214C343.652 37.4188 340.219 35.7208 347.641 30.3412C348.892 31.5855 355.062 37.8287 353.957 39.0583Z" fill="white"/>
<path d="M61.4131 245.237L58.0389 237.954L68.2272 232.143L73.0797 237.581C71.0889 238.54 63.0965 246.459 61.4058 245.237H61.4131Z" fill="white"/>
<path d="M101.39 284.518C96.8741 288.288 91.436 287.556 89.9355 281.51C91.9629 278.59 95.5713 280.434 97.4742 280.142C99.3772 279.849 102.254 276.709 103.739 281.342C102.839 282.081 102.093 283.933 101.39 284.518Z" fill="white"/>
<path d="M36.5134 77.8128C37.4795 67.7711 46.4308 73.3775 52.6227 75.2439C56.0627 86.6909 42.193 77.8055 36.5134 77.8128Z" fill="white"/>
<path d="M79.4691 26.001C81.2038 25.7229 85.4269 30.8609 85.5587 32.1564C85.8075 34.5424 82.8287 35.2157 81.3868 36.8113L74.4996 29.9167C74.4996 28.6871 78.4079 26.1694 79.4618 26.001H79.4691Z" fill="white"/>
<path d="M375.175 63.1966L366.487 64.5653L364.196 57.3487L373.733 56.9534L375.175 63.1966Z" fill="white"/>
<path d="M54.072 109.248L58.9247 103.525C61.6181 103.737 62.7964 106.277 64.1724 108.172L59.4516 112.864L54.072 109.248Z" fill="white"/>
<path d="M86.2104 66.8122L81.6504 68.2248L80.0256 66.8561L79.7109 64.3749C82.4117 61.5425 86.408 62.7574 86.2104 66.8122Z" fill="white"/>
<path d="M71.2572 83.9828C73.4529 82.9947 75.0119 85.6222 74.2361 88.0814C72.3771 94.0026 66.1412 86.2883 71.2572 83.9828Z" fill="white"/>
<path d="M393.341 77.9299C395.551 79.3132 393.085 84.6781 389.74 82.6288L389.059 77.8201L393.341 77.9299Z" fill="white"/>
<path d="M116.423 294.421C118.077 292.789 121.795 294.86 120.302 297.21C118.472 300.093 114.3 296.514 116.423 294.421Z" fill="white"/>
<path d="M182.068 130.466C180.787 122.708 187.499 124.589 190.749 119.707C190.214 115.265 184.784 105.032 180.224 104.161C170.738 102.346 162.592 108.07 155.01 97.9256C148.854 89.699 150.655 79.1375 158.318 72.7187C168.484 64.1993 181.051 68.5981 186.928 79.3498C195.938 76.9491 205.248 78.7203 214.25 76.3636C215.114 77.3663 209.588 90.1088 208.534 92.2094C206.455 96.352 198.265 107.082 198.119 110.368C198.053 111.781 198.763 115.118 199.59 116.245C201.544 118.902 209.449 120.739 211.33 122.781C213.679 125.328 210.832 127.165 208.607 128.117C207.239 128.702 200.432 130.466 199.254 130.466H182.068ZM182.873 81.4064C180.392 64.4042 153.385 71.372 153.619 85.4246C153.831 98.1525 164.7 103.613 176.22 101.944C174.464 99.4334 169.282 95.4664 166.515 94.471C163.346 93.3292 159.145 94.8589 158.135 90.4382C156.349 82.6434 163.361 74.1386 171.463 74.8632C174.171 75.1047 181.636 78.8667 179.55 82.2189C177.94 84.8098 162.731 83.5363 164.576 89.7795C164.927 90.9798 173.739 95.3273 175.437 96.513C177.304 97.8158 188.355 106.211 188.948 107.133C189.826 108.502 195.331 120.395 195.25 121.295C194.891 125.218 187.294 123.089 187.192 127.539C194.152 128.095 200.9 126.66 207.67 125.343C208.088 123.66 207.334 124.143 206.748 123.674C202.071 119.971 197.285 121.866 195.565 113.691C194.02 106.365 198.844 103.627 202.203 97.5743C203.491 95.2468 209.983 82.6068 209.764 81.0844L208.124 80.0524L182.873 81.3991V81.4064Z" fill="#1C1C1C"/>
<path d="M201.83 67.5808L205.475 60.6276C206.016 58.9589 201.2 62.7502 200.703 63.1747C198.836 64.7775 197.489 66.7903 195.843 68.5542C194.789 69.6813 195.169 70.3254 193.786 68.6786C197.98 64.2872 201.508 58.8491 206.931 55.8849C206.287 58.4539 206.88 59.6103 207.604 61.9524L201.83 67.5881V67.5808Z" fill="#1C1C1C"/>
<path d="M223.765 262.085C228.515 261.749 232.804 253.515 237.291 253.244C239.882 253.083 253.744 259.568 253.737 260.98C250.253 263.886 245.876 270.751 240.95 270.751C240.087 270.751 226.217 264.852 225.031 264.098C224.131 263.52 223.487 263.425 223.758 262.085H223.765Z" fill="#1C1C1C"/>
<path d="M265.959 250.902C262.168 255.198 256.423 251.795 252.785 248.794C250.736 247.103 249.206 246.693 251.548 244.161C259.665 235.378 261.231 241.387 266.582 248.216C267.057 249.145 266.582 250.192 265.959 250.902Z" fill="#1C1C1C"/>
<path d="M225.229 242.331C225.858 236.483 229.437 237.603 233.258 236.11C235.805 235.115 242.077 231.118 243.929 234.266C245.393 236.754 239.15 241.797 236.932 242.697C232.409 244.527 229.686 243.649 225.236 242.324L225.229 242.331Z" fill="#1C1C1C"/>
<path d="M252.112 218.383C260.002 217.937 256.093 225.578 250.714 227.232C240.079 230.504 243.358 218.881 252.112 218.383Z" fill="#1C1C1C"/>
<path d="M242.026 211.657C242.414 214.767 243.344 216.283 240.562 218.551C237.115 221.362 227.981 222.979 230.74 216.766C231.963 214.006 239.018 211.247 242.034 211.657H242.026Z" fill="#1C1C1C"/>
<path d="M137.971 232.311C136.873 230.826 133.257 230.738 132.474 227.181C131.691 223.624 133.938 222.335 133.799 220.089C133.689 218.332 131.962 217.307 131.632 215.617C129.122 202.647 147.632 193.286 158.062 190.915C169.553 188.294 189.702 188.207 197.424 198.834C199.671 201.93 199.158 205.011 200.732 207.229C202.576 209.827 207.992 210.852 208.973 215.068C210.481 221.552 206.053 221.713 205.775 223.653C205.555 225.161 206.558 227.525 206.038 230.108C204.897 235.744 195.733 239.477 190.837 241.226C178.804 245.515 149.937 251.583 141.118 239.777C139.244 237.266 138.988 233.695 137.971 232.311ZM163.624 193.55C155.463 194.413 146.285 198.197 140.364 203.935C136.573 207.609 134.055 212.001 137.788 216.773C140.306 219.986 140.606 218.171 142.933 218.369C147.544 218.764 150.618 218.661 155.28 218.12C168.228 216.605 182.266 212.638 194.533 208.371C198.536 204.433 189.929 197.436 186.621 195.76C180.429 192.627 170.489 192.825 163.631 193.557L163.624 193.55ZM194.437 213.875L165.249 220.762C173.132 224.048 183.254 225.944 190.8 220.718C192.879 219.283 196.245 216.37 194.437 213.867V213.875ZM138.198 226.983C140.445 227.876 143.789 223.382 141.864 222.218C138.139 219.949 136.653 223.931 138.198 226.983ZM143.306 232.838C145.473 244.293 160.631 240.597 169.055 239.199C174.983 238.218 197.695 233.768 199.971 228.432C203.703 219.679 192.879 225.739 189.395 226.624C180.575 228.871 171.917 229.376 163.061 226.976L162.314 232.099L153.553 228.44L152.858 232.033L157.161 233.607L156.876 235.795C152.089 238.598 148.173 232.363 143.306 232.838Z" fill="#1C1C1C"/>
<path d="M323.707 115.367C324.666 116.26 328.662 121.398 327.623 122.415C320.282 122.562 313.665 123.689 306.412 121.683C312.311 116.75 315.81 108.011 323.707 115.367ZM323.231 120.227C324.432 119.063 320.209 114.745 318.496 114.672L311.535 119.144C315.027 121.178 319.389 119.905 323.231 120.234V120.227Z" fill="#1C1C1C"/>
<path d="M346.645 114.386C346.872 115.953 346.704 115.565 345.716 116.011C341.558 117.907 336.464 117.175 332.014 117.299C331.648 115.594 332.219 116.128 332.951 115.66C337.921 112.505 340.9 113.296 346.638 114.386H346.645Z" fill="#1C1C1C"/>
<path d="M131.596 148.018C130.608 150.894 132.569 153.28 130.169 155.725C124.526 161.463 118.451 152.226 122.813 147.6C125.236 145.031 128.844 149.628 131.603 148.01L131.596 148.018Z" fill="#1C1C1C"/>
<path d="M154.168 139.337C155.375 141.862 162.08 145.339 157.915 148.362C150.567 153.704 144.404 141.079 154.168 139.337Z" fill="#1C1C1C"/>
<path d="M234.729 133.394C235.366 148.325 249.009 151.838 261.795 150.945C262.125 152.211 261.268 152.409 260.705 153.141C257.133 157.789 251.051 161.463 248.013 166.82L253.012 183.12C248.738 180.873 241.36 175.003 236.552 175.047C233.382 175.076 221.591 183.237 220.845 182.388L222.155 165.364C221.255 162.37 209.105 156.317 207.795 153.39C207.605 152.958 207.356 151.699 208.037 151.706C214.148 152.036 225.28 148.171 228.764 143.15C230.447 140.735 231.304 136.929 232.716 134.675C233.287 133.76 233.404 133.131 234.737 133.409L234.729 133.394Z" fill="#1C1C1C"/>
<path d="M260.338 81.4724L260.265 85.0587C255.479 86.0541 250.655 87.5179 245.715 87.3203L246.52 83.0167L260.338 81.4724Z" fill="#1C1C1C"/>
<path d="M244.976 58.8051C245.137 49.0341 239.121 37.5358 242.421 28.1015C246.352 16.8667 264.466 18.6453 261.019 33.5396C259.658 39.4315 251.234 53.0084 247.033 57.5755C246.381 58.2781 246.388 59.1491 244.976 58.8051Z" fill="#1C1C1C"/>
<path d="M296.905 221.135L296.59 225.571L292.55 226.215L292.103 222.555L296.905 221.135Z" fill="#1C1C1C"/>
<path d="M314.192 209.534C319.982 209.754 319.967 223.689 315.517 224.085C309.918 224.399 310.672 210.193 314.192 209.534Z" fill="#1C1C1C"/>
<path d="M182.873 81.4064L208.124 80.0597L209.764 81.0917C209.983 82.614 203.491 95.2541 202.203 97.5816C198.844 103.634 194.02 106.364 195.565 113.698C197.285 121.874 202.079 119.971 206.748 123.681C207.334 124.15 208.095 123.659 207.67 125.35C200.9 126.668 194.159 128.102 187.192 127.546C187.294 123.096 194.891 125.233 195.25 121.303C195.33 120.402 189.826 108.509 188.948 107.14C188.355 106.211 177.304 97.8231 175.437 96.5203C173.739 95.3346 164.927 90.9797 164.576 89.7867C162.731 83.5509 177.94 84.8171 179.55 82.2261C181.636 78.874 174.171 75.112 171.463 74.8704C163.361 74.1459 156.349 82.6506 158.135 90.4455C159.145 94.8662 163.339 93.3365 166.515 94.4783C169.282 95.4737 174.464 99.4406 176.22 101.951C164.7 103.612 153.838 98.1598 153.619 85.4319C153.377 71.3792 180.385 64.4115 182.873 81.4137V81.4064ZM174.391 93.1755C179.126 94.2001 187.17 92.4216 192.308 93.1755V96.8277C194.035 98.8404 202.24 87.7593 202.562 85.4977C202.737 84.2389 202.562 84.356 201.442 84.3706C191.283 85.7466 180.385 85.2196 171.119 89.8746C171.785 91.0383 173.037 92.8754 174.391 93.1682V93.1755Z" fill="white"/>
<path d="M163.624 193.55C170.482 192.825 180.421 192.62 186.613 195.753C189.922 197.429 198.536 204.426 194.525 208.363C182.259 212.63 168.228 216.597 155.273 218.112C150.611 218.661 147.537 218.756 142.926 218.361C140.598 218.164 140.298 219.979 137.78 216.766C134.048 211.994 136.558 207.602 140.357 203.928C146.278 198.19 155.449 194.406 163.617 193.542L163.624 193.55ZM149.132 210.164C152.477 203.489 143.387 203.057 142.567 208.693L149.132 210.164Z" fill="white"/>
<path d="M143.306 232.838C148.173 232.362 152.089 238.598 156.876 235.795L157.161 233.607L152.858 232.033L153.553 228.439L162.314 232.099L163.061 226.976C171.917 229.376 180.583 228.871 189.395 226.624C192.879 225.739 203.711 219.671 199.971 228.432C197.695 233.768 174.983 238.218 169.055 239.199C160.631 240.589 145.473 244.293 143.306 232.838Z" fill="white"/>
<path d="M194.438 213.875C196.245 216.37 192.879 219.283 190.8 220.725C183.254 225.951 173.132 224.055 165.249 220.769L194.438 213.882V213.875Z" fill="white"/>
<path d="M138.198 226.983C136.653 223.924 138.146 219.942 141.864 222.218C143.782 223.389 140.437 227.883 138.198 226.983Z" fill="white"/>
<path d="M323.231 120.227C319.389 119.898 315.027 121.171 311.536 119.136L318.496 114.664C320.216 114.745 324.432 119.056 323.231 120.22V120.227Z" fill="white"/>
<path d="M174.391 93.1755C173.037 92.8828 171.785 91.0457 171.119 89.8819C180.385 85.227 191.283 85.7466 201.442 84.378C202.562 84.3633 202.745 84.2389 202.562 85.5051C202.247 87.7594 194.042 98.8478 192.315 96.8351V93.1828C187.17 92.429 179.126 94.2075 174.391 93.1828V93.1755Z" fill="#1C1C1C"/>
<path d="M149.132 210.164L142.567 208.693C143.387 203.057 152.477 203.489 149.132 210.164Z" fill="#1C1C1C"/>
</svg>
