<svg width="440" height="371" viewBox="0 0 440 371" fill="none" xmlns="http://www.w3.org/2000/svg">
<path d="M87.6984 315.682C88.7002 315.4 89.1721 313.595 88.1413 312.755C86.9988 311.819 78.8765 310.983 77.974 311.964C77.2372 312.759 79.5389 313.177 79.2118 313.608C77.8209 313.852 76.256 314.324 74.8609 314.436C64.7971 315.214 54.2696 314.055 44.2348 314.113C42.8314 314.121 41.0472 314.775 39.4782 314.448L43.175 316.298C43.3903 318.579 36.2699 317.511 34.734 317.785L34.2786 316.485C33.2064 316.617 32.0142 316.373 30.9751 316.501C29.5593 316.675 29.137 317.491 28.4001 317.652C25.6637 318.24 22.3105 318.82 19.6031 318.174L28.1642 321.407L29.9526 322.719L8.61612 322.74C6.60418 322.74 4.2859 322.276 1.99246 322.293C-11.8675 322.376 -25.86 324.756 -39.7821 325.191C-49.2332 320.422 -59.6489 314.113 -67.3406 306.789C-67.7049 306.442 -68.9758 305.556 -68.1686 305.121L-2.34189 290.015C-2.15146 290.222 -2.82211 292.557 -1.39802 292.428C18.357 287.469 38.199 282.634 58.0948 278.212C75.101 274.433 92.4177 271.465 109.325 267.346C110.533 267.052 112.04 267.801 112.334 266.215C112.5 265.329 112.434 263.048 112.309 262.096C112.247 261.633 111.568 258.917 111.411 258.441C110.972 257.104 108.989 256.143 111.072 253.891C112.14 252.732 120.361 253.117 122.489 253.154C129.941 253.291 136.896 252.947 144.343 253.014C146.351 253.03 152.055 251.42 152.494 254.641C152.854 257.278 150.95 256.698 150.089 258.019C149.613 258.747 149.207 260.304 149.153 261.219C149.675 270.43 149.091 279.769 149.592 288.972C149.646 289.99 149.845 293.72 149.994 294.275C150.106 294.697 150.851 294.685 151.029 294.97C151.397 295.562 151.927 302.165 151.662 302.43L110.67 303.072C110.227 302.737 110.244 302.327 110.244 301.826C110.244 298.58 111.684 295.587 111.933 292.714C112.583 285.271 111.73 277.554 112.136 270.14C112.173 269.428 112.645 269.084 111.713 268.488C109.921 269.825 112.351 274.524 110.807 275.029C108.869 275.662 105.069 275.671 102.734 276.064C73.2795 281.019 42.3595 288.417 13.2982 295.504C8.38843 296.701 3.58215 298.468 -1.45597 299.172C-1.48495 300.34 -2.66892 302.161 -0.897095 302.426C-0.0732803 301.611 0.506287 300.812 1.6944 300.46C11.5512 297.512 23.8505 295.902 34.1048 293.542C45.4685 290.926 56.737 288.268 68.1296 285.755C81.555 282.799 95.0092 279.885 108.414 276.83C109.685 277.049 108.613 280.187 108.592 281.09C108.451 287.026 108.786 294.358 107.78 300.149C107.698 300.621 107.598 300.969 107.118 301.168C97.7332 297.305 88.4477 294.316 78.1769 293.737C51.7775 292.25 27.0754 303.941 3.0357 312.978C2.10425 313.599 3.41655 313.972 3.94644 314.15C7.043 315.177 10.7605 315.16 13.7991 316.505C13.7991 315.471 13.4928 314.15 14.8382 314.022C20.6132 313.533 26.4503 313.603 32.2212 313.189C49.5669 311.952 66.9829 310.416 84.37 309.865C116.83 308.834 149.468 309.381 182.065 308.205C192.05 307.845 205.198 310.312 214.396 309.075C215.771 308.888 215.874 307.969 217.249 307.787C221.115 307.27 225.143 307.799 228.637 308.868C233.059 310.221 245.793 308.632 250.789 308.209C257.583 307.63 265.121 308.59 271.939 308.661C315.059 309.087 358.357 308.425 401.498 312.776C402.785 312.904 404.131 312.697 405.423 312.784L394.109 314.916C393.107 315.52 392.713 317.193 394.026 317.582L420.33 316.514C415.735 320.583 409.322 318.41 403.986 318.579C400.641 318.687 397.387 320.326 394.456 320.649C391.794 320.943 388.685 320.434 385.97 320.641L394.245 319.399L393.243 318.604C388.859 319.499 383.954 318.989 379.59 319.445C376.709 319.747 373.993 321.212 371.145 321.763C363.251 323.286 355.058 320.91 347.052 321.055L354.503 319.813C354.681 318.861 354.433 319.155 353.973 318.894C351.374 317.42 341.761 318.327 338.135 318.178C319.224 317.408 301.953 317.731 283.075 318.145C266.856 318.497 250.45 318.372 234.247 319.407C228.12 319.797 222.009 321.134 215.821 320.641L216.168 319.234C215.899 317.954 212.513 318.095 211.453 318.145C210.195 318.207 201.754 319.49 201.749 320.434L202.42 320.997C206.39 321.61 211.821 320.889 215.585 321.494C216.611 321.659 217.294 322.421 218.201 322.603C234.611 325.928 254.995 325.683 271.89 326.044C282.057 326.259 293.524 324.673 303.389 325.592C307.624 325.986 310.038 326.996 314.96 326.847C325.065 326.544 335.03 325.965 345.201 326.006C359.881 326.064 374.921 325.688 389.484 327.675C390.358 327.795 391.289 327.621 392.167 327.683C392.511 329.124 390.499 328.329 389.513 328.544C388.528 328.759 387.729 329.177 386.789 329.343C385.767 330.635 391.674 330.97 392.362 331.011C411.198 332.096 430.228 332.03 449.089 333.483C453.99 333.859 458.892 334.708 463.789 335.134C463.843 335.515 463.831 335.66 463.591 335.967C462.982 336.753 455.241 338.927 453.701 339.324C444.945 341.588 435.751 342.694 426.734 343.406C403.866 345.211 381.064 343.534 358.225 342.578L364.414 340.702L366.914 339.278L353.891 338.016C343.127 337.941 332.289 339.175 321.791 341.352C321.48 343.393 323.881 343.406 325.43 343.708C335.39 345.658 346.981 345.674 357.182 346.73C367.382 347.786 383.689 348.398 393.082 351.404C393.517 351.54 394.332 351.511 394.233 352.103C384.293 355.399 373.848 357.328 363.391 358.317C348.418 359.729 334.409 358.98 319.506 358.321C304.18 357.647 288.478 356.123 273.368 359.584V360.776L299.225 364.535L299.842 365.351C296.733 366.249 293.595 367.127 290.399 367.71C266.189 372.111 236.358 371.233 211.884 368.658C201.484 367.566 191.346 365.285 180.81 365.752C159.019 366.717 132.04 368.721 110.562 364.829C108.795 364.51 107.11 363.695 105.272 363.695V362.461C109.043 361.989 112.877 361.526 116.664 361.215C125.019 360.528 133.575 360.582 141.909 359.551C143.871 359.307 155.152 357.746 148.864 355.088C145.13 353.511 139.131 353.167 134.995 351.983C127.523 349.847 126.136 347.773 134.933 346.366C150.801 343.828 167.965 345.198 183.53 341.973C184.776 341.717 191.793 340.181 191.785 339.059C191.296 338.459 190.655 338.177 189.905 338.049C183.779 336.997 176.443 337.444 170.109 336.732C167.816 336.476 154.746 334.431 153.894 333.077V331.798C155.086 329.914 168.78 328.892 171.645 328.436C173.636 328.118 182.023 326.768 183.091 325.808C184.714 324.35 180.628 323.779 179.879 323.651C168.507 321.68 155.164 322.682 143.548 322.309C134.793 322.028 124.878 320.405 116.226 321.034C111.668 321.366 106.663 323.154 102.159 323.527C99.6913 323.729 84.6805 323.762 83.7449 324.781C83.0287 325.563 85.3843 326.147 85.7899 326.246C92.0203 327.737 95.978 326.847 101.745 327.265C111.635 327.981 124.323 329.099 134.01 330.601C135.997 330.908 143.954 332.783 144.438 334.687C144.513 335.577 143.316 336 142.629 336.256C128.281 341.634 101.964 339.514 86.0259 340.922C80.3958 341.419 74.7533 342.599 69.2557 343.82C71.0979 345.451 74.8775 345.513 77.3779 345.832C89.9173 347.434 105.384 346.858 117.203 349.889C118.883 350.319 122.005 350.953 122.655 352.708C122.419 353.759 113.961 355.134 112.458 355.349C93.8335 358.019 71.6692 357.605 52.9035 355.817C46.7601 355.233 30.9834 353.755 25.966 351.292C25.4278 351.027 24.5501 350.795 25.1587 350.017C26.0612 348.858 41.9331 347.997 45.1704 346.846C45.8949 346.589 46.4289 346.316 46.8925 345.679C46.8925 344.196 40.124 343.464 38.8448 343.385C32.2419 342.967 25.5064 343.758 18.9739 343.832C4.55086 343.998 -11.0396 340.748 -24.6967 336.335L-24.7215 335.122C-18.8596 334.468 -13.0018 333.578 -7.11919 333.052C1.11897 332.319 10.33 331.62 18.5268 331.376C35.4833 330.875 52.4854 333.764 69.4585 332.216C70.866 332.088 85.4257 330.336 85.405 329.525C85.3553 327.393 78.5288 327.203 76.8604 326.47C76.0408 326.11 76.0408 325.427 75.5523 325.199C72.8076 323.916 64.4659 324.081 71.4539 319.718C72.6627 318.964 80.0564 315.657 81.054 315.657C82.5692 315.657 86.5889 315.963 87.6777 315.657L87.6984 315.682ZM138.825 283.805C139.404 283.255 137.964 270.541 137.541 268.736C137.189 267.242 135.972 265.818 136.163 263.905C135.761 263.313 128.252 263.388 127.068 263.553C125.263 263.81 124.472 264.733 123.305 265.992L121.86 263.93C121.413 268.852 121.036 273.932 121.86 278.833H123.094C123.334 273.663 124.745 267.47 131.406 269.076C135.757 270.127 135.111 275.286 136.018 278.126C136.204 278.701 136.929 278.991 137.09 279.537C137.425 280.655 137.094 282.522 137.595 283.801H138.825V283.805ZM102.395 290.843V283.184C102.076 282.791 102.051 282.7 101.538 282.721C99.7741 282.791 95.8703 284.091 93.7756 284.505C91.6809 284.919 89.4412 285.118 87.2803 285.461C86.6635 285.561 86.0011 285.486 85.8355 286.289C91.9168 286.107 96.6983 289.7 102.395 290.847V290.843ZM277.425 329.467C276.799 329.509 273.773 329.807 273.79 330.378C274.572 332.754 281.66 331.525 281.639 330.378C280.463 328.995 278.985 329.359 277.425 329.467ZM255.153 354.177C255.306 353.354 254.78 353.176 254.155 352.902C252.387 352.132 249.307 352.066 247.287 351.491C241.765 349.922 232.467 346.701 244.298 344.768C249.378 343.94 257.558 344.114 262.112 342.296C262.691 342.064 263.498 342.007 263.432 341.141C263.105 339.626 256.357 338.984 254.946 338.864C241.272 337.676 221.939 335.797 208.588 336.795C207.86 336.848 199.489 337.925 202.002 339.717C210.89 343.613 220.991 342.88 230.086 345.923C231.258 346.312 232.376 346.49 232.777 347.765C232.487 348.212 232.04 348.407 231.564 348.593C227.197 350.294 218.843 350.419 213.684 351.834C213.353 351.925 211.279 352.099 212.103 352.927C212.505 353.333 219.459 354.397 220.639 354.538C231.912 355.875 243.946 355.883 255.153 354.173V354.177Z" fill="white"/>
<path d="M-54.9171 197.285L-55.36 203.267L-54.0932 203.904L-55.2814 205.295C-54.2837 207.046 -52.0316 206.715 -50.9718 205.154L-52.0151 203.701C-51.7294 203.3 -51.4438 203.171 -50.9636 203.093C-46.2773 202.319 -38.3248 203.229 -33.1625 203.093C-23.5044 202.84 -12.4719 202.911 -2.94208 202.265C-2.02718 202.203 -1.17026 201.934 -0.267784 201.83L-2.33768 201.424L-2.71854 196.299C-2.39149 195.153 0.427704 195.753 1.39227 195.629L0.146194 201.834C1.43781 202.501 2.43136 201.83 3.65259 201.818C8.88528 201.772 14.0973 201.627 19.3051 201.068C26.2475 206.529 33.2976 211.84 40.9396 216.315L40.4967 217.549C39.1843 216.816 38.0625 217.42 36.8578 217.416C26.1482 217.35 13.2983 216.212 2.82049 217.135C2.1871 217.193 1.3343 217.064 0.98243 217.785C0.572586 218.625 3.64017 218.803 4.06657 218.832C13.7826 219.49 24.9559 218.816 34.6968 218.385C35.4751 218.352 37.6402 218.195 38.0583 218.791L39.0602 274.276C26.6243 276.549 14.387 279.981 1.9056 282.047C-1.48074 282.606 -5.02853 282.568 -8.29069 283.028C-11.3003 283.454 -14.4424 284.957 -17.6424 284.638C-17.5762 280.817 -18.9548 278.594 -23.0242 280.089C-22.7385 273.904 -28.4845 273.13 -33.3778 273.875C-32.6285 272.086 -32.645 266.58 -34.2223 265.409C-36.0024 264.084 -35.1786 265.119 -36.9131 263.14C-38.6477 261.161 -44.9816 259.178 -47.6103 259.406C-50.9304 259.692 -52.2138 261.981 -54.2712 263.96C-54.768 264.436 -55.596 264.506 -56.0224 264.9C-57.1236 265.914 -56.9331 268 -57.6079 268.899C-58.2827 269.797 -59.5702 269.226 -60.0794 271.383C-60.4478 272.939 -60.3236 274.028 -59.8682 275.535C-63.3746 275.448 -67.6634 279.248 -66.2062 282.899C-65.9993 283.421 -65.2334 283.376 -65.014 284.187C-63.7762 288.745 -68.6611 291.734 -72.7016 291.68V288.364H-73.9435L-73.5833 296.387C-76.7958 299.194 -77.4002 294.752 -77.2553 292.09C-81.2419 292.959 -81.9581 289.138 -84.0777 286.7C-85.5018 285.065 -91.0988 281.537 -88.4079 279.07C-85.9157 276.781 -80.6748 277.352 -82.6784 272.463C-83.2083 271.167 -86.1641 267.206 -86.3546 266.208C-86.959 263.041 -87.344 253.072 -87.2074 249.64C-87.1328 247.728 -86.011 244.569 -85.9654 243.451C-85.9199 242.4 -88.0022 239.618 -87.1949 237.863C-88.4617 238.467 -87.7869 240.612 -88.1057 241.709C-88.3003 242.388 -89.4346 243.033 -89.6084 243.87C-85.2534 246.618 -91.2643 251.106 -91.699 244.946C-91.0988 244.772 -89.9479 244.213 -90.0928 243.456C-90.3039 242.354 -92.3779 243.907 -92.9037 242.123C-93.7275 239.32 -91.8895 235.284 -94.2326 232.481C-94.9984 232.721 -95.3255 233.648 -95.4414 234.369C-95.6567 235.669 -95.2924 240.388 -95.0398 241.779C-94.8287 242.926 -93.3342 244.221 -93.0859 245.207C-92.8582 246.097 -93.1148 247.024 -92.8913 247.91C-92.6429 248.891 -91.372 249.471 -91.2975 250.903C-91.2519 251.76 -91.7239 252.58 -91.7446 253.395C-91.9102 260.114 -91.8688 266.878 -93.1935 273.465C-99.4818 266.142 -104.503 256.595 -107.174 247.289C-107.902 244.747 -108.912 241.063 -109.128 238.48C-109.628 232.564 -108.444 226.329 -109.546 220.48L-87.0004 220.045C-71.8239 220.422 -56.5688 219.797 -41.4628 219.631C-31.7053 219.523 -16.9718 220.923 -7.9388 219.623C-4.26682 219.093 -3.28156 216.779 -0.611389 214.945L17.5457 203.908C17.1276 202.877 16.1175 202.306 15.0825 202.886L-8.7502 217.565C-42.2783 217.859 -75.8933 217.623 -109.355 218.381C-110.705 218.41 -112.899 219.499 -111.607 216.961C-104.822 213.028 -98.3641 208.578 -92.6884 203.163L-61.934 203.503C-61.5283 203.097 -62.6502 198.055 -61.3172 197.289H-54.9005L-54.9171 197.285ZM-67.8125 206.036C-68.4666 205.618 -75.8105 206.193 -76.6095 206.761C-76.8993 206.968 -77.0194 208.772 -77.9218 209.675C-78.6877 210.441 -79.9462 210.59 -80.5796 211.575C-80.8114 212.395 -79.5777 212.391 -79.3956 212.685C-79.2631 212.892 -80.2732 214.535 -77.868 214.659C-76.8331 214.713 -76.1334 213.98 -74.7632 214.432C-73.2232 214.941 -73.426 217.375 -70.6441 215.909C-71.588 214.013 -72.9748 212.825 -75.1399 212.548L-76.0258 208.052H-72.714C-72.9996 209.1 -73.0162 210.18 -72.093 210.942C-70.9629 209.464 -69.663 208.959 -67.8373 208.797C-67.237 207.92 -67.3157 206.947 -67.8083 206.04L-67.8125 206.036ZM-66.9183 212.184C-64.7656 212.627 -65.2665 211.352 -64.6124 210.561C-63.7803 209.555 -58.1626 209.335 -62.0789 206.889L-63.83 207.622L-66.9183 212.184ZM-58.6429 212.188H-52.6402L-52.073 211.219L-52.8389 210.325C-51.7129 209.642 -50.8477 209.447 -50.3633 208.052C-51.51 208.445 -52.6402 207.477 -53.4516 207.415C-56.6558 207.166 -57.0904 210.11 -58.6429 212.188ZM22.9109 212.602L18.7545 207.406L14.8424 207.22L14.3912 208.065C15.4261 209.638 16.0554 211.041 14.6272 212.602H22.9067H22.9109ZM-84.3757 209.348C-86.5409 208.926 -87.9318 209.518 -89.2938 211.149C-89.6167 211.538 -89.5877 212.345 -89.7823 212.507C-90.2998 212.937 -92.6263 212.432 -92.1751 214.663C-91.0118 214.022 -87.8159 214.87 -87.2032 214.481C-86.5905 214.092 -85.7543 211.19 -84.0777 210.933L-84.3757 209.344V209.348ZM-58.2289 212.602L-62.3273 213.053L-62.1907 214.701C-60.1911 215.756 -58.084 215.131 -58.233 212.606L-58.2289 212.602ZM-87.8946 229.024C-88.5569 227.758 -88.321 224.644 -90.5109 225.021C-90.8421 225.253 -91.6452 229.111 -91.8563 229.48C-92.0054 229.74 -93.2059 230.043 -93.624 230.817C-94.4354 232.324 -93.1148 231.972 -92.8085 232.464C-91.9929 233.773 -93.0569 235.751 -89.9065 235.822C-86.7561 235.892 -86.0565 233.561 -86.3753 230.813C-85.448 232.916 -81.1095 232.994 -81.8836 230.279C-82.0989 229.525 -83.5312 229.004 -83.4898 227.915C-83.9535 227.588 -85.9033 229.716 -85.9737 230.39C-86.3753 230.61 -87.8407 229.128 -87.8946 229.02V229.024ZM-22.1051 227.195C-22.8627 227.993 -22.8586 236.588 -22.4405 237.871C-21.8154 239.796 -17.2575 239.539 -16.3922 238.082C-15.8085 237.105 -15.763 229.148 -16.1852 227.89C-16.8476 225.911 -20.6479 226.073 -22.1051 227.19V227.195ZM4.57162 226.346C3.90098 226.545 3.58635 227.066 3.46629 227.724C3.26345 228.813 3.27173 236.666 3.53667 237.561C4.03345 239.233 8.64517 238.422 9.21646 237.614C9.78775 236.807 9.92022 228.54 9.57662 227.381C9.1378 225.895 5.72662 226.006 4.56748 226.346H4.57162ZM24.0038 226.317C22.6004 226.789 22.5797 235.731 22.9978 237.147C23.4615 238.724 27.4895 238.711 28.2677 237.614C28.8556 236.782 28.9715 228.544 28.6279 227.377C28.2181 225.982 25.1049 225.948 24.0079 226.317H24.0038ZM-42.8123 227.186C-43.4913 227.865 -43.5782 236.782 -43.2387 237.97C-42.742 239.693 -39.5957 239.912 -38.2172 239.44C-35.4518 238.496 -37.5424 230.08 -37.1988 227.791C-37.5507 226.135 -42.0506 226.425 -42.8123 227.186ZM-65.3907 227.174C-66.0614 227.373 -66.376 227.894 -66.496 228.552C-66.732 229.803 -66.674 237.2 -66.3222 238.289C-65.7964 239.908 -62.7868 239.846 -61.4124 239.432C-59.2887 238.79 -60.4064 235.863 -60.3236 234.323C-60.2408 232.783 -59.1065 227.782 -60.9736 227.149C-61.578 226.946 -64.7242 226.979 -65.3866 227.174H-65.3907ZM-82.7198 232.945C-83.8707 232.291 -85.3362 233.996 -85.5225 235.188C-85.7295 236.488 -85.3196 239.891 -85.154 241.394C-85.0837 242.015 -85.1085 242.437 -84.5082 242.822C-82.7447 243.195 -80.7617 234.058 -82.7198 232.949V232.945ZM-37.5507 256.459C-37.2816 254.14 -36.1556 246.589 -38.2296 245.385C-44.2323 241.903 -43.7272 253.329 -42.891 256.459H-37.5507ZM-60.7169 256.897C-60.187 253.909 -58.8871 243.704 -64.5586 245.393C-67.5186 246.275 -66.5126 254.451 -66.0903 256.897C-64.2523 256.31 -62.5508 256.31 -60.7127 256.897H-60.7169ZM-22.6268 249.239V269.11C-22.6268 270.406 -18.0606 269.11 -17.1001 269.255L-16.475 268.638C-16.8476 262.304 -15.7837 255.018 -16.3922 248.8C-16.7607 245.045 -22.0306 245.165 -22.6268 249.239ZM22.9109 264.763C24.2025 264.684 27.9448 264.647 28.5037 263.525C28.8804 262.764 28.868 254.331 28.7314 252.944C28.4043 249.649 25.0014 250.162 22.9109 251.727V264.767V264.763ZM3.45388 253.793V267.04C3.45388 268.013 7.79237 267.379 8.54167 267.16C9.65527 266.833 9.59318 265.93 9.68839 264.995C9.83328 263.538 9.84157 254.372 9.46071 253.586C8.80662 252.24 3.8513 252.381 3.45802 253.793H3.45388ZM-61.669 262.408C-64.8194 259.443 -68.0526 264.742 -66.1234 267.901L-60.7376 267.64C-60.3526 266.03 -60.3733 263.633 -61.6732 262.412L-61.669 262.408Z" fill="white"/>
<path d="M191.814 201.838C191.338 201.254 189.723 200.571 189.719 199.557C189.719 198.332 192.431 198.199 192.646 197.404C192.555 194.536 192.745 191.646 192.659 188.781C192.634 188.04 191.665 184.865 192.849 184.865H199.68C200.123 183.188 196.802 184.439 196.368 184.033V160.026C211.743 156.855 227.689 157.066 243.143 159.612C243.007 166.799 242.199 174.549 242.766 181.723C242.849 182.779 243.719 183.656 243.147 184.861L247.697 185.283L247.287 198.108C237.865 194.486 228.927 189.779 220.097 184.927C216.533 187.187 212.786 189.274 208.936 191.013C204.378 193.07 199.067 194.341 194.84 197.202C194.306 197.562 193.706 197.661 193.888 198.522L200.106 197.914L220.109 187.842C222.991 188.864 225.222 191.232 227.698 192.652C229.358 193.604 235.567 197.135 236.925 197.5C239.335 198.15 247.37 198.365 248.935 199.565C250.4 201.466 246.637 202.12 246.513 202.298C246.174 202.774 246.708 205.792 246.376 206.918C245.979 208.276 244.182 207.99 243.955 209.878C243.102 216.845 245.18 225.116 244.389 232.261C244.493 233.23 245.532 233.28 246.004 233.959C246.637 234.861 246.77 237.018 248.74 237.018H286.619C286.938 238.657 284.847 239.502 284.64 240.636C284.462 241.597 285.332 243.286 284.967 244.474C276.775 245.198 268.541 244.71 260.315 244.867C253.041 245.008 245.693 244.995 238.391 245.749L224.522 244.884C224.556 241.58 223.301 238.007 223.665 234.708C223.81 233.425 224.398 232.895 224.543 231.86C225.475 225.195 223.798 216.377 224.531 209.468C223.815 208.839 223.007 206.992 222.361 206.673C221.372 206.185 217.034 206.214 216.351 206.901C216.247 207.005 215.034 209.344 215.005 209.488C214.086 214.137 214.939 226.366 214.984 231.856C214.993 233.073 215.477 234.182 215.444 235.565C215.374 238.359 213.829 241.862 213.378 244.697L190.378 246.121L189.959 244.039C188.887 245.985 184.338 245.356 182.077 245.302C178.724 245.219 175.512 245.293 172.175 245.302C166.669 245.318 161.159 245.302 155.657 245.227L154.978 244.25C155.45 241.841 153.976 238.686 154.651 236.463C154.858 235.784 156.021 235.337 155.831 234.335L155.806 203.883H189.131C189.202 203.883 189.86 204.521 189.951 204.719V242.383C191.214 241.179 190.228 239.183 190.663 237.709C190.982 236.637 194.472 233.855 194.741 231.852C195.167 228.668 195.258 212.378 194.708 209.484C194.468 208.213 193.01 207.853 192.733 206.905C192.203 205.109 193.358 203.689 191.822 201.813C197.138 201.644 202.457 201.561 207.777 201.416C208.758 201.391 209.661 200.99 210.642 200.969C221.997 200.712 233.738 202.347 245.014 201.428C245.639 201.379 246.314 201.312 246.467 200.576L231.361 199.338L231.564 198.506C218.251 198.237 205.492 198.22 192.439 200.99L191.822 201.813L191.814 201.838ZM210.033 181.549C210.36 176.159 211.714 168.931 210.758 163.645C210.273 160.979 207.86 161.024 206.096 162.506L205.649 181.984C206.432 183.035 209.437 181.971 210.633 181.947C214.533 181.868 218.333 182.286 222.241 181.963L223.194 181.297C222.9 175.911 223.831 169.689 223.276 164.373C222.788 159.674 216.897 160.875 216.322 162.796L216.061 180.75L210.033 181.549ZM233.212 181.963C232.57 176.37 233.945 169.569 233.175 163.996C232.682 160.432 229.022 160.217 228.637 163.111C227.983 168.033 228.82 175.435 228.989 180.518C229.002 180.945 228.526 181.843 228.658 181.959H233.212V181.963ZM202.991 180.932C203.811 175.915 202.383 168.803 202.991 163.545C202.462 162.688 200.905 162.572 200.57 163.607L200.094 181.963L202.292 181.98C202.548 181.922 202.958 181.131 202.991 180.928V180.932ZM239.008 181.76V163.545C238.362 162.672 237.132 162.841 236.155 162.974C235.464 164.605 236.151 166.012 236.143 167.693C236.135 169.374 236.101 170.926 236.126 172.636C236.168 175.608 236.201 178.626 235.89 181.574C236.495 182.311 238.672 182.853 239.008 181.76ZM200.508 186.935H208.994C209.151 186.935 211.557 185.788 211.685 185.283C208.137 184.36 205.31 185.089 201.936 186.086C201.377 186.252 200.648 186.124 200.508 186.935ZM240.663 185.697L228.248 185.283C227.565 185.805 228.29 186.037 228.861 186.111C230.252 186.289 231.945 186.028 233.419 186.111C235.162 186.215 236.325 186.637 238.341 186.467C238.788 186.43 240.626 186.277 240.668 185.697H240.663ZM219.447 193.207C217.183 193.633 217.717 196.163 219.348 196.461C222.825 197.098 222.154 192.693 219.447 193.207ZM207.943 206.822L201.791 206.847C201.733 208.342 201.232 208.714 200.16 209.551C200.657 216.41 199.266 224.777 200.081 231.45C200.301 233.234 201.878 234.174 201.331 236.203L207.504 236.157C207.106 234.894 208.737 233.574 208.771 233.421C209.706 229.306 208.622 218.637 208.771 213.62C208.808 212.262 209.429 210.933 209.238 209.484C209.122 208.578 208.315 208.876 208.034 208.176C207.868 207.77 208.054 206.947 207.943 206.822ZM237.294 206.868L232.227 206.777C232.011 208.098 230.521 208.876 230.322 209.915C229.594 213.711 230.608 220.364 230.749 224.375C230.889 228.387 229.722 232.502 232.231 236.14L237.352 236.194C236.871 234.493 238.345 233.619 238.573 232.241C239.132 228.859 239.099 213.392 238.618 209.882C238.573 209.546 237.414 206.976 237.294 206.864V206.868ZM163.25 209.911V217.362C163.775 218.149 164.678 218.008 165.526 218.008C166.06 218.008 166.594 218.033 167.116 217.917L167.803 217.362V210.325C167.803 209.253 163.899 208.69 163.25 209.911ZM179.809 210.325V217.362C180.334 218.149 181.237 218.008 182.086 218.008C182.62 218.008 183.154 218.033 183.675 217.917L184.362 217.362V210.325C184.362 209.157 180.272 208.673 179.809 210.325ZM174.837 212.188L173.251 212.875L173.189 218.397L175.04 217.59L174.841 212.188H174.837ZM175.255 229.575V222.744C175.255 222.024 173.156 221.734 172.564 222.951C172.059 223.986 172.034 229.235 173.193 229.807L175.259 229.575H175.255ZM163.25 233.714L167.621 233.325C167.741 229.533 169.43 221.647 163.25 224.814V233.714ZM179.809 224.814V233.094C180.334 233.88 181.237 233.739 182.086 233.739C182.62 233.739 183.154 233.764 183.675 233.648L184.362 233.094V225.228C184.362 224.156 180.459 223.593 179.809 224.814Z" fill="white"/>
<path d="M327.806 151.332C328.477 151.407 329.644 151.949 330.513 151.937C330.948 152.404 330.927 153.129 331.321 153.613C332.471 155.037 336.653 158.685 338.217 159.562C339.468 160.262 339.96 159.732 341.26 159.616C341.641 160.018 340.594 164.211 341.885 164.994L341.687 158.983C339.948 159.744 336.971 153.419 337.129 152.806L338.093 152.214C340.192 153.324 340.751 155.344 343.326 153.406C342.486 155.6 344.344 156.611 344.584 158.569C344.825 160.527 344.916 164.104 344.945 166.074C344.969 167.68 344.121 169.771 344.63 171.559L348.67 171.986L349.515 168.483L352.442 168.305C353.328 170.247 350.877 171.013 350.782 171.431C350.686 171.849 351.523 172.412 351.605 173.087C351.663 173.542 351.171 174.229 351.378 174.527C351.858 175.227 353.837 174.726 354.657 175.306C355.145 175.649 355.625 178.199 357.645 178.216L356.958 182.112C362.067 184.856 359.09 177.765 359.475 177.413C361.773 177.877 361.297 176.962 362.352 175.947C363.93 174.432 365.027 173.964 366.186 171.907C366.513 171.323 366.393 170.404 366.728 169.953C366.869 169.763 369.187 168.62 369.618 167.904C369.874 167.482 368.939 165.908 369.605 164.965C369.845 164.625 370.619 164.7 370.926 164.435C371.315 164.095 371.89 162.924 372.52 162.924H380.178C380.708 165.109 379.023 168.202 380.394 169.957C381.457 171.315 382.612 170.562 384.024 170.876C386.065 171.332 386.289 173.344 387.398 174.54C388.508 175.736 392.482 178.671 392.606 180.137C392.722 181.499 391.496 181.64 391.149 182.389C390.598 183.581 390.871 193.666 390.921 195.856C391 199.304 392.08 203.357 390.938 206.805L418.082 207.613L418.492 209.716L420.98 209.302L420.748 207.223C421.332 206.975 421.982 207.637 422.193 207.637H438.131L437.891 203.063C438.359 202.43 444.117 202.425 444.577 203.071L444.096 207.033C444.349 208.664 449.275 207.931 450.724 208.08C460.954 209.144 471.171 208.37 481.396 209.326C482.104 209.393 482.799 209.136 483.482 209.041L497.127 221.7C497.512 222.408 497.537 223.298 496.726 223.671C465.685 222.11 434.455 221.957 403.237 221.709L384.508 207.211L383.523 207.869C384.041 209.227 384.012 209.836 383.068 210.941C384.057 210.912 384.513 210.25 385.539 210.726C386.62 211.231 391.029 214.89 392.37 215.921C393.219 216.571 394.055 217.9 394.916 218.343C395.897 218.848 396.874 218.662 397.785 219.2C398.149 219.415 400.443 221.758 400.037 222.118C397.487 222.048 394.916 222.218 392.362 222.139C382.77 221.845 373.033 221.394 363.379 221.688C361.752 221.738 357.265 223.224 358.751 220.566C364.65 216.853 371.766 212.941 377.061 208.457C377.45 208.13 378.1 206.801 378.303 206.801H389.687C389.89 204.822 388.375 203.908 389.278 201.838C386.264 202.334 387.878 198.94 384.893 198.538C382.186 198.174 382.157 200.078 382.236 202.247C378.415 201.171 374.395 202.541 370.649 201.42L370.23 205.973C368.686 205.77 365.118 206.913 364.513 204.864C364.025 203.2 365.412 201.018 362.365 201.424V208.875C361.396 208.929 361.632 209.016 361.537 208.263C361.259 206.077 361.814 203.386 361.549 201.204C361.417 200.103 360.788 199.387 360.688 198.323C360.444 195.769 362.655 190.909 361.334 188.176C360.552 186.558 357.033 186.359 355.72 185.924C352.508 184.852 347.13 181.072 345.797 177.835H344.986C344.932 178.166 344.858 178.692 344.584 178.87C343.93 179.297 334.637 179.524 333.589 178.253C332.79 180.36 330.716 179.255 328.833 179.483L329.487 175.326L325.517 174.929L325.902 178.398L325.247 179.007C324.722 179.176 319.336 179.222 318.769 179.081C318.313 178.965 318.487 178.013 317.461 177.819C315.151 177.38 303.456 177.492 300.864 177.806C298.6 178.079 299.722 180.348 297.581 180.323L296.145 177.194C295.396 176.688 291.608 177.231 290.941 177.823C289.964 178.692 291.21 180.377 290.076 180.7C285.328 179.048 286.785 182.737 285.808 183.445C284.673 184.268 281.974 182.989 280.625 183.2C279.424 183.391 279.076 184.732 278.315 185.063C277.843 185.27 274.196 186.102 273.575 186.135C271.405 186.26 270.106 184.985 267.974 185.274L268.317 183.113L265.494 178.44L260.518 178.241L260.932 180.725H249.34C249.1 180.145 249.754 179.483 249.754 179.276V172.445L265.904 171.621L266.554 163.334H270.043L270.039 165.002H272.941L273.351 171.212L293.777 171.638C294.791 171.394 294.336 167.444 294.522 166.505L294.853 166.008L298.19 165.83C298.658 167.415 296.045 166.314 295.706 166.658C295.474 171.323 297.225 170.827 301.088 171.212L301.15 167.755L302.119 167.059L304.793 167.502L304.4 170.793L309.785 171.212C309.363 169.547 310.456 168.334 310.626 166.877C310.99 163.739 310.866 157.273 310.626 154.019C310.572 153.319 309.409 151.336 310.406 151.336C315.68 151.336 322.78 150.765 327.793 151.336L327.806 151.332ZM323.873 170.789V162.717C323.873 160.096 320.259 152.09 318.678 157.521C317.465 161.678 318.558 166.513 317.663 170.789H323.873ZM337.12 160.026L335.858 160.208L335.531 160.709L335.469 164.994H337.12V160.026ZM329.255 170.789C330.281 170.632 332.948 171.307 333.345 170.106C333.68 169.104 332.84 163.594 331.457 162.965C328.791 162.29 329.226 169.316 329.255 170.789ZM373.55 168.719C376.465 169.46 376.804 166.351 375.372 164.613L373.737 164.973L373.55 168.719ZM381.313 174.627C381.048 174.349 380.261 173.952 379.955 174.499L379.739 177.156L381.83 177.827C382.285 176.846 382.058 175.401 381.313 174.623V174.627ZM372.006 176.887C371.638 176.308 372.027 174.892 370.806 174.594L366.898 176.419C366.736 180.402 371.332 176.564 371.518 180.1C370.955 185.163 370.454 190.304 371.021 195.367C369.32 196.468 368.533 195.93 368.169 198.522L376.862 198.108C374.569 196.274 373.596 193.641 373.969 190.66L375.62 191.07C375.716 188.764 375.782 186.131 376.067 183.859C376.183 182.927 376.995 181.83 376.8 181.015C376.382 179.263 373.724 179.007 373.762 181.135C372.631 180.336 373.84 179.268 373.497 178.117C373.244 177.26 372.234 177.247 372.006 176.887ZM377.686 184.865C376.895 185.009 376.999 185.726 376.846 186.293C376.494 187.593 375.446 192.78 377.086 193.136C379.04 193.562 379.052 186.135 377.686 184.865ZM367.718 197.652C367.751 196.038 368.38 193.339 366.103 193.144L366.153 197.433L367.718 197.648V197.652ZM384.728 193.14C382.819 192.262 381.892 197.76 382.244 198.112H384.724V193.14H384.728ZM381.834 215.081L382.6 212.866L381.271 211.802L378.084 214.849L372.317 217.975L389.286 218.388C388.549 214.278 385.171 214.592 381.838 215.077L381.834 215.081ZM482.774 213.913C480.622 213.023 480.34 214.712 479.641 215.097C478.838 215.54 475.96 216.19 476.217 217.354C478.842 218.931 481.822 220.011 484.906 219.635L482.77 213.913H482.774ZM451.312 217.221L448.659 217.556L448.915 219.61C451.453 219.755 452.935 219.982 451.308 217.221H451.312Z" fill="white"/>
<path d="M488.578 244.415C475.956 249.04 473.41 265.959 484.078 274.073C484.099 274.648 480.137 274.971 479.127 275.323C476.995 276.068 475.016 277.645 474.975 280.071C474.776 280.258 471.444 278.945 469.626 280.307C468.914 280.837 469.229 281.744 467.747 281.765C466.008 281.785 464.721 279.939 463.5 279.724C459.55 279.02 457.762 282.584 456.118 285.403L403.8 275.087L403.791 251.706C402.864 245.177 403.878 237.957 403.796 231.003C403.767 228.556 402.446 226.147 405.307 224.267L492.925 225.497L493.608 226.457C491.977 227.587 491.708 229.997 490.657 231.379C489.945 232.315 489.183 232.129 488.649 233.511C487.192 237.283 488.214 240.632 488.583 244.415H488.578ZM417.846 241.373V232.265C417.846 230.576 413.884 230.286 413.081 231.226C412.175 232.29 412.104 240.938 413.168 241.592C414.133 241.894 417.49 242.524 417.846 241.373ZM428.196 241.994C428.196 242.271 433.052 242.975 433.577 241.787V232.679C433.577 230.266 428.196 230.348 428.196 231.851V241.994ZM449.308 242.201V233.093C449.308 231.81 445.136 230.978 444.109 232.033C443.831 232.427 443.782 239.949 443.906 240.984C444.225 243.67 449.039 243.082 449.313 242.201H449.308ZM457.588 232.679V241.787C457.588 242.581 460.569 243.724 461.421 241.894C462.345 239.92 462.109 228.999 457.588 232.679ZM468.649 232.12C467.991 232.307 467.656 232.87 467.536 233.515C467.362 234.434 467.362 241.878 467.581 242.553C468.327 243.728 472.148 243.542 472.702 242.403C473.257 241.265 472.942 234.505 472.421 233.159C472.098 232.336 469.498 231.876 468.654 232.116L468.649 232.12ZM486.98 240.545C486.972 238.061 486.989 235.577 486.98 233.093C486.98 232.385 483.71 231.942 482.87 233.122C482.224 234.033 482.137 241.762 482.812 242.225C483.553 242.519 486.273 242.474 486.786 242.018C487.8 241.116 486.98 240.884 486.98 240.545ZM455.522 252.339H452.62C452.732 254.372 451.701 258.54 454.922 258.002C456.383 257.758 455.174 253.473 455.522 252.339ZM433.536 252.798L430.323 252.807L430.29 256.044L433.536 256.023V252.794V252.798ZM443.529 256.081L443.985 271.117C444.415 272.483 447.781 271.39 448.716 270.997C449.093 270.475 448.928 264.179 448.911 262.879C448.882 260.022 448.733 259.998 449.18 257.033C449.296 256.263 448.671 254.81 448.832 253.85L448.216 253.225L445.578 253.163L445.405 255.68L443.525 256.077L443.529 256.081ZM418.239 253.61C416.542 252.765 413.553 254.988 413.06 256.454C412.725 257.447 412.725 267.623 413.06 268.099L417.589 268.869C418.355 268.65 418.633 264.762 418.695 263.744C418.778 262.374 418.749 254.103 418.239 253.606V253.61ZM470.521 261.36C470.061 260.585 470.786 258.681 470.239 257.7C469.78 257.042 467.863 257.046 467.581 257.99C468.082 259.882 466.277 272.703 467.797 273.059L471.398 272.984L472.019 272.363C471.754 269.941 472.777 263.934 471.618 262.101C471.344 261.67 470.632 261.55 470.521 261.36ZM428.61 269.73C429.57 270.078 433.652 270.715 433.942 269.49C432.845 267.383 434.674 258.954 432.472 258.209C431.574 257.903 428.605 258.139 428.605 259.174V269.73H428.61Z" fill="white"/>
<path d="M440.607 292.085L441.079 290.475C462.866 294.242 484.224 300.799 506.02 304.504C506.218 305.564 505.618 305.937 504.997 306.587C502.186 309.53 494.705 314.581 491.079 317.094C488.79 318.683 480.597 324.417 478.461 324.76C476.163 325.133 470.028 324.516 467.313 324.367C457.828 323.846 448.294 323.096 438.76 322.699L407.903 322.715C407.733 321.78 407.944 322.053 408.428 321.792C410.279 320.786 414.853 319.573 417.105 318.882C423.12 317.04 429.301 315.715 435.333 313.927L436.053 312.788C421.676 306.243 406.3 300.104 390.859 296.502C370.007 291.642 354.967 293.219 334.955 299.653C333.142 300.236 330.335 301.739 330.058 299.346C329.387 293.567 330.451 287.246 330.509 281.508C330.522 280.134 329.768 278.664 330.079 277.178C339.82 278.767 349.503 280.974 359.152 283.085C375.749 286.716 392.532 290.21 409.149 293.944C417.797 295.885 426.383 298.792 435.13 300.253C436.935 300.555 440.665 301.603 441.021 299.127C425.716 295.678 410.482 291.828 395.148 288.488C375.037 284.104 353.659 279.14 333.482 275.638C332.484 275.464 326.697 275.017 326.369 274.677L325.984 268.315C326.179 267.863 326.481 267.694 326.961 267.648C327.98 267.553 334.003 268.737 335.543 269.022C354.288 272.492 373.207 276.569 391.844 280.614C408.151 284.153 424.379 288.198 440.599 292.085H440.607ZM334.637 283.185C334.334 284.985 334.637 288.21 334.637 290.222C334.637 290.384 333.817 290.603 334.839 291.249C339.207 289.08 344.146 288.405 348.716 286.898C349.258 286.72 349.705 286.873 349.54 286.087L335.075 282.166C335.113 282.564 334.67 282.965 334.633 283.185H334.637Z" fill="white"/>
<path d="M153.314 283.185L165.32 274.491C162.716 274.317 159.847 274.019 157.235 274.272C154.366 274.553 153.492 276.95 153.728 271.386C161.801 270.633 169.861 269.528 177.95 268.907C184.541 268.402 191.206 268.058 197.8 267.644C202.354 267.358 207.727 268.762 211.271 265.181L173.81 267.251L151.658 269.726C151.124 267.95 152.358 268.161 152.677 267.665C153.211 266.837 153.19 261.008 152.076 259.998C153.008 258.892 154.668 259.522 155.997 259.377C190.758 255.597 223.276 253.643 258.249 256.487C267.431 257.232 276.555 259.116 285.787 259.377V261.451L281.225 261.662L281.705 264.291L284.955 264.767C284.069 267.3 286.897 267.367 285.986 269.325L269.013 267.251C261.843 267.176 254.668 266.381 247.507 265.988C239.132 265.524 230.62 265.868 222.233 265.181C220.95 265.077 219.944 264.415 218.524 264.328C216.462 264.204 214.873 264.895 212.923 265.181C213.242 266.083 213.892 266.319 214.765 266.439C218.615 266.965 223.057 265.475 226.816 265.98C228.178 266.162 228.319 267.052 229.283 267.238C239.695 269.254 254.023 267.317 264.877 268.902L282.206 270.616L282.778 271.154C281.685 274.499 281.411 277.6 282.066 281.102C282.426 283.032 285.059 283.325 285.315 284.062C285.68 285.093 285.245 287.61 285.373 288.972C285.502 290.326 286.164 291.543 286.197 292.905C285.141 292.764 283.361 293.236 282.475 292.698C282.09 292.462 279.466 289.154 278.551 288.343C265.155 276.437 249.32 275.94 235.688 287.726C234.574 288.691 231.539 292.35 230.707 292.723C230.078 293.004 229.619 292.768 229.072 292.491C228.236 294.085 229.445 294.424 229.797 295.703C230.045 296.614 231.386 302.182 231.142 302.426H205.889C206.701 299.4 205.831 295.306 209.073 293.965L208.17 291.671L206.726 292.317C203.016 288.094 198.616 284.265 193.466 281.943C182.16 276.843 171.554 278.494 161.813 285.876C159.516 287.614 156.713 291.266 154.788 292.512C154.279 292.843 153.964 293.021 153.318 292.905V283.176L153.314 283.185ZM207.963 258.135H205.889V261.865H207.963V258.135ZM231.556 261.451H240.871C241.607 261.451 241.529 259.691 240.8 259.364L231.61 259.021L231.56 261.451H231.556ZM250.603 258.549H246.459C245.95 262.44 247.341 261.977 250.603 261.865V258.549ZM196.31 259.439L193.056 258.963V262.279L196.31 261.803V259.435V259.439ZM253.501 261.861C255.339 261.654 258.763 263.599 258.916 260.834C259.086 257.75 255.641 259.315 253.497 258.967V261.865L253.501 261.861ZM185.195 259.377L179.784 259.559C179.093 260.039 179.469 261.857 179.395 262.693L185.195 262.279V259.377ZM271.716 260.205L262.604 259.377L262.19 262.275L271.708 263.521V260.209L271.716 260.205ZM174.427 260.205L168.602 260.801C167.919 261.269 168.288 263.111 168.213 263.935L174.427 263.521V260.205ZM207.959 281.736V271.179L207.106 270.72C205.475 271.539 195.855 272.02 195.54 273.253L207.959 281.736ZM229.072 271.593C228.439 273.874 229.54 278.904 229.072 281.529L229.9 281.947C231.626 280.56 233.717 278.83 235.567 277.675C236.615 277.021 242.638 274.056 242.733 273.659C242.907 272.93 242.17 272.823 241.678 272.653C238.18 271.453 234.011 271.771 230.43 270.662C229.983 270.575 229.151 271.328 229.076 271.597L229.072 271.593ZM279.991 274.288C279.59 273.729 271.824 273.585 270.474 273.87C269.423 274.756 274.775 276.627 275.16 276.838C276.299 277.468 278.559 279.335 279.383 279.658C279.909 279.865 280.149 279.579 279.991 279.049L278.394 277.05L279.996 274.288H279.991Z" fill="white"/>
<path d="M131.373 151.333C131.63 148.931 131.038 147.396 128.479 148.435L128.09 143.649L121.827 143.277L121.421 139.762L118.515 139.563L118.039 137.969C118.026 137.174 116.126 136.922 116.06 137.518L115.675 139.563C112.541 139.642 110.703 139.886 111.332 143.479L107.834 143.931L107.321 145.905C106.874 146.29 99.8941 145.665 98.4535 145.938C97.3606 146.145 97.7373 147.818 95.2286 147.205L87.9177 134.972L91.8671 133.548L95.3942 133.349L96.2553 128.415C96.661 127.127 100.412 127.959 101.579 127.732L102.424 132.683H109.188C110.032 132.439 110.968 125.119 111.092 123.799C111.597 118.463 111.394 112.642 111.945 107.269C112.024 106.499 112.752 105.828 112.736 105.178C112.719 104.528 110.91 100.881 110.716 99.3493C110.401 96.8364 110.393 90.7303 110.682 88.205C111.101 84.5165 113.493 84.8849 114.201 83.4443C114.392 83.0551 114.806 80.476 114.826 79.9089C114.905 77.3215 113.39 74.8915 113.551 72.478C113.704 70.1969 115.783 66.4836 116.06 62.944C117.575 43.4208 117.927 23.6368 118.809 4.09289C118.863 2.8758 118.192 1.6173 118.97 0.230477C119.562 -0.340813 119.724 0.259456 119.794 0.843165C119.989 2.43698 119.558 4.19639 120.22 5.83988C119.537 17.2077 120.908 28.7826 121.462 40.1628C121.856 48.1774 121.21 58.1626 122.253 65.8667C122.501 67.6965 124.72 70.9587 124.782 72.4738C124.923 75.9678 122.179 79.7309 124.145 83.4318C124.638 84.3591 126.558 84.7855 127.192 85.7667C128.384 87.6006 128.305 96.083 128.02 98.5089C127.792 100.459 125.979 103.961 125.958 105.17C125.942 106.114 126.716 106.954 126.836 108.059C127.403 113.28 126.757 118.637 127.233 123.807C127.469 126.37 128.839 129.491 128.475 132.294C130.201 132.335 131.94 132.236 133.671 132.269C134.635 132.29 135.96 133.146 136.283 132.016C136.473 131.35 136.146 130.394 136.428 129.884C136.531 129.702 137.454 129.466 137.823 129.015C138.282 128.448 138.464 127.322 138.812 127.098C139.305 126.779 140.083 127.011 140.617 126.817C141.424 126.527 141.23 125.041 143.59 125.211C143.904 125.235 147.58 126.73 147.725 126.9C148.698 128.026 147.365 129.595 150.238 129.768L150.416 132.285C151 132.252 151.683 132.405 152.233 132.223C152.896 132.008 152.863 130.369 153.72 131.043C154.013 131.271 154.494 133.043 156.212 132.695V117.999C156.212 117.813 155.856 114.534 155.81 114.352C155.682 113.826 154.134 114.054 154.622 112.286L162.355 105.099C162.43 103.208 162.521 101.27 162.417 99.3741C162.301 97.1801 161.014 96.7744 162.483 94.4436C162.782 93.9759 163.485 93.9262 163.651 93.4584C164.334 91.521 164.595 87.8531 164.914 85.7046C165.021 84.9842 164.694 85.0091 165.729 85.0836C165.29 87.4226 166.292 89.1406 166.876 91.1815C167.083 91.9101 166.851 92.767 167.058 93.4832C167.294 94.2905 168.424 94.5306 168.631 95.6525C169.045 97.9087 167.153 102.905 168.308 105.066C168.838 106.052 169.836 105.94 170.502 106.598C172.104 108.175 172.771 110.498 175.263 111.454C175.404 114.137 174.207 116.587 173.996 119.22C173.669 123.368 174.12 128.121 174.216 132.294C175.085 133.221 176.77 132.285 177.946 132.24C181.15 132.116 180.578 134.037 181.456 129.147L184.404 129.185L186.225 120.28L187.579 125.542L187.852 128.99L190.572 129.375V134.347L197.191 133.933C195.192 138.247 192.261 142.593 193.288 147.603L187.517 147.946L187.037 147.611C187.504 142.432 178.769 145.533 175.503 144.667L174.87 146.17L172.783 146.373L172.361 148.244C168.652 147.387 166.776 148.07 166.963 152.148L156.87 151.759L155.289 148.509C153.492 148.58 151.964 147.727 150.217 147.578C148.47 147.429 143.821 147.967 142.228 148.733C140.634 149.499 141.035 151.32 140.882 151.32H131.361L131.373 151.333ZM120.61 123.182V116.765C120.61 115.85 118.805 114.795 117.91 115.718C117.203 116.451 116.515 122.822 116.88 123.186H120.61V123.182Z" fill="white"/>
<path d="M369.825 77.6448C368.972 77.0155 375.633 73.3849 376.171 73.0206C379.69 70.632 379.694 69.1872 384.923 68.9388C387.299 68.8229 389.365 70.1393 391.083 68.8891C392.465 67.8873 392.974 65.8795 394.08 64.4347C398.663 58.4445 409.372 55.2527 414.733 61.7935C416.629 61.0401 418.447 60.6551 420.467 61.0442C423.058 56.5195 425.753 52.5618 430.133 49.5646C442.457 41.1278 458.818 43.2266 466.779 56.2462C467.395 57.2563 467.499 58.9661 468.654 59.3387C469.3 59.5456 470.148 59.3925 470.864 59.6119C471.647 59.852 472.976 60.6758 473.543 60.6634C473.903 60.6551 475.961 59.082 476.938 58.697C484.832 55.5714 494.163 61.5783 496.572 69.2948C499.276 69.5308 501.822 68.649 504.583 68.9471C507.609 69.2741 511.269 72.0685 513.488 74.1177C514.481 75.0326 516.083 76.3449 516.381 77.6406H369.833L369.825 77.6448Z" fill="white"/>
<path d="M-90.933 102.482C-91.703 101.7 -87.9358 96.2604 -87.0209 95.4242C-84.4253 93.0603 -82.1608 93.4371 -78.8987 93.197C-77.9051 87.1405 -73.1568 84.0605 -67.1707 84.727C-66.1896 84.8346 -63.5608 86.0434 -62.9729 85.5466C-62.0539 84.9422 -62.7949 84.0977 -62.6666 83.3484C-58.6013 59.7144 -25.6155 56.8538 -19.4969 80.9308C-19.3272 81.6014 -19.3976 83.2366 -19.2651 83.3939C-19.1616 83.5181 -18.0149 83.543 -17.4892 83.8907C-16.9634 84.2385 -16.8185 84.996 -16.388 85.2776C-15.6138 85.7785 -13.4363 86.0724 -12.4552 86.7637C-11.6438 86.743 -11.5734 85.7867 -10.9235 85.3686C-3.28142 80.4588 4.42686 87.5089 6.01654 94.9564C9.59745 96.0907 13.435 94.2526 17.1319 95.2254C19.5867 95.8713 22.6709 100.09 25.1175 101.315L25.813 102.482H-90.933Z" fill="white"/>
<path d="M99.9109 247.996L99.2236 247.441C94.3014 246.27 95.9118 251.817 95.7628 255.029C95.7214 255.944 95.3612 256.867 95.3198 257.923C95.2743 259.041 96.0774 261.222 95.3695 261.674C90.8282 262.837 85.6493 262.361 81.4516 264.315C80.4497 264.567 75.2874 266.058 74.89 265.963C73.735 265.685 74.3394 259.724 74.2525 258.325C74.178 257.095 73.8675 252.773 73.5446 252.02C72.965 250.649 69.6159 250.832 68.6596 251.937C67.1445 253.696 67.7406 265.097 67.1983 268.07L41.9787 272.59L41.097 267.465L40.6747 229.338C40.6126 227.918 41.7966 227.624 42.9681 227.492C48.4658 226.858 54.8121 227.318 60.3801 227.102C67.3887 226.833 74.447 226.192 81.493 226.241C84.4529 226.262 87.6281 227.264 90.7868 226.254C90.882 225.533 89.847 225.865 89.3461 225.844C87.6944 225.778 86.0302 225.918 84.3784 225.84C73.2465 225.306 62.0029 225.322 50.8462 225.848C48.0684 225.981 44.8766 226.395 42.1319 226.92C40.6499 226.684 41.2832 223.886 41.7842 223.749L109.424 222.95C110.033 224.772 107.739 226.341 107.437 227.38C105.719 233.308 107.71 242.788 107.387 248.824C107.321 250.078 106.178 250.662 106.079 252.14C105.955 253.949 107.11 256.814 106.468 258.701C106.133 259.691 101.145 259.943 99.8984 260.204V247.992L99.9109 247.996ZM82.5238 233.507C82.0353 235.192 82.8839 238.992 82.5238 240.958C82.5238 241.712 85.0449 241.654 85.6493 241.6C86.0302 241.567 86.4276 241.633 86.8043 241.513L87.4915 240.958V233.507C87.4915 231.876 83.0288 231.768 82.5238 233.507ZM100.325 240.337V233.093C100.325 231.706 95.7711 231.706 95.7711 233.093V240.13C96.9343 241.36 98.8966 240.66 100.325 240.337ZM68.4485 242.407C69.9264 242.221 71.9094 242.966 73.0023 241.786V233.507C72.3523 232.285 68.4485 232.848 68.4485 233.921V242.407ZM56.8571 242.821L59.755 241.786V233.921C59.755 233.076 56.8571 233.076 56.8571 233.921V242.821ZM50.6474 242.821V235.163C50.6474 235.026 51.1277 234.807 50.7054 234.322C49.8692 233.378 47.3356 233.3 47.3356 234.749V242.614C47.3356 243.587 49.9644 243.144 50.6474 242.821ZM87.4915 257.31V249.652C86.8126 248.447 82.5238 248.936 82.5238 250.066V257.31H87.4915ZM56.4431 252.136C56.0913 254.23 56.4431 258.072 56.4431 260.415C56.4431 261.318 59.2499 261.227 59.6887 259.935C59.9412 259.19 59.8667 252.57 59.5521 251.929C59.0015 250.807 56.7122 250.55 56.4431 252.14V252.136ZM47.3356 261.864L49.9644 261.798L50.6474 261.243V252.55C50.6474 251.477 47.3356 251.916 47.3356 252.964V261.864Z" fill="white"/>
<path d="M-31.3203 179.897C-31.0595 176.867 -29.9914 173.551 -34.3589 174.076L-35.3193 175.774C-35.9693 175.931 -45.0727 175.869 -45.5529 175.699C-46.3891 175.401 -45.6978 174.031 -48.2893 174.929C-47.7594 170.736 -51.8288 172.669 -53.5013 171.236C-54.3955 170.471 -53.8407 168.943 -54.4741 168.484L-58.2289 168.306C-58.5642 167.035 -57.6535 165.515 -57.8108 164.406C-57.906 163.723 -58.618 163.251 -58.6801 162.307C-58.7629 161.053 -57.8522 159.393 -58.2289 157.952L-48.7074 158.37C-49.2994 151.274 -42.535 153.825 -37.9398 153.402C-38.6767 148.339 -36.0438 149.225 -32.1441 149.263C-31.9992 147.615 -32.3635 145.715 -32.1276 144.104C-32.0241 143.401 -31.3162 142.958 -31.2913 142.034C-31.2665 141.111 -31.8502 140.321 -31.726 139.157C-31.6474 138.408 -30.6993 135.986 -29.6685 136.839C-29.0186 137.377 -29.0517 147.462 -28.8778 149.014C-28.0871 150.095 -23.0573 147.681 -22.2997 151.208C-21.7698 153.671 -23.2353 157.389 -19.2073 156.611C-16.3302 156.056 -16.4833 153.68 -12.5505 153.845C-10.7456 153.92 -10.1909 154.959 -9.90935 155.033C-9.15591 155.236 -8.31139 154.797 -7.47929 155.431C-6.41951 156.238 -7.42548 157.157 -7.115 157.94C-6.30774 160.005 -3.19462 159.67 -1.38968 159.612L16.2872 129.168C14.3746 127.632 13.675 125.666 11.3236 128.141C12.0398 126.85 9.82499 124.531 10.8972 123.786C11.423 123.343 11.9321 123.732 12.4455 123.906C14.5029 124.606 17.9224 127.028 20.2779 128.083C24.5626 130.004 29.3441 131.929 34.0841 131.863L23.7264 124.631C22.6997 123.646 23.6436 123.376 24.7075 123.281L39.8881 132.484L40.2979 133.295C35.8559 142.97 30.6398 152.86 27.3446 163.002C26.7815 164.741 25.4444 168.566 25.3782 170.181C25.3202 171.539 26.9264 177.529 26.6367 177.819C24.7613 177.761 22.0705 178.022 20.3276 177.301C19.2554 176.858 19.2347 175.811 17.7403 175.712C15.8981 175.587 14.4119 177.583 12.4289 177.347C11.4105 176.672 11.0131 175.55 10.0941 174.701C9.38618 174.047 8.37608 173.857 7.80892 173.253C6.99339 172.383 7.57709 171.116 5.34575 171.22C4.31908 171.27 2.84118 173.008 1.66962 173.758C0.961716 174.213 -0.247105 174.366 -0.6735 174.726C-1.36898 175.318 -1.37312 177.492 -2.60677 177.744C-4.28339 178.092 -4.1799 175.405 -5.52533 175.004C-6.29533 174.772 -13.2377 174.739 -14.1443 174.917C-15.4898 175.186 -14.935 176.097 -15.4111 176.962C-16.5496 179.028 -18.309 177.761 -19.7372 178.436C-20.4906 178.792 -20.4699 179.889 -20.5527 179.889H-31.3162L-31.3203 179.897ZM21.2425 131.064L18.8994 130.294C17.5705 130.261 16.6267 133.606 15.9394 134.641L17.9431 137.253L15.6662 135.61C15.244 135.605 13.2776 139.166 13.1368 139.741C12.8181 141.045 15.4675 142.059 15.0494 143.881C15.5503 143.839 15.749 143.314 15.956 142.929C17.3263 140.391 20.1662 134.848 21.0728 132.306C21.2177 131.9 21.3501 131.503 21.2425 131.064ZM11.7293 169.543C13.8778 163.561 15.4385 157.265 17.7568 151.345C18.7131 148.902 26.1771 133.949 25.6348 133.109C24.2646 130.985 23.1675 134.173 22.559 135.448C19.0029 142.867 15.1322 152.405 12.5573 160.221C11.9694 162.009 10.1686 166.633 10.1727 168.181C10.1727 168.927 10.9717 169.659 11.7293 169.539V169.543ZM35.7442 134.773C34.5312 134.728 33.8192 133.896 32.8298 134.955C32.1964 135.634 27.8248 143.454 27.6385 144.274C27.535 144.725 27.9655 145.189 28.3008 145.35C30.3045 146.303 33.5335 141.153 30.7764 139.745L32.8546 140.383L35.7442 134.777V134.773ZM12.9754 148.43C12.0894 149.246 10.2679 145.135 9.87053 145.131L7.72612 148.637L11.1125 152.98L15.037 144.903C14.8052 143.993 12.2137 141.223 11.3402 141.827L10.1934 144.506L12.9754 148.43ZM28.7065 147.607C27.8537 147.76 26.1233 147.317 25.4817 147.689C25.1422 147.888 23.0019 152.446 23.3621 152.943L25.8211 153.642L28.7107 147.607H28.7065ZM10.8682 153.866L6.76984 150.09L5.17187 153.547C6.24407 155.294 8.51269 157.037 8.41747 159.198L4.48881 155.066C0.787842 158.134 4.14935 160.829 6.56284 163.334C7.45704 163.487 7.04306 163.152 7.21279 162.762C8.50854 159.848 9.71321 156.834 10.8641 153.866H10.8682ZM23.6519 153.514C23.3 153.324 22.9067 153.361 22.5383 153.44L17.1193 167.064C21.168 167.449 21.1018 163.098 22.5217 160.27L20.8451 158.788L23.3041 159.19L25.3947 154.843C24.3763 154.835 23.7554 153.568 23.656 153.51L23.6519 153.514ZM-1.51388 166.236H4.48881C4.6337 166.236 5.13049 165.743 5.5072 165.801C6.32688 164.654 2.33612 161.077 1.38811 160.44C0.94516 162.849 -2.10586 163.586 -1.51801 166.236H-1.51388Z" fill="white"/>
<path d="M326.771 302.844L285.369 302.435C285.1 302.165 285.468 295.749 285.795 294.884C286.259 293.658 287.203 293.435 287.435 290.628C287.981 284.021 288.764 262.916 286.528 257.601C286.238 256.909 285.427 256.98 284.955 255.862C282.674 250.439 292.22 253.08 294.683 253.171C302.176 253.444 309.897 252.716 317.456 253.171C319.998 253.324 327.073 252.389 326.345 256.669C326.15 257.816 324.9 258.656 324.689 260.412C323.881 267.06 325.231 274.81 325.541 281.516C325.786 286.766 325.765 290.785 326.32 296.055C326.556 298.291 326.311 300.621 326.767 302.853L326.771 302.844ZM314.352 279.662L313.507 267.056C313.283 265.793 311.665 264.713 311.553 264.088C311.433 263.409 312.298 262.241 311.694 261.413C307.5 259.89 302.822 260.598 298.803 262.246C298.235 262.962 299.328 263.914 299.473 264.941C299.655 266.199 299.299 267.797 299.469 269.118L298.211 283.797H299.448C299.494 282.551 299.287 281.26 299.626 280.026C299.846 279.235 300.607 279.297 300.682 278.958C301.386 275.754 299.688 271.448 302.967 268.898C307.281 265.545 311.516 269.59 312.17 274.181C312.493 276.449 311.305 279.467 314.347 279.657L314.352 279.662Z" fill="white"/>
<path d="M121.02 155.472L121.409 160.622C124.021 160.722 122.547 164.236 123.512 165.404C123.888 165.859 124.203 163.686 125.159 164.166C125.358 165.495 124.302 170.21 125.834 170.732H136.072L136.647 170.181L136.726 165.582L142.724 165.395L143.022 170.107L143.643 170.728L163.254 171.199L163.432 165.789L168.635 165.4C168.875 166.613 168.01 170.719 169.31 171.141L192.663 172.611C194.07 173.671 191.375 180.075 192.232 181.963C190.854 181.83 189.243 182.17 187.906 181.938C186.428 181.681 185.505 180.646 183.332 180.688C181.373 180.725 179.527 182.058 177.958 181.992C176.667 181.942 175.963 181.015 174.961 180.808C173.81 180.568 169.273 180.17 168.457 180.75C167.547 181.4 167.625 184.372 167.774 185.507C167.874 186.272 168.553 186.053 168.627 186.38C168.809 187.183 168.503 188.148 168.656 188.98C175.3 190.449 182.185 189.7 188.937 189.605L188.477 193.724C188.101 194.647 187.687 195.14 187.637 196.224C187.533 198.543 189.508 198.878 188.486 201.387L152.954 201.784L152.859 200.36C154.717 199.528 156.125 198.58 157.677 197.28C158.758 196.378 163.564 191.766 164.127 190.855C164.529 190.201 164.065 189.41 164.458 189.183L166.565 188.988L166.147 186.099L161.2 186.078L160.492 183.577C156.862 182.704 153.964 184.116 150.975 181.209L142.356 185.68L140.468 180.936C136.407 179.864 132.036 178.233 128.235 180.725C124.195 178.299 124.795 182.17 121.86 183.197C120.56 181.023 122.017 179.09 121.069 176.813C118.486 175.695 117.857 179.293 119.326 180.928C116.648 182.128 117.066 185.3 117.323 187.937C117.397 188.707 118.134 189.386 118.118 190.031C118.101 190.677 117.298 191.232 117.095 191.894C116.052 195.297 116.59 198.729 116.478 202.244C111.175 201.349 110.509 207.12 109.648 210.933C107.934 208.764 108.004 206.123 104.477 206.375C106.265 197.702 105.822 188.872 105.264 180.104C105.197 179.086 105.678 177.943 105.599 177.248C105.462 176.072 103.26 174.83 103.666 173.526C103.931 172.677 105.508 172.839 106.029 172.342C106.344 172.044 106.539 171.001 107.139 170.351C108.124 169.279 109.987 168.19 111.49 168.285L111.589 164.038C112.007 162.659 113.684 163.259 114.379 162.274C115.311 160.958 115.601 157.476 115.837 155.862L121.024 155.468L121.02 155.472ZM121.032 175.757C124.654 172.023 114.64 172.354 114.4 173.485C113.924 175.745 121.173 173.129 121.032 175.757ZM112.334 188.173C114.768 188.748 114.624 184.008 112.33 185.072V188.173H112.334ZM169.815 194.026C168.958 192.668 165.593 194.204 166.743 196.042C168.043 198.116 170.925 195.786 169.815 194.026ZM175.147 193.608C173.545 193.84 172.018 196.08 173.62 197.466C176.662 200.099 178.819 193.074 175.147 193.608ZM184.362 198.526H174.634L174.216 199.354C174.862 200.265 182.206 199.536 183.75 199.354C184.371 199.28 185.016 199.019 184.362 198.526Z" fill="white"/>
<path d="M361.131 223.779L400.873 224.197C400.732 225.311 400.161 226.118 400.045 227.298C399.863 229.161 399.793 239.602 400.269 240.74C400.604 241.547 401.134 241.237 401.316 243.004C401.602 245.786 401.068 249.073 401.275 251.917L399.615 252.112L399.217 252.965L399.631 274.289L391.356 273.043L390.929 255.875C390.015 253.234 386.297 252.646 384.811 255.117L384.314 271.391L361.131 266.63V223.783V223.779ZM370.297 240.69C371.63 240.765 374.238 241.233 374.71 239.631C375.066 238.413 374.689 231.442 374.006 230.564C373.219 229.55 370.334 229.654 369.908 231.103C369.597 232.166 369.701 240.318 370.297 240.69ZM390.528 241.166L390.346 232.03C388.665 231.471 384.571 228.548 384.277 231.848L384.504 241.994C385.929 243.476 386.384 240.984 386.976 240.881C387.452 240.798 390.13 241.556 390.524 241.162L390.528 241.166ZM374.793 260.002C375.128 258.926 374.793 253.772 374.793 252.137C374.793 248.792 370.127 248.436 369.8 251.284C369.684 252.311 369.721 259.415 370.007 259.816C370.843 260.383 374.408 261.228 374.793 259.998V260.002Z" fill="white"/>
<path d="M10.9057 47.4236C10.2723 46.8068 12.69 43.8676 13.1785 43.2797C15.5299 40.4522 20.5762 35.9357 24.3559 35.8074C26.7611 35.7246 28.4087 37.0949 30.1557 37.0866C30.5655 37.0866 33.4592 36.2835 33.5834 36.1593C33.7987 35.944 34.7716 31.5186 35.4008 30.318C42.5875 16.6236 63.6548 18.1388 68.9951 33.4229C69.2394 34.1266 69.111 35.5797 69.5209 35.8778C72.3856 37.9642 76.1528 33.8617 80.5989 36.3042C83.9025 38.1215 83.8445 40.9407 85.6412 42.8533C86.6554 43.9338 90.5469 44.9232 90.7994 47.4236H10.9016H10.9057Z" fill="white"/>
<path d="M145.92 216.795C144.418 218.194 146.347 243.302 145.846 247.185L147.51 250.481C145.374 252.633 143.263 250.431 141.859 250.369C141.184 250.34 140.427 251.04 139.458 251.114C136.738 251.317 133.625 251.052 130.769 251.118C125.718 251.234 120.676 251.135 115.642 251.516C116.412 240.587 116.95 229.587 117.302 218.608C117.335 217.611 118.204 216.526 117.314 215.69C116.913 215.313 115.882 215.255 115.721 215.011C115.534 214.721 115.588 213.367 115.377 212.668C115.149 211.91 114.119 211.111 114.595 210.519C115.315 209.911 117.178 209.729 117.724 209.091C118.424 208.276 117.844 206.707 118.801 206.421C120.643 207.195 122.017 206.429 123.702 206.375C127.482 206.259 138.978 205.812 141.905 206.835C143.383 207.352 144.393 209.091 145.995 209.782C146.819 210.138 149.957 210.552 149.994 211.153C148.412 212.37 149.149 214.489 148.375 215.735C147.601 216.982 146.156 216.58 145.92 216.799V216.795ZM140.878 214.705C137.74 213.637 134.325 214.477 131.162 214.663C130.189 214.721 124.749 214.291 124.758 215.288C125.3 216.025 125.685 216.224 126.592 216.344C129.258 216.7 134.093 216.418 136.978 216.344C137.852 216.319 139.384 215.537 139.876 216.307C140.245 224.926 139.947 233.582 140.485 242.197C140.568 243.542 140.737 245.434 140.89 246.763C140.965 247.38 141.222 248.022 141.718 247.372L140.874 214.705H140.878ZM128.326 219.697C127.767 219.879 127.743 220.169 127.651 220.678C127.366 222.235 126.993 226.184 127.32 227.625C127.842 229.922 130.984 231.065 132.226 228.979C132.681 228.213 133.248 221.784 132.942 220.757C132.528 219.358 129.436 219.337 128.322 219.697H128.326Z" fill="white"/>
<path d="M152.486 57.3593C156.427 53.0374 161.527 50.9675 167.336 52.7725C168.801 48.8397 174.779 44.0499 178.948 46.422C180.152 47.1092 181.233 49.6428 182.139 49.8125C186.064 49.3199 189.616 47.0057 193.611 47.4404C199.874 32.3964 223.661 32.3592 229.557 47.7675C233.369 48.0407 235.907 45.8673 239.952 46.6911C241.889 47.0844 244.704 50.0278 245.284 51.9114C249.941 51.7748 251.762 50.9427 255.948 53.4638C257.194 54.2131 259.731 56.0056 260.125 57.3593H152.49H152.486Z" fill="white"/>
<path d="M320.561 251.097C313.254 251.789 305.198 249.926 297.974 250.663C296.691 250.795 295.954 251.387 295.076 251.491C293.421 251.681 291.603 251.404 289.922 251.515L290.341 217.979C289.893 217.913 289.049 218.165 288.751 217.917C288.507 217.714 286.797 211.993 287.025 211.773C291.392 212.167 294.774 208.064 298.318 206.71C300.04 206.052 310.915 206.181 313.205 206.495C314.902 206.727 320.971 209.509 321.604 210.933C321.53 211.6 320.888 213.148 320.515 213.591C319.907 214.311 318.938 214.278 318.677 214.651C318.073 215.512 319.245 226.105 319.331 228.105C319.663 235.747 319.216 243.579 320.557 251.093L320.561 251.097ZM313.109 214.257H296.343C294.89 215.359 296.405 215.549 296.737 216.348C297.664 218.575 296.944 219.581 296.944 221.485C296.952 229.632 297.358 238.289 296.989 246.365C296.952 247.21 296.592 247.819 296.55 248.613C297.486 248.278 297.697 247.21 297.796 246.345C298.537 240.065 297.56 231.802 297.771 225.207C297.854 222.574 298.496 219.821 298.156 217.023C299.063 215.619 308.166 216.638 310.385 216.294C310.973 216.203 313.9 214.945 313.101 214.249L313.109 214.257ZM303.273 229.061C306.788 230.543 308.597 229.38 308.589 225.638C308.589 224.768 308.063 220.724 307.752 220.231C306.842 218.774 302.93 218.658 302.429 220.339C302.147 221.283 302.797 228.585 303.269 229.061H303.273Z" fill="white"/>
<path d="M78.384 179.897C78.3716 181.669 76.0451 182.613 77.5312 184.683L82.1098 184.861L81.6959 180.307H85.0118L84.5979 184.861H95.3613C95.4317 184.861 95.4151 185.651 95.9616 186.107C98.1557 187.932 100.739 189.468 103.198 190.917C101.836 196.171 99.9937 201.445 101.111 206.946C97.6216 209.919 94.5044 209.654 90.3936 208.048L90.377 209.836L94.5251 210.738L105.707 220.873L102.995 220.483L93.3162 211.119L77.9742 210.109L79.241 209.472L79.212 204.732C78.9926 204.487 77.0842 205.51 76.7488 205.779C75.776 206.561 75.9623 209.273 76.3597 209.662C76.6288 209.927 77.6968 209.298 77.5602 210.109H65.9688L66.2835 205.808C66.2296 205.522 65.4514 204.727 65.3479 204.727H58.5172L58.687 208.888L63.485 210.109H40.3022C41.5234 207.961 43.7009 209.269 45.4604 209.298C48.8426 209.356 52.2413 209.215 55.6235 209.281C54.9901 203.452 56.8447 197.218 54.4106 191.716C57.2918 189.688 60.4753 188.131 63.456 186.276C64.1018 185.875 64.611 184.902 65.145 184.654C66.4532 184.058 68.6514 184.637 70.1086 184.443L69.7112 180.125C70.1831 179.135 70.564 179.885 70.7254 179.885H78.384V179.897ZM68.8253 187.382L65.9647 186.935C65.41 190.391 69.0488 190.988 68.8253 187.382ZM79.212 187.759C75.5483 187.229 74.977 191.977 79.212 191.074V187.759ZM91.2215 191.484C92.3103 190.739 97.2283 190.954 96.8516 189.394C96.0071 186.951 92.8195 187.552 91.2712 188.847L91.2215 191.484ZM72.1702 209.695C73.3666 203.357 68.9619 203.084 69.6905 209.703L72.1702 209.695ZM82.9419 210.113C84.7676 210.233 84.9208 205.601 83.5588 205.572C82.3665 206.694 83.1365 208.673 82.9419 210.113Z" fill="white"/>
<path d="M73.8302 122.768C73.8799 122.809 74.1324 123.803 74.0414 124.018C73.5984 125.094 67.1155 128.833 65.6625 130.099C65.3727 130.352 64.8759 130.083 65.1367 131.043C69.4835 133.13 73.9834 129.594 77.6844 127.243C79.096 126.349 82.5693 123.252 83.7574 122.929C84.4198 122.747 84.958 123.045 85.2353 123.596C85.9018 124.921 82.6687 125.873 82.1181 126.701C82.9833 127.611 84.6723 128.601 83.1447 129.797L81.0749 127.33L75.9001 131.457L78.5993 130.687L102.088 168.016C102.958 169.63 101.223 170.868 100.664 172.168C99.4803 174.937 100.234 177.827 100.991 180.692L100.524 181.549C99.9109 181.313 99.1533 181.275 98.5737 181.027C96.0692 179.942 95.5144 179.922 93.5025 178.233C91.4906 176.544 89.9837 177.264 87.7482 176.949C82.9874 176.283 81.9484 175.277 78.1977 179.317L72.5924 179.065C71.9259 176.705 72.5262 174.826 72.609 172.665C72.7787 168.227 63.0999 147.395 60.6574 141.939C59.4155 139.161 57.8879 136.462 56.5425 133.73L73.8302 122.764V122.768ZM63.0627 131.875L60.2145 133.316L65.1574 143.044C68.9205 142.291 65.9978 143.864 65.9771 144.899C65.9646 145.52 67.2024 147.818 67.8193 147.884L69.6905 147.188L68.0221 148.646L69.4917 152.173L72.1743 152.16L70.4853 153.663L72.4269 157.919C73.1099 158.076 75.2212 155.961 75.4861 157.335C75.6849 158.366 73.1016 159.38 73.0644 159.802C74.5133 162.373 73.793 164.505 77.5602 163.748L75.867 165.25C76.4217 169.928 79.0215 168.206 82.5238 168.711L63.0627 131.871V131.875ZM78.8559 139.377L80.7975 137.882L77.7672 132.716C76.1444 133.589 74.5092 134.856 72.5883 134.777L72.787 136.446C78.7276 146.182 82.9295 157.65 88.6465 167.37C88.7914 167.618 88.6631 168.185 89.3503 167.891C90.0747 167.585 90.9731 165.855 92.4634 166.236L91.2256 162.514L93.0926 164.596L95.7214 162.386L93.8585 159.641C92.1736 159.136 90.8489 164.021 90.0126 159.67L92.4841 158.142C92.2191 157.517 90.9027 154.019 89.9919 154.665L88.7293 156.47L87.9096 156.718L87.0817 154.888L89.3793 152.988L87.2804 149.279L85.2105 151.332L84.2335 149.32L86.5849 147.408L84.7924 144.713C83.981 144.522 82.8011 146.948 82.1098 146.369C80.7644 145.234 84.0431 143.885 83.7036 142.539C83.625 142.221 81.9732 139.658 81.7 139.509C80.752 139 80.0689 140.532 79.4148 140.979L78.8518 139.381L78.8559 139.377ZM97.4187 164.166C96.9054 163.81 94.0862 166.231 94.5581 167.631C94.9597 168.823 98.4288 168.79 99.4928 168.715L97.4187 164.166Z" fill="white"/>
<path d="M39.8839 192.316C40.5711 190.487 39.1884 189.592 39.8839 187.763C37.0854 188.81 37.4828 187.489 36.4396 186.243C36.0629 185.792 35.2473 185.813 34.9907 184.997C34.4111 183.134 35.5537 179.93 34.5022 178.113C34.3573 177.86 33.7239 177.868 33.666 177.566C33.194 175.132 36.0836 175.687 36.9943 174.731C37.6526 174.043 37.6153 171.804 38.642 170.996L35.7441 170.789L35.7731 169.581L39.0559 169.138L39.2588 170.371L43.0094 167.461C43.3613 166.67 42.7238 165.453 42.7652 164.393C42.8149 163.247 43.5476 162.055 43.5766 161.024C43.618 159.488 42.1152 155.961 44.8516 156.3C44.1686 159.008 45.6341 162.555 45.5596 164.878C45.5306 165.735 44.7688 166.186 45.009 167.08C45.4395 168.662 49.5172 169.63 50.076 172.437C50.4238 174.172 49.2191 174.288 48.9956 175.757C50.9371 176.001 53.4831 174.983 54.7871 176.8C55.0438 178.046 52.6386 177.902 51.8893 177.831V184.455C47.7205 183.871 43.6842 184.662 39.4699 184.455L39.8591 186.343L42.7859 186.521C42.5044 187.481 43.1916 188.798 43.0715 189.559C43.0426 189.754 41.5026 192.316 42.9887 192.316H49.8194V204.736L47.3893 204.674C47.2941 202.446 45.1042 202.123 43.3737 203.051L43.1957 205.15L40.2689 204.972C39.5155 203.523 40.3434 202.935 38.4515 202.649C35.9594 202.273 36.8867 202.881 36.5017 204.028C36.1747 204.992 32.4116 204.976 31.4843 204.748C31.0869 204.649 30.9875 203.85 30.5901 203.498C28.7645 201.879 28.2139 199.818 27.775 199.466C27.3776 199.147 26.4296 199.246 25.8169 198.733C25.2042 198.22 25.1753 196.969 24.7075 196.858C22.7866 196.394 14.892 196.787 12.3378 196.858C11.6216 196.878 10.9634 197.061 10.2927 197.284L9.72973 196.684C10.5825 194.018 9.70075 192.018 6.77393 191.695L6.3558 190.876C8.0614 190.271 7.29968 189.431 7.7178 188.524C9.0922 185.548 9.21226 185.788 12.5696 185.279L12.1556 183.631H16.7094C14.565 186.119 17.6947 185.746 19.6073 185.701L20.0626 182.021L22.9191 181.975V185.705C26.3924 185.589 29.5262 185.585 32.867 186.309C33.9475 187.224 32.5275 187.547 32.2377 188.193C31.7906 189.191 31.7285 191.596 32.6476 192.329H39.8922L39.8839 192.316ZM43.2371 182.335C46.7352 183.615 46.0977 178.908 43.2371 179.943V182.335Z" fill="white"/>
<path d="M260.741 145.123C260.323 145.256 259.897 146.704 259.301 146.994C258.502 147.379 257.024 146.94 256.572 147.578L256.394 149.677C253.244 148.112 249.866 149.755 246.463 149.263C247.014 146.758 246.322 143.032 245.416 140.582C244.915 139.232 243.921 138.189 243.565 136.848C246.211 137.295 249.171 136.372 251.634 136.396C253.083 136.409 256.308 137.576 257.363 137.212C258.026 136.984 258.075 135.891 258.742 135.655C259.831 135.274 261.006 136.136 261.772 135.821C262.882 135.366 263.908 132.729 263.925 131.536C267.58 130.551 271.505 130.99 275.135 131.901C275.5 131.992 275.297 132.637 276.038 132.733C277.127 132.873 282.661 132.455 282.897 132.704V134.36H276.895L276.477 135.188L288.283 136.011L288.32 138.458C289.769 137.969 290.804 140.155 290.97 140.155H304.838C304.275 144.105 304.139 148.228 304.838 152.157C302.681 151.345 300.007 152.123 297.999 151.751C296.89 151.548 297.391 150.289 294.302 150.07C291.761 149.892 286.35 149.192 285.957 152.186L273.645 152.103L273.028 151.478C273.09 149.486 272.999 149.043 271.082 148.46L270.896 145.123C268.913 145.123 262.016 144.721 260.754 145.123H260.741Z" fill="white"/>
<path d="M279.991 203.908L279.809 234.969C279.246 235.751 269.948 235.304 268.176 235.354C262.94 235.507 257.301 236.339 252.023 235.809C250.529 235.66 249.903 235.271 249.113 233.942C249.49 228.991 249.436 223.97 249.374 219.002C249.328 215.231 248.728 210.842 248.922 207.001C248.976 205.908 249.158 204.695 249.978 203.908H279.991ZM272.954 217.362V210.739C272.954 209.385 268.346 207.642 267.961 211.542C267.58 215.404 267.253 219.089 272.267 217.917L272.954 217.362ZM254.325 217.983L258.696 217.594V210.089L254.325 209.7V217.979V217.983ZM262.194 212.598C260.079 221.817 265.519 222.148 263.457 212.784L262.194 212.598ZM263.842 221.705H262.19L261.992 227.919L262.795 228.581L264.281 228.076L263.838 221.705H263.842ZM254.325 232.887L258.696 232.498C258.696 228.457 260.795 221.838 254.325 224.193V232.887ZM272.482 232.829C273.078 231.036 273.699 224.735 271.733 224.015C271.546 223.945 268.889 224.023 268.686 224.148C267.489 224.884 268.007 230.962 268.168 232.502L272.482 232.833V232.829Z" fill="white"/>
<path d="M324.287 213.222C324.672 210.569 326.862 208.635 324.241 205.402C322.846 203.68 318.57 204.823 318.499 203.705C320.942 201.217 316.69 193.943 318.044 192.08C319.253 190.42 320.946 191.505 322.403 191.509C333.717 191.538 344.824 192.097 356.159 191.902L356.594 219.035C354.623 220.053 353.907 217.797 352.189 217.577L348.488 218C347.536 216.34 349.891 212.374 348.004 210.527C346.7 210.651 345.334 209.823 344.352 210.941L343.326 219.229H339.182C338.996 219.043 339.343 214.944 339.174 214.063C338.743 211.811 336.276 212.452 334.856 212.171C334.446 212.088 331.316 210.411 331.316 211.984V219.643C329.921 219.759 328.352 219.457 326.99 219.664C326.175 219.788 325.781 220.533 324.494 220.488C323.144 220.438 324.279 219.763 324.279 219.436C324.279 217.581 324.03 214.936 324.279 213.226L324.287 213.222ZM335.878 204.736V197.905C334.988 196.928 332.629 196.928 331.739 197.905V204.529C331.739 205.675 335.195 204.856 335.878 204.736ZM344.572 197.698V205.15L348.943 204.761L348.625 197.785L344.568 197.694L344.572 197.698ZM327.599 197.698H325.943V203.908H327.599V197.698Z" fill="white"/>
<path d="M241.492 150.501C227.491 147.454 212.927 148.128 198.856 150.501C198.301 135.722 211.375 122.739 226.356 127.761C235.596 130.857 240.614 141.372 241.492 150.501Z" fill="white"/>
<path d="M401.08 146.779C401.759 146.808 402.666 147.313 403.767 146.779C403.779 147.3 403.676 148.004 403.961 148.447C404.959 149.987 412.431 148.919 414.34 149.246C414.654 149.797 414.679 154.052 414.526 154.847C414.348 155.775 412.7 157.108 412.125 158.242C410.85 160.763 411.276 162.336 411.438 165.002C411.073 165.573 408.225 164.952 407.6 164.683C406.217 164.087 406.582 163.127 406.143 162.626C405.903 162.349 399.735 161.156 398.998 161.235C398.555 161.285 398.344 161.235 398.257 161.769L397.971 164.584L393.227 164.555L392.776 165.855L385.134 166.244C386.475 155.878 379.996 159.757 373.302 158.391C373.815 155.948 372.371 154.119 372.114 151.734L366.902 151.585C366.132 150.985 366.231 147.342 365.999 146.257C365.734 145.019 364.36 143.86 364.849 142.233C366.5 142.088 367.949 142.714 369.614 142.676C372.739 142.602 375.964 140.548 379.462 141.397C379.951 141.517 379.93 142.697 380.865 142.987C381.718 143.252 384.972 142.887 385.138 143.061V146.787C390.428 146.953 395.781 146.564 401.076 146.787L401.08 146.779Z" fill="white"/>
<path d="M460.072 152.989C459.989 154.525 459.008 155.833 458.855 157.398C458.71 158.859 458.971 161.715 458.731 163.082C458.602 163.818 456.189 165.872 455.949 167.722C455.779 169.022 456.272 169.949 456.317 171.162L452.206 172.028V173.692C450.811 173.485 448.812 173.977 447.528 173.679C447.193 173.601 447.396 172.893 446.642 172.818C445.649 172.719 444.701 173.009 443.757 173.228C442.991 173.038 442.805 169.001 442.184 167.776C441.985 167.383 440.573 165.822 440.412 165.822H428.2C427.848 162.87 429.529 160.821 429.003 157.77C428.688 155.94 426.316 153.908 425.633 152.024C425.02 150.327 427.889 151.076 429.135 150.824C430.799 150.484 434.24 149.677 435.767 149.176C436.781 148.845 436.815 147.499 437.576 147.259C438.396 146.998 439.439 147.441 440.238 147.003L440.205 145.955L444.755 145.537C444.796 146.94 445.367 148.071 446.39 149.052L451.399 149.044L452.831 152.993H460.076L460.072 152.989Z" fill="white"/>
<path d="M349.13 242.818L352.876 243C353.977 243.762 352.45 246.469 352.864 246.945C355.472 247.26 356.296 247.289 356.577 250.062C357.26 256.736 353.944 263.177 346.426 262.279C345.665 262.188 344.506 262.006 344.228 261.169C343.93 260.279 344.65 258.52 343.752 258.135C343.098 262.001 343.301 265.843 343.744 269.722L341.26 269.308C341.272 266.609 343.164 261.194 339.716 260.263C338.933 260.052 337.435 260.685 336.143 260.581C335.419 260.523 330.045 258.847 329.855 258.565C329.292 257.096 330.364 255.746 330.083 254.219C329.863 253.026 328.336 252.521 327.872 251.027C326.659 247.106 328.704 240.321 333.804 243.227C332.438 237.452 338.043 231.483 343.847 232.982C344.166 233.064 349.08 236.393 349.295 236.637C351.787 239.456 348.529 242.25 349.121 242.813L349.13 242.818ZM341.674 247.583V255.034C341.674 257.907 339.948 254.165 339.405 253.577C338.917 253.047 338.681 252.894 338.78 253.784C339.927 255.552 340.8 257.34 341.632 259.215C342.465 261.091 342.796 258.205 343.247 257.435C344.133 255.924 345.59 254.657 346.232 252.968L342.916 254.823C343.69 253.813 342.949 247.483 342.502 247.164L341.674 247.583Z" fill="white"/>
<path d="M334.227 121.526C336.218 121.522 335.179 123.841 335.452 124.962C335.556 125.389 336.45 125.356 336.645 125.919C336.934 126.759 336.599 128.051 336.707 128.978C332.567 129.156 328.605 127.624 324.469 127.715C320.003 127.815 315.391 128.957 311.123 129.305C308.08 129.553 311.143 123.228 311.04 121.522C313.093 121.262 311.959 124.946 312.278 125.248H313.516C313.42 123.609 313.631 121.928 314.265 120.405C314.861 118.968 316.529 117.817 316.745 117.089C317.043 116.087 317.014 109.347 316.856 108.043C316.757 107.228 315.349 107.344 315.606 104.785C315.768 103.179 316.633 103.444 317.171 102.628C318.649 100.401 318.496 99.0847 321.642 98.7908C322.934 98.6707 324.747 98.7908 325.906 99.3993C326.908 99.9292 329.611 104.119 329.673 105.203C329.735 106.387 328.593 106.615 328.402 108.039C328.199 109.546 328.261 115.582 328.795 116.799C329.247 117.821 330.696 118.397 331.486 119.904C332.434 121.717 332.215 123.592 333.192 125.24C335.121 124.88 333.465 122.789 334.223 121.518L334.227 121.526ZM322.052 107.898C321.216 108.172 320.429 114.745 322.834 114.51C324.552 114.344 323.981 109.256 323.488 108.039L322.052 107.898ZM325.943 108.693V114.903C327.198 114.129 326.937 110.606 326.771 109.306C326.693 108.697 326.448 108.022 325.943 108.693ZM318.906 109.107H318.078V114.903H318.906V109.107ZM326.775 121.522C325.914 125.799 329.338 127.09 328.783 122.201L326.775 121.522ZM318.752 121.965C317.171 122.437 317.726 125.757 319.485 125.223C321.062 124.743 320.665 121.394 318.752 121.965Z" fill="white"/>
<path d="M335.465 130.22C334.968 134.277 334.831 138.731 335.055 142.842C335.129 144.195 335.266 147.097 335.473 148.219C335.68 149.341 336.785 149.432 336.707 150.5L331.329 150.086L331.552 147.611C330.368 145.905 327.04 145.731 328.63 148.439C329.143 149.308 330.72 148.815 330.911 149.672C323.612 148.927 316.26 149.432 308.974 150.091C308.56 148.493 310.096 148.439 310.626 147.814C311.383 146.915 311.065 137.443 311.061 135.382C311.061 133.486 310.166 132.372 311.52 130.294C315.527 130.414 319.696 129.487 323.65 129.379C327.847 129.263 331.275 130.609 335.469 130.228L335.465 130.22ZM331.325 145.537V137.05C331.325 135.489 328.427 134.446 328.427 136.636V145.537H331.325ZM316.836 137.464C316.426 139.94 317.134 143.359 316.836 145.951L321.389 145.537C321.228 143.81 321.961 136.226 320.301 135.655C318.64 135.084 317.125 135.696 316.836 137.464Z" fill="white"/>
<path d="M427.107 172.698C428.158 173.613 429.413 174.408 430.265 175.546C431.259 176.879 432.033 179.789 432.72 180.543C433.594 181.503 435.668 180.725 435.233 182.786C426.13 182.36 417.018 182.149 407.993 183.122L406.681 180.924C408.999 179.508 408.647 176.639 410.399 174.304C412.034 172.122 414.451 171.278 416.538 169.713C415.677 167.428 416.612 164.513 416.186 162.303C415.942 161.044 414.319 160.39 414.543 158.192C414.779 155.874 417.854 155.058 418.19 153.94C418.388 153.274 418.645 149.693 418.72 148.633C418.865 146.443 418.566 143.45 418.645 141.173C418.674 140.374 418.931 139.667 419.096 138.905C421.431 139.095 419.974 142.494 420.032 143.752C420.061 144.369 420.686 144.858 420.785 145.723C421.025 147.822 420.338 150.836 420.835 153.096C421.307 155.24 424.594 155.733 424.884 158.606C425.091 160.684 423.489 160.995 423.24 162.299C423.083 163.131 423.087 169.042 423.298 169.672C424.619 170.731 425.877 171.613 427.107 172.685V172.698ZM421.158 167.892C421.849 160.192 418.815 160.212 419.506 167.892H421.158ZM425.716 179.069L424.958 176.304L422.404 172.445L422.582 179.508L429.438 180.307C429.479 179.545 428.291 179.864 427.881 179.379C427.421 178.837 427.401 176.511 426.13 176.171C425.935 177.057 427.488 179.338 425.716 179.069Z" fill="white"/>
<path d="M434.405 200.182C432.981 199.801 430.866 200.592 429.698 200.476C429.065 200.414 428.361 199.843 427.185 199.747C424.412 199.524 422.127 200.778 419.411 199.656C418.007 199.077 417.759 197.363 415.983 198.936C414.195 200.522 414.783 202.256 414.062 204.268C408.652 204.67 410.245 204.471 409.529 200.857C409.322 199.809 408.846 199.218 408.718 197.934C408.258 193.389 411.044 190.019 409.624 185.523C409.744 185.03 414.348 183.615 415.147 183.582C416.749 183.515 417.221 184.31 418.446 184.48C420.889 184.819 434.654 183.855 435.233 184.459C435.771 185.428 434.405 186.608 434.405 186.736V200.19V200.182ZM429.023 185.275H427.372V188.591H429.023V185.275ZM412.8 188.268C412.448 188.065 412.017 188.21 411.636 188.177C411.318 188.479 411.881 191.766 411.843 192.528C411.819 193.02 411.156 193.612 411.206 194.987C411.243 196.129 411.81 197.698 411.819 198.965L413.702 199.354C413.723 197.396 414.6 195.31 414.547 193.376C414.518 192.383 413.553 188.707 412.8 188.268ZM423.646 198.112C424.333 190.603 420.715 190.276 421.572 198.112H423.646Z" fill="white"/>
<path d="M270.474 186.103C270.358 188.003 270.458 189.832 271.526 191.468C271.857 191.977 279.267 199.089 279.764 199.375C280.766 199.954 283.738 199.776 282.492 201.639L251.075 201.362L250.599 198.94C250.76 198.783 255.091 199.379 254.743 197.909L252.271 197.682C251.725 195.032 250.276 192.54 250.992 189.609C251.597 189.228 262.923 190.242 265.283 189.82C265.821 189.725 266.235 189.493 266.529 189.025L266.33 186.103H270.474ZM266.136 193.972L265.705 194.796L269.021 198.514C271.385 196.924 268.197 193.467 266.136 193.972ZM265.916 198.53L262.985 197.909C262.96 195.434 260.87 193.004 258.663 195.194C259.45 199.457 261.259 199.859 265.304 199.35C265.879 199.275 266.504 199.126 265.916 198.526V198.53Z" fill="white"/>
<path d="M404.599 201.424L404.127 206.127L403.584 206.702C400.442 205.58 397.002 209.049 398.389 203.494L393.202 203.514L392.581 187.137C392.659 185.929 396.187 185.779 397.358 185.697C398.774 185.597 406.408 185.494 407.087 185.895C407.79 186.748 408.279 189 408.279 190.089C408.279 190.867 406.76 197.586 406.437 198.091C404.884 200.525 399.701 198.431 397.143 199.354V201.424H404.599Z" fill="white"/>
<path d="M194.36 153.042C199.845 153.349 205.235 151.759 210.654 151.333C217.787 150.774 226.212 151.138 233.415 151.742C237.269 152.065 241.131 153.477 244.952 152.599L245.64 153.597L245.155 157.265C245.023 157.807 244.646 157.861 244.174 157.952C243.011 158.176 236.693 156.503 234.653 156.296C225.284 155.344 212.174 155.427 202.838 156.76C201.302 156.979 195.445 158.739 194.679 158.184L194.356 157.675V153.034L194.36 153.042Z" fill="white"/>
<path d="M394.25 119.87C397.454 115.474 403.051 115.279 408.031 116.086C411.864 110.792 418.19 107.38 423.857 112.41C424.768 113.218 426.353 115.656 426.958 115.933C428.216 116.517 430.154 115.681 431.719 115.701C434.397 115.735 436.119 117.233 438.015 118.926C438.293 119.171 438.806 118.893 438.545 119.874H394.25V119.87Z" fill="white"/>
<path d="M348.298 134.773L347.88 137.054L352.015 136.847C352.214 139.965 353.17 139.278 354.896 140.391C355.29 140.648 355.414 141.385 355.758 141.6C356.569 142.117 358.105 141.687 359.065 141.811C359.148 142.887 358.117 143.55 357.732 144.419C357.521 144.903 357.827 145.491 357.608 145.926C356.966 147.193 355.426 147.59 356.167 150.091C352.4 149.888 350.45 150.993 351.2 155.058H347.47L347.424 151.374C345.785 151.655 344.783 149.606 343.868 149.341C343.073 149.114 341.811 149.47 341.231 149.081C340.221 148.393 341.322 146.067 341.248 144.961C341.173 143.856 340.151 142.676 340.428 141.397C342.957 141.621 342.465 139.095 345.429 139.547C345.797 137.079 344.746 134.873 348.294 134.773H348.298Z" fill="white"/>
<path d="M304.901 188.93C306.308 189.237 307.14 191.191 308.163 191.679C309.024 192.093 312.505 192.536 312.94 193.12C312.795 195.96 312.609 198.791 312.679 201.652C312.696 202.306 313.681 205.605 312.282 204.956C311.181 202.861 309.011 205.746 307.682 204.136L307.451 196.543C306.929 195.409 303.385 195.732 302.355 196.266C300.521 197.218 302.011 203.627 301.758 203.933C301.373 204.397 300.405 204.219 299.879 204.554C298.964 205.138 299.006 206.678 296.546 205.986L296.323 193.53C299.353 193.339 300.918 190.292 303.617 189.142C304.408 187.953 303.195 185.316 303.29 183.884C303.319 183.425 303.861 182.957 303.919 182.501C304.052 181.458 302.938 180.32 304.205 179.492C305.315 179.483 305.083 187.821 304.896 188.93H304.901Z" fill="white"/>
<path d="M131.406 188.532C133.323 188.86 135.376 191.919 136.763 192.515C137.753 192.937 139.293 192.416 139.88 193.554C140.53 194.813 139.317 194.991 139.044 195.636C138.705 196.439 138.638 201.064 138.833 202.032C139.069 203.229 140.427 203.254 139.653 204.727C137.81 203.804 136.088 203.527 134.047 204.21L133.638 203.924C132.739 201.32 135.029 196.137 131.174 195.997C127.051 195.847 128.028 200.588 128.293 203.498L123.094 204.727C123.098 203.804 123.491 202.993 123.524 202.057C123.578 200.596 123.094 193.554 123.28 193.148C123.934 191.72 125.979 193.078 126.824 192.474C127.275 192.155 127.66 191.17 128.248 190.631C128.902 190.039 130.471 189.211 130.777 188.574C131.162 187.771 130.301 187.32 130.239 186.674C130.181 186.069 130.653 185.395 130.553 184.682C130.467 184.057 129.721 183.594 129.792 183.08C129.821 182.857 131.021 180.733 131.162 180.729C133.166 181.739 131.145 188.172 131.402 188.532H131.406Z" fill="white"/>
<path d="M322.648 49.4732L324.697 50.119C324.879 51.3154 323.327 50.4088 322.606 50.9139C321.683 51.5638 322.643 54.2754 322.652 55.4759C322.755 68.0733 324.084 82.5832 325.55 95.2178C325.678 96.3149 327.255 97.5568 325.396 97.8673C323.26 96.3935 321.141 97.2546 318.909 97.9252C320.242 86.6029 320.545 75.1813 320.983 63.7803C321.066 61.5821 321.161 59.6985 321.178 57.5789C321.186 56.5564 321.691 51.0132 321.389 50.7358C320.512 50.7193 319.236 50.9842 318.905 49.912L321.364 49.4732L321.389 44.9402C323.612 44.729 322.18 49.022 322.648 49.4732Z" fill="white"/>
<path d="M220.378 107.244C222.216 108.105 226.195 111.686 225.768 113.793C225.714 114.066 225.085 114.054 224.969 114.393C223.951 117.374 224.357 122.689 225.346 125.662C222.812 124.842 220.362 124.664 217.696 124.838C216.913 124.888 213.742 126.15 213.767 125.041C214.044 124.676 214.607 124.395 214.79 124.002C215.452 122.553 215.228 116.082 214.173 114.488L224.522 114.066C222.138 111.947 217.253 112.998 214.293 113.578C213.701 113.694 213.639 113.731 213.75 113.035C214.189 110.373 217.377 108.556 219.078 106.751C218.561 103.439 218.677 99.9992 219.14 96.6873C219.525 96.5093 220.378 97.0558 220.378 97.3083V107.244ZM216.652 116.972V123.596H222.862V116.558L221.21 117.386C221.045 114.008 217.203 115.188 217.89 118.21L216.652 116.968V116.972Z" fill="white"/>
<path d="M280.819 92.1294C279.478 92.7214 278.758 91.6616 277.317 91.6947C275.115 91.7444 272.337 93.6777 270.875 95.2301C268.913 97.3124 268.909 99.8667 265.589 99.4982C263.246 99.2374 262.232 96.4431 260.327 95.0355C257.429 92.8911 254.027 92.8166 250.603 93.3755C249.498 92.3198 253.174 90.7881 253.82 90.5977C257.148 89.6 259.781 90.4528 262.575 92.3736C263.498 93.007 264.898 95.1514 266.049 94.9486C267.837 94.6381 271.265 89.4592 275.657 89.2191C277.392 89.1239 281.13 89.8442 280.815 92.1335L280.819 92.1294Z" fill="white"/>
<path d="M357.41 27.1351C357.294 25.0652 360.183 23.7363 361.864 23.5169C365.507 23.0408 367.689 24.7713 370.446 26.7418C373.008 24.6719 374.304 21.9107 377.877 20.9088C379.098 20.5652 383.97 20.0809 384.314 21.5588C384.658 23.0367 380.783 22.7593 379.669 23.1195C374.826 24.6885 375.554 27.2551 373.145 29.8384C370.363 32.8273 368.591 29.4202 366.65 28.0376C363.267 25.6323 361.21 26.2119 357.41 27.1351Z" fill="white"/>
<path d="M156.212 301.193C156.295 298.183 155.566 295.282 156.589 292.351C157.205 291.473 160.584 291.382 160.741 291.229C160.882 291.088 161.113 288.368 162.633 287.954C164.032 289.175 163.527 291.084 164.011 292.777C164.384 294.077 165.452 294.863 165.311 296.209L160.77 297.045C161.701 297.538 166.085 298.333 166.139 299.326C166.193 300.245 163.982 299.545 163.365 299.794C162.749 300.042 162.417 301.189 162.215 301.189H156.212V301.193Z" fill="white"/>
<path d="M48.1884 75.1858C52.6262 73.1283 56.1533 74.7097 59.5065 77.6821C60.1606 78.2617 60.4587 79.6361 61.6178 79.723C63.7539 78.332 65.6789 75.8026 68.3325 75.2479C69.5786 74.9871 74.9769 75.0161 74.654 77.0114C74.5298 77.7814 72.0169 77.1563 71.1766 77.2557C69.384 77.4668 67.5046 78.5266 66.1633 79.6982C64.1348 81.47 63.9402 83.8462 60.7733 83.4612C58.9684 83.2418 59.4568 82.2483 58.5171 81.1554C56.9523 79.338 54.9321 77.1895 52.4772 76.8459C51.3926 76.6927 48.8921 77.1522 48.3498 76.4195L48.1884 75.1817V75.1858Z" fill="white"/>
<path d="M51.2683 319.408L59.7549 321.068C59.8708 321.826 59.6969 322.223 59.1546 322.74C57.1758 324.636 45.9032 325.878 42.9681 325.638C42.4051 325.593 41.3453 325.68 41.13 324.993C40.4055 322.699 47.6502 322.906 48.9914 322.099C47.1575 320.497 45.1704 320.542 42.9929 320.224C42.2643 320.116 42.3016 320.439 42.3719 319.404H51.2725L51.2683 319.408Z" fill="white"/>
<path d="M318.077 190.247L318.317 188.168C321.058 187.788 323.968 188.541 326.547 188.607C335.717 188.847 347.602 187.978 356.379 188.996C357.894 189.17 359.868 190.222 357.658 191.054L318.077 190.247Z" fill="white"/>
<path d="M366.099 210.114L366.501 207.804C368.807 208.545 368.848 207.249 369.705 206.806C370.413 206.437 371.53 206.346 372.073 205.945C373.029 205.237 372.479 203.862 373.398 203.544C373.973 203.345 381.59 203.337 382.443 203.502C383.465 203.697 384.012 204.724 384.724 205.365C385.146 207.236 379.367 205.729 377.997 206.081C376.25 206.533 373.319 209.58 371.584 210.018C369.962 210.428 367.796 209.94 366.095 210.118L366.099 210.114Z" fill="white"/>
<path d="M406.255 184.451H394.25C394.589 181.388 398.22 181.698 399.896 179.935C402.194 181.313 405.415 181.441 406.255 184.451Z" fill="white"/>
<path d="M217.485 225.016C217.617 222.752 216.16 219.518 218.942 218.392C222.846 216.811 223.011 222.064 222.254 224.615L221.831 225.008C220.238 223.377 219.236 224.962 217.485 225.016Z" fill="white"/>
<path d="M152.076 237.022C152.196 239.448 151.6 241.51 152.519 243.787C151.364 244.946 149.907 245.028 148.346 244.892L147.982 237.676C148.243 236.575 151.161 237.142 152.076 237.022Z" fill="white"/>
<path d="M2.55957 186.997L3.03979 188.587L1.14377 188.976L0.969898 192.317L-3.58386 192.726C-3.19886 187.527 -3.25681 186.177 2.55544 186.997H2.55957Z" fill="white"/>
<path d="M51.4752 186.107C52.1542 190.677 46.6855 189.758 43.6055 189.828L43.6138 188.59L44.7522 188.516C45.0503 184.707 48.7554 186.458 51.4752 186.102V186.107Z" fill="white"/>
<path d="M147.932 205.15C147.204 205.241 147.539 204.214 147.518 203.705C147.44 201.78 147.903 197.822 147.527 196.332C147.411 195.876 146.459 196.05 146.264 195.024C145.788 192.503 146.947 189.025 145.862 186.529H148.346C148.504 186.976 147.932 187.431 147.932 187.56V205.154V205.15Z" fill="white"/>
<path d="M76.7239 219.221C72.849 219.072 72.5841 218.153 70.5266 215.289C71.3173 214.2 72.7497 214.808 73.8467 214.92L76.728 219.221H76.7239Z" fill="white"/>
<path d="M97.4268 220.467H91.2172L92.4301 218.178C93.9453 216.323 96.5782 219.109 97.4268 220.467Z" fill="white"/>
</svg>
