<svg width="2638" height="425" viewBox="0 0 2638 425" fill="none" xmlns="http://www.w3.org/2000/svg">
<g clip-path="url(#clip0_80_143)">
<path d="M4.96484 229.15C4.96484 206.05 4.96484 182.95 4.96484 159.85C4.96484 149.2 12.0148 142 22.5148 142C27.7648 142 32.4148 142 40.5148 142C67.3648 142 77.7149 149.5 77.7149 168.55C77.7149 183.1 69.6148 193 57.4648 193C57.1648 193 50.7148 193 45.0148 193V196C51.7648 196 55.0648 196 57.4648 196C71.1148 196 80.2648 205.9 80.2648 221.05C80.2648 239.8 69.3148 247 40.9648 247C35.4148 247 27.9148 247 23.4148 247C12.3148 247 4.96484 239.8 4.96484 229.15ZM40.9648 178.3V189.1C41.4148 189.1 43.8148 189.1 43.9648 189.1C43.9648 187.3 43.9648 178.3 43.9648 178.3H40.9648ZM40.9648 199.6V210.85H43.9648V199.6H40.9648ZM146.714 247H146.414C137.114 247 130.814 240.7 130.814 231.4C130.814 222.85 130.814 211.45 130.814 197.5C130.064 197.5 128.864 197.5 128.264 197.5C128.264 206.5 128.114 216.55 127.964 226.45C127.664 238.9 119.414 247 106.814 247C94.5137 247 86.2637 238.75 86.2637 226.45V157.6C86.2637 148.3 92.5637 142 102.314 142C111.614 142 117.914 148.3 117.914 157.6C117.914 169.9 117.914 182.35 117.914 194.5C118.214 194.5 119.414 194.5 120.314 194.5C120.314 183.85 120.314 173.35 120.314 162.85C120.314 150.25 128.564 142 141.464 142C154.064 142 162.314 150.25 162.314 162.85C162.314 185.65 162.314 208.6 162.314 231.4C162.314 240.7 156.014 247 146.714 247ZM207.521 159.85C207.521 175.75 207.521 191.35 207.521 211H210.371V153.85C210.371 149.5 213.221 146.5 217.871 146.5C222.371 146.5 225.371 149.5 225.371 153.85C225.371 171.1 225.371 200.65 225.371 211H228.221C228.221 199.45 228.221 178 228.221 159.85C228.221 149.2 235.271 142 246.371 142C257.171 142 264.221 149.2 264.221 159.85C264.221 179.95 264.221 199.9 264.221 220C264.221 236.2 253.421 247 237.221 247C227.471 247.15 216.971 247.15 208.421 247.15C204.521 247.15 201.221 247.15 198.371 247.15C182.171 247.15 171.371 236.2 171.371 220C171.371 201.4 171.371 177.1 171.371 159.85C171.371 149.2 178.571 142 189.521 142C200.321 142 207.521 149.2 207.521 159.85ZM273.178 160.6C273.178 149.5 280.678 142 291.778 142H316.828C335.578 142 348.178 154.6 348.178 173.35C348.178 192.7 335.578 205.3 316.828 205.3C313.678 205.3 310.978 205.3 309.178 205.3C309.178 213.7 309.178 221.35 309.178 229.15C309.178 239.8 301.978 247 291.328 247C280.378 247 273.178 239.8 273.178 229.15C273.178 206.35 273.178 183.4 273.178 160.6ZM312.178 178H309.178V194.8H312.178V178ZM351.184 204.25V184.75C351.184 154.3 369.034 142 388.684 142C408.634 142 426.334 154.3 426.334 184.75V204.25C426.334 234.7 410.134 247 388.834 247C367.534 247 351.184 234.7 351.184 204.25ZM387.334 178.3V210.85H390.334V178.3H387.334ZM467.506 230.05C467.506 212.5 467.506 190.75 467.506 178H464.506C464.506 193.9 464.506 215.05 464.506 230.05C464.506 240.25 457.306 247 446.356 247C435.556 247 428.956 240.25 429.556 230.05C430.756 213.85 432.556 189.4 433.906 170.2C435.106 153.4 448.006 142 466.306 142C484.156 142 496.756 153.25 498.106 170.35C499.456 189.4 501.106 213.85 502.306 230.05C503.056 240.25 496.456 247 485.356 247C474.706 247 467.506 240.25 467.506 230.05ZM543.532 230.05C543.532 212.5 543.532 190.75 543.532 178H540.532C540.532 193.9 540.532 215.05 540.532 230.05C540.532 240.25 533.332 247 522.382 247C511.582 247 504.982 240.25 505.582 230.05C506.782 213.85 508.582 189.4 509.932 170.2C511.132 153.4 524.032 142 542.332 142C560.182 142 572.782 153.25 574.132 170.35C575.482 189.4 577.132 213.85 578.332 230.05C579.082 240.25 572.482 247 561.382 247C550.732 247 543.532 240.25 543.532 230.05ZM608.48 229.15C608.48 206.05 608.48 182.95 608.48 159.85C608.48 149.2 615.53 142 626.03 142C631.28 142 635.93 142 644.03 142C670.88 142 681.23 149.5 681.23 168.55C681.23 183.1 673.13 193 660.98 193C660.68 193 654.23 193 648.53 193V196C655.28 196 658.58 196 660.98 196C674.63 196 683.78 205.9 683.78 221.05C683.78 239.8 672.83 247 644.48 247C638.93 247 631.43 247 626.93 247C615.83 247 608.48 239.8 608.48 229.15ZM644.48 178.3V189.1C644.93 189.1 647.33 189.1 647.48 189.1C647.48 187.3 647.48 178.3 647.48 178.3H644.48ZM644.48 199.6V210.85H647.48V199.6H644.48ZM750.229 247H749.929C740.629 247 734.329 240.7 734.329 231.4C734.329 222.85 734.329 211.45 734.329 197.5C733.579 197.5 732.379 197.5 731.779 197.5C731.779 206.5 731.629 216.55 731.479 226.45C731.179 238.9 722.929 247 710.329 247C698.029 247 689.779 238.75 689.779 226.45V157.6C689.779 148.3 696.079 142 705.829 142C715.129 142 721.429 148.3 721.429 157.6C721.429 169.9 721.429 182.35 721.429 194.5C721.729 194.5 722.929 194.5 723.829 194.5C723.829 183.85 723.829 173.35 723.829 162.85C723.829 150.25 732.079 142 744.979 142C757.579 142 765.829 150.25 765.829 162.85C765.829 185.65 765.829 208.6 765.829 231.4C765.829 240.7 759.529 247 750.229 247ZM811.037 159.85C811.037 175.75 811.037 191.35 811.037 211H813.887V153.85C813.887 149.5 816.737 146.5 821.387 146.5C825.887 146.5 828.887 149.5 828.887 153.85C828.887 171.1 828.887 200.65 828.887 211H831.737C831.737 199.45 831.737 178 831.737 159.85C831.737 149.2 838.787 142 849.887 142C860.687 142 867.737 149.2 867.737 159.85C867.737 179.95 867.737 199.9 867.737 220C867.737 236.2 856.937 247 840.737 247C830.987 247.15 820.487 247.15 811.937 247.15C808.037 247.15 804.737 247.15 801.887 247.15C785.687 247.15 774.887 236.2 774.887 220C774.887 201.4 774.887 177.1 774.887 159.85C774.887 149.2 782.087 142 793.037 142C803.837 142 811.037 149.2 811.037 159.85ZM876.693 160.6C876.693 149.5 884.193 142 895.293 142H920.343C939.093 142 951.693 154.6 951.693 173.35C951.693 192.7 939.093 205.3 920.343 205.3C917.193 205.3 914.493 205.3 912.693 205.3C912.693 213.7 912.693 221.35 912.693 229.15C912.693 239.8 905.493 247 894.843 247C883.893 247 876.693 239.8 876.693 229.15C876.693 206.35 876.693 183.4 876.693 160.6ZM915.693 178H912.693V194.8H915.693V178ZM954.699 204.25V184.75C954.699 154.3 972.549 142 992.199 142C1012.15 142 1029.85 154.3 1029.85 184.75V204.25C1029.85 234.7 1013.65 247 992.349 247C971.049 247 954.699 234.7 954.699 204.25ZM990.849 178.3V210.85H993.849V178.3H990.849ZM1071.02 230.05C1071.02 212.5 1071.02 190.75 1071.02 178H1068.02C1068.02 193.9 1068.02 215.05 1068.02 230.05C1068.02 240.25 1060.82 247 1049.87 247C1039.07 247 1032.47 240.25 1033.07 230.05C1034.27 213.85 1036.07 189.4 1037.42 170.2C1038.62 153.4 1051.52 142 1069.82 142C1087.67 142 1100.27 153.25 1101.62 170.35C1102.97 189.4 1104.62 213.85 1105.82 230.05C1106.57 240.25 1099.97 247 1088.87 247C1078.22 247 1071.02 240.25 1071.02 230.05ZM1147.05 230.05C1147.05 212.5 1147.05 190.75 1147.05 178H1144.05C1144.05 193.9 1144.05 215.05 1144.05 230.05C1144.05 240.25 1136.85 247 1125.9 247C1115.1 247 1108.5 240.25 1109.1 230.05C1110.3 213.85 1112.1 189.4 1113.45 170.2C1114.65 153.4 1127.55 142 1145.85 142C1163.7 142 1176.3 153.25 1177.65 170.35C1179 189.4 1180.65 213.85 1181.85 230.05C1182.6 240.25 1176 247 1164.9 247C1154.25 247 1147.05 240.25 1147.05 230.05ZM1212 229.15C1212 206.05 1212 182.95 1212 159.85C1212 149.2 1219.05 142 1229.55 142C1234.8 142 1239.45 142 1247.55 142C1274.4 142 1284.75 149.5 1284.75 168.55C1284.75 183.1 1276.65 193 1264.5 193C1264.2 193 1257.75 193 1252.05 193V196C1258.8 196 1262.1 196 1264.5 196C1278.15 196 1287.3 205.9 1287.3 221.05C1287.3 239.8 1276.35 247 1248 247C1242.45 247 1234.95 247 1230.45 247C1219.35 247 1212 239.8 1212 229.15ZM1248 178.3V189.1C1248.45 189.1 1250.85 189.1 1251 189.1C1251 187.3 1251 178.3 1251 178.3H1248ZM1248 199.6V210.85H1251V199.6H1248ZM1353.74 247H1353.44C1344.14 247 1337.84 240.7 1337.84 231.4C1337.84 222.85 1337.84 211.45 1337.84 197.5C1337.09 197.5 1335.89 197.5 1335.29 197.5C1335.29 206.5 1335.14 216.55 1334.99 226.45C1334.69 238.9 1326.44 247 1313.84 247C1301.54 247 1293.29 238.75 1293.29 226.45V157.6C1293.29 148.3 1299.59 142 1309.34 142C1318.64 142 1324.94 148.3 1324.94 157.6C1324.94 169.9 1324.94 182.35 1324.94 194.5C1325.24 194.5 1326.44 194.5 1327.34 194.5C1327.34 183.85 1327.34 173.35 1327.34 162.85C1327.34 150.25 1335.59 142 1348.49 142C1361.09 142 1369.34 150.25 1369.34 162.85C1369.34 185.65 1369.34 208.6 1369.34 231.4C1369.34 240.7 1363.04 247 1353.74 247ZM1414.55 159.85C1414.55 175.75 1414.55 191.35 1414.55 211H1417.4V153.85C1417.4 149.5 1420.25 146.5 1424.9 146.5C1429.4 146.5 1432.4 149.5 1432.4 153.85C1432.4 171.1 1432.4 200.65 1432.4 211H1435.25C1435.25 199.45 1435.25 178 1435.25 159.85C1435.25 149.2 1442.3 142 1453.4 142C1464.2 142 1471.25 149.2 1471.25 159.85C1471.25 179.95 1471.25 199.9 1471.25 220C1471.25 236.2 1460.45 247 1444.25 247C1434.5 247.15 1424 247.15 1415.45 247.15C1411.55 247.15 1408.25 247.15 1405.4 247.15C1389.2 247.15 1378.4 236.2 1378.4 220C1378.4 201.4 1378.4 177.1 1378.4 159.85C1378.4 149.2 1385.6 142 1396.55 142C1407.35 142 1414.55 149.2 1414.55 159.85ZM1480.21 160.6C1480.21 149.5 1487.71 142 1498.81 142H1523.86C1542.61 142 1555.21 154.6 1555.21 173.35C1555.21 192.7 1542.61 205.3 1523.86 205.3C1520.71 205.3 1518.01 205.3 1516.21 205.3C1516.21 213.7 1516.21 221.35 1516.21 229.15C1516.21 239.8 1509.01 247 1498.36 247C1487.41 247 1480.21 239.8 1480.21 229.15C1480.21 206.35 1480.21 183.4 1480.21 160.6ZM1519.21 178H1516.21V194.8H1519.21V178ZM1558.21 204.25V184.75C1558.21 154.3 1576.06 142 1595.71 142C1615.66 142 1633.36 154.3 1633.36 184.75V204.25C1633.36 234.7 1617.16 247 1595.86 247C1574.56 247 1558.21 234.7 1558.21 204.25ZM1594.36 178.3V210.85H1597.36V178.3H1594.36ZM1674.54 230.05C1674.54 212.5 1674.54 190.75 1674.54 178H1671.54C1671.54 193.9 1671.54 215.05 1671.54 230.05C1671.54 240.25 1664.34 247 1653.39 247C1642.59 247 1635.99 240.25 1636.59 230.05C1637.79 213.85 1639.59 189.4 1640.94 170.2C1642.14 153.4 1655.04 142 1673.34 142C1691.19 142 1703.79 153.25 1705.14 170.35C1706.49 189.4 1708.14 213.85 1709.34 230.05C1710.09 240.25 1703.49 247 1692.39 247C1681.74 247 1674.54 240.25 1674.54 230.05ZM1750.56 230.05C1750.56 212.5 1750.56 190.75 1750.56 178H1747.56C1747.56 193.9 1747.56 215.05 1747.56 230.05C1747.56 240.25 1740.36 247 1729.41 247C1718.61 247 1712.01 240.25 1712.61 230.05C1713.81 213.85 1715.61 189.4 1716.96 170.2C1718.16 153.4 1731.06 142 1749.36 142C1767.21 142 1779.81 153.25 1781.16 170.35C1782.51 189.4 1784.16 213.85 1785.36 230.05C1786.11 240.25 1779.51 247 1768.41 247C1757.76 247 1750.56 240.25 1750.56 230.05ZM1815.51 229.15C1815.51 206.05 1815.51 182.95 1815.51 159.85C1815.51 149.2 1822.56 142 1833.06 142C1838.31 142 1842.96 142 1851.06 142C1877.91 142 1888.26 149.5 1888.26 168.55C1888.26 183.1 1880.16 193 1868.01 193C1867.71 193 1861.26 193 1855.56 193V196C1862.31 196 1865.61 196 1868.01 196C1881.66 196 1890.81 205.9 1890.81 221.05C1890.81 239.8 1879.86 247 1851.51 247C1845.96 247 1838.46 247 1833.96 247C1822.86 247 1815.51 239.8 1815.51 229.15ZM1851.51 178.3V189.1C1851.96 189.1 1854.36 189.1 1854.51 189.1C1854.51 187.3 1854.51 178.3 1854.51 178.3H1851.51ZM1851.51 199.6V210.85H1854.51V199.6H1851.51ZM1957.26 247H1956.96C1947.66 247 1941.36 240.7 1941.36 231.4C1941.36 222.85 1941.36 211.45 1941.36 197.5C1940.61 197.5 1939.41 197.5 1938.81 197.5C1938.81 206.5 1938.66 216.55 1938.51 226.45C1938.21 238.9 1929.96 247 1917.36 247C1905.06 247 1896.81 238.75 1896.81 226.45V157.6C1896.81 148.3 1903.11 142 1912.86 142C1922.16 142 1928.46 148.3 1928.46 157.6C1928.46 169.9 1928.46 182.35 1928.46 194.5C1928.76 194.5 1929.96 194.5 1930.86 194.5C1930.86 183.85 1930.86 173.35 1930.86 162.85C1930.86 150.25 1939.11 142 1952.01 142C1964.61 142 1972.86 150.25 1972.86 162.85C1972.86 185.65 1972.86 208.6 1972.86 231.4C1972.86 240.7 1966.56 247 1957.26 247ZM2018.07 159.85C2018.07 175.75 2018.07 191.35 2018.07 211H2020.92V153.85C2020.92 149.5 2023.77 146.5 2028.42 146.5C2032.92 146.5 2035.92 149.5 2035.92 153.85C2035.92 171.1 2035.92 200.65 2035.92 211H2038.77C2038.77 199.45 2038.77 178 2038.77 159.85C2038.77 149.2 2045.82 142 2056.92 142C2067.72 142 2074.77 149.2 2074.77 159.85C2074.77 179.95 2074.77 199.9 2074.77 220C2074.77 236.2 2063.97 247 2047.77 247C2038.02 247.15 2027.52 247.15 2018.97 247.15C2015.07 247.15 2011.77 247.15 2008.92 247.15C1992.72 247.15 1981.92 236.2 1981.92 220C1981.92 201.4 1981.92 177.1 1981.92 159.85C1981.92 149.2 1989.12 142 2000.07 142C2010.87 142 2018.07 149.2 2018.07 159.85ZM2083.72 160.6C2083.72 149.5 2091.22 142 2102.32 142H2127.37C2146.12 142 2158.72 154.6 2158.72 173.35C2158.72 192.7 2146.12 205.3 2127.37 205.3C2124.22 205.3 2121.52 205.3 2119.72 205.3C2119.72 213.7 2119.72 221.35 2119.72 229.15C2119.72 239.8 2112.52 247 2101.87 247C2090.92 247 2083.72 239.8 2083.72 229.15C2083.72 206.35 2083.72 183.4 2083.72 160.6ZM2122.72 178H2119.72V194.8H2122.72V178ZM2161.73 204.25V184.75C2161.73 154.3 2179.58 142 2199.23 142C2219.18 142 2236.88 154.3 2236.88 184.75V204.25C2236.88 234.7 2220.68 247 2199.38 247C2178.08 247 2161.73 234.7 2161.73 204.25ZM2197.88 178.3V210.85H2200.88V178.3H2197.88ZM2278.05 230.05C2278.05 212.5 2278.05 190.75 2278.05 178H2275.05C2275.05 193.9 2275.05 215.05 2275.05 230.05C2275.05 240.25 2267.85 247 2256.9 247C2246.1 247 2239.5 240.25 2240.1 230.05C2241.3 213.85 2243.1 189.4 2244.45 170.2C2245.65 153.4 2258.55 142 2276.85 142C2294.7 142 2307.3 153.25 2308.65 170.35C2310 189.4 2311.65 213.85 2312.85 230.05C2313.6 240.25 2307 247 2295.9 247C2285.25 247 2278.05 240.25 2278.05 230.05ZM2354.08 230.05C2354.08 212.5 2354.08 190.75 2354.08 178H2351.08C2351.08 193.9 2351.08 215.05 2351.08 230.05C2351.08 240.25 2343.88 247 2332.93 247C2322.13 247 2315.53 240.25 2316.13 230.05C2317.33 213.85 2319.13 189.4 2320.48 170.2C2321.68 153.4 2334.58 142 2352.88 142C2370.73 142 2383.33 153.25 2384.68 170.35C2386.03 189.4 2387.68 213.85 2388.88 230.05C2389.63 240.25 2383.03 247 2371.93 247C2361.28 247 2354.08 240.25 2354.08 230.05ZM2419.03 229.15C2419.03 206.05 2419.03 182.95 2419.03 159.85C2419.03 149.2 2426.08 142 2436.58 142C2441.83 142 2446.48 142 2454.58 142C2481.43 142 2491.78 149.5 2491.78 168.55C2491.78 183.1 2483.68 193 2471.53 193C2471.23 193 2464.78 193 2459.08 193V196C2465.83 196 2469.13 196 2471.53 196C2485.18 196 2494.33 205.9 2494.33 221.05C2494.33 239.8 2483.38 247 2455.03 247C2449.48 247 2441.98 247 2437.48 247C2426.38 247 2419.03 239.8 2419.03 229.15ZM2455.03 178.3V189.1C2455.48 189.1 2457.88 189.1 2458.03 189.1C2458.03 187.3 2458.03 178.3 2458.03 178.3H2455.03ZM2455.03 199.6V210.85H2458.03V199.6H2455.03ZM2560.78 247H2560.48C2551.18 247 2544.88 240.7 2544.88 231.4C2544.88 222.85 2544.88 211.45 2544.88 197.5C2544.13 197.5 2542.93 197.5 2542.33 197.5C2542.33 206.5 2542.18 216.55 2542.03 226.45C2541.73 238.9 2533.48 247 2520.88 247C2508.58 247 2500.33 238.75 2500.33 226.45V157.6C2500.33 148.3 2506.63 142 2516.38 142C2525.68 142 2531.98 148.3 2531.98 157.6C2531.98 169.9 2531.98 182.35 2531.98 194.5C2532.28 194.5 2533.48 194.5 2534.38 194.5C2534.38 183.85 2534.38 173.35 2534.38 162.85C2534.38 150.25 2542.63 142 2555.53 142C2568.13 142 2576.38 150.25 2576.38 162.85C2576.38 185.65 2576.38 208.6 2576.38 231.4C2576.38 240.7 2570.08 247 2560.78 247ZM2621.58 159.85C2621.58 175.75 2621.58 191.35 2621.58 211H2624.43V153.85C2624.43 149.5 2627.28 146.5 2631.93 146.5C2636.43 146.5 2639.43 149.5 2639.43 153.85C2639.43 171.1 2639.43 200.65 2639.43 211H2642.28C2642.28 199.45 2642.28 178 2642.28 159.85C2642.28 149.2 2649.33 142 2660.43 142C2671.23 142 2678.28 149.2 2678.28 159.85C2678.28 179.95 2678.28 199.9 2678.28 220C2678.28 236.2 2667.48 247 2651.28 247C2641.53 247.15 2631.03 247.15 2622.48 247.15C2618.58 247.15 2615.28 247.15 2612.43 247.15C2596.23 247.15 2585.43 236.2 2585.43 220C2585.43 201.4 2585.43 177.1 2585.43 159.85C2585.43 149.2 2592.63 142 2603.58 142C2614.38 142 2621.58 149.2 2621.58 159.85ZM2687.24 160.6C2687.24 149.5 2694.74 142 2705.84 142H2730.89C2749.64 142 2762.24 154.6 2762.24 173.35C2762.24 192.7 2749.64 205.3 2730.89 205.3C2727.74 205.3 2725.04 205.3 2723.24 205.3C2723.24 213.7 2723.24 221.35 2723.24 229.15C2723.24 239.8 2716.04 247 2705.39 247C2694.44 247 2687.24 239.8 2687.24 229.15C2687.24 206.35 2687.24 183.4 2687.24 160.6ZM2726.24 178H2723.24V194.8H2726.24V178ZM2765.25 204.25V184.75C2765.25 154.3 2783.1 142 2802.75 142C2822.7 142 2840.4 154.3 2840.4 184.75V204.25C2840.4 234.7 2824.2 247 2802.9 247C2781.6 247 2765.25 234.7 2765.25 204.25ZM2801.4 178.3V210.85H2804.4V178.3H2801.4ZM2881.57 230.05C2881.57 212.5 2881.57 190.75 2881.57 178H2878.57C2878.57 193.9 2878.57 215.05 2878.57 230.05C2878.57 240.25 2871.37 247 2860.42 247C2849.62 247 2843.02 240.25 2843.62 230.05C2844.82 213.85 2846.62 189.4 2847.97 170.2C2849.17 153.4 2862.07 142 2880.37 142C2898.22 142 2910.82 153.25 2912.17 170.35C2913.52 189.4 2915.17 213.85 2916.37 230.05C2917.12 240.25 2910.52 247 2899.42 247C2888.77 247 2881.57 240.25 2881.57 230.05ZM2957.59 230.05C2957.59 212.5 2957.59 190.75 2957.59 178H2954.59C2954.59 193.9 2954.59 215.05 2954.59 230.05C2954.59 240.25 2947.39 247 2936.44 247C2925.64 247 2919.04 240.25 2919.64 230.05C2920.84 213.85 2922.64 189.4 2923.99 170.2C2925.19 153.4 2938.09 142 2956.39 142C2974.24 142 2986.84 153.25 2988.19 170.35C2989.54 189.4 2991.19 213.85 2992.39 230.05C2993.14 240.25 2986.54 247 2975.44 247C2964.79 247 2957.59 240.25 2957.59 230.05ZM3022.54 229.15C3022.54 206.05 3022.54 182.95 3022.54 159.85C3022.54 149.2 3029.59 142 3040.09 142C3045.34 142 3049.99 142 3058.09 142C3084.94 142 3095.29 149.5 3095.29 168.55C3095.29 183.1 3087.19 193 3075.04 193C3074.74 193 3068.29 193 3062.59 193V196C3069.34 196 3072.64 196 3075.04 196C3088.69 196 3097.84 205.9 3097.84 221.05C3097.84 239.8 3086.89 247 3058.54 247C3052.99 247 3045.49 247 3040.99 247C3029.89 247 3022.54 239.8 3022.54 229.15ZM3058.54 178.3V189.1C3058.99 189.1 3061.39 189.1 3061.54 189.1C3061.54 187.3 3061.54 178.3 3061.54 178.3H3058.54ZM3058.54 199.6V210.85H3061.54V199.6H3058.54ZM3164.29 247H3163.99C3154.69 247 3148.39 240.7 3148.39 231.4C3148.39 222.85 3148.39 211.45 3148.39 197.5C3147.64 197.5 3146.44 197.5 3145.84 197.5C3145.84 206.5 3145.69 216.55 3145.54 226.45C3145.24 238.9 3136.99 247 3124.39 247C3112.09 247 3103.84 238.75 3103.84 226.45V157.6C3103.84 148.3 3110.14 142 3119.89 142C3129.19 142 3135.49 148.3 3135.49 157.6C3135.49 169.9 3135.49 182.35 3135.49 194.5C3135.79 194.5 3136.99 194.5 3137.89 194.5C3137.89 183.85 3137.89 173.35 3137.89 162.85C3137.89 150.25 3146.14 142 3159.04 142C3171.64 142 3179.89 150.25 3179.89 162.85C3179.89 185.65 3179.89 208.6 3179.89 231.4C3179.89 240.7 3173.59 247 3164.29 247ZM3225.1 159.85C3225.1 175.75 3225.1 191.35 3225.1 211H3227.95V153.85C3227.95 149.5 3230.8 146.5 3235.45 146.5C3239.95 146.5 3242.95 149.5 3242.95 153.85C3242.95 171.1 3242.95 200.65 3242.95 211H3245.8C3245.8 199.45 3245.8 178 3245.8 159.85C3245.8 149.2 3252.85 142 3263.95 142C3274.75 142 3281.8 149.2 3281.8 159.85C3281.8 179.95 3281.8 199.9 3281.8 220C3281.8 236.2 3271 247 3254.8 247C3245.05 247.15 3234.55 247.15 3226 247.15C3222.1 247.15 3218.8 247.15 3215.95 247.15C3199.75 247.15 3188.95 236.2 3188.95 220C3188.95 201.4 3188.95 177.1 3188.95 159.85C3188.95 149.2 3196.15 142 3207.1 142C3217.9 142 3225.1 149.2 3225.1 159.85ZM3290.76 160.6C3290.76 149.5 3298.26 142 3309.36 142H3334.41C3353.16 142 3365.76 154.6 3365.76 173.35C3365.76 192.7 3353.16 205.3 3334.41 205.3C3331.26 205.3 3328.56 205.3 3326.76 205.3C3326.76 213.7 3326.76 221.35 3326.76 229.15C3326.76 239.8 3319.56 247 3308.91 247C3297.96 247 3290.76 239.8 3290.76 229.15C3290.76 206.35 3290.76 183.4 3290.76 160.6ZM3329.76 178H3326.76V194.8H3329.76V178ZM3368.76 204.25V184.75C3368.76 154.3 3386.61 142 3406.26 142C3426.21 142 3443.91 154.3 3443.91 184.75V204.25C3443.91 234.7 3427.71 247 3406.41 247C3385.11 247 3368.76 234.7 3368.76 204.25ZM3404.91 178.3V210.85H3407.91V178.3H3404.91ZM3485.08 230.05C3485.08 212.5 3485.08 190.75 3485.08 178H3482.08C3482.08 193.9 3482.08 215.05 3482.08 230.05C3482.08 240.25 3474.88 247 3463.93 247C3453.13 247 3446.53 240.25 3447.13 230.05C3448.33 213.85 3450.13 189.4 3451.48 170.2C3452.68 153.4 3465.58 142 3483.88 142C3501.73 142 3514.33 153.25 3515.68 170.35C3517.03 189.4 3518.68 213.85 3519.88 230.05C3520.63 240.25 3514.03 247 3502.93 247C3492.28 247 3485.08 240.25 3485.08 230.05ZM3561.11 230.05C3561.11 212.5 3561.11 190.75 3561.11 178H3558.11C3558.11 193.9 3558.11 215.05 3558.11 230.05C3558.11 240.25 3550.91 247 3539.96 247C3529.16 247 3522.56 240.25 3523.16 230.05C3524.36 213.85 3526.16 189.4 3527.51 170.2C3528.71 153.4 3541.61 142 3559.91 142C3577.76 142 3590.36 153.25 3591.71 170.35C3593.06 189.4 3594.71 213.85 3595.91 230.05C3596.66 240.25 3590.06 247 3578.96 247C3568.31 247 3561.11 240.25 3561.11 230.05Z" fill="#1C1C1C"/>
<path d="M-475.035 369.15C-475.035 346.05 -475.035 322.95 -475.035 299.85C-475.035 289.2 -467.985 282 -457.485 282C-452.235 282 -447.585 282 -439.485 282C-412.635 282 -402.285 289.5 -402.285 308.55C-402.285 323.1 -410.385 333 -422.535 333C-422.835 333 -429.285 333 -434.985 333V336C-428.235 336 -424.935 336 -422.535 336C-408.885 336 -399.735 345.9 -399.735 361.05C-399.735 379.8 -410.685 387 -439.035 387C-444.585 387 -452.085 387 -456.585 387C-467.685 387 -475.035 379.8 -475.035 369.15ZM-439.035 318.3V329.1C-438.585 329.1 -436.185 329.1 -436.035 329.1C-436.035 327.3 -436.035 318.3 -436.035 318.3H-439.035ZM-439.035 339.6V350.85H-436.035V339.6H-439.035ZM-333.286 387H-333.586C-342.886 387 -349.186 380.7 -349.186 371.4C-349.186 362.85 -349.186 351.45 -349.186 337.5C-349.936 337.5 -351.136 337.5 -351.736 337.5C-351.736 346.5 -351.886 356.55 -352.036 366.45C-352.336 378.9 -360.586 387 -373.186 387C-385.486 387 -393.736 378.75 -393.736 366.45V297.6C-393.736 288.3 -387.436 282 -377.686 282C-368.386 282 -362.086 288.3 -362.086 297.6C-362.086 309.9 -362.086 322.35 -362.086 334.5C-361.786 334.5 -360.586 334.5 -359.686 334.5C-359.686 323.85 -359.686 313.35 -359.686 302.85C-359.686 290.25 -351.436 282 -338.536 282C-325.936 282 -317.686 290.25 -317.686 302.85C-317.686 325.65 -317.686 348.6 -317.686 371.4C-317.686 380.7 -323.986 387 -333.286 387ZM-272.479 299.85C-272.479 315.75 -272.479 331.35 -272.479 351H-269.629V293.85C-269.629 289.5 -266.779 286.5 -262.129 286.5C-257.629 286.5 -254.629 289.5 -254.629 293.85C-254.629 311.1 -254.629 340.65 -254.629 351H-251.779C-251.779 339.45 -251.779 318 -251.779 299.85C-251.779 289.2 -244.729 282 -233.629 282C-222.829 282 -215.779 289.2 -215.779 299.85C-215.779 319.95 -215.779 339.9 -215.779 360C-215.779 376.2 -226.579 387 -242.779 387C-252.529 387.15 -263.029 387.15 -271.579 387.15C-275.479 387.15 -278.779 387.15 -281.629 387.15C-297.829 387.15 -308.629 376.2 -308.629 360C-308.629 341.4 -308.629 317.1 -308.629 299.85C-308.629 289.2 -301.429 282 -290.479 282C-279.679 282 -272.479 289.2 -272.479 299.85ZM-206.822 300.6C-206.822 289.5 -199.322 282 -188.222 282H-163.172C-144.422 282 -131.822 294.6 -131.822 313.35C-131.822 332.7 -144.422 345.3 -163.172 345.3C-166.322 345.3 -169.022 345.3 -170.822 345.3C-170.822 353.7 -170.822 361.35 -170.822 369.15C-170.822 379.8 -178.022 387 -188.672 387C-199.622 387 -206.822 379.8 -206.822 369.15C-206.822 346.35 -206.822 323.4 -206.822 300.6ZM-167.822 318H-170.822V334.8H-167.822V318ZM-128.816 344.25V324.75C-128.816 294.3 -110.966 282 -91.3164 282C-71.3664 282 -53.6664 294.3 -53.6664 324.75V344.25C-53.6664 374.7 -69.8664 387 -91.1664 387C-112.466 387 -128.816 374.7 -128.816 344.25ZM-92.6664 318.3V350.85H-89.6664V318.3H-92.6664ZM-12.4938 370.05C-12.4938 352.5 -12.4938 330.75 -12.4938 318H-15.4937C-15.4937 333.9 -15.4937 355.05 -15.4937 370.05C-15.4937 380.25 -22.6937 387 -33.6437 387C-44.4437 387 -51.0437 380.25 -50.4437 370.05C-49.2437 353.85 -47.4437 329.4 -46.0937 310.2C-44.8937 293.4 -31.9937 282 -13.6937 282C4.15625 282 16.7563 293.25 18.1063 310.35C19.4563 329.4 21.1063 353.85 22.3063 370.05C23.0563 380.25 16.4563 387 5.35625 387C-5.29375 387 -12.4938 380.25 -12.4938 370.05ZM63.5316 370.05C63.5316 352.5 63.5316 330.75 63.5316 318H60.5316C60.5316 333.9 60.5316 355.05 60.5316 370.05C60.5316 380.25 53.3316 387 42.3816 387C31.5816 387 24.9816 380.25 25.5816 370.05C26.7816 353.85 28.5816 329.4 29.9316 310.2C31.1316 293.4 44.0316 282 62.3316 282C80.1816 282 92.7816 293.25 94.1316 310.35C95.4816 329.4 97.1316 353.85 98.3316 370.05C99.0816 380.25 92.4816 387 81.3816 387C70.7316 387 63.5316 380.25 63.5316 370.05ZM128.48 369.15C128.48 346.05 128.48 322.95 128.48 299.85C128.48 289.2 135.53 282 146.03 282C151.28 282 155.93 282 164.03 282C190.88 282 201.23 289.5 201.23 308.55C201.23 323.1 193.13 333 180.98 333C180.68 333 174.23 333 168.53 333V336C175.28 336 178.58 336 180.98 336C194.63 336 203.78 345.9 203.78 361.05C203.78 379.8 192.83 387 164.48 387C158.93 387 151.43 387 146.93 387C135.83 387 128.48 379.8 128.48 369.15ZM164.48 318.3V329.1C164.93 329.1 167.33 329.1 167.48 329.1C167.48 327.3 167.48 318.3 167.48 318.3H164.48ZM164.48 339.6V350.85H167.48V339.6H164.48ZM270.229 387H269.929C260.629 387 254.329 380.7 254.329 371.4C254.329 362.85 254.329 351.45 254.329 337.5C253.579 337.5 252.379 337.5 251.779 337.5C251.779 346.5 251.629 356.55 251.479 366.45C251.179 378.9 242.929 387 230.329 387C218.029 387 209.779 378.75 209.779 366.45V297.6C209.779 288.3 216.079 282 225.829 282C235.129 282 241.429 288.3 241.429 297.6C241.429 309.9 241.429 322.35 241.429 334.5C241.729 334.5 242.929 334.5 243.829 334.5C243.829 323.85 243.829 313.35 243.829 302.85C243.829 290.25 252.079 282 264.979 282C277.579 282 285.829 290.25 285.829 302.85C285.829 325.65 285.829 348.6 285.829 371.4C285.829 380.7 279.529 387 270.229 387ZM331.037 299.85C331.037 315.75 331.037 331.35 331.037 351H333.887V293.85C333.887 289.5 336.737 286.5 341.387 286.5C345.887 286.5 348.887 289.5 348.887 293.85C348.887 311.1 348.887 340.65 348.887 351H351.737C351.737 339.45 351.737 318 351.737 299.85C351.737 289.2 358.787 282 369.887 282C380.687 282 387.737 289.2 387.737 299.85C387.737 319.95 387.737 339.9 387.737 360C387.737 376.2 376.937 387 360.737 387C350.987 387.15 340.487 387.15 331.937 387.15C328.037 387.15 324.737 387.15 321.887 387.15C305.687 387.15 294.887 376.2 294.887 360C294.887 341.4 294.887 317.1 294.887 299.85C294.887 289.2 302.087 282 313.037 282C323.837 282 331.037 289.2 331.037 299.85ZM396.693 300.6C396.693 289.5 404.193 282 415.293 282H440.343C459.093 282 471.693 294.6 471.693 313.35C471.693 332.7 459.093 345.3 440.343 345.3C437.193 345.3 434.493 345.3 432.693 345.3C432.693 353.7 432.693 361.35 432.693 369.15C432.693 379.8 425.493 387 414.843 387C403.893 387 396.693 379.8 396.693 369.15C396.693 346.35 396.693 323.4 396.693 300.6ZM435.693 318H432.693V334.8H435.693V318ZM474.699 344.25V324.75C474.699 294.3 492.549 282 512.199 282C532.149 282 549.849 294.3 549.849 324.75V344.25C549.849 374.7 533.649 387 512.349 387C491.049 387 474.699 374.7 474.699 344.25ZM510.849 318.3V350.85H513.849V318.3H510.849ZM591.022 370.05C591.022 352.5 591.022 330.75 591.022 318H588.022C588.022 333.9 588.022 355.05 588.022 370.05C588.022 380.25 580.822 387 569.872 387C559.072 387 552.472 380.25 553.072 370.05C554.272 353.85 556.072 329.4 557.422 310.2C558.622 293.4 571.522 282 589.822 282C607.672 282 620.272 293.25 621.622 310.35C622.972 329.4 624.622 353.85 625.822 370.05C626.572 380.25 619.972 387 608.872 387C598.222 387 591.022 380.25 591.022 370.05ZM667.047 370.05C667.047 352.5 667.047 330.75 667.047 318H664.047C664.047 333.9 664.047 355.05 664.047 370.05C664.047 380.25 656.847 387 645.897 387C635.097 387 628.497 380.25 629.097 370.05C630.297 353.85 632.097 329.4 633.447 310.2C634.647 293.4 647.547 282 665.847 282C683.697 282 696.297 293.25 697.647 310.35C698.997 329.4 700.647 353.85 701.847 370.05C702.597 380.25 695.997 387 684.897 387C674.247 387 667.047 380.25 667.047 370.05ZM731.996 369.15C731.996 346.05 731.996 322.95 731.996 299.85C731.996 289.2 739.046 282 749.546 282C754.796 282 759.446 282 767.546 282C794.396 282 804.746 289.5 804.746 308.55C804.746 323.1 796.646 333 784.496 333C784.196 333 777.746 333 772.046 333V336C778.796 336 782.096 336 784.496 336C798.146 336 807.296 345.9 807.296 361.05C807.296 379.8 796.346 387 767.996 387C762.446 387 754.946 387 750.446 387C739.346 387 731.996 379.8 731.996 369.15ZM767.996 318.3V329.1C768.446 329.1 770.846 329.1 770.996 329.1C770.996 327.3 770.996 318.3 770.996 318.3H767.996ZM767.996 339.6V350.85H770.996V339.6H767.996ZM873.745 387H873.445C864.145 387 857.845 380.7 857.845 371.4C857.845 362.85 857.845 351.45 857.845 337.5C857.095 337.5 855.895 337.5 855.295 337.5C855.295 346.5 855.145 356.55 854.995 366.45C854.695 378.9 846.445 387 833.845 387C821.545 387 813.295 378.75 813.295 366.45V297.6C813.295 288.3 819.595 282 829.345 282C838.645 282 844.945 288.3 844.945 297.6C844.945 309.9 844.945 322.35 844.945 334.5C845.245 334.5 846.445 334.5 847.345 334.5C847.345 323.85 847.345 313.35 847.345 302.85C847.345 290.25 855.595 282 868.495 282C881.095 282 889.345 290.25 889.345 302.85C889.345 325.65 889.345 348.6 889.345 371.4C889.345 380.7 883.045 387 873.745 387ZM934.552 299.85C934.552 315.75 934.552 331.35 934.552 351H937.402V293.85C937.402 289.5 940.252 286.5 944.902 286.5C949.402 286.5 952.402 289.5 952.402 293.85C952.402 311.1 952.402 340.65 952.402 351H955.252C955.252 339.45 955.252 318 955.252 299.85C955.252 289.2 962.302 282 973.402 282C984.202 282 991.252 289.2 991.252 299.85C991.252 319.95 991.252 339.9 991.252 360C991.252 376.2 980.452 387 964.252 387C954.502 387.15 944.002 387.15 935.452 387.15C931.552 387.15 928.252 387.15 925.402 387.15C909.202 387.15 898.402 376.2 898.402 360C898.402 341.4 898.402 317.1 898.402 299.85C898.402 289.2 905.602 282 916.552 282C927.352 282 934.552 289.2 934.552 299.85ZM1000.21 300.6C1000.21 289.5 1007.71 282 1018.81 282H1043.86C1062.61 282 1075.21 294.6 1075.21 313.35C1075.21 332.7 1062.61 345.3 1043.86 345.3C1040.71 345.3 1038.01 345.3 1036.21 345.3C1036.21 353.7 1036.21 361.35 1036.21 369.15C1036.21 379.8 1029.01 387 1018.36 387C1007.41 387 1000.21 379.8 1000.21 369.15C1000.21 346.35 1000.21 323.4 1000.21 300.6ZM1039.21 318H1036.21V334.8H1039.21V318ZM1078.21 344.25V324.75C1078.21 294.3 1096.06 282 1115.71 282C1135.66 282 1153.36 294.3 1153.36 324.75V344.25C1153.36 374.7 1137.16 387 1115.86 387C1094.56 387 1078.21 374.7 1078.21 344.25ZM1114.36 318.3V350.85H1117.36V318.3H1114.36ZM1194.54 370.05C1194.54 352.5 1194.54 330.75 1194.54 318H1191.54C1191.54 333.9 1191.54 355.05 1191.54 370.05C1191.54 380.25 1184.34 387 1173.39 387C1162.59 387 1155.99 380.25 1156.59 370.05C1157.79 353.85 1159.59 329.4 1160.94 310.2C1162.14 293.4 1175.04 282 1193.34 282C1211.19 282 1223.79 293.25 1225.14 310.35C1226.49 329.4 1228.14 353.85 1229.34 370.05C1230.09 380.25 1223.49 387 1212.39 387C1201.74 387 1194.54 380.25 1194.54 370.05ZM1270.56 370.05C1270.56 352.5 1270.56 330.75 1270.56 318H1267.56C1267.56 333.9 1267.56 355.05 1267.56 370.05C1267.56 380.25 1260.36 387 1249.41 387C1238.61 387 1232.01 380.25 1232.61 370.05C1233.81 353.85 1235.61 329.4 1236.96 310.2C1238.16 293.4 1251.06 282 1269.36 282C1287.21 282 1299.81 293.25 1301.16 310.35C1302.51 329.4 1304.16 353.85 1305.36 370.05C1306.11 380.25 1299.51 387 1288.41 387C1277.76 387 1270.56 380.25 1270.56 370.05ZM1335.51 369.15C1335.51 346.05 1335.51 322.95 1335.51 299.85C1335.51 289.2 1342.56 282 1353.06 282C1358.31 282 1362.96 282 1371.06 282C1397.91 282 1408.26 289.5 1408.26 308.55C1408.26 323.1 1400.16 333 1388.01 333C1387.71 333 1381.26 333 1375.56 333V336C1382.31 336 1385.61 336 1388.01 336C1401.66 336 1410.81 345.9 1410.81 361.05C1410.81 379.8 1399.86 387 1371.51 387C1365.96 387 1358.46 387 1353.96 387C1342.86 387 1335.51 379.8 1335.51 369.15ZM1371.51 318.3V329.1C1371.96 329.1 1374.36 329.1 1374.51 329.1C1374.51 327.3 1374.51 318.3 1374.51 318.3H1371.51ZM1371.51 339.6V350.85H1374.51V339.6H1371.51ZM1477.26 387H1476.96C1467.66 387 1461.36 380.7 1461.36 371.4C1461.36 362.85 1461.36 351.45 1461.36 337.5C1460.61 337.5 1459.41 337.5 1458.81 337.5C1458.81 346.5 1458.66 356.55 1458.51 366.45C1458.21 378.9 1449.96 387 1437.36 387C1425.06 387 1416.81 378.75 1416.81 366.45V297.6C1416.81 288.3 1423.11 282 1432.86 282C1442.16 282 1448.46 288.3 1448.46 297.6C1448.46 309.9 1448.46 322.35 1448.46 334.5C1448.76 334.5 1449.96 334.5 1450.86 334.5C1450.86 323.85 1450.86 313.35 1450.86 302.85C1450.86 290.25 1459.11 282 1472.01 282C1484.61 282 1492.86 290.25 1492.86 302.85C1492.86 325.65 1492.86 348.6 1492.86 371.4C1492.86 380.7 1486.56 387 1477.26 387ZM1538.07 299.85C1538.07 315.75 1538.07 331.35 1538.07 351H1540.92V293.85C1540.92 289.5 1543.77 286.5 1548.42 286.5C1552.92 286.5 1555.92 289.5 1555.92 293.85C1555.92 311.1 1555.92 340.65 1555.92 351H1558.77C1558.77 339.45 1558.77 318 1558.77 299.85C1558.77 289.2 1565.82 282 1576.92 282C1587.72 282 1594.77 289.2 1594.77 299.85C1594.77 319.95 1594.77 339.9 1594.77 360C1594.77 376.2 1583.97 387 1567.77 387C1558.02 387.15 1547.52 387.15 1538.97 387.15C1535.07 387.15 1531.77 387.15 1528.92 387.15C1512.72 387.15 1501.92 376.2 1501.92 360C1501.92 341.4 1501.92 317.1 1501.92 299.85C1501.92 289.2 1509.12 282 1520.07 282C1530.87 282 1538.07 289.2 1538.07 299.85ZM1603.72 300.6C1603.72 289.5 1611.22 282 1622.32 282H1647.37C1666.12 282 1678.72 294.6 1678.72 313.35C1678.72 332.7 1666.12 345.3 1647.37 345.3C1644.22 345.3 1641.52 345.3 1639.72 345.3C1639.72 353.7 1639.72 361.35 1639.72 369.15C1639.72 379.8 1632.52 387 1621.87 387C1610.92 387 1603.72 379.8 1603.72 369.15C1603.72 346.35 1603.72 323.4 1603.72 300.6ZM1642.72 318H1639.72V334.8H1642.72V318ZM1681.73 344.25V324.75C1681.73 294.3 1699.58 282 1719.23 282C1739.18 282 1756.88 294.3 1756.88 324.75V344.25C1756.88 374.7 1740.68 387 1719.38 387C1698.08 387 1681.73 374.7 1681.73 344.25ZM1717.88 318.3V350.85H1720.88V318.3H1717.88ZM1798.05 370.05C1798.05 352.5 1798.05 330.75 1798.05 318H1795.05C1795.05 333.9 1795.05 355.05 1795.05 370.05C1795.05 380.25 1787.85 387 1776.9 387C1766.1 387 1759.5 380.25 1760.1 370.05C1761.3 353.85 1763.1 329.4 1764.45 310.2C1765.65 293.4 1778.55 282 1796.85 282C1814.7 282 1827.3 293.25 1828.65 310.35C1830 329.4 1831.65 353.85 1832.85 370.05C1833.6 380.25 1827 387 1815.9 387C1805.25 387 1798.05 380.25 1798.05 370.05ZM1874.08 370.05C1874.08 352.5 1874.08 330.75 1874.08 318H1871.08C1871.08 333.9 1871.08 355.05 1871.08 370.05C1871.08 380.25 1863.88 387 1852.93 387C1842.13 387 1835.53 380.25 1836.13 370.05C1837.33 353.85 1839.13 329.4 1840.48 310.2C1841.68 293.4 1854.58 282 1872.88 282C1890.73 282 1903.33 293.25 1904.68 310.35C1906.03 329.4 1907.68 353.85 1908.88 370.05C1909.63 380.25 1903.03 387 1891.93 387C1881.28 387 1874.08 380.25 1874.08 370.05ZM1939.03 369.15C1939.03 346.05 1939.03 322.95 1939.03 299.85C1939.03 289.2 1946.08 282 1956.58 282C1961.83 282 1966.48 282 1974.58 282C2001.43 282 2011.78 289.5 2011.78 308.55C2011.78 323.1 2003.68 333 1991.53 333C1991.23 333 1984.78 333 1979.08 333V336C1985.83 336 1989.13 336 1991.53 336C2005.18 336 2014.33 345.9 2014.33 361.05C2014.33 379.8 2003.38 387 1975.03 387C1969.48 387 1961.98 387 1957.48 387C1946.38 387 1939.03 379.8 1939.03 369.15ZM1975.03 318.3V329.1C1975.48 329.1 1977.88 329.1 1978.03 329.1C1978.03 327.3 1978.03 318.3 1978.03 318.3H1975.03ZM1975.03 339.6V350.85H1978.03V339.6H1975.03ZM2080.78 387H2080.48C2071.18 387 2064.88 380.7 2064.88 371.4C2064.88 362.85 2064.88 351.45 2064.88 337.5C2064.13 337.5 2062.93 337.5 2062.33 337.5C2062.33 346.5 2062.18 356.55 2062.03 366.45C2061.73 378.9 2053.48 387 2040.88 387C2028.58 387 2020.33 378.75 2020.33 366.45V297.6C2020.33 288.3 2026.63 282 2036.38 282C2045.68 282 2051.98 288.3 2051.98 297.6C2051.98 309.9 2051.98 322.35 2051.98 334.5C2052.28 334.5 2053.48 334.5 2054.38 334.5C2054.38 323.85 2054.38 313.35 2054.38 302.85C2054.38 290.25 2062.63 282 2075.53 282C2088.13 282 2096.38 290.25 2096.38 302.85C2096.38 325.65 2096.38 348.6 2096.38 371.4C2096.38 380.7 2090.08 387 2080.78 387ZM2141.58 299.85C2141.58 315.75 2141.58 331.35 2141.58 351H2144.43V293.85C2144.43 289.5 2147.28 286.5 2151.93 286.5C2156.43 286.5 2159.43 289.5 2159.43 293.85C2159.43 311.1 2159.43 340.65 2159.43 351H2162.28C2162.28 339.45 2162.28 318 2162.28 299.85C2162.28 289.2 2169.33 282 2180.43 282C2191.23 282 2198.28 289.2 2198.28 299.85C2198.28 319.95 2198.28 339.9 2198.28 360C2198.28 376.2 2187.48 387 2171.28 387C2161.53 387.15 2151.03 387.15 2142.48 387.15C2138.58 387.15 2135.28 387.15 2132.43 387.15C2116.23 387.15 2105.43 376.2 2105.43 360C2105.43 341.4 2105.43 317.1 2105.43 299.85C2105.43 289.2 2112.63 282 2123.58 282C2134.38 282 2141.58 289.2 2141.58 299.85ZM2207.24 300.6C2207.24 289.5 2214.74 282 2225.84 282H2250.89C2269.64 282 2282.24 294.6 2282.24 313.35C2282.24 332.7 2269.64 345.3 2250.89 345.3C2247.74 345.3 2245.04 345.3 2243.24 345.3C2243.24 353.7 2243.24 361.35 2243.24 369.15C2243.24 379.8 2236.04 387 2225.39 387C2214.44 387 2207.24 379.8 2207.24 369.15C2207.24 346.35 2207.24 323.4 2207.24 300.6ZM2246.24 318H2243.24V334.8H2246.24V318ZM2285.25 344.25V324.75C2285.25 294.3 2303.1 282 2322.75 282C2342.7 282 2360.4 294.3 2360.4 324.75V344.25C2360.4 374.7 2344.2 387 2322.9 387C2301.6 387 2285.25 374.7 2285.25 344.25ZM2321.4 318.3V350.85H2324.4V318.3H2321.4ZM2401.57 370.05C2401.57 352.5 2401.57 330.75 2401.57 318H2398.57C2398.57 333.9 2398.57 355.05 2398.57 370.05C2398.57 380.25 2391.37 387 2380.42 387C2369.62 387 2363.02 380.25 2363.62 370.05C2364.82 353.85 2366.62 329.4 2367.97 310.2C2369.17 293.4 2382.07 282 2400.37 282C2418.22 282 2430.82 293.25 2432.17 310.35C2433.52 329.4 2435.17 353.85 2436.37 370.05C2437.12 380.25 2430.52 387 2419.42 387C2408.77 387 2401.57 380.25 2401.57 370.05ZM2477.59 370.05C2477.59 352.5 2477.59 330.75 2477.59 318H2474.59C2474.59 333.9 2474.59 355.05 2474.59 370.05C2474.59 380.25 2467.39 387 2456.44 387C2445.64 387 2439.04 380.25 2439.64 370.05C2440.84 353.85 2442.64 329.4 2443.99 310.2C2445.19 293.4 2458.09 282 2476.39 282C2494.24 282 2506.84 293.25 2508.19 310.35C2509.54 329.4 2511.19 353.85 2512.39 370.05C2513.14 380.25 2506.54 387 2495.44 387C2484.79 387 2477.59 380.25 2477.59 370.05ZM2542.54 369.15C2542.54 346.05 2542.54 322.95 2542.54 299.85C2542.54 289.2 2549.59 282 2560.09 282C2565.34 282 2569.99 282 2578.09 282C2604.94 282 2615.29 289.5 2615.29 308.55C2615.29 323.1 2607.19 333 2595.04 333C2594.74 333 2588.29 333 2582.59 333V336C2589.34 336 2592.64 336 2595.04 336C2608.69 336 2617.84 345.9 2617.84 361.05C2617.84 379.8 2606.89 387 2578.54 387C2572.99 387 2565.49 387 2560.99 387C2549.89 387 2542.54 379.8 2542.54 369.15ZM2578.54 318.3V329.1C2578.99 329.1 2581.39 329.1 2581.54 329.1C2581.54 327.3 2581.54 318.3 2581.54 318.3H2578.54ZM2578.54 339.6V350.85H2581.54V339.6H2578.54ZM2684.29 387H2683.99C2674.69 387 2668.39 380.7 2668.39 371.4C2668.39 362.85 2668.39 351.45 2668.39 337.5C2667.64 337.5 2666.44 337.5 2665.84 337.5C2665.84 346.5 2665.69 356.55 2665.54 366.45C2665.24 378.9 2656.99 387 2644.39 387C2632.09 387 2623.84 378.75 2623.84 366.45V297.6C2623.84 288.3 2630.14 282 2639.89 282C2649.19 282 2655.49 288.3 2655.49 297.6C2655.49 309.9 2655.49 322.35 2655.49 334.5C2655.79 334.5 2656.99 334.5 2657.89 334.5C2657.89 323.85 2657.89 313.35 2657.89 302.85C2657.89 290.25 2666.14 282 2679.04 282C2691.64 282 2699.89 290.25 2699.89 302.85C2699.89 325.65 2699.89 348.6 2699.89 371.4C2699.89 380.7 2693.59 387 2684.29 387ZM2745.1 299.85C2745.1 315.75 2745.1 331.35 2745.1 351H2747.95V293.85C2747.95 289.5 2750.8 286.5 2755.45 286.5C2759.95 286.5 2762.95 289.5 2762.95 293.85C2762.95 311.1 2762.95 340.65 2762.95 351H2765.8C2765.8 339.45 2765.8 318 2765.8 299.85C2765.8 289.2 2772.85 282 2783.95 282C2794.75 282 2801.8 289.2 2801.8 299.85C2801.8 319.95 2801.8 339.9 2801.8 360C2801.8 376.2 2791 387 2774.8 387C2765.05 387.15 2754.55 387.15 2746 387.15C2742.1 387.15 2738.8 387.15 2735.95 387.15C2719.75 387.15 2708.95 376.2 2708.95 360C2708.95 341.4 2708.95 317.1 2708.95 299.85C2708.95 289.2 2716.15 282 2727.1 282C2737.9 282 2745.1 289.2 2745.1 299.85ZM2810.76 300.6C2810.76 289.5 2818.26 282 2829.36 282H2854.41C2873.16 282 2885.76 294.6 2885.76 313.35C2885.76 332.7 2873.16 345.3 2854.41 345.3C2851.26 345.3 2848.56 345.3 2846.76 345.3C2846.76 353.7 2846.76 361.35 2846.76 369.15C2846.76 379.8 2839.56 387 2828.91 387C2817.96 387 2810.76 379.8 2810.76 369.15C2810.76 346.35 2810.76 323.4 2810.76 300.6ZM2849.76 318H2846.76V334.8H2849.76V318ZM2888.76 344.25V324.75C2888.76 294.3 2906.61 282 2926.26 282C2946.21 282 2963.91 294.3 2963.91 324.75V344.25C2963.91 374.7 2947.71 387 2926.41 387C2905.11 387 2888.76 374.7 2888.76 344.25ZM2924.91 318.3V350.85H2927.91V318.3H2924.91ZM3005.08 370.05C3005.08 352.5 3005.08 330.75 3005.08 318H3002.08C3002.08 333.9 3002.08 355.05 3002.08 370.05C3002.08 380.25 2994.88 387 2983.93 387C2973.13 387 2966.53 380.25 2967.13 370.05C2968.33 353.85 2970.13 329.4 2971.48 310.2C2972.68 293.4 2985.58 282 3003.88 282C3021.73 282 3034.33 293.25 3035.68 310.35C3037.03 329.4 3038.68 353.85 3039.88 370.05C3040.63 380.25 3034.03 387 3022.93 387C3012.28 387 3005.08 380.25 3005.08 370.05ZM3081.11 370.05C3081.11 352.5 3081.11 330.75 3081.11 318H3078.11C3078.11 333.9 3078.11 355.05 3078.11 370.05C3078.11 380.25 3070.91 387 3059.96 387C3049.16 387 3042.56 380.25 3043.16 370.05C3044.36 353.85 3046.16 329.4 3047.51 310.2C3048.71 293.4 3061.61 282 3079.91 282C3097.76 282 3110.36 293.25 3111.71 310.35C3113.06 329.4 3114.71 353.85 3115.91 370.05C3116.66 380.25 3110.06 387 3098.96 387C3088.31 387 3081.11 380.25 3081.11 370.05Z" fill="#1C1C1C"/>
<path d="M-351.277 102.15C-351.277 79.05 -351.277 55.95 -351.277 32.85C-351.277 22.2 -344.227 15 -333.727 15C-328.477 15 -323.827 15 -315.727 15C-288.877 15 -278.527 22.5 -278.527 41.55C-278.527 56.1 -286.627 66 -298.777 66C-299.077 66 -305.527 66 -311.227 66V69C-304.477 69 -301.177 69 -298.777 69C-285.127 69 -275.977 78.9 -275.977 94.05C-275.977 112.8 -286.927 120 -315.277 120C-320.827 120 -328.327 120 -332.827 120C-343.927 120 -351.277 112.8 -351.277 102.15ZM-315.277 51.3V62.1C-314.827 62.1 -312.427 62.1 -312.277 62.1C-312.277 60.3 -312.277 51.3 -312.277 51.3H-315.277ZM-315.277 72.6V83.85H-312.277V72.6H-315.277ZM-209.529 120H-209.829C-219.129 120 -225.429 113.7 -225.429 104.4C-225.429 95.85 -225.429 84.45 -225.429 70.5C-226.179 70.5 -227.379 70.5 -227.979 70.5C-227.979 79.5 -228.129 89.55 -228.279 99.45C-228.579 111.9 -236.829 120 -249.429 120C-261.729 120 -269.979 111.75 -269.979 99.45V30.6C-269.979 21.3 -263.679 15 -253.929 15C-244.629 15 -238.329 21.3 -238.329 30.6C-238.329 42.9 -238.329 55.35 -238.329 67.5C-238.029 67.5 -236.829 67.5 -235.929 67.5C-235.929 56.85 -235.929 46.35 -235.929 35.85C-235.929 23.25 -227.679 15 -214.779 15C-202.179 15 -193.929 23.25 -193.929 35.85C-193.929 58.65 -193.929 81.6 -193.929 104.4C-193.929 113.7 -200.229 120 -209.529 120ZM-148.721 32.85C-148.721 48.75 -148.721 64.35 -148.721 84H-145.871V26.85C-145.871 22.5 -143.021 19.5 -138.371 19.5C-133.871 19.5 -130.871 22.5 -130.871 26.85C-130.871 44.1 -130.871 73.65 -130.871 84H-128.021C-128.021 72.45 -128.021 51 -128.021 32.85C-128.021 22.2 -120.971 15 -109.871 15C-99.0711 15 -92.0211 22.2 -92.0211 32.85C-92.0211 52.95 -92.0211 72.9 -92.0211 93C-92.0211 109.2 -102.821 120 -119.021 120C-128.771 120.15 -139.271 120.15 -147.821 120.15C-151.721 120.15 -155.021 120.15 -157.871 120.15C-174.071 120.15 -184.871 109.2 -184.871 93C-184.871 74.4 -184.871 50.1 -184.871 32.85C-184.871 22.2 -177.671 15 -166.721 15C-155.921 15 -148.721 22.2 -148.721 32.85ZM-83.0645 33.6C-83.0645 22.5 -75.5645 15 -64.4645 15H-39.4145C-20.6645 15 -8.06445 27.6 -8.06445 46.35C-8.06445 65.7 -20.6645 78.3 -39.4145 78.3C-42.5645 78.3 -45.2645 78.3 -47.0645 78.3C-47.0645 86.7 -47.0645 94.35 -47.0645 102.15C-47.0645 112.8 -54.2645 120 -64.9145 120C-75.8645 120 -83.0645 112.8 -83.0645 102.15C-83.0645 79.35 -83.0645 56.4 -83.0645 33.6ZM-44.0644 51H-47.0645V67.8H-44.0644V51ZM-5.05859 77.25V57.75C-5.05859 27.3 12.7914 15 32.4414 15C52.3914 15 70.0914 27.3 70.0914 57.75V77.25C70.0914 107.7 53.8914 120 32.5914 120C11.2914 120 -5.05859 107.7 -5.05859 77.25ZM31.0914 51.3V83.85H34.0914V51.3H31.0914ZM111.264 103.05C111.264 85.5 111.264 63.75 111.264 51H108.264C108.264 66.9 108.264 88.05 108.264 103.05C108.264 113.25 101.064 120 90.1141 120C79.3141 120 72.7141 113.25 73.3141 103.05C74.5141 86.85 76.3141 62.4 77.6641 43.2C78.8641 26.4 91.7641 15 110.064 15C127.914 15 140.514 26.25 141.864 43.35C143.214 62.4 144.864 86.85 146.064 103.05C146.814 113.25 140.214 120 129.114 120C118.464 120 111.264 113.25 111.264 103.05ZM187.289 103.05C187.289 85.5 187.289 63.75 187.289 51H184.289C184.289 66.9 184.289 88.05 184.289 103.05C184.289 113.25 177.089 120 166.139 120C155.339 120 148.739 113.25 149.339 103.05C150.539 86.85 152.339 62.4 153.689 43.2C154.889 26.4 167.789 15 186.089 15C203.939 15 216.539 26.25 217.889 43.35C219.239 62.4 220.889 86.85 222.089 103.05C222.839 113.25 216.239 120 205.139 120C194.489 120 187.289 113.25 187.289 103.05ZM252.238 102.15C252.238 79.05 252.238 55.95 252.238 32.85C252.238 22.2 259.288 15 269.788 15C275.038 15 279.688 15 287.788 15C314.638 15 324.988 22.5 324.988 41.55C324.988 56.1 316.888 66 304.738 66C304.438 66 297.988 66 292.288 66V69C299.038 69 302.338 69 304.738 69C318.388 69 327.538 78.9 327.538 94.05C327.538 112.8 316.588 120 288.238 120C282.688 120 275.188 120 270.688 120C259.588 120 252.238 112.8 252.238 102.15ZM288.238 51.3V62.1C288.688 62.1 291.088 62.1 291.238 62.1C291.238 60.3 291.238 51.3 291.238 51.3H288.238ZM288.238 72.6V83.85H291.238V72.6H288.238ZM393.987 120H393.687C384.387 120 378.087 113.7 378.087 104.4C378.087 95.85 378.087 84.45 378.087 70.5C377.337 70.5 376.137 70.5 375.537 70.5C375.537 79.5 375.387 89.55 375.237 99.45C374.937 111.9 366.687 120 354.087 120C341.787 120 333.537 111.75 333.537 99.45V30.6C333.537 21.3 339.837 15 349.587 15C358.887 15 365.187 21.3 365.187 30.6C365.187 42.9 365.187 55.35 365.187 67.5C365.487 67.5 366.687 67.5 367.587 67.5C367.587 56.85 367.587 46.35 367.587 35.85C367.587 23.25 375.837 15 388.737 15C401.337 15 409.587 23.25 409.587 35.85C409.587 58.65 409.587 81.6 409.587 104.4C409.587 113.7 403.287 120 393.987 120ZM454.795 32.85C454.795 48.75 454.795 64.35 454.795 84H457.645V26.85C457.645 22.5 460.495 19.5 465.145 19.5C469.645 19.5 472.645 22.5 472.645 26.85C472.645 44.1 472.645 73.65 472.645 84H475.495C475.495 72.45 475.495 51 475.495 32.85C475.495 22.2 482.545 15 493.645 15C504.445 15 511.495 22.2 511.495 32.85C511.495 52.95 511.495 72.9 511.495 93C511.495 109.2 500.695 120 484.495 120C474.745 120.15 464.245 120.15 455.695 120.15C451.795 120.15 448.495 120.15 445.645 120.15C429.445 120.15 418.645 109.2 418.645 93C418.645 74.4 418.645 50.1 418.645 32.85C418.645 22.2 425.845 15 436.795 15C447.595 15 454.795 22.2 454.795 32.85ZM520.451 33.6C520.451 22.5 527.951 15 539.051 15H564.101C582.851 15 595.451 27.6 595.451 46.35C595.451 65.7 582.851 78.3 564.101 78.3C560.951 78.3 558.251 78.3 556.451 78.3C556.451 86.7 556.451 94.35 556.451 102.15C556.451 112.8 549.251 120 538.601 120C527.651 120 520.451 112.8 520.451 102.15C520.451 79.35 520.451 56.4 520.451 33.6ZM559.451 51H556.451V67.8H559.451V51ZM598.457 77.25V57.75C598.457 27.3 616.307 15 635.957 15C655.907 15 673.607 27.3 673.607 57.75V77.25C673.607 107.7 657.407 120 636.107 120C614.807 120 598.457 107.7 598.457 77.25ZM634.607 51.3V83.85H637.607V51.3H634.607ZM714.78 103.05C714.78 85.5 714.78 63.75 714.78 51H711.78C711.78 66.9 711.78 88.05 711.78 103.05C711.78 113.25 704.58 120 693.63 120C682.83 120 676.23 113.25 676.83 103.05C678.03 86.85 679.83 62.4 681.18 43.2C682.38 26.4 695.28 15 713.58 15C731.43 15 744.03 26.25 745.38 43.35C746.73 62.4 748.38 86.85 749.58 103.05C750.33 113.25 743.73 120 732.63 120C721.98 120 714.78 113.25 714.78 103.05ZM790.805 103.05C790.805 85.5 790.805 63.75 790.805 51H787.805C787.805 66.9 787.805 88.05 787.805 103.05C787.805 113.25 780.605 120 769.655 120C758.855 120 752.255 113.25 752.855 103.05C754.055 86.85 755.855 62.4 757.205 43.2C758.405 26.4 771.305 15 789.605 15C807.455 15 820.055 26.25 821.405 43.35C822.755 62.4 824.405 86.85 825.605 103.05C826.355 113.25 819.755 120 808.655 120C798.005 120 790.805 113.25 790.805 103.05ZM855.754 102.15C855.754 79.05 855.754 55.95 855.754 32.85C855.754 22.2 862.804 15 873.304 15C878.554 15 883.204 15 891.304 15C918.154 15 928.504 22.5 928.504 41.55C928.504 56.1 920.404 66 908.254 66C907.954 66 901.504 66 895.804 66V69C902.554 69 905.854 69 908.254 69C921.904 69 931.054 78.9 931.054 94.05C931.054 112.8 920.104 120 891.754 120C886.204 120 878.704 120 874.204 120C863.104 120 855.754 112.8 855.754 102.15ZM891.754 51.3V62.1C892.204 62.1 894.604 62.1 894.754 62.1C894.754 60.3 894.754 51.3 894.754 51.3H891.754ZM891.754 72.6V83.85H894.754V72.6H891.754ZM997.503 120H997.203C987.903 120 981.603 113.7 981.603 104.4C981.603 95.85 981.603 84.45 981.603 70.5C980.853 70.5 979.653 70.5 979.053 70.5C979.053 79.5 978.903 89.55 978.753 99.45C978.453 111.9 970.203 120 957.603 120C945.303 120 937.053 111.75 937.053 99.45V30.6C937.053 21.3 943.353 15 953.103 15C962.403 15 968.703 21.3 968.703 30.6C968.703 42.9 968.703 55.35 968.703 67.5C969.003 67.5 970.203 67.5 971.103 67.5C971.103 56.85 971.103 46.35 971.103 35.85C971.103 23.25 979.353 15 992.253 15C1004.85 15 1013.1 23.25 1013.1 35.85C1013.1 58.65 1013.1 81.6 1013.1 104.4C1013.1 113.7 1006.8 120 997.503 120ZM1058.31 32.85C1058.31 48.75 1058.31 64.35 1058.31 84H1061.16V26.85C1061.16 22.5 1064.01 19.5 1068.66 19.5C1073.16 19.5 1076.16 22.5 1076.16 26.85C1076.16 44.1 1076.16 73.65 1076.16 84H1079.01C1079.01 72.45 1079.01 51 1079.01 32.85C1079.01 22.2 1086.06 15 1097.16 15C1107.96 15 1115.01 22.2 1115.01 32.85C1115.01 52.95 1115.01 72.9 1115.01 93C1115.01 109.2 1104.21 120 1088.01 120C1078.26 120.15 1067.76 120.15 1059.21 120.15C1055.31 120.15 1052.01 120.15 1049.16 120.15C1032.96 120.15 1022.16 109.2 1022.16 93C1022.16 74.4 1022.16 50.1 1022.16 32.85C1022.16 22.2 1029.36 15 1040.31 15C1051.11 15 1058.31 22.2 1058.31 32.85ZM1123.97 33.6C1123.97 22.5 1131.47 15 1142.57 15H1167.62C1186.37 15 1198.97 27.6 1198.97 46.35C1198.97 65.7 1186.37 78.3 1167.62 78.3C1164.47 78.3 1161.77 78.3 1159.97 78.3C1159.97 86.7 1159.97 94.35 1159.97 102.15C1159.97 112.8 1152.77 120 1142.12 120C1131.17 120 1123.97 112.8 1123.97 102.15C1123.97 79.35 1123.97 56.4 1123.97 33.6ZM1162.97 51H1159.97V67.8H1162.97V51ZM1201.97 77.25V57.75C1201.97 27.3 1219.82 15 1239.47 15C1259.42 15 1277.12 27.3 1277.12 57.75V77.25C1277.12 107.7 1260.92 120 1239.62 120C1218.32 120 1201.97 107.7 1201.97 77.25ZM1238.12 51.3V83.85H1241.12V51.3H1238.12ZM1318.3 103.05C1318.3 85.5 1318.3 63.75 1318.3 51H1315.3C1315.3 66.9 1315.3 88.05 1315.3 103.05C1315.3 113.25 1308.1 120 1297.15 120C1286.35 120 1279.75 113.25 1280.35 103.05C1281.55 86.85 1283.35 62.4 1284.7 43.2C1285.9 26.4 1298.8 15 1317.1 15C1334.95 15 1347.55 26.25 1348.9 43.35C1350.25 62.4 1351.9 86.85 1353.1 103.05C1353.85 113.25 1347.25 120 1336.15 120C1325.5 120 1318.3 113.25 1318.3 103.05ZM1394.32 103.05C1394.32 85.5 1394.32 63.75 1394.32 51H1391.32C1391.32 66.9 1391.32 88.05 1391.32 103.05C1391.32 113.25 1384.12 120 1373.17 120C1362.37 120 1355.77 113.25 1356.37 103.05C1357.57 86.85 1359.37 62.4 1360.72 43.2C1361.92 26.4 1374.82 15 1393.12 15C1410.97 15 1423.57 26.25 1424.92 43.35C1426.27 62.4 1427.92 86.85 1429.12 103.05C1429.87 113.25 1423.27 120 1412.17 120C1401.52 120 1394.32 113.25 1394.32 103.05ZM1459.27 102.15C1459.27 79.05 1459.27 55.95 1459.27 32.85C1459.27 22.2 1466.32 15 1476.82 15C1482.07 15 1486.72 15 1494.82 15C1521.67 15 1532.02 22.5 1532.02 41.55C1532.02 56.1 1523.92 66 1511.77 66C1511.47 66 1505.02 66 1499.32 66V69C1506.07 69 1509.37 69 1511.77 69C1525.42 69 1534.57 78.9 1534.57 94.05C1534.57 112.8 1523.62 120 1495.27 120C1489.72 120 1482.22 120 1477.72 120C1466.62 120 1459.27 112.8 1459.27 102.15ZM1495.27 51.3V62.1C1495.72 62.1 1498.12 62.1 1498.27 62.1C1498.27 60.3 1498.27 51.3 1498.27 51.3H1495.27ZM1495.27 72.6V83.85H1498.27V72.6H1495.27ZM1601.02 120H1600.72C1591.42 120 1585.12 113.7 1585.12 104.4C1585.12 95.85 1585.12 84.45 1585.12 70.5C1584.37 70.5 1583.17 70.5 1582.57 70.5C1582.57 79.5 1582.42 89.55 1582.27 99.45C1581.97 111.9 1573.72 120 1561.12 120C1548.82 120 1540.57 111.75 1540.57 99.45V30.6C1540.57 21.3 1546.87 15 1556.62 15C1565.92 15 1572.22 21.3 1572.22 30.6C1572.22 42.9 1572.22 55.35 1572.22 67.5C1572.52 67.5 1573.72 67.5 1574.62 67.5C1574.62 56.85 1574.62 46.35 1574.62 35.85C1574.62 23.25 1582.87 15 1595.77 15C1608.37 15 1616.62 23.25 1616.62 35.85C1616.62 58.65 1616.62 81.6 1616.62 104.4C1616.62 113.7 1610.32 120 1601.02 120ZM1661.83 32.85C1661.83 48.75 1661.83 64.35 1661.83 84H1664.68V26.85C1664.68 22.5 1667.53 19.5 1672.18 19.5C1676.68 19.5 1679.68 22.5 1679.68 26.85C1679.68 44.1 1679.68 73.65 1679.68 84H1682.53C1682.53 72.45 1682.53 51 1682.53 32.85C1682.53 22.2 1689.58 15 1700.68 15C1711.48 15 1718.53 22.2 1718.53 32.85C1718.53 52.95 1718.53 72.9 1718.53 93C1718.53 109.2 1707.73 120 1691.53 120C1681.78 120.15 1671.28 120.15 1662.73 120.15C1658.83 120.15 1655.53 120.15 1652.68 120.15C1636.48 120.15 1625.68 109.2 1625.68 93C1625.68 74.4 1625.68 50.1 1625.68 32.85C1625.68 22.2 1632.88 15 1643.83 15C1654.63 15 1661.83 22.2 1661.83 32.85ZM1727.48 33.6C1727.48 22.5 1734.98 15 1746.08 15H1771.13C1789.88 15 1802.48 27.6 1802.48 46.35C1802.48 65.7 1789.88 78.3 1771.13 78.3C1767.98 78.3 1765.28 78.3 1763.48 78.3C1763.48 86.7 1763.48 94.35 1763.48 102.15C1763.48 112.8 1756.28 120 1745.63 120C1734.68 120 1727.48 112.8 1727.48 102.15C1727.48 79.35 1727.48 56.4 1727.48 33.6ZM1766.48 51H1763.48V67.8H1766.48V51ZM1805.49 77.25V57.75C1805.49 27.3 1823.34 15 1842.99 15C1862.94 15 1880.64 27.3 1880.64 57.75V77.25C1880.64 107.7 1864.44 120 1843.14 120C1821.84 120 1805.49 107.7 1805.49 77.25ZM1841.64 51.3V83.85H1844.64V51.3H1841.64ZM1921.81 103.05C1921.81 85.5 1921.81 63.75 1921.81 51H1918.81C1918.81 66.9 1918.81 88.05 1918.81 103.05C1918.81 113.25 1911.61 120 1900.66 120C1889.86 120 1883.26 113.25 1883.86 103.05C1885.06 86.85 1886.86 62.4 1888.21 43.2C1889.41 26.4 1902.31 15 1920.61 15C1938.46 15 1951.06 26.25 1952.41 43.35C1953.76 62.4 1955.41 86.85 1956.61 103.05C1957.36 113.25 1950.76 120 1939.66 120C1929.01 120 1921.81 113.25 1921.81 103.05ZM1997.84 103.05C1997.84 85.5 1997.84 63.75 1997.84 51H1994.84C1994.84 66.9 1994.84 88.05 1994.84 103.05C1994.84 113.25 1987.64 120 1976.69 120C1965.89 120 1959.29 113.25 1959.89 103.05C1961.09 86.85 1962.89 62.4 1964.24 43.2C1965.44 26.4 1978.34 15 1996.64 15C2014.49 15 2027.09 26.25 2028.44 43.35C2029.79 62.4 2031.44 86.85 2032.64 103.05C2033.39 113.25 2026.79 120 2015.69 120C2005.04 120 1997.84 113.25 1997.84 103.05ZM2062.79 102.15C2062.79 79.05 2062.79 55.95 2062.79 32.85C2062.79 22.2 2069.84 15 2080.34 15C2085.59 15 2090.24 15 2098.34 15C2125.19 15 2135.54 22.5 2135.54 41.55C2135.54 56.1 2127.44 66 2115.29 66C2114.99 66 2108.54 66 2102.84 66V69C2109.59 69 2112.89 69 2115.29 69C2128.94 69 2138.09 78.9 2138.09 94.05C2138.09 112.8 2127.14 120 2098.79 120C2093.24 120 2085.74 120 2081.24 120C2070.14 120 2062.79 112.8 2062.79 102.15ZM2098.79 51.3V62.1C2099.24 62.1 2101.64 62.1 2101.79 62.1C2101.79 60.3 2101.79 51.3 2101.79 51.3H2098.79ZM2098.79 72.6V83.85H2101.79V72.6H2098.79ZM2204.53 120H2204.23C2194.93 120 2188.63 113.7 2188.63 104.4C2188.63 95.85 2188.63 84.45 2188.63 70.5C2187.88 70.5 2186.68 70.5 2186.08 70.5C2186.08 79.5 2185.93 89.55 2185.78 99.45C2185.48 111.9 2177.23 120 2164.63 120C2152.33 120 2144.08 111.75 2144.08 99.45V30.6C2144.08 21.3 2150.38 15 2160.13 15C2169.43 15 2175.73 21.3 2175.73 30.6C2175.73 42.9 2175.73 55.35 2175.73 67.5C2176.03 67.5 2177.23 67.5 2178.13 67.5C2178.13 56.85 2178.13 46.35 2178.13 35.85C2178.13 23.25 2186.38 15 2199.28 15C2211.88 15 2220.13 23.25 2220.13 35.85C2220.13 58.65 2220.13 81.6 2220.13 104.4C2220.13 113.7 2213.83 120 2204.53 120ZM2265.34 32.85C2265.34 48.75 2265.34 64.35 2265.34 84H2268.19V26.85C2268.19 22.5 2271.04 19.5 2275.69 19.5C2280.19 19.5 2283.19 22.5 2283.19 26.85C2283.19 44.1 2283.19 73.65 2283.19 84H2286.04C2286.04 72.45 2286.04 51 2286.04 32.85C2286.04 22.2 2293.09 15 2304.19 15C2314.99 15 2322.04 22.2 2322.04 32.85C2322.04 52.95 2322.04 72.9 2322.04 93C2322.04 109.2 2311.24 120 2295.04 120C2285.29 120.15 2274.79 120.15 2266.24 120.15C2262.34 120.15 2259.04 120.15 2256.19 120.15C2239.99 120.15 2229.19 109.2 2229.19 93C2229.19 74.4 2229.19 50.1 2229.19 32.85C2229.19 22.2 2236.39 15 2247.34 15C2258.14 15 2265.34 22.2 2265.34 32.85ZM2331 33.6C2331 22.5 2338.5 15 2349.6 15H2374.65C2393.4 15 2406 27.6 2406 46.35C2406 65.7 2393.4 78.3 2374.65 78.3C2371.5 78.3 2368.8 78.3 2367 78.3C2367 86.7 2367 94.35 2367 102.15C2367 112.8 2359.8 120 2349.15 120C2338.2 120 2331 112.8 2331 102.15C2331 79.35 2331 56.4 2331 33.6ZM2370 51H2367V67.8H2370V51ZM2409 77.25V57.75C2409 27.3 2426.85 15 2446.5 15C2466.45 15 2484.15 27.3 2484.15 57.75V77.25C2484.15 107.7 2467.95 120 2446.65 120C2425.35 120 2409 107.7 2409 77.25ZM2445.15 51.3V83.85H2448.15V51.3H2445.15ZM2525.33 103.05C2525.33 85.5 2525.33 63.75 2525.33 51H2522.33C2522.33 66.9 2522.33 88.05 2522.33 103.05C2522.33 113.25 2515.13 120 2504.18 120C2493.38 120 2486.78 113.25 2487.38 103.05C2488.58 86.85 2490.38 62.4 2491.73 43.2C2492.93 26.4 2505.83 15 2524.13 15C2541.98 15 2554.58 26.25 2555.93 43.35C2557.28 62.4 2558.93 86.85 2560.13 103.05C2560.88 113.25 2554.28 120 2543.18 120C2532.53 120 2525.33 113.25 2525.33 103.05ZM2601.35 103.05C2601.35 85.5 2601.35 63.75 2601.35 51H2598.35C2598.35 66.9 2598.35 88.05 2598.35 103.05C2598.35 113.25 2591.15 120 2580.2 120C2569.4 120 2562.8 113.25 2563.4 103.05C2564.6 86.85 2566.4 62.4 2567.75 43.2C2568.95 26.4 2581.85 15 2600.15 15C2618 15 2630.6 26.25 2631.95 43.35C2633.3 62.4 2634.95 86.85 2636.15 103.05C2636.9 113.25 2630.3 120 2619.2 120C2608.55 120 2601.35 113.25 2601.35 103.05Z" fill="#1C1C1C"/>
</g>
<defs>
<clipPath id="clip0_80_143">
<rect width="2638" height="425" fill="white"/>
</clipPath>
</defs>
</svg>
