<svg width="381" height="443" viewBox="0 0 381 443" fill="none" xmlns="http://www.w3.org/2000/svg">
<g clip-path="url(#clip0_883_2186)">
<path d="M349.167 361.885C349.167 377.879 336.699 390.966 320.95 391.94V385.966L333.383 373.533C334.452 372.464 334.452 370.731 333.383 369.662C332.314 368.593 330.58 368.593 329.511 369.662L320.95 378.224V353.633C320.95 352.124 319.721 350.896 318.213 350.896C316.704 350.896 315.475 352.124 315.475 353.633V391.795C315.37 391.78 315.265 391.77 315.161 391.755C313.003 391.476 310.915 390.971 308.922 390.257C297.268 386.096 288.931 374.962 288.931 361.885C288.931 345.251 302.418 323.283 319.052 323.283C335.685 323.283 349.167 345.251 349.167 361.885Z" fill="url(#paint0_linear_883_2186)"/>
<path d="M371.95 107.689C371.95 121.156 364.217 132.815 352.948 138.469C351.15 139.378 349.257 140.128 347.294 140.707C344.961 141.396 342.524 141.846 340.011 142.026V122.895L354.397 108.509C355.491 107.42 355.491 105.651 354.397 104.563C353.308 103.474 351.545 103.474 350.451 104.563L340.011 115.002V94.917C340.011 93.3735 338.757 92.1247 337.219 92.1247C335.68 92.1247 334.427 93.3735 334.427 94.917V119.952L325.49 111.016C324.401 109.927 322.633 109.927 321.544 111.016C320.455 112.105 320.455 113.873 321.544 114.962L330.8 124.213L334.427 127.845V141.976C330.635 141.641 327.019 140.687 323.682 139.223C321.894 138.439 320.191 137.505 318.577 136.436C309.246 130.282 303.092 119.708 303.092 107.689C303.092 88.6781 318.507 57.0342 337.519 57.0342C356.53 57.0342 371.95 88.6781 371.95 107.689Z" fill="url(#paint1_linear_883_2186)"/>
<path d="M187.136 159.513C163.564 159.513 144.458 178.619 144.458 202.191C144.458 221.512 173.12 259.08 183.465 272.013C185.348 274.365 188.924 274.365 190.808 272.013C201.152 259.08 229.814 221.512 229.814 202.191C229.814 178.619 210.708 159.513 187.136 159.513ZM187.136 223.036C176.676 223.036 168.205 214.559 168.205 204.104C168.205 193.65 176.681 185.173 187.136 185.173C197.591 185.173 206.068 193.65 206.068 204.104C206.068 214.559 197.591 223.036 187.136 223.036Z" fill="url(#paint2_linear_883_2186)"/>
<path d="M354.397 108.504L340.011 122.889V160.732C340.011 162.271 338.757 163.52 337.219 163.52C335.68 163.52 334.427 162.271 334.427 160.732V127.84L330.8 124.208L321.544 114.957C320.455 113.868 320.455 112.1 321.544 111.011C322.633 109.922 324.401 109.922 325.49 111.011L334.427 119.947V94.9119C334.427 93.3684 335.675 92.1196 337.219 92.1196C338.762 92.1196 340.011 93.3684 340.011 94.9119V114.997L350.451 104.557C351.545 103.468 353.308 103.468 354.397 104.557C355.491 105.646 355.491 107.415 354.397 108.504Z" fill="url(#paint3_linear_883_2186)"/>
<path d="M333.383 373.533L320.95 385.966V408.519C320.95 410.032 319.721 411.256 318.213 411.256C316.704 411.256 315.475 410.032 315.475 408.519V353.633C315.475 352.124 316.699 350.896 318.213 350.896C319.726 350.896 320.95 352.124 320.95 353.633V378.224L329.511 369.662C330.58 368.593 332.314 368.593 333.383 369.662C334.452 370.731 334.452 372.464 333.383 373.533Z" fill="url(#paint4_linear_883_2186)"/>
<path d="M60.2359 154.558C60.2359 170.552 47.7681 183.64 32.0186 184.614V178.64L44.4514 166.207C45.5203 165.138 45.5203 163.404 44.4514 162.336C43.3824 161.267 41.6491 161.267 40.5802 162.336L32.0186 170.897V146.306C32.0186 144.798 30.7898 143.569 29.2812 143.569C27.7727 143.569 26.5439 144.798 26.5439 146.306V184.469C26.439 184.454 26.3341 184.444 26.2292 184.429C24.0714 184.149 21.9834 183.645 19.9904 182.93C8.33681 178.769 0 167.635 0 154.558C0 137.924 13.4868 115.956 30.1204 115.956C46.7541 115.956 60.2359 137.924 60.2359 154.558Z" fill="url(#paint5_linear_883_2186)"/>
<path d="M44.4514 166.207L32.0186 178.639V201.192C32.0186 202.706 30.7898 203.93 29.2813 203.93C27.7727 203.93 26.5439 202.706 26.5439 201.192V146.306C26.5439 144.798 27.7677 143.569 29.2813 143.569C30.7948 143.569 32.0186 144.798 32.0186 146.306V170.897L40.5802 162.335C41.6491 161.266 43.3824 161.266 44.4514 162.335C45.5203 163.404 45.5203 165.138 44.4514 166.207Z" fill="url(#paint6_linear_883_2186)"/>
<path d="M81.1203 271.608C81.1203 287.603 68.6526 300.69 52.9031 301.664V295.69L65.3358 283.257C66.4048 282.188 66.4048 280.455 65.3358 279.386C64.2669 278.317 62.5336 278.317 61.4646 279.386L52.9031 287.947V263.357C52.9031 261.848 51.6743 260.619 50.1657 260.619C48.6572 260.619 47.4284 261.848 47.4284 263.357V301.519C47.3235 301.504 47.2186 301.494 47.1137 301.479C44.9559 301.199 42.8679 300.695 40.8749 299.981C29.2213 295.82 20.8845 284.686 20.8845 271.608C20.8845 254.975 34.3712 233.006 51.0049 233.006C67.6386 233.006 81.1203 254.975 81.1203 271.608Z" fill="url(#paint7_linear_883_2186)"/>
<path d="M65.3359 283.257L52.9031 295.69V318.243C52.9031 319.756 51.6743 320.98 50.1658 320.98C48.6572 320.98 47.4284 319.756 47.4284 318.243V263.356C47.4284 261.848 48.6522 260.619 50.1658 260.619C51.6793 260.619 52.9031 261.848 52.9031 263.356V287.947L61.4647 279.386C62.5336 278.317 64.2669 278.317 65.3359 279.386C66.4048 280.455 66.4048 282.188 65.3359 283.257Z" fill="url(#paint8_linear_883_2186)"/>
<path d="M268.556 191.117V237.092H326.744V191.117H268.556ZM289.691 223.69V201.417C289.691 199.704 291.079 198.31 292.792 198.31H302.503C304.221 198.31 305.61 199.704 305.61 201.417V226.273C300.275 225.274 294.935 224.424 289.691 223.69Z" fill="url(#paint9_linear_883_2186)"/>
<path d="M261.303 191.117H333.997C336.724 191.117 338.073 188.15 336.12 186.442L299.721 154.603C298.537 153.569 296.649 153.569 295.47 154.603L259.175 186.442C257.227 188.15 258.576 191.112 261.303 191.112V191.117Z" fill="url(#paint10_linear_883_2186)"/>
<path d="M284.591 114.048C284.231 122.46 277.527 128.464 270.794 132.15C259.525 138.294 247.042 141.331 234.864 144.078C229.949 145.142 224.999 146.096 220.024 146.976C205.109 149.613 190.003 151.571 175.113 153.664C172.176 154.094 166.257 154.998 163.325 155.457C156.406 156.516 149.473 157.47 142.585 158.564C130.287 160.512 118.124 162.9 106.43 167.081C96.6001 170.772 82.0694 177.725 86.6849 190.218C89.9766 197.711 101.765 200.848 109.468 202.821C113.319 203.75 117.495 204.549 121.79 205.263C121.765 205.978 121.755 206.697 121.755 207.421C121.755 214.309 122.784 220.958 124.698 227.222C117.829 225.978 110.936 224.574 104.168 222.546C87.0595 217.626 69.237 208.265 68.0082 188.03C66.8044 173.45 76.0903 162.43 88.0236 155.887C95.8559 151.516 104.078 148.779 112.52 146.511C128.564 142.29 144.643 140.307 160.917 138.244C184.639 134.168 259.141 132.025 272.467 116.151C276.249 111.146 270.764 106.86 266.543 104.287C260.155 100.486 252.637 97.9836 245.369 95.8957C230.184 91.6548 214.33 88.9974 198.65 87.0344L196.997 86.8346L197.166 83.7026L198.835 83.7126C219.155 84.1122 239.55 85.6807 259.24 91.1953C269.935 94.4321 285.06 100.461 284.591 114.048Z" fill="url(#paint11_linear_883_2186)"/>
<path d="M215.503 109.083V120.816H152.86V109.083H159.478V105.746C159.478 101.33 163.06 97.754 167.476 97.754L174.329 58.3177C172.361 57.8882 170.882 56.1349 170.882 54.0369C170.882 52.8281 171.372 51.7342 172.166 50.945C172.96 50.1508 174.054 49.6612 175.263 49.6612H175.832L183 8.38677C181.212 7.87727 179.903 6.22888 179.903 4.2758C179.903 1.91312 181.821 0 184.184 0C186.547 0 188.46 1.91312 188.46 4.2758C188.46 6.22888 187.156 7.87227 185.368 8.38677L192.541 49.6612H193.105C195.523 49.6612 197.481 51.6193 197.481 54.0369C197.481 55.2458 196.992 56.3397 196.202 57.1339C195.618 57.7183 194.874 58.1379 194.039 58.3177L200.893 97.754C205.308 97.754 208.885 101.33 208.885 105.746V109.083H215.503Z" fill="url(#paint12_linear_883_2186)"/>
<path d="M380.022 256.283C379.852 254.86 379.512 253.476 379.043 252.217C378.104 249.71 376.765 247.757 375.461 246.238C374.148 244.72 372.834 243.566 371.565 242.587C370.296 241.608 369.068 240.809 367.864 240.094C365.456 238.676 363.168 237.612 360.911 236.663C358.663 235.734 356.455 234.934 354.272 234.215C349.901 232.792 345.616 231.643 341.345 230.659C332.813 228.696 324.381 227.257 315.96 226.023C307.543 224.804 299.151 223.8 290.764 222.986C282.373 222.167 273.996 221.488 265.614 220.933C262.392 220.723 259.176 220.539 255.949 220.364C254.51 227.826 251.838 234.855 248.161 241.223L251.788 241.453C255.879 241.728 259.975 242.032 264.061 242.362C272.238 243.007 280.405 243.751 288.532 244.635C296.654 245.529 304.751 246.503 312.758 247.702C320.76 248.906 328.702 250.304 336.345 252.103C340.156 253.007 343.902 253.981 347.424 255.13C349.187 255.704 350.885 256.318 352.474 256.973C352.524 256.993 352.579 257.018 352.629 257.038C350.236 257.782 347.654 258.456 345.051 259.096C341.26 260.02 337.349 260.834 333.398 261.593C325.485 263.107 317.403 264.396 309.286 265.599C301.164 266.798 292.987 267.907 284.795 268.976L260.16 272.158C246.188 273.926 232.187 275.714 218.166 277.598C217.441 277.692 216.722 277.792 215.998 277.892C214.225 278.127 212.456 278.367 210.683 278.612C194.169 280.874 177.641 283.347 161.107 286.239C152.845 287.698 144.583 289.286 136.316 291.074C128.054 292.873 119.792 294.846 111.53 297.258C107.4 298.462 103.274 299.796 99.1426 301.299C95.0117 302.823 90.8807 304.501 86.7448 306.599C84.6768 307.648 82.6089 308.802 80.5409 310.141C78.4779 311.489 76.41 313.018 74.3919 314.921C73.8924 315.38 73.3929 315.93 72.8984 316.434L72.1691 317.274C71.9294 317.548 71.6896 317.833 71.4548 318.148C70.5108 319.322 69.6166 320.76 68.8774 322.229C68.233 323.547 67.6536 324.996 67.214 326.574C66.7644 328.143 66.4747 329.881 66.4447 331.704C66.4098 333.518 66.6495 335.411 67.159 337.184C67.6635 338.967 68.4278 340.616 69.3169 342.059C70.2061 343.503 71.2151 344.762 72.254 345.851C73.298 346.939 74.372 347.879 75.4559 348.728C77.6188 350.401 79.7966 351.7 81.9495 352.814C84.1124 353.938 86.2553 354.862 88.3882 355.696C92.659 357.354 96.8898 358.628 101.106 359.732C105.317 360.836 109.517 361.755 113.708 362.569C122.085 364.198 130.427 365.436 138.754 366.53C147.076 367.619 155.387 368.523 163.679 369.367C171.971 370.212 180.248 371.001 188.505 371.785C196.762 372.559 205.004 373.349 213.201 374.248C221.393 375.152 229.56 376.151 237.582 377.509C241.583 378.194 245.554 378.968 249.4 379.937C251.318 380.427 253.206 380.966 255.015 381.57C256.823 382.18 258.566 382.874 260.06 383.673C260.609 383.963 261.124 384.273 261.528 384.558C261.283 384.727 261.009 384.902 260.714 385.062C259.27 385.876 257.477 386.596 255.649 387.23C253.811 387.869 251.893 388.429 249.95 388.948C242.152 391.006 234.02 392.46 225.893 393.778C209.599 396.406 193.11 398.264 176.612 399.982C168.365 400.832 160.098 401.606 151.831 402.33C143.559 403.074 135.287 403.739 127 404.373C135.312 404.388 143.619 404.258 151.926 404.103C160.233 403.919 168.544 403.664 176.851 403.339C185.163 403.024 193.47 402.58 201.782 402.04C210.089 401.501 218.401 400.847 226.717 399.987C230.873 399.553 235.029 399.043 239.195 398.454C243.356 397.854 247.522 397.17 251.708 396.281C253.801 395.831 255.899 395.332 258.017 394.718C260.14 394.088 262.267 393.399 264.51 392.295C265.629 391.73 266.798 391.071 268.042 389.967C268.661 389.388 269.316 388.678 269.88 387.63C270.015 387.35 270.15 387.09 270.26 386.78C270.365 386.461 270.469 386.151 270.539 385.811C270.599 385.462 270.659 385.112 270.669 384.762C270.674 384.408 270.679 384.043 270.634 383.703C270.589 383.369 270.534 383.019 270.449 382.704C270.359 382.405 270.26 382.095 270.15 381.81C270.035 381.55 269.91 381.291 269.78 381.036C269.65 380.796 269.515 380.596 269.375 380.377C268.826 379.557 268.242 378.928 267.692 378.424C266.573 377.395 265.499 376.685 264.445 376.046C262.342 374.782 260.249 373.848 258.161 373.019C256.079 372.195 253.996 371.51 251.918 370.881C247.757 369.637 243.611 368.643 239.47 367.744C231.183 365.966 222.911 364.587 214.644 363.303C206.382 362.03 198.135 360.881 189.899 359.742C181.667 358.613 173.445 357.524 165.258 356.365C157.071 355.206 148.909 353.993 140.812 352.649C132.715 351.295 124.673 349.802 116.81 347.988C112.879 347.074 108.998 346.08 105.212 344.961C101.43 343.842 97.739 342.594 94.3124 341.13C92.6041 340.401 90.9557 339.622 89.4621 338.777C88.7029 338.358 88.0036 337.918 87.3242 337.479C86.6699 337.034 86.0455 336.58 85.506 336.125C84.9715 335.671 84.502 335.221 84.1224 334.796C83.7428 334.372 83.478 333.977 83.2982 333.648C83.1184 333.313 83.0285 333.048 82.9835 332.828C82.9385 332.604 82.9336 332.414 82.9535 332.154C82.9785 331.664 83.2333 330.79 83.7977 329.721C84.1873 329.042 84.8417 328.183 85.8956 327.264C86.9246 326.345 88.2234 325.416 89.6619 324.541C91.1055 323.662 92.689 322.833 94.3473 322.049C97.6591 320.485 101.266 319.122 104.962 317.878C108.673 316.644 112.48 315.535 116.346 314.516C124.078 312.463 132.02 310.765 140.022 309.227C148.025 307.698 156.107 306.364 164.224 305.116C180.458 302.613 196.832 300.56 213.246 298.597C229.669 296.639 246.143 294.851 262.657 292.977C279.171 291.119 295.715 289.206 312.338 286.908C320.65 285.75 328.982 284.506 337.394 282.977C341.6 282.208 345.825 281.374 350.111 280.375C352.254 279.875 354.412 279.326 356.605 278.706C358.803 278.082 361.025 277.393 363.343 276.539C365.676 275.654 368.054 274.705 370.831 273.062C372.229 272.203 373.738 271.219 375.476 269.481C375.696 269.251 375.916 269.021 376.126 268.791C376.231 268.681 376.345 268.551 376.46 268.402L376.805 267.972C377.035 267.677 377.25 267.388 377.464 267.088C377.699 266.728 377.924 266.364 378.139 265.994C378.558 265.315 378.983 264.331 379.308 263.431C379.477 262.972 379.617 262.417 379.737 261.903C379.797 261.638 379.852 261.373 379.902 261.114C379.962 260.804 379.962 260.719 379.987 260.524C380.177 259.166 380.177 257.707 380.022 256.283ZM262.392 383.808C262.417 383.773 262.432 383.753 262.442 383.753C262.442 383.763 262.412 383.818 262.347 383.888C262.362 383.853 262.377 383.828 262.392 383.808Z" fill="url(#paint13_linear_883_2186)"/>
<path d="M215.998 289.591C216.727 289.666 217.471 289.566 218.166 289.296C217.442 289.391 216.722 289.491 215.998 289.591Z" fill="url(#paint14_linear_883_2186)"/>
</g>
<defs>
<linearGradient id="paint0_linear_883_2186" x1="288.931" y1="357.609" x2="349.167" y2="357.609" gradientUnits="userSpaceOnUse">
<stop stop-color="#FB6769"/>
<stop offset="0.33" stop-color="#F14EA9"/>
<stop offset="0.7" stop-color="#C351D5"/>
<stop offset="1" stop-color="#A76ED9"/>
</linearGradient>
<linearGradient id="paint1_linear_883_2186" x1="338.128" y1="139.198" x2="336.804" y2="70.3561" gradientUnits="userSpaceOnUse">
<stop stop-color="#FB6769"/>
<stop offset="0.33" stop-color="#F14EA9"/>
<stop offset="0.7" stop-color="#C351D5"/>
<stop offset="1" stop-color="#A76ED9"/>
</linearGradient>
<linearGradient id="paint2_linear_883_2186" x1="144.458" y1="216.647" x2="229.814" y2="216.647" gradientUnits="userSpaceOnUse">
<stop stop-color="#FA3258"/>
<stop offset="1" stop-color="#FB6769"/>
</linearGradient>
<linearGradient id="paint3_linear_883_2186" x1="320.73" y1="127.82" x2="355.216" y2="127.82" gradientUnits="userSpaceOnUse">
<stop stop-color="#DA4EBF"/>
<stop offset="1" stop-color="#A76ED9"/>
</linearGradient>
<linearGradient id="paint4_linear_883_2186" x1="315.475" y1="381.076" x2="334.187" y2="381.076" gradientUnits="userSpaceOnUse">
<stop stop-color="#C34EBF"/>
<stop offset="1" stop-color="#A76ED9"/>
</linearGradient>
<linearGradient id="paint5_linear_883_2186" x1="0" y1="150.282" x2="60.2359" y2="150.282" gradientUnits="userSpaceOnUse">
<stop offset="0.19" stop-color="#F8BA2D"/>
<stop offset="0.52" stop-color="#F8BA2D"/>
<stop offset="1" stop-color="#FAA535"/>
</linearGradient>
<linearGradient id="paint6_linear_883_2186" x1="35.9247" y1="199.349" x2="35.8598" y2="154.523" gradientUnits="userSpaceOnUse">
<stop stop-color="#F6DD1B"/>
<stop offset="0.35" stop-color="#F8BA2D"/>
<stop offset="0.73" stop-color="#FAA535"/>
<stop offset="1" stop-color="#FB8D3E"/>
</linearGradient>
<linearGradient id="paint7_linear_883_2186" x1="20.8845" y1="267.338" x2="81.1203" y2="267.338" gradientUnits="userSpaceOnUse">
<stop offset="0.19" stop-color="#F8BA2D"/>
<stop offset="0.52" stop-color="#F8BA2D"/>
<stop offset="1" stop-color="#FAA535"/>
</linearGradient>
<linearGradient id="paint8_linear_883_2186" x1="35.8498" y1="319.576" x2="57.8482" y2="275.355" gradientUnits="userSpaceOnUse">
<stop stop-color="#F6DD1B"/>
<stop offset="0.35" stop-color="#F8BA2D"/>
<stop offset="0.73" stop-color="#FAA535"/>
<stop offset="0.94" stop-color="#FB8D3E"/>
</linearGradient>
<linearGradient id="paint9_linear_883_2186" x1="268.556" y1="214.105" x2="326.744" y2="214.105" gradientUnits="userSpaceOnUse">
<stop stop-color="#C351D5"/>
<stop offset="1" stop-color="#A76ED9"/>
</linearGradient>
<linearGradient id="paint10_linear_883_2186" x1="258.256" y1="172.471" x2="337.044" y2="172.471" gradientUnits="userSpaceOnUse">
<stop stop-color="#C351D5"/>
<stop offset="1" stop-color="#A76ED9"/>
</linearGradient>
<linearGradient id="paint11_linear_883_2186" x1="244.24" y1="79.0122" x2="90.8508" y2="232.077" gradientUnits="userSpaceOnUse">
<stop stop-color="#F6DD1B"/>
<stop offset="0.13" stop-color="#F8BA2D"/>
<stop offset="0.27" stop-color="#FAA535"/>
<stop offset="0.39" stop-color="#FB8D3E"/>
<stop offset="0.5" stop-color="#FA7258"/>
<stop offset="0.64" stop-color="#FB6769"/>
<stop offset="0.76" stop-color="#F14EA9"/>
<stop offset="0.88" stop-color="#C351D5"/>
<stop offset="1" stop-color="#A76ED9"/>
</linearGradient>
<linearGradient id="paint12_linear_883_2186" x1="175.093" y1="106.301" x2="203.59" y2="50.5154" gradientUnits="userSpaceOnUse">
<stop offset="0.19" stop-color="#F8BA2D"/>
<stop offset="0.52" stop-color="#F8BA2D"/>
<stop offset="1" stop-color="#FAA535"/>
</linearGradient>
<linearGradient id="paint13_linear_883_2186" x1="122.884" y1="411.037" x2="311.334" y2="191.447" gradientUnits="userSpaceOnUse">
<stop stop-color="#F6DD1B"/>
<stop offset="0.13" stop-color="#F8BA2D"/>
<stop offset="0.27" stop-color="#FAA535"/>
<stop offset="0.39" stop-color="#FB8D3E"/>
<stop offset="0.5" stop-color="#FA7258"/>
<stop offset="0.64" stop-color="#FB6769"/>
<stop offset="0.76" stop-color="#F14EA9"/>
<stop offset="0.88" stop-color="#C351D5"/>
<stop offset="1" stop-color="#A76ED9"/>
</linearGradient>
<linearGradient id="paint14_linear_883_2186" x1="215.998" y1="289.456" x2="218.166" y2="289.456" gradientUnits="userSpaceOnUse">
<stop stop-color="#FA3258"/>
<stop offset="1" stop-color="#FB6769"/>
</linearGradient>
<clipPath id="clip0_883_2186">
<rect width="380.137" height="443" fill="white"/>
</clipPath>
</defs>
</svg>
