<svg width="283" height="52" viewBox="0 0 283 52" fill="none" xmlns="http://www.w3.org/2000/svg">
<g clip-path="url(#clip0_185_85)">
<path d="M0 42.7528C0 31.4208 0 20.0887 0 8.75661C0 3.53208 3.46983 0 8.63765 0C11.2216 0 13.5102 0 17.4968 0C30.7117 0 35.8057 3.67924 35.8057 13.0245C35.8057 20.1623 31.819 25.0189 25.8391 25.0189C25.6915 25.0189 22.517 25.0189 19.7116 25.0189V26.4906C23.0337 26.4906 24.6579 26.4906 25.8391 26.4906C32.5573 26.4906 37.0607 31.3472 37.0607 38.7793C37.0607 47.9774 31.6714 51.5094 17.7183 51.5094C14.9867 51.5094 11.2954 51.5094 9.08061 51.5094C3.61748 51.5094 0 47.9774 0 42.7528ZM17.7183 17.8076V23.1057C17.9397 23.1057 19.121 23.1057 19.1948 23.1057C19.1948 22.2226 19.1948 17.8076 19.1948 17.8076H17.7183ZM17.7183 28.2566V33.7755H19.1948V28.2566H17.7183ZM69.7652 51.5094H69.6175C65.0403 51.5094 61.9396 48.4189 61.9396 43.8566C61.9396 39.6623 61.9396 34.0698 61.9396 27.2264C61.5705 27.2264 60.9799 27.2264 60.6846 27.2264C60.6846 31.6415 60.6107 36.5717 60.5369 41.4283C60.3892 47.5359 56.3288 51.5094 50.1274 51.5094C44.0736 51.5094 40.0131 47.4623 40.0131 41.4283V7.65283C40.0131 3.09057 43.1138 0 47.9125 0C52.4899 0 55.5905 3.09057 55.5905 7.65283C55.5905 13.6868 55.5905 19.7943 55.5905 25.7547C55.7382 25.7547 56.3288 25.7547 56.7718 25.7547C56.7718 20.5302 56.7718 15.3792 56.7718 10.2283C56.7718 4.04717 60.8322 0 67.1812 0C73.3826 0 77.4431 4.04717 77.4431 10.2283C77.4431 21.4132 77.4431 32.6717 77.4431 43.8566C77.4431 48.4189 74.3424 51.5094 69.7652 51.5094ZM99.6928 8.75661C99.6928 16.5566 99.6928 24.2094 99.6928 33.8491H101.095V5.81321C101.095 3.67924 102.498 2.20755 104.787 2.20755C107.002 2.20755 108.478 3.67924 108.478 5.81321C108.478 14.2755 108.478 28.7717 108.478 33.8491H109.881C109.881 28.183 109.881 17.6604 109.881 8.75661C109.881 3.53208 113.351 0 118.814 0C124.129 0 127.599 3.53208 127.599 8.75661C127.599 18.617 127.599 28.4038 127.599 38.2642C127.599 46.2113 122.284 51.5094 114.31 51.5094C109.512 51.583 104.344 51.583 100.136 51.583C98.2163 51.583 96.5921 51.583 95.1894 51.583C87.2162 51.583 81.9007 46.2113 81.9007 38.2642C81.9007 29.1396 81.9007 17.2189 81.9007 8.75661C81.9007 3.53208 85.4443 0 90.8336 0C96.1491 0 99.6928 3.53208 99.6928 8.75661ZM132.007 9.12453C132.007 3.67924 135.699 0 141.162 0H153.491C162.719 0 168.92 6.18114 168.92 15.3792C168.92 24.8717 162.719 31.0528 153.491 31.0528C151.94 31.0528 150.612 31.0528 149.726 31.0528C149.726 35.1736 149.726 38.9264 149.726 42.7528C149.726 47.9774 146.182 51.5094 140.94 51.5094C135.551 51.5094 132.007 47.9774 132.007 42.7528C132.007 31.5679 132.007 20.3094 132.007 9.12453ZM151.202 17.6604H149.726V25.9019H151.202V17.6604ZM170.4 30.5377V20.9717C170.4 6.03397 179.185 0 188.856 0C198.675 0 207.387 6.03397 207.387 20.9717V30.5377C207.387 45.4755 199.414 51.5094 188.93 51.5094C178.447 51.5094 170.4 45.4755 170.4 30.5377ZM188.192 17.8076V33.7755H189.669V17.8076H188.192ZM227.651 43.1943C227.651 34.5849 227.651 23.9151 227.651 17.6604H226.174C226.174 25.4604 226.174 35.8359 226.174 43.1943C226.174 48.1981 222.63 51.5094 217.241 51.5094C211.926 51.5094 208.677 48.1981 208.973 43.1943C209.563 35.2472 210.449 23.2528 211.114 13.834C211.704 5.59246 218.053 0 227.06 0C235.845 0 242.047 5.51887 242.711 13.9076C243.376 23.2528 244.188 35.2472 244.778 43.1943C245.147 48.1981 241.899 51.5094 236.436 51.5094C231.194 51.5094 227.651 48.1981 227.651 43.1943ZM265.069 43.1943C265.069 34.5849 265.069 23.9151 265.069 17.6604H263.592C263.592 25.4604 263.592 35.8359 263.592 43.1943C263.592 48.1981 260.048 51.5094 254.659 51.5094C249.344 51.5094 246.095 48.1981 246.391 43.1943C246.981 35.2472 247.867 23.2528 248.532 13.834C249.122 5.59246 255.471 0 264.478 0C273.263 0 279.465 5.51887 280.129 13.9076C280.794 23.2528 281.606 35.2472 282.196 43.1943C282.565 48.1981 279.317 51.5094 273.854 51.5094C268.612 51.5094 265.069 48.1981 265.069 43.1943Z" fill="white"/>
</g>
<defs>
<clipPath id="clip0_185_85">
<rect width="283" height="52" fill="white"/>
</clipPath>
</defs>
</svg>
