<svg width="399" height="226" viewBox="0 0 399 226" fill="none" xmlns="http://www.w3.org/2000/svg">
<path d="M216.681 48.8744C218.26 50.3925 212.609 55.4298 212.855 55.7518C221.181 58.7266 227.959 66.3093 235.619 70.2425C237.505 71.2086 238.234 69.4758 238.157 71.4769C233.327 85.201 226.894 98.3424 222.017 112.036C217.838 123.751 210.946 142.244 212.096 154.182C212.226 155.531 212.77 158.69 213.552 159.618C216.451 163.037 270.874 166.234 278.978 170.045C281.715 171.471 279.123 176.876 281.217 178.916C282.919 180.572 290.885 180.48 293.599 182.243C296.007 183.807 297.402 189.197 300.6 189.795C321.072 189.925 341.329 189.036 361.494 192.118C361.762 193.445 361.164 193.675 360.183 194.25C359.47 194.671 351.503 197.83 350.79 197.945C349.172 198.221 347.984 197.485 346.757 197.662C344.971 197.907 334.374 199.318 333.922 199.785C332.634 201.135 334.413 201.073 335.011 201.372C339.596 203.719 347.8 202.653 348.482 208.188C347.739 209.193 329.92 212.451 327.313 212.697C323.847 213.019 317.974 212.106 315.275 212.766C314.34 212.988 314.386 215.142 313.65 215.886C312.737 216.806 304.733 217.504 302.869 217.427C300.485 217.328 296.291 215.656 294.635 216.017C293.201 216.323 288.731 219.152 286.247 219.911C279.584 221.943 267.638 223.53 260.745 223.369C256.122 223.262 249.42 221 245.426 221.176C243.309 221.268 241.301 222.856 239.062 223.3C227.285 225.654 205.954 226.329 194.139 224.228C189.891 223.469 184.348 220.594 180.246 220.433C176.742 220.302 172.325 221.79 168.783 221.981C156.883 222.648 134.057 221.307 122.993 217.22C115.587 214.483 112.451 212.566 120.141 206.678C116.568 206.831 112.919 206.264 109.369 207.008C107.697 207.36 102.261 210.565 101.019 211.685C100.321 212.313 99.9838 212.451 100.221 213.555C102.292 213.601 107.084 215.089 107.873 217.021C108.495 218.547 106.838 218.163 105.941 218.194C101.64 218.309 89.2419 216.078 85.1935 214.445C81.9426 213.134 82.786 209.96 82.5866 209.745C82.4256 209.569 79.0519 209.745 77.8175 209.522C71.8753 208.472 66.2169 206.494 60.3667 205.129C60.0983 203.788 60.7117 203.588 61.6854 203.005C66.7766 199.954 78.7989 201.786 80.2864 194.418C66.9606 193.598 52.6916 197.209 39.6878 193.261C38.5991 192.931 30.2647 189.258 29.935 188.837C29.4903 188.269 29.5133 186.813 28.9536 186C39.6265 188.538 53.6271 188.407 63.2189 182.358C63.817 181.982 65.3504 181.76 64.2003 180.641C63.8093 180.265 54.9688 177.788 53.7727 177.65C46.2511 176.776 36.9812 178.509 29.5593 180.089C25.6106 180.932 24.0695 183.7 19.7911 180.978C18.3956 180.089 11.7174 172.537 12.8598 171.448C26.9601 169.677 41.1983 168.872 55.2602 166.717C71.7373 164.195 87.9614 159.886 104.523 157.754L174.027 151.559C175.231 151.299 175.4 147.281 175.3 146.162C170.868 146.292 166.314 146.522 161.898 146.936C121.552 150.716 83.039 157.011 43.0231 162.148C33.3086 163.397 18.572 165.905 9.30984 166.004C5.80586 166.043 4.5944 162.316 3.96568 159.211C2.70057 152.932 17.2379 158.46 18.2193 153.438C18.6793 151.076 17.4679 146.461 18.5873 144.613C20.1514 142.029 29.6053 142.405 30.3873 141.477C31.7521 139.859 28.1638 132.001 30.6557 129.486C33.7687 126.35 51.5185 127.416 53.8647 123.966C56.0729 120.723 52.2853 109.866 52.615 105.933C52.8603 103.058 56.0423 101.24 57.1847 98.9404C59.3699 94.5318 57.8211 83.1615 57.2921 77.9863C66.8226 75.9928 61.1334 88.2525 62.1762 93.3281C63.4259 99.3697 70.3495 101.808 71.4996 105.511C72.5731 108.969 69.9892 119.082 71.5226 120.186C74.4592 122.302 76.1537 119.404 78.5153 118.729C79.604 118.415 82.4179 118.729 82.5789 118.576C83.5374 117.671 80.5394 99.3314 81.0378 96.3566L122.035 95.5899C125.202 96.1956 123.829 103.541 123.96 106.692C124.021 108.195 124.757 109.682 124.788 111.3C124.834 114.014 122.924 118.66 124.335 120.876C126.29 123.95 127.556 116.697 128.982 114.781C134.149 107.826 140.49 110.909 147.667 111.714C149.147 114.903 145.811 122.118 146.302 124.165C146.502 125.001 149.369 127.884 150.305 127.723C151.386 127.539 157.45 116.46 158.57 114.489C165.892 101.562 178.482 82.0498 183.611 69.0542C185.061 65.3816 186.31 64.3619 182.96 61.1341L188.319 60.352C187.683 58.5119 181.626 58.4122 180.368 58.7803C180.016 58.8799 177.562 64.0935 175.683 64.1779C173.291 64.2775 176.136 60.4517 175.982 59.3936C175.837 58.3969 172.685 54.4944 173.007 54.2414C179.992 51.9183 185.176 57.6532 191.417 59.961C197.98 62.3838 206.353 65.3126 212.993 67.4977C217.064 68.8395 222.539 69.0465 226.641 71.0859C227.024 69.4375 225.805 69.3455 224.862 68.6555C217.256 63.0892 208.998 58.5809 201.361 53.0836C201.185 52.4933 203.807 53.1833 202.12 51.1822C204.513 50.2315 206.652 52.8306 208.446 52.6006C210.539 52.3323 215.109 47.3716 216.681 48.8821V48.8744ZM194.882 73.041C195.841 71.8066 197.919 69.2918 197.466 67.7431C191.294 61.4254 188.649 67.4134 186.249 73.1943C184.14 78.2699 186.87 78.0246 190.251 81.0148L194.89 73.0333L194.882 73.041ZM204.781 69.6598C203.294 69.7978 195.948 94.5931 194.813 97.8593C189.868 112.028 181.488 131.027 178.72 145.341C177.646 150.908 179.824 154.642 182.239 148.102C184.884 140.948 186.479 131.909 189.063 124.288C192.843 113.132 197.374 101.156 201.53 90.7826C204.03 84.5416 206.368 78.1396 209.703 72.213L204.781 69.6598ZM228.182 75.6785C225.268 71.8909 218.529 85.0016 218.989 85.615C219.096 85.7607 222.263 86.9874 222.447 86.9721C223.988 86.8648 228.688 76.3302 228.182 75.6785ZM185.95 81.9041C184.041 80.3017 180.928 84.0816 180.943 86.0213C180.959 87.6008 186.034 92.6687 186.793 91.7563C186.855 89.4179 187.897 83.5372 185.95 81.9041ZM177.623 89.4639C173.176 96.1726 177.531 97.0313 181.825 101.7C187.016 97.0389 182.599 91.6567 177.623 89.4639ZM213.644 97.085C218.667 100.888 223.88 90.3303 218.421 89.5636C215.669 89.1802 213.828 94.6698 213.644 97.085ZM175.576 101.455C174.61 100.52 174.012 98.7103 172.624 97.9053C166.23 104.07 172.9 107.949 177.225 112.427C181.311 105.81 179.977 105.71 175.576 101.455ZM89.1039 120.868H118.983C119.068 120.868 120.134 119.802 120.134 119.718V102.099C120.134 101.892 119.229 99.4694 118.891 99.3697L85.6459 100.182C87.233 104.131 84.8101 119.626 89.0962 120.86L89.1039 120.868ZM215.147 101.724L209.78 103.564C208.377 106.615 201.883 115.141 208.032 116.145C210.255 116.513 215.745 102.283 215.147 101.716V101.724ZM175.86 116.475C175.545 116 174.319 115.816 173.782 115.141C171.727 112.549 169.826 109.989 167.257 107.857C166.95 107.857 163.96 112.664 163.906 112.963C163.784 113.738 172.525 123.391 173.383 125.445C174.809 123.03 177.6 119.143 175.852 116.475H175.86ZM67.2749 108.609H57.3074L59.5539 122.072C60.497 122.839 65.4041 121.857 65.6571 121.551C66.0712 121.045 66.9145 110.38 67.2749 108.601V108.609ZM170.7 137.72C171.045 134.577 173.077 132.461 172.08 129.08C171.911 128.497 165.9 119.779 165.233 119.074C164.689 118.499 164.581 117.571 163.454 117.817C162.327 118.062 158.953 124.28 159.321 125.691C159.659 127.01 169.066 135.788 170.707 137.72H170.7ZM204.306 126.894C206.061 125.867 209.788 116.713 203.386 117.74C202.711 117.847 199.705 124.004 199.935 125.001C200.196 126.143 203.324 127.469 204.313 126.894H204.306ZM127.019 128.512C127.418 121.888 121.989 124.671 118.255 124.732C112.505 124.824 106.263 124.28 100.613 124.709C97.4843 124.947 90.5223 125.047 92.9912 129.31L127.019 128.52V128.512ZM84.7871 127.101C84.2198 126.189 79.696 126.158 78.4002 126.235C71.768 126.603 61.3174 129.164 54.6852 130.881C49.8777 132.123 45.3617 134.232 40.4162 134.999C37.0119 142.39 45.3693 139.361 49.18 139.323C58.5188 139.215 71.1623 138.993 80.3401 136.609C81.6665 136.264 84.3501 135.451 84.7718 134.148C85.0631 133.258 85.1168 127.631 84.7871 127.101ZM192.935 146.147C194.553 148.201 201.43 134.37 201.783 133.143C202.496 130.621 201.959 129.287 199.322 128.635C197.827 128.267 198.379 129.041 197.949 130.061C197.045 132.192 192.199 145.203 192.943 146.147H192.935ZM165.938 142.144C168.583 139.415 161.361 132.76 158.938 131.648C155.388 135.328 150.32 138.234 150.021 143.839C150.55 144.567 165.348 142.75 165.938 142.137V142.144ZM147.613 135.52C145.29 134.056 133.567 137.038 130.101 136.187C131.328 138.265 130.285 143.34 131.198 144.659C132.509 146.538 144.063 143.57 146.962 144.613C145.911 142.382 149.545 136.739 147.613 135.52ZM117.864 146.89C122.61 145.602 127.387 148.293 127.042 141.96C126.612 134.025 122.702 135.827 116.384 137.023L117.856 146.89H117.864ZM113.248 136.946C111.124 136.877 103.212 136.808 102.077 138.433C101.356 139.468 102.315 146.614 101.747 148.447C103.886 148.508 111.746 148.6 112.903 146.959C113.984 145.418 112.827 139.2 113.248 136.954V136.946ZM97.8139 148.332C98.3353 147.488 98.4197 139.162 96.6638 138.587C94.3636 137.835 80.3554 139.139 79.627 141.263C78.8066 143.655 80.0027 148.723 79.5274 151.506C80.2251 152.173 85.2012 150.555 85.5846 149.857C86.1826 148.769 81.7509 143.363 89.8552 143.064C90.6296 144.138 90.0546 148.424 91.1204 149.091C91.9791 149.627 97.3616 149.045 97.7986 148.324L97.8139 148.332ZM74.8733 152.211C75.4253 149.152 75.6093 141.516 71.515 141.5C65.4884 141.477 68.8314 147.925 68.034 152.28L74.8733 152.219V152.211ZM62.6745 143.08C52.0936 141.707 57.3304 146.921 56.5406 153.806L64.1927 153.032C63.1883 149.65 62.1762 146.729 62.6669 143.072L62.6745 143.08ZM51.9479 154.573C51.7409 150.8 53.029 142.834 47.3475 143.846L48.1066 154.58H51.9479V154.573ZM28.9459 146.162C28.8309 146.062 27.3358 145.863 27.4201 146.53V153.806C31.9055 154.918 34.4817 152.142 32.0665 148.163C31.4761 147.189 30.349 147.918 29.5209 147.672C28.6162 147.404 29.0379 146.246 28.9382 146.162H28.9459ZM41.8117 148.608C41.39 147.879 36.8049 145.349 35.8542 146.154L36.6132 154.58H41.988C41.7043 152.978 42.5171 149.827 41.8117 148.615V148.608ZM174.457 158.49C173.859 157.984 168.975 158.03 168.468 159.664C168.116 160.798 169.688 168.266 169.941 170.282C170.654 176.109 167.84 180.02 176.841 179.084C176.642 173.564 176.105 168.504 176.834 162.999L175.315 166.825C175.423 165.391 175.208 159.127 174.457 158.49ZM140.828 159.924H134.694C132.884 164.547 140 174.86 132.355 173.395C126.705 172.314 119.727 167.883 113.425 167.024C104.454 165.797 86.3973 170.566 78.8143 175.688C78.2316 176.079 72.6574 180.825 73.4012 181.377L143.895 180.61C142.231 173.886 141.134 166.901 140.835 159.932L140.828 159.924ZM279.898 186.736C275.574 186.1 268.512 186.736 263.804 186.736C249.965 186.736 238.563 174.062 227.622 170.052C223.068 168.381 217.861 168.358 213.016 167.032C206.598 165.276 199.797 161.764 193.318 159.917C192.414 159.986 193.065 162.991 193.265 163.804C194.315 168.105 201.2 184.628 203.999 187.541C206.798 190.454 214.687 192.548 218.828 193.399C229.769 195.66 244.26 197.754 255.347 198.252C259.618 198.444 278.05 198.842 280.588 197.378C284.598 195.062 275.934 195.062 274.884 194.817C273.427 194.48 266.158 192.601 266.503 190.961C267.086 188.177 277.076 191.221 279.752 190.408C282.006 189.726 282.842 187.173 279.906 186.744L279.898 186.736ZM248.868 169.884L244.69 169.93L239.675 172.176C245.502 174.384 249.359 180.15 248.868 169.884ZM260.27 171.502C259.825 170.972 253.323 170.52 251.935 169.891C251.115 176.554 252.38 180.648 259.587 181.377C259.257 179.376 261.32 172.744 260.27 171.502ZM272.468 175.396C272.008 174.591 265.391 170.244 264.195 171.417C263.467 178.931 265.23 182.695 273.388 181.369C271.103 179.652 273.365 176.96 272.468 175.396ZM225.882 205.122H209.404C208.423 205.122 203.087 203.703 202.496 202.829C200.756 200.253 208.63 202.07 209.374 202.093C214.166 202.216 232.537 202.821 235.657 201.495C238.632 200.23 234.86 199.118 233.089 199.072C221.166 198.758 214.151 200.629 202.672 195.783C197.827 193.736 196.868 196.481 196.102 190.102C195.879 188.292 197.512 186.253 194.913 184.397C192.713 182.826 186.663 184.551 183.335 184.482C173.698 184.29 163.676 183.615 154.115 183.401C150.297 183.316 143.274 182.082 139.816 182.887C138.834 183.117 138.505 185.778 138.543 186.744C142.223 186.445 146.471 188.101 150.381 188.308L193.702 189.044C195.143 193.153 185.965 193.13 185.337 193.698C185.137 193.882 185.084 197.04 184.501 197.838L192.943 199.77C193.088 203.013 187.898 202.032 190.589 205.566C193.019 208.748 210.34 208.48 214.772 208.188C217.984 207.974 224.195 207.836 225.889 205.129L225.882 205.122ZM93.3209 193.636C93.7809 193.951 102.69 193.636 104.431 193.636C104.607 193.636 105.696 194.48 105.205 195.17C103.419 197.715 90.898 198.313 90.2463 199.003C87.578 201.809 96.6638 202.875 98.297 202.875C107.321 202.875 117.948 200.736 127.172 200.452C126.95 199.433 131.382 198.888 130.086 197.478C129.25 196.565 114.743 196.22 112.466 195.162C114.973 191.114 120.08 191.75 124.335 190.57C125.378 190.278 126.72 190.615 127.019 189.051C119.681 189.366 112.497 187.978 105.144 188.239C103.304 188.308 92.2321 189.32 91.7721 189.818C90.4763 191.198 93.3132 191.566 93.6582 192.065C94.0186 192.594 93.2365 193.59 93.3055 193.636H93.3209ZM149.177 197.539C148.579 196.795 139.087 195.821 137.385 195.936C135.683 196.051 132.164 196.335 133.168 198.605C134.172 200.874 148.012 202.3 149.139 200.422C149.408 199.977 149.415 197.846 149.17 197.539H149.177ZM297.142 199.77C297.172 202.346 299.963 203.358 302.103 203.611C304.878 203.933 320.734 203.918 322.099 202.89C328.662 197.938 312.308 199.065 310.514 199.034C309.095 199.011 307.7 198.29 306.626 198.306C305.353 198.329 297.41 199.379 297.134 199.77H297.142ZM152.321 206.663C147.314 207.046 129.641 201.142 135.292 211.255C137.738 211.148 150.91 212.697 151.547 212.014C151.731 211.815 151.677 207.698 152.321 206.663ZM181.817 205.122C176.964 204.769 171.443 205.122 166.49 205.122C166.076 205.122 164.895 206.831 165.348 207.422L183.727 206.655C184.171 204.8 183.105 205.221 181.817 205.129V205.122ZM217.447 214.314C213.637 215.725 210.823 211.432 207.909 211.355C205.732 211.294 199.514 211.777 197.206 212.076C196.14 212.214 189.868 213.977 189.876 214.69C193.157 218.907 197.037 216.622 200.94 216.576C205.111 216.523 211.827 217.282 215.523 216.607C216.834 216.369 217.677 215.786 217.44 214.314H217.447ZM264.954 212.022C257.103 211.255 247.91 210.611 240.02 211.217C239.207 211.278 236.593 211.301 236.623 212.398C236.754 217.159 262.539 219.053 264.962 212.022H264.954Z" fill="#1C1C1C"/>
<path d="M307.229 58.0784C307.091 58.186 305.091 58.1091 303.903 58.9549C302.009 60.3004 291.584 67.7737 291.914 69.1961C292.964 73.7324 299.441 66.8741 301.657 69.8343C313.423 87.6411 323.641 106.578 336.359 123.739C342.361 131.835 353.353 142.369 358.152 150.28C359.057 151.772 359.355 154.809 360.045 155.293C361.096 156.039 382.237 156.17 385.748 156.408C387.948 156.554 391.29 156.87 393.437 157.162C394.571 157.315 394.679 156.731 394.571 158.315C394.518 159.145 393.69 164.051 393.398 164.089C360.199 160.014 326.999 154.302 293.439 154.863L294.589 159.461L389.236 169.825C391.651 170.102 390.792 172.055 390.133 173.854C388.293 178.859 383.625 185.517 378.014 186.279C369.474 187.44 355.063 185.217 345.941 184.779C336.221 184.31 312.687 185.079 304.723 180.789C302.193 179.428 300.491 176.168 297.709 174.761C294.926 173.354 288.556 172.385 287.238 169.094C286.578 167.464 287.36 160.968 286.318 156.993C285.275 153.018 281.35 148.289 280.76 145.652C277.111 129.329 270.534 116.197 264.517 100.504C263.099 96.7983 253.294 72.4176 253.685 70.8876C254.245 68.681 267.169 62.6761 269.921 60.9846C273.685 58.6704 284.539 50.3282 287.874 49.7516C291.208 49.1749 292.098 50.9971 290.035 53.5036C287.92 56.0793 273.447 62.5224 272.796 64.6906C272.274 66.4128 275.846 69.6267 277.326 70.0419C279.733 70.7262 283.819 68.3734 286.019 67.1432C292.205 63.6603 304.899 51.543 310.265 49.9746C311.292 49.6747 312.273 49.4748 313.347 49.6132C314.45 54.0495 311.131 54.0572 307.996 56.1869C307.114 56.7867 307.298 58.0015 307.222 58.063C308.594 58.7626 313.477 59.9852 312.58 62.2764C311.246 65.6671 305.98 60.9847 307.222 58.063L307.229 58.0784ZM286.095 105.402C281.128 96.0371 277.035 86.1495 272.144 76.7463C270.519 73.6247 267.667 70.6416 267.384 66.5205C265.23 67.643 261.075 69.0654 261.381 72.0794C261.496 73.1635 269.062 91.2471 269.791 92.1544C271.025 93.6921 274.198 94.2226 274.298 96.114C274.321 96.5676 272.566 95.8065 272.78 98.2899C273.148 102.557 276.59 104.233 276.621 104.618C276.667 105.333 275.731 106.678 275.862 108.285C275.938 109.231 277.816 115.397 278.138 115.689C279.626 117.042 279.679 113.452 281.58 113.321C283.221 113.206 284.248 114.805 285.781 114.936C285.352 117.081 280.676 116.374 280.369 117.727C279.687 120.756 282.722 124.216 282.722 127.222C286.578 127.722 290.212 123.57 292.657 126.83L285.007 129.529C284.624 129.952 287.46 136.579 288.157 137.494C290.311 140.316 294.964 136.964 298.031 137.202L291.216 142.315C290.779 143.491 293.907 150.68 294.297 150.934C294.926 151.341 299.74 150.15 301.496 150.196C305.114 150.288 308.793 151.641 312.588 151.019C307.643 141.216 301.871 131.843 296.367 122.355C293.033 116.612 289.116 111.115 286.088 105.41L286.095 105.402ZM300.185 75.1471C295.961 72.6791 299.288 80.3523 301.45 81.9362C302.438 82.6589 304.063 82.5666 304.163 82.6743C304.286 82.805 303.481 84.6041 303.949 86.2495C304.362 87.718 307.574 93.1231 308.602 94.7223C310.311 97.3903 312.097 96.706 311.683 93.9689C311.438 92.3466 301.135 75.7084 300.177 75.1471H300.185ZM321.978 146.99C329.122 149.227 324.814 142.061 323.205 138.455C314.059 117.973 299.311 98.6666 290.012 78.0304C289.468 77.1846 289.108 75.5008 287.705 75.7545C285.911 76.0697 287.184 77.5613 287.444 78.2994C292.542 92.8925 303.427 108.631 310.587 122.701C314.627 130.644 317.708 139.155 321.986 146.997L321.978 146.99ZM313.753 97.3058C313.515 97.2827 311.177 98.7051 311.146 99.1587C311.123 99.4893 314.067 104.518 314.519 104.925C316.221 106.424 318.59 104.91 318.605 103.795C318.605 103.387 314.159 97.3442 313.753 97.3134V97.3058ZM321.005 106.471C320.552 106.132 317.172 108.116 317.149 108.462C317.095 109.108 319.625 115.459 320.177 115.958C321.763 117.396 324.569 115.958 326.378 115.682C324.063 112.96 321.771 110.107 321.005 106.478V106.471ZM325.075 119.757C323.097 122.002 328.762 131.943 331.391 125.646C332.104 123.939 328.563 119.741 327.528 118.004C326.991 118.872 325.604 119.157 325.075 119.757ZM335.469 129.621C334.159 128.86 331.276 131.128 331.2 132.189C331.146 132.904 334.734 140.247 335.263 140.324C336.481 140.385 339.908 138.348 340.115 137.494C340.237 136.971 335.868 129.844 335.469 129.613V129.621ZM353.959 154.855L343.242 139.832C335.615 143.068 338.674 144.337 340.943 150.242L342.077 148.712C345.35 152.795 348.624 154.663 353.951 154.847L353.959 154.855ZM318.59 177.006C319.333 175.807 318.812 169.248 317.195 168.295C315.156 167.088 309.092 168.387 306.455 167.918C305.114 172.662 310.234 178.167 314.634 178.498C315.255 178.544 318.437 177.252 318.582 177.006H318.59ZM337.148 176.329C337.784 176.998 354.626 177.936 355.461 177.552C356.113 177.252 357.109 176.106 356.979 175.307C356.443 172.008 340.421 172.17 337.102 171.762C337.279 172.777 336.788 175.96 337.148 176.337V176.329ZM378.473 175.607C374.901 174.007 370.693 171.701 367.006 174.461C360.429 179.39 376.848 182.373 378.473 175.607Z" fill="#1C1C1C"/>
<path d="M375.647 102.381C376.604 102.919 378.832 102.335 380.287 102.719C386.856 104.442 391.389 108.302 389.697 115.654C388.969 118.807 386.205 120.368 385.44 123.275C394.199 125.136 398.839 132.479 398.471 141.3C398.402 142.915 397.047 148.836 395.661 149.297C393.693 149.959 379.705 149.597 376.642 149.397C367.431 148.79 365.877 148.367 359.79 141.73C351.957 133.187 342.103 121.644 334.914 112.716C326.576 102.358 331.101 105.411 338.934 103.104C346.215 100.958 342.854 92.7762 351.199 90.0693C355.296 88.7389 364.614 89.5695 368.557 91.4381C372.5 93.3068 374.123 101.535 375.632 102.381H375.647ZM351.965 105.803C347.387 109.779 354.913 118.745 360.211 112.17C364.729 106.564 355.173 103.019 351.965 105.803ZM375.287 128.073C369.3 128.642 370.915 134.733 375.126 135.563C384.276 137.355 383.288 127.312 375.287 128.073Z" fill="#1C1C1C"/>
<path d="M64.0403 33.5496C65.0672 34.7539 65.2052 37.8063 65.9179 38.4729C66.0405 38.5865 66.8681 38.1396 67.2973 38.3744C68.2628 38.897 68.6 39.859 70.0177 40.1392C76.8305 41.4723 80.9534 38.0487 86.4787 45.8124C91.138 52.3566 85.697 55.4772 87.337 60.0975C88.157 62.4001 92.5174 59.4537 91.069 65.1193L15.3626 65.0057C12.282 57.0073 18.7116 46.1229 27.1796 44.752C28.7046 44.502 31.9998 45.0625 32.7585 44.5854C33.5631 44.0779 34.6284 35.4734 38.7206 32.6937C43.6175 29.3685 60.0784 28.8989 64.0403 33.5572V33.5496ZM42.8281 46.9561C49.0661 47.8575 50.7291 40.0332 44.8206 40.1619C40.2302 40.2604 42.5369 43.881 42.8281 46.9561ZM41.0043 52.5611C34.9809 49.6753 34.797 57.3481 39.441 57.4996C44.0849 57.651 43.8397 53.9169 41.0043 52.5611Z" fill="#1C1C1C"/>
<path d="M247.842 37.8975H127.403C126.85 35.5575 129.284 36.5013 130.75 35.4639C132.584 34.1691 133.628 32.3049 135.793 31.2285C138.081 30.0975 142.057 30.0352 143.293 29.0992C145.488 27.4378 145.173 23.7874 150.631 22.1416C157.402 20.098 162.337 24.7702 165.239 23.7718C166.268 23.4208 168.34 19.357 169.576 18.0154C178.734 8.04707 189.442 7.35288 200.81 14.3728C202.76 15.574 207.166 20.215 208.479 20.605C210.835 21.3148 213.376 20.215 216.186 21.3538C218.251 22.1884 221.083 25.9714 223.24 26.65C225.98 27.508 229.151 26.6812 232.014 27.0946C239.498 28.1632 244.749 30.5265 247.835 37.9053L247.842 37.8975Z" fill="#1C1C1C"/>
<path d="M47.4656 121.11C45.5692 122.239 32.119 121.484 28.4945 123.91C26.2694 125.405 25.3136 132.697 23.0961 134.528C20.8786 136.358 16.0384 136.053 13.5762 139.516C10.357 144.055 14.0885 149.066 5.17262 148.685C1.60934 148.532 0.538843 146.221 0.17181 142.956C-0.975169 132.727 3.71215 128.464 11.4963 123.139C1.99933 112.155 4.28564 97.6474 21.5821 100.645C14.7461 82.3004 42.2583 78.0822 48.9567 91.263C53.0858 99.3942 47.8632 101.477 47.6262 108.776C47.5497 111.118 49.4613 119.92 47.458 121.118L47.4656 121.11ZM42.9159 103.62C45.0417 100.607 38.2592 96.549 36.9822 101.187C35.7052 105.824 41.9907 104.94 42.9159 103.62ZM35.1547 108.448C32.1802 105.451 27.8293 109.608 29.328 113.498C33.4877 116.473 38.6415 111.965 35.1547 108.448Z" fill="#1C1C1C"/>
<path d="M251.47 121.107C251.833 121.672 251.616 122.252 251.678 122.863C244.631 127.968 253.533 127.586 255.936 129.326C256.222 129.532 260.418 134.393 260.558 134.721C261.191 136.224 258.85 140.642 260.867 141.993C261.724 142.573 266.809 142.466 269.329 143.557C274.537 145.801 270.982 148.899 274.437 152.233C274.468 148.136 278.254 150.013 279.723 152.317C281.631 155.301 282.08 158.681 281.77 162.153C280.75 163.16 256.701 159.07 253.208 158.704C248.989 154.782 252.366 151.386 252.25 147.449C252.25 147.227 251.423 143.221 251.276 143.053C249.808 141.466 245.944 143.069 243.587 143.122C238.046 143.252 232.374 143.351 226.949 142.329C226.926 143.412 227.135 145.732 228.278 146.136C228.634 146.266 234.731 147.609 235.141 147.64C236.98 147.769 238.626 146.861 240.458 146.831C246.763 146.731 248.108 153.256 248.564 158.323L219.33 154.408C218.472 153.561 218.441 141.901 219.407 140.978C223.031 138.979 236.362 140.841 238.185 136.979C238.734 135.827 237.32 134.385 238.085 133.164C238.85 131.943 243.61 130.882 245.102 127.029C246.246 124.083 242.822 124.03 243.124 121.39C243.162 121.024 244.886 121.054 245.303 118.925C246.222 114.24 244.182 109.31 247.034 104.968C251.833 107.96 247.683 115.56 249.491 119.703C250.001 120.871 251.307 120.84 251.477 121.107H251.47ZM264.769 153.752C266.284 152.287 261.701 149.089 260.913 149.944C259.29 151.73 263.162 155.308 264.769 153.752Z" fill="#1C1C1C"/>
<path d="M367.922 54.7605C368.365 55.4743 375.474 56.5062 377.413 58.6785C379.353 60.8508 379.46 65.2111 380.025 68.0351L322.376 67.3058L319.765 66.111C321.468 63.8999 320.826 60.6957 322.109 58.4302C322.308 58.0733 327.385 52.7356 327.721 52.5029C330.737 50.4236 336.83 51.0055 340.182 49.6788C340.923 49.384 341.061 48.3676 341.397 48.1892C348.551 44.4342 356.118 38.2585 364.013 44.3798C369.648 48.7478 366.662 52.7356 367.915 54.7605H367.922ZM346.207 50.3382C343.107 50.5788 342.427 53.9536 345.306 55.6217L348.727 52.146C347.994 51.4632 347.413 50.2374 346.207 50.3305V50.3382ZM360.951 50.2141C360.111 50.1598 359.279 50.1908 358.454 50.3848C350.635 52.2158 362.165 61.5646 360.951 50.2141Z" fill="#1C1C1C"/>
<path d="M110.454 76.2994C117.666 77.9606 119.658 82.5233 123.21 87.752C124.253 89.2831 128.145 91.4496 125.372 92.2841C119.241 91.7099 75.9536 94.7721 74.1621 92.3759C71.7993 89.2066 84.3702 89.0917 84.8876 88.4869C85.6907 87.5376 83.6985 83.4572 85.3818 80.9615C87.0651 78.4658 93.7444 76.0161 94.6864 74.8142C95.003 74.4084 94.393 65.2984 94.2077 64.5941C94.0455 63.9663 92.6478 64.0658 92.6324 63.6678C92.5552 61.6008 97.6052 56.2725 95.7597 52.5979C98.4314 53.0648 107.064 51.6409 108.501 53.3634C109.018 53.9835 111.844 61.0266 111.983 62.1443C112.57 66.906 112.006 71.8362 110.446 76.284L110.454 76.2994ZM103.126 64.441C96.3852 63.9357 98.2538 74.8142 100.941 75.4496C107.458 76.9807 107.52 64.7702 103.126 64.441ZM100.408 88.5635C101.729 83.0362 92.1383 83.0362 93.4587 88.5635H100.408Z" fill="#1C1C1C"/>
<path d="M323.653 38.8772L263.393 36.942C265.622 34.8429 267.95 31.5031 270.996 30.6759C274.729 29.6615 278.63 32.1351 281.958 30.9646C283.294 30.4964 286.378 24.4254 290.294 23.1223C293.607 22.0142 300.698 22.0064 303.76 23.7543C306.05 25.0653 308.256 29.8019 309.698 30.2155C311.141 30.6291 313.179 29.4664 314.897 29.4508C319.599 29.4118 321.897 35.2174 323.653 38.8772Z" fill="#1C1C1C"/>
<path d="M159.242 66.0834H117.464C117.905 63.8993 118.582 61.6839 118.285 59.3903C118.072 57.7385 116.271 58.7797 116.696 56.392C117.806 50.1686 126.046 47.3974 131.329 49.0805C134.902 50.2156 137.829 54.8656 138.467 55.0613C140.102 55.5466 146.099 53.4016 150.09 54.7872C152.226 55.5309 160.664 64.7839 159.235 66.0913L159.242 66.0834Z" fill="#1C1C1C"/>
<path d="M102.822 0L105.94 47.8321L98.165 48.5965L100.498 0H102.822Z" fill="#1C1C1C"/>
<path d="M204.008 170.983C207.255 167.619 214.765 174.609 208.473 177.514C204.484 179.35 201.611 173.469 204.008 170.983Z" fill="#1C1C1C"/>
<path d="M230.626 180.07C233.975 179.107 237.26 180.859 235.839 184.197C233.007 190.836 224.373 181.866 230.626 180.07Z" fill="#1C1C1C"/>
<path d="M222.425 173.985C223.049 178.317 221.736 180.526 217.594 181.751C213.818 176.826 216.128 173.782 222.425 173.985Z" fill="#1C1C1C"/>
<path d="M108.116 104.905C108.444 103.56 113.562 103.728 114.473 105.279C115.085 106.318 114.241 116.089 113.771 116.784C112.807 118.22 108.123 117.571 108.123 116.356C108.123 113.529 107.585 107.097 108.123 104.905H108.116Z" fill="#1C1C1C"/>
<path d="M97.6168 105.119C98.0236 105.512 99.2599 115.653 99.1269 116.194C98.7513 117.76 93.1726 117.845 92.2963 117.297C90.8018 116.379 91.5999 107.218 91.3964 105.065C92.6249 105.288 97.2099 104.717 97.6168 105.111V105.119Z" fill="#1C1C1C"/>
<path d="M79.6983 131.468C69.7607 133.155 59.769 135.492 49.5841 135.042C49.3909 133.984 51.0292 134.148 51.8869 133.977C57.5667 132.805 64.4132 131.476 70.147 130.861C72.6507 130.589 78.5546 129.31 79.6983 131.476V131.468Z" fill="#1C1C1C"/>
</svg>
