<svg width="376" height="259" viewBox="0 0 376 259" fill="none" xmlns="http://www.w3.org/2000/svg">
<path d="M309.775 145.407C329.146 153.12 347.467 159.067 355.372 180.333C356.273 182.766 357.879 191.3 358.762 192.362C360.287 194.196 374.045 197.494 375.311 200.538C379.121 209.708 366.178 230.042 359.99 236.798C355.304 241.917 343.818 251.364 336.871 251.933C331.03 252.408 321.755 246.066 317.383 242.355C313.956 239.447 314.431 237.224 309.362 236.798C307.139 236.612 304.848 237.014 302.637 236.736C293.56 235.6 282.037 227.992 274.281 223.256L252.91 239.268C252.533 239.799 259.363 248.32 260.289 249.327C261.03 250.136 263.03 249.642 262.777 252.822C257.479 252.914 252.292 254.149 247.037 254.674C200.614 259.287 149.719 260.318 103.258 255.909C99.6768 255.57 96.0768 254.68 92.4521 254.674C91.4208 253.711 100.331 239.552 98.9667 237.403C98.5159 236.693 90.9392 233.074 89.414 232.111C59.4775 213.24 39.7916 182.791 33.3758 148.094C27.2872 115.162 37.6612 69.8625 62.8182 46.4654C88.0308 23.0436 115.053 8.82869 149.633 4.91373C157.283 4.04923 167.861 4.80876 174.82 3.56758C176.556 3.25883 179.199 1.25195 181.199 0.690026C186.93 -0.915476 193.852 0.3257 198.576 3.94425C201.169 5.93261 200.57 7.81598 202.021 9.75494C203.645 11.9347 214.439 13.7934 217.873 14.8864C267.921 30.8117 299.747 67.3492 307.663 119.448C308.966 128.043 309.596 136.713 309.775 145.401V145.407ZM180.711 44.934C181.687 40.2101 185.769 37.5239 188.381 33.7757C193.302 26.6992 205.115 8.65579 191.345 4.39503C181.78 1.4372 173.394 7.55046 173.326 17.486C173.295 21.4134 177.519 40.8523 179.347 44.1497C179.736 44.8475 179.304 45.1995 180.711 44.934ZM160.97 8.53846C160.093 7.65543 137.653 10.3601 136.288 11.311C135.578 11.805 135.424 13.2191 135.671 13.4661C136.542 14.3183 156.907 10.1563 159.951 10.9097C161.106 10.5021 161.075 9.64996 160.97 8.53846ZM114.25 23.7722C116.485 25.6741 122.74 23.1362 121.197 18.3752C119.881 14.3121 113.719 15.0037 112.508 17.8195C111.94 19.1348 113.212 22.8892 114.25 23.7722ZM169.615 17.7886C152.072 17.1649 134.615 21.3639 118.591 28.1688C99.8559 36.1222 86.4129 44.9525 73.6986 61.0198C42.311 100.713 42.7803 149.705 71.6052 190.714C104.821 237.971 175.148 253.501 225.999 226.226C229.63 224.281 233.73 222.441 232.551 217.661C229.278 217.34 226.845 220.076 224.146 221.286C198.502 232.815 173.153 236.02 145.39 230.456C69.1908 215.197 30.2451 133.014 75.9216 66.9417C95.1629 39.1109 129.447 24.8467 162.514 22.1111C166.688 21.7653 170.523 23.8895 169.609 17.7824L169.615 17.7886ZM284.396 151.657C284.896 152.169 290.133 149.847 290.466 148.785C298.037 112.945 282.753 73.0982 256.016 48.9354C240.078 34.5352 222.177 24.8837 201.095 20.2586C200.786 21.6789 199.687 24.4823 201.077 25.5197C201.818 26.0755 210.376 28.3047 212.352 29.0518C253.737 44.6252 290.065 85.5593 286.891 132.255C286.699 135.108 283.42 150.65 284.402 151.663L284.396 151.657ZM104.197 22.1111C103.493 21.3454 89.1237 30.5771 87.58 31.7133C86.7834 32.2999 83.0352 35.1157 83.2204 35.9802C83.6589 38.0179 87.191 35.2701 88.0987 34.702C90.6366 33.1088 102.437 25.5877 103.499 24.0686C103.771 23.6858 104.969 22.9509 104.191 22.1111H104.197ZM161.594 26.4213C144.674 27.4093 126.76 32.5839 111.811 40.5065C99.6768 46.9408 85.4867 57.0925 80.806 70.4367C94.99 79.8907 109.057 89.3446 122.691 99.5766C126.575 102.491 130.935 107.629 135.844 109.234C140.753 110.84 153.628 109.438 158.333 106.752C163.915 103.559 163.051 92.1913 164.095 86.6029L161.606 26.4275L161.594 26.4213ZM200.471 40.6053C202.188 41.2228 204.948 41.3092 206.35 42.4393C208.122 43.8719 207.375 46.7 209.413 48.0029C210.45 48.0029 210.66 43.5199 211.302 42.501C212.278 40.9634 216.489 40.4138 216.496 39.6852C212.951 38.1847 210.753 35.9925 208.178 33.22L206.48 37.9932L200.471 40.6053ZM261.456 44.8413C264.148 40.488 251.86 35.196 254.28 43.2667C255.12 46.0763 260.221 46.842 261.456 44.8413ZM69.796 51.5659C69.9318 51.7079 73.0008 53.4122 73.1922 53.4616C76.113 54.2335 78.8115 48.8674 77.6074 46.5827C73.9641 39.6914 66.1033 47.7312 69.8021 51.5659H69.796ZM214.31 60.0689C216.255 61.9276 218.737 63.2182 220.522 65.2806C223.449 63.3602 228.098 53.9865 226.104 51.0719C224.603 48.8736 218.824 54.4558 217.07 55.6723C216.224 56.2589 212.964 57.7162 212.809 57.9015C212.173 58.6425 213.834 59.6181 214.31 60.0751V60.0689ZM196.736 52.3687L175.438 56.0057C174.289 62.3845 176.692 68.5101 178.248 74.5431C165.719 73.6416 170.745 88.017 179.038 86.1521C179.779 85.9854 184.182 83.3363 184.361 82.7744C184.867 81.1689 182.027 69.8378 181.953 67.1516C184.268 67.1825 196.427 64.8731 197.384 65.9105C197.767 66.3242 196.328 69.4302 199.224 69.6155L196.736 52.3748V52.3687ZM50.4435 81.2615L64.5781 56.9567C64.5657 56.722 63.269 55.4315 63.164 55.4315C61.9661 55.4129 50.6658 72.7215 49.5728 75.1483C48.7639 76.9452 47.0164 83.4475 50.4435 81.2615ZM282.531 67.7568C283.562 66.4415 277.61 57.8274 275.133 57.8891C274.51 58.5375 281.852 68.6275 282.531 67.7568ZM282.537 128.828C282.537 102.88 270.768 77.7788 252.49 59.8034L195.538 108.166C199.595 110.247 210.419 107.048 205.924 114.23C204.405 116.663 199.459 121.695 198.625 123.591C198.119 124.74 202.083 125.172 202.664 125.16C204.788 125.11 209.116 118.54 210.598 116.434C214.927 110.284 218.49 103.43 223.035 97.4092C223.98 96.1618 228.796 89.3199 230.087 90.5858C230.019 91.864 229.457 92.5865 230.142 93.8647C231.359 96.1433 236.892 103.535 238.75 105.677C240.356 107.53 242.597 108.716 243.987 110.932C245.154 111.216 245.067 109.759 246.099 108.753C252.496 102.497 252.181 110.543 253.861 110.939C255.126 111.223 255.071 109.457 255.522 109.179C255.861 108.969 256.683 109.586 257.251 109.358C258.121 109.006 259.146 107.073 260.548 107.339C262.469 107.629 264.241 113.896 265.568 113.402C265.933 113.267 266.945 112.161 267.05 111.735C267.6 109.586 258.152 96.8658 255.701 94.9021C253.305 98.0267 250.372 101.299 247.383 103.856C246.778 104.368 243.53 107.061 243.054 106.616C244.79 103.282 247.445 100.528 250.137 97.9587C251.656 96.5138 255.596 92.6297 257.417 93.1361C259.239 93.6424 263.623 100.46 264.908 102.349C269.996 109.839 274.467 119.472 279.555 126.592C279.728 126.833 282.08 129.427 282.537 128.821V128.828ZM208.314 61.6744C206.653 62.1313 206.437 64.0271 206.745 65.4597C206.85 65.9537 210.938 74.1603 211.259 74.5493C213.439 77.1737 221.034 73.3328 219.293 69.6216C218.453 67.8309 210.234 61.1495 208.314 61.6744ZM200.299 81.1751C201.781 79.8968 199.681 73.586 198.638 72.9561C198.255 72.7277 190.295 74.8704 190.054 75.2471C189.745 75.7225 189.869 78.915 190.091 79.6745C190.993 82.7435 198.076 83.0955 200.299 81.1812V81.1751ZM83.8379 91.8208C84.7148 92.6791 94.1132 88.5295 94.9283 86.5782C95.0085 84.2996 83.6342 87.6897 83.2143 88.1281C83.0105 88.3381 84.1529 90.9872 83.8379 91.827V91.8208ZM74.1308 101.868C75.4152 100.842 80.8307 99.8483 81.3124 98.1996C81.6273 97.1189 78.5398 91.9072 78.8856 89.9621C71.7596 92.3457 64.1767 97.8044 69.3452 106.005C71.704 105.795 73.0317 102.738 74.1308 101.861V101.868ZM171.406 90.629C170.881 90.2523 168.75 90.9501 168.331 91.617C166.83 93.982 166.361 101.417 164.181 105.208C159.445 113.439 146.341 112.254 138.141 112.797C138.061 114.557 138.493 116.391 139.648 117.768L154.82 129.266L153.578 151.65C154.06 152.206 161.044 147.396 162.063 146.877C163.613 146.081 171.344 142.493 172.431 142.419C176.08 142.172 184.151 148.538 188.708 149.539C191.802 150.218 192.784 149.884 192.314 146.568C191.796 142.9 187.702 134.052 188.226 131.137C188.412 130.093 192.345 125.654 193.364 124.505C196.464 121.01 200.694 118.349 202.293 113.705C196.662 109.889 184.441 113.316 179.52 108.746C178.458 107.758 174.95 100.917 174.252 99.2061C173.623 97.6623 172.307 91.265 171.412 90.6228L171.406 90.629ZM49.1282 92.5803C48.5169 91.9628 46.7755 91.7652 45.8802 91.7652C39.5631 91.7652 39.0568 102.324 47.0719 99.7865C49.9125 98.885 50.9684 94.4266 49.1282 92.5803ZM292.856 92.5618C288.478 93.8709 291.232 102.405 296.283 100.966C301.069 99.6013 298.469 90.8884 292.856 92.5618ZM241.189 118.342C239.405 109.401 233.854 102.071 228.543 94.9145L215.279 114.02C219.744 114.897 220.596 112.661 222.992 109.722C224.208 109.716 225.147 114.687 226.382 113.415C226.586 113.205 227.178 108.067 229.124 108.499C229.445 108.574 233.421 112.155 234.113 112.779C236.361 114.817 237.762 117.953 241.196 118.342H241.189ZM107.254 99.8545C102.172 101.188 73.0749 105.313 70.8581 107.561C70.3208 108.11 70.4382 109.191 70.08 109.537C68.7586 110.821 67.4062 108.839 67.8447 113.649C68.3695 119.386 71.5064 123.863 73.6368 128.84C74.2605 130.297 76.5453 138.109 76.996 138.436C78.793 139.745 89.7227 134.749 92.2051 133.78C90.6613 127.71 87.2342 126.87 91.0936 120.368C93.6562 116.058 97.5959 122.566 99.1458 124.925C100.832 127.488 102.474 130.853 103.629 133.718L116.275 130.093L116.43 128.667C113.496 118.985 111.422 109.061 107.247 99.8421L107.254 99.8545ZM122.327 107.011C121.339 105.721 121.252 103.664 119.628 102.923C119.437 106.443 120.69 109.216 117.486 111.587C116.64 112.211 115.238 111.766 115.306 112.785C119.838 112.983 120.53 118.454 124.556 118.342C124.568 116.904 124.371 115.125 125.143 113.835C125.871 112.618 129.162 112.402 128.878 110.327C126.322 110.531 123.796 108.932 122.327 107.011ZM262.802 120.812C260.066 109.444 255.522 116.144 249.513 120.183C248.136 121.949 250.934 121.609 252.298 120.812C253.589 123.641 244.58 128.019 246.136 129.445C248.637 129.538 252.379 128.488 252.916 131.915C249.569 130.483 243.406 135.268 248.309 136.219C250.254 136.596 252.934 136.052 255.071 136.244C258.158 136.515 268.724 138.368 270.836 137.182C271.762 136.664 271.151 136.343 270.99 135.768C270.107 132.588 267.359 132.977 265.266 130.995L267.723 127.92C267.47 126.845 262.759 126.135 261.555 125.746C263.185 123.357 266.118 123.326 265.253 119.59L262.796 120.819L262.802 120.812ZM243.048 135.614C243.555 135.219 240.189 130.217 240.078 129.618C239.893 128.649 240.695 127.728 240.486 126.796C240.368 126.277 236.873 121.035 236.101 120.664C232.668 119.009 234.008 121.609 233.143 123.406C232.279 125.203 227.926 126.95 233.786 127.908C231.871 130.118 225.956 129.976 227.685 133.712C232.853 133.706 237.972 134.7 243.042 135.614H243.048ZM74.5754 139.313C72.9329 136.145 71.8029 131.149 69.901 128.266C69.3946 127.5 68.8635 126.784 67.7953 126.987C67.5359 132.551 66.8999 140.091 74.5816 139.319L74.5754 139.313ZM193.457 130.149C192.16 130.581 192.08 132.835 192.722 133.792C193.099 134.354 197.952 135.713 199.094 136.052C214.038 140.486 231.964 143.036 247.488 146.896C255.139 148.798 265.896 153.102 273.133 154.003C275.597 154.312 279.289 153.682 277.758 150.576C276.751 148.532 271.422 147.526 269.094 146.896C254.182 142.839 237.941 139.103 222.819 135.787C215.18 134.113 204.226 131.137 196.909 130.229C195.822 130.093 194.5 129.803 193.451 130.155L193.457 130.149ZM150.491 156.597C148.256 151.91 152.547 134.249 149.571 131.285C149.027 130.748 148.478 130.575 147.725 130.637L65.3067 155.059C69.9442 168.372 77.2245 181.791 86.5982 192.381C97.8429 205.083 114.701 215.383 130.577 221.212C132.503 221.922 141.562 225.127 142.815 225.04C144.828 224.898 145.409 220.526 145.86 218.909C148.793 208.349 150.213 196.895 153.393 186.342C154.523 175.764 157.79 165.55 159.087 155.01C159.241 153.731 158.586 153.978 157.611 154.157C155.449 154.553 153.01 156.615 150.491 156.603V156.597ZM298.055 131.39C296.499 132.354 296.548 140.961 302.273 138.387C307.151 136.188 302.229 128.803 298.055 131.39ZM43.4966 142.561C38.2417 143.141 39.1371 152.626 44.6019 152.268C50.0668 151.91 48.9491 141.956 43.4966 142.561ZM349.19 210.875C348.443 210.183 352.105 205.379 352.568 204.076C356.415 193.233 349.586 173.726 341.502 165.816C336.173 160.604 311.751 148.927 304.403 148.001C302.205 147.723 299.235 147.606 297.382 148.896L294.27 152.256C300.815 153.565 308.787 157.69 313.98 161.858C314.703 162.438 315.469 162.87 315.246 163.976C314.104 164.976 302.266 157.387 299.549 156.541C293.708 154.719 285.131 153.244 281.308 159.036C287.675 161.37 295.085 163.358 300.865 166.946C302.995 168.267 306.293 169.947 304.749 172.615C301.538 169.737 297.061 167.718 293.022 166.149C288.194 164.278 274.535 159.493 270.027 160.419C265.883 161.271 257.448 170.62 261.215 173.887C269.737 178.339 279.876 181.97 287.675 187.533C291.744 190.436 296.555 194.406 296.734 199.754C292.701 198.945 288.354 198.815 284.415 197.58C277.579 195.437 264.451 184.014 257.294 188.392C255.546 189.46 254.101 193.109 254.101 195.129C254.083 201.927 268.545 212.048 266.507 198.519C267.106 198.618 268.81 198.371 268.971 198.519C269.415 198.951 266.84 205.373 269.879 209.022C272.003 211.573 279.067 216.395 282.099 218.396C296.888 228.153 312.826 233.815 328.825 222.577C329.9 223.75 324.33 228.943 323.224 229.622C321.712 230.555 317.043 231.228 317.698 233.346C317.877 233.92 326.837 239.86 327.627 240.12C329.01 240.577 330.048 240.669 331.474 240.336C334.605 239.613 345.658 230.444 348.579 227.825C353.408 223.503 368.654 208.707 367.11 202.032C366.919 201.205 360.04 198.593 358.774 197.877C358.558 200.186 352.204 213.629 349.19 210.844V210.875ZM261.555 160.907C262.524 157.368 256.973 154.466 254.145 153.207C241.301 147.47 222.597 147.464 211.568 156.893C203.17 164.068 200.268 171.923 204.319 182.661C208.295 193.202 219.293 196.716 229.747 197.339C232.736 197.518 248.865 197.105 249.748 194.449C250.119 193.344 249.711 191.732 249.828 190.528C237.404 194.875 212.723 195.092 207.9 179.697C203.442 165.482 216.459 156.01 228.815 153.787C239.386 151.879 246.129 154.33 255.522 158.622C257.603 159.573 258.825 161.574 261.555 160.913V160.907ZM221.374 207.244C221.176 207.016 216.811 205.799 215.674 205.237C201.879 198.432 196.489 186.984 196.717 171.694C196.748 169.774 197.81 167.341 197.705 166.162C197.662 165.705 196.087 159.69 195.846 159.048C194.618 155.769 188.998 157.733 185.614 156.942C181.903 156.072 175.537 150.564 171.708 150.44C170.918 150.415 163.594 153.034 163.137 153.509L148.608 225.998C165.138 230.653 183.632 229.431 200.113 225.016C203.991 223.978 222.17 218.044 223.183 214.765C223.714 213.042 223.078 211.289 222.671 209.64L221.454 210.264C221.306 209.486 221.751 207.676 221.374 207.244ZM254.768 173.559C255.275 171.886 254.768 164.328 254.768 161.839C254.768 161.203 251.02 157.813 249.507 160.289C248.396 162.111 250.193 164.365 250.396 166.205C250.625 168.255 249.964 171.633 250.755 173.251C251.489 174.763 254.33 174.998 254.768 173.559ZM233.996 163.587C228.463 169.391 230.673 185.669 241.844 182.229C249.297 179.932 249.05 159.011 237.312 161.66C236.608 161.821 234.502 163.062 233.996 163.587ZM218.984 172.627C218.614 165.723 226.894 169.595 228.568 166.47C230.735 162.432 220.17 162.827 217.57 164.587C213.439 167.378 212.686 179.012 216.267 182.433C219.046 185.082 227.993 184.989 229.191 181.303C230.044 178.678 229.228 174.85 228.271 172.281C225.178 171.571 222.016 172.084 218.978 172.627H218.984ZM52.6912 175.727C48.591 176.61 54.7722 186.329 55.9578 188.472C57.3966 191.072 62.3736 199.618 64.7139 200.698C66.0354 201.31 67.7767 201.186 67.8014 199.494C67.82 198.056 61.4474 189.472 60.1321 187.385C58.0758 184.131 56.3468 180.228 54.3399 177.135C53.9509 176.536 53.673 175.517 52.6912 175.727ZM250.483 175.751C250.304 175.924 249.662 180.086 250.094 180.685C251.922 183.192 256.689 179.413 254.503 176.289C253.984 175.548 250.773 175.474 250.489 175.751H250.483ZM266.495 183.736C265.358 181.025 264.673 177.264 260.95 177.573C260.517 181.056 263.315 183.161 266.495 183.736ZM280.691 189.293C279.166 193.307 288.743 195.623 288.7 193.301C286.631 190.911 284.081 188.88 280.691 189.293ZM80.5652 210.362C75.125 212.005 80.1144 222.57 85.9313 218.828C90.3711 215.975 83.6774 209.418 80.5652 210.362ZM236.706 212.863C231.865 213.925 234.872 222.015 239.349 221.107C245.296 219.903 244.166 211.233 236.706 212.863ZM257.677 212.851C254.231 213.647 242.542 223.694 238.312 226.195C236.855 227.06 235.014 228.06 233.489 228.776C231.964 229.493 226.641 230.462 227.005 232.148C231.692 235.309 233.434 241.96 240.195 237.946C244.462 235.414 241.233 231.586 238.738 229.073C238.726 227.788 257.257 217.297 260.005 214.561C261.9 212.672 259.27 212.474 257.677 212.845V212.851ZM118.393 238.02C116.88 243.399 121.333 243.683 125.322 244.973C130.7 246.715 140.938 249.253 146.385 248.919C149.379 248.74 150.676 245.98 147.755 244.757L118.393 238.02ZM209.722 242.343C209.012 241.596 192.358 246.517 189.418 246.097L189.363 249.123C190.771 248.925 192.296 249.061 193.685 248.802C195.896 248.388 208.332 245.572 209.37 244.868C209.975 244.455 209.82 242.442 209.728 242.337L209.722 242.343ZM180.52 245.004C177.599 241.806 168.028 243.677 169.732 249.308C171.554 255.323 186.812 251.902 180.52 245.004Z" fill="#1C1C1C"/>
<path d="M294.27 66.5279C296.907 66.0833 297.981 67.1516 299.469 69.035C307.522 79.2423 316.173 108.228 317.025 121.201C317.278 125.055 315.277 130.118 313.567 124.653C311.857 119.188 311.819 113.069 310.659 107.82C308.559 98.3354 304.836 86.5226 300.55 77.822C299.92 76.5438 293.745 66.9849 294.27 66.5218V66.5279Z" fill="#1C1C1C"/>
<path d="M318.025 44.9339C316.432 45.1254 309.491 48.0091 309.053 47.7559L305.027 35.0416C306.54 32.516 323.385 30.398 326.979 30.1263C326.719 35.196 328.893 39.9569 329.443 44.9339C325.806 45.2427 321.576 44.514 318.025 44.9339ZM321.891 34.5846C320.835 33.257 312.301 35.9184 310.356 36.3507C310.844 40.4941 310.368 43.5199 315.413 42.4392C315.956 42.3219 317.012 40.136 317.543 40.0248C319.093 39.7099 321.032 40.173 322.65 40.0001C322.959 39.6914 322.391 35.2145 321.884 34.5846H321.891Z" fill="#1C1C1C"/>
<path d="M325.089 51.1336C325.293 51.3312 325.923 55.0671 326.732 56.5862C329.702 62.1437 334.469 63.4837 339.916 65.6017C335.772 67.8803 331.345 68.4978 328.22 72.4065C325.201 76.1856 326.077 78.7792 325.108 83.1819C323.848 84.1205 322.274 75.2285 321.885 74.3825C319.47 69.177 314.333 68.331 309.071 68.9856C310.411 66.4847 313.536 66.4847 315.821 64.941C319.365 62.5389 324.151 55.4129 322.033 51.1089C322.749 51.2263 324.824 50.8681 325.089 51.1336ZM323.898 71.4556C324.861 72.1287 329.054 67.0713 330.017 66.1327C330.276 64.6878 324.583 62.4771 325.114 59.7416L319.612 66.2933C319.328 67.8864 324.157 69.2079 323.898 71.4494V71.4556Z" fill="#1C1C1C"/>
<path d="M71.4818 9.15597C71.63 9.26713 72.1919 11.8174 72.618 12.6572C75.3844 18.0974 78.2558 21.0305 82.5968 25.1863C77.663 25.705 72.2228 30.0769 69.9504 34.4426L63.4234 25.5444L57.9214 22.4261C61.9784 20.66 64.8745 18.2518 67.4433 14.6703C68.104 13.7502 70.1171 8.12475 71.4818 9.15597ZM74.4581 23.8525C75.6869 21.7592 71.7596 19.2089 70.5493 17.8072L65.3685 23.1238L69.9565 28.28C70.0677 26.3348 74.1123 24.4515 74.4643 23.8587L74.4581 23.8525Z" fill="#1C1C1C"/>
<path d="M309.071 16.566C309.479 17.1279 305.28 21.6109 304.496 22.778C302.588 25.6185 300.951 32.1208 296.789 30.4288C295.283 29.8175 293.986 28.0515 292.621 27.1499C290.59 25.8099 287.138 25.4703 286.983 22.3087C286.928 21.1478 296.085 9.77962 297.666 9.15594C299.815 13.0771 305.138 14.6949 309.078 16.566H309.071ZM302.267 17.1958C300.667 17.2514 297.777 14.9913 296.518 15.368C295.869 15.5594 291.516 21.2466 291.825 22.3272C291.967 22.8089 297.277 25.8717 297.611 25.7914C298.265 25.6432 302.903 18.085 302.267 17.1896V17.1958Z" fill="#1C1C1C"/>
<path d="M25.2064 114.032C24.4716 128.797 25.8239 142.845 28.473 157.338C29.0658 160.567 30.4119 164.062 30.9121 167.255C30.9986 167.792 31.6902 168.595 30.4366 168.922C27.6023 169.669 27.3677 166.668 26.744 164.618C22.6376 151.15 20.1676 130.624 22.7734 116.842C23.0143 115.582 23.5885 113.822 25.2064 114.032Z" fill="#1C1C1C"/>
<path d="M29.5288 20.2587L30.7885 35.2578C28.6396 37.2338 29.1768 35.3998 28.4544 35.1034C27.9418 34.8873 25.089 33.8313 24.9037 33.8313H12.2511C12.8995 31.8306 12.3808 20.2587 13.7949 20.2587H29.5288ZM26.4475 23.9575C24.8605 24.328 17.4999 23.2165 16.623 24.0192C16.3946 24.2292 15.7153 29.8917 15.95 30.1325C22.8104 29.6756 27.9418 34.103 26.4475 23.9575Z" fill="#1C1C1C"/>
<path d="M324.997 139.189C324.842 139.362 322.144 140.048 322.039 139.93C322.829 123.554 321.31 107.11 315.246 91.8208C316.512 91.7343 318.495 91.9443 319.236 93.0743C320.699 98.4651 323.169 103.541 324.219 109.068C325.046 113.452 327.059 136.83 324.997 139.189Z" fill="#1C1C1C"/>
<path d="M267.007 6.80948C267.816 7.27878 269.909 13.4044 270.836 14.8617C272.651 17.7207 276.844 20.4377 280.073 21.4998C279.339 23.1794 277.19 22.5187 275.393 23.2906C271.2 25.0998 270.169 28.9777 270.811 33.2076C269.341 32.2443 268.847 29.9719 267.73 28.5826C266.612 27.1932 263.543 24.0377 262.191 23.0189C260.838 22 256.899 20.4871 256.627 19.9375C256.096 18.8754 260.542 17.449 260.968 16.2696C263.506 15.3186 264.858 7.01943 265.272 6.6798C265.377 6.59335 266.661 6.6057 267.007 6.8033V6.80948ZM272.052 22.0988C272.824 21.2466 267.384 14.8617 266.723 14.7444C265.673 14.5591 262.969 18.5852 262.882 19.4312C262.759 20.66 268.471 24.8961 268.952 24.5688C269.057 24.5009 269.026 23.2041 270.237 22.4261C270.799 22.0679 271.99 22.1667 272.052 22.0926V22.0988Z" fill="#1C1C1C"/>
<path d="M31.3011 180.123C32.1409 180.611 35.6791 187.095 37.2229 188.126C38.5752 189.028 39.557 187.83 40.014 188.058C39.5262 188.719 40.0016 189.744 39.8411 190.121C39.2853 191.442 27.6269 200.569 26.219 200.297C24.3295 199.933 20.291 193.634 19.0498 192.041C18.0001 190.695 16.1291 190.893 16.549 188.978C19.0066 187.57 21.7915 186.403 24.1689 184.86C25.7188 183.847 29.9981 179.37 31.2949 180.117L31.3011 180.123ZM25.2372 196.055C26.6636 197.086 33.4067 190.405 35.0863 189.596C31.406 185.273 31.863 183.989 26.7501 186.823C21.6433 189.658 21.2543 189.658 24.5147 194.023C24.947 194.604 25.1508 195.993 25.2372 196.061V196.055Z" fill="#1C1C1C"/>
<path d="M68.4068 226.306C65.6095 228.239 62.9481 230.666 60.089 232.487C58.5947 233.438 54.7415 236.026 53.2409 236.155C50.1473 236.421 50.6166 234.303 49.2828 232.778C47.4179 230.635 45.2875 228.43 43.1078 226.603C43.4103 224.114 45.9483 224.756 47.4303 224.151C52.5802 222.045 52.0862 222.632 56.841 221.891C58.1192 221.694 60.0088 220.094 61.324 219.588C64.0287 222.749 62.5158 227.436 68.4068 226.312V226.306ZM58.959 229.19C60.3854 227.998 62.0218 225.349 59.3233 224.553C57.1806 223.923 56.6866 225.337 55.6554 225.497C53.9017 225.769 46.9918 224.096 50.1781 228.789C52.4876 232.191 56.0876 231.58 58.959 229.184V229.19Z" fill="#1C1C1C"/>
<path d="M23.3601 50.4914C23.7553 51.0287 18.9943 60.285 19.655 62.2054L0 56.3639C1.0374 54.5608 2.95165 47.4719 4.63743 46.8852C8.65736 45.4897 18.8893 49.8678 23.3601 50.4914ZM4.2237 54.7954C7.39766 54.6781 13.7764 58.0249 16.3144 57.8582C18.2657 57.7285 19.1734 53.9494 17.8211 52.628C16.8639 51.6956 8.47828 49.6084 7.02716 49.8492C4.7671 50.2259 5.10056 53.1837 4.22988 54.8016L4.2237 54.7954Z" fill="#1C1C1C"/>
<path d="M40.6438 26.4274C39.9583 21.0243 34.8269 17.6836 30.313 15.4483C29.7263 15.1581 29.3126 15.6274 29.5349 14.4047C30.0783 13.145 41.9529 5.63002 43.7621 8.81015L52.9753 19.32C51.944 20.7403 50.2088 19.9684 48.6836 20.5859C47.4918 21.0675 41.3354 27.0573 40.6438 26.4213V26.4274ZM40.4709 11.0826C39.5755 11.2246 36.2842 13.3488 36.2842 14.3862C36.2842 15.3186 41.286 20.3512 42.0949 20.203C42.2925 20.166 45.1762 17.9553 45.2812 17.7886C46.4544 15.9361 42.2246 10.7985 40.477 11.0826H40.4709Z" fill="#1C1C1C"/>
<path d="M291.102 32.6642L296.123 44.9216C294.109 44.9031 282.772 48.497 282.118 48.2006C279.462 46.9903 276.918 38.5429 276.369 35.69L291.108 32.6704L291.102 32.6642ZM289.948 42.4702C290.435 35.054 286.1 36.7892 280.685 37.5363C280.296 37.9254 282.346 43.452 282.618 43.6249C283.871 44.4091 288.095 41.7662 289.948 42.4702Z" fill="#1C1C1C"/>
<path d="M27.8987 76.7908C29.8129 78.6988 32.7831 79.2855 34.4627 81.3232C31.3505 81.4467 26.0215 84.8986 25.336 87.9367C24.7679 90.4561 25.7498 93.9264 23.6688 96.1247C21.9645 93.1113 22.5758 89.3569 20.5504 86.3003C19.76 85.1023 17.1603 83.0893 15.8944 82.3174C14.4124 81.4158 11.5411 81.7308 11.6337 79.4831C18.2656 80.1932 20.8283 74.7715 23.0575 69.6154C24.1134 69.3684 26.4414 75.3458 27.8987 76.7969V76.7908ZM19.0437 81.3171C20.8036 81.1627 22.3103 84.5898 23.5823 84.3675C23.8973 84.3119 27.5652 80.6872 27.5652 80.4093C27.5652 79.6189 24.4962 76.2288 23.1377 76.4882C22.4894 76.6117 18.5312 80.576 19.0437 81.3171Z" fill="#1C1C1C"/>
<path d="M252.298 24.575C251.576 25.2913 241.06 18.9063 239.331 18.1097C232.446 14.9543 222.609 11.4592 215.292 9.44619C213.637 8.98924 210.926 9.12509 209.549 8.40261C208.561 7.88391 207.943 6.59951 208.487 6.07464C208.697 5.87704 212.717 6.08081 213.581 6.21666C220.281 7.26641 246.914 17.1032 251.063 21.7962C251.712 22.531 252.403 23.5376 252.292 24.5688L252.298 24.575Z" fill="#1C1C1C"/>
<path d="M38.0009 202.977C44.7193 201.52 48.4429 209.578 43.4226 213.969C36.3707 220.131 29.1027 204.91 38.0009 202.977Z" fill="#1C1C1C"/>
<path d="M15.3262 125.129C15.2892 130.211 15.425 135.083 16.0364 140.152C16.7465 146.019 19.2535 152.848 19.6055 158.221C19.8093 161.283 18.389 161.938 16.8823 159.048C13.8257 153.182 11.6583 134.268 12.8747 127.914C13.1094 126.697 14.2209 125.647 15.32 125.122L15.3262 125.129Z" fill="#1C1C1C"/>
<path d="M37.7107 47.8671C35.0184 45.076 37.9021 39.537 41.7245 38.8824C52.0367 37.1102 51.1846 51.146 42.2308 49.8492C41.5454 49.7504 38.0812 48.2499 37.7107 47.8732V47.8671ZM46.1581 45.5144C46.3248 42.0934 42.9595 41.0684 40.6747 43.4581C40.5203 47.7127 43.2867 46.9099 46.1581 45.5144Z" fill="#1C1C1C"/>
<path d="M31.227 57.426C41.3108 54.8695 42.2432 67.6765 35.3149 68.1705C28.3865 68.6645 25.4348 58.8956 31.227 57.426ZM33.5426 60.0009C29.2325 61.9461 34.4874 68.4607 36.0559 63.4589C36.7104 61.3841 35.3951 59.1673 33.5426 60.0009Z" fill="#1C1C1C"/>
<path d="M307.645 53.1529C311.912 57.0617 306.793 65.083 300.711 61.625C293.492 57.5187 301.309 47.3484 307.645 53.1529ZM305.28 54.8943C304.601 54.4682 302.637 54.9622 301.668 54.8017L302.242 58.8586C305.058 60.5876 307.139 56.0614 305.28 54.8943Z" fill="#1C1C1C"/>
<path d="M71.3337 234.426C79.1019 232.92 81.3002 242.688 74.1125 244.072C67.499 245.35 65.7824 235.501 71.3337 234.426ZM71.6425 237.545C69.8517 239.311 73.3653 242.33 74.9152 239.897C76.1749 237.915 73.038 236.168 71.6425 237.545Z" fill="#1C1C1C"/>
<path d="M286.243 237.415C284.242 240.398 278.351 247.567 274.769 247.888C273.374 248.011 269.15 247.406 271.602 245.887C273.732 244.566 275.554 244.195 277.894 242.324C280.537 240.206 282.575 235.569 286.243 237.415Z" fill="#1C1C1C"/>
<path d="M276.974 231.858L277.597 234.939C275.276 233.914 274.213 236.606 272.626 237.681C270.132 239.366 265.445 243.565 263.42 240.188C264.957 238.681 275.671 230.703 276.974 231.864V231.858Z" fill="#1C1C1C"/>
<path d="M127.032 99.2184C125.069 93.0866 133.547 93.3645 134.356 90.1411C135.029 87.455 128.706 77.6429 125.476 77.0254C117.473 75.494 110.601 80.3229 104.203 71.7643C99.0101 64.8236 100.529 55.9131 106.994 50.4976C115.572 43.3099 126.174 47.021 131.133 56.0921C138.734 54.0667 146.589 55.5611 154.184 53.5727C154.912 54.4187 150.25 65.1694 149.361 66.9416C147.607 70.4367 140.698 79.4892 140.574 82.2618C140.519 83.4536 141.118 86.2694 141.815 87.2203C143.464 89.4619 150.133 91.0118 151.72 92.7346C153.702 94.8835 151.3 96.4335 149.423 97.2362C148.268 97.7302 142.525 99.2184 141.531 99.2184H127.032ZM127.705 57.8273C125.612 43.4828 102.826 49.3614 103.024 61.2174C103.203 71.9557 112.373 76.5623 122.092 75.1544C120.61 73.0364 116.238 69.6895 113.904 68.8497C111.23 67.8864 107.686 69.177 106.834 65.4473C105.327 58.8709 111.243 51.6955 118.079 52.3069C120.363 52.5106 126.662 55.6846 124.902 58.5127C123.543 60.6987 110.712 59.6242 112.268 64.8915C112.564 65.9042 119.999 69.5722 121.432 70.5725C123.006 71.6717 132.33 78.7544 132.831 79.5325C133.572 80.6872 138.215 90.7216 138.147 91.4811C137.845 94.7909 131.435 92.994 131.349 96.7484C132.127 97.44 147.842 95.6863 148.626 94.8959C149.559 93.9573 148.25 93.8091 147.848 93.488C143.902 90.3634 139.864 91.9627 138.413 85.0653C137.11 78.8841 141.179 76.5746 144.014 71.4679C145.1 69.5042 150.578 58.84 150.392 57.5556C150.343 57.216 149.522 56.4935 149.009 56.6849L127.705 57.8211V57.8273ZM116.541 57.2654C116.263 55.0239 113.194 53.3443 111.601 54.8077C110.465 55.8575 112.126 55.876 112.49 56.0983C113.657 56.8084 115.115 57.4259 116.541 57.2654Z" fill="#1C1C1C"/>
<path d="M143.698 46.169C143.643 43.8781 145.761 42.2108 146.774 40.3027C147.231 38.8948 143.167 42.0935 142.747 42.4516C141.173 43.804 140.037 45.5021 138.647 46.9903C137.758 47.9412 138.079 48.4846 136.912 47.0952C140.45 43.3902 143.427 38.8022 148.002 36.3013C146.946 38.0303 148.774 40.5374 148.571 41.4204C148.348 42.3528 144.711 45.3662 143.698 46.1752V46.169Z" fill="#1C1C1C"/>
<path d="M162.205 210.27C166.213 209.986 169.831 203.039 173.616 202.81C175.802 202.675 187.498 208.146 187.492 209.337C184.552 211.789 180.86 217.581 176.704 217.581C175.975 217.581 164.274 212.604 163.273 211.968C162.514 211.48 161.97 211.4 162.199 210.27H162.205Z" fill="#1C1C1C"/>
<path d="M197.804 200.828C194.605 204.453 189.758 201.581 186.689 199.05C184.96 197.623 183.669 197.277 185.645 195.141C192.493 187.731 193.815 192.801 198.329 198.562C198.73 199.346 198.329 200.229 197.804 200.828Z" fill="#1C1C1C"/>
<path d="M163.44 193.597C163.971 188.663 166.991 189.608 170.214 188.349C172.363 187.509 177.655 184.137 179.217 186.792C180.452 188.892 175.185 193.146 173.314 193.906C169.498 195.45 167.201 194.709 163.446 193.591L163.44 193.597Z" fill="#1C1C1C"/>
<path d="M186.121 173.393C192.777 173.016 189.48 179.463 184.941 180.858C175.969 183.619 178.735 173.813 186.121 173.393Z" fill="#1C1C1C"/>
<path d="M177.612 167.718C177.729 167.835 178.112 170.676 178.075 171.015C177.704 174.325 169.541 177.085 167.824 175.041C164.965 171.633 176.148 166.285 177.612 167.718Z" fill="#1C1C1C"/>
<path d="M89.8278 185.15C88.9015 183.896 85.8511 183.822 85.1903 180.821C84.5296 177.82 86.4253 176.733 86.308 174.838C86.2154 173.356 84.7581 172.491 84.4802 171.065C82.3622 160.123 97.9788 152.225 106.778 150.224C116.473 148.013 133.473 147.939 139.987 156.905C141.883 159.517 141.451 162.117 142.778 163.988C144.335 166.18 148.904 167.045 149.731 170.602C151.004 176.073 147.268 176.208 147.033 177.845C146.848 179.117 147.694 181.111 147.255 183.291C146.292 188.046 138.561 191.195 134.43 192.671C124.278 196.29 99.9239 201.409 92.483 191.448C90.9022 189.33 90.6861 186.317 89.8278 185.15ZM111.465 152.447C104.58 153.176 96.8364 156.368 91.8408 161.209C88.6422 164.309 86.518 168.014 89.6672 172.04C91.7914 174.751 92.0446 173.22 94.0082 173.386C103.746 174.22 117.788 171.071 127.415 168.397C128.959 167.971 136.925 165.55 137.536 164.945C140.914 161.623 133.652 155.72 130.861 154.306C125.637 151.663 117.251 151.83 111.465 152.447ZM137.462 169.589L112.836 175.4C119.486 178.172 128.026 179.771 134.393 175.362C136.146 174.152 138.987 171.695 137.462 169.583V169.589ZM90.013 180.648C91.9087 181.402 94.7307 177.61 93.1067 176.628C89.9636 174.714 88.7101 178.073 90.013 180.648ZM94.3293 185.588C96.1571 195.252 108.946 192.134 116.053 190.954C121.055 190.127 140.216 186.373 142.136 181.871C145.285 174.486 136.153 179.599 133.213 180.346C125.772 182.241 118.467 182.668 110.996 180.642L110.366 184.965L102.974 181.877C99.8807 186.366 107.995 185.107 105.778 188.083C103.561 191.059 97.1081 184.853 94.3293 185.588Z" fill="#1C1C1C"/>
<path d="M246.531 86.4856C247.34 87.2389 250.711 91.5738 249.835 92.4321C243.641 92.5556 238.059 93.5065 231.939 91.8146C236.916 87.6526 239.868 80.2797 246.531 86.4856ZM246.13 90.5796C244.567 83.9476 239.973 85.6272 236.262 89.6595C239.207 91.3762 242.888 90.3017 246.13 90.5796Z" fill="#1C1C1C"/>
<path d="M265.877 85.6582C267.174 86.9549 262.277 87.8873 261.703 87.9614C260.042 88.1714 250.965 88.8692 254.324 86.7326C254.805 86.4239 257.924 84.7319 258.14 84.701C258.856 84.6084 265.599 85.3803 265.871 85.652L265.877 85.6582Z" fill="#1C1C1C"/>
<path d="M84.4494 114.026C83.6157 116.453 85.2706 118.466 83.2452 120.528C78.4843 125.37 73.359 117.577 77.0394 113.674C79.0833 111.507 82.1276 115.385 84.4555 114.02L84.4494 114.026Z" fill="#1C1C1C"/>
<path d="M103.487 106.703C103.623 106.777 103.783 107.715 104.24 108.092C105.037 108.753 106.031 109.142 106.679 109.994C111.095 115.811 98.973 117.953 99.2261 110.599C99.2879 108.814 102.264 106.011 103.487 106.703Z" fill="#1C1C1C"/>
<path d="M171.461 101.695C171.999 114.292 183.509 117.256 194.297 116.502C194.575 117.571 193.852 117.737 193.377 118.355C191.388 120.942 183.25 127.463 182.669 129.896C182.144 132.119 187.776 142.493 186.887 143.648C183.28 141.752 177.056 136.8 172.999 136.837C168.942 136.874 163.891 142.351 159.747 143.03C158.84 142.005 161.619 131.205 160.853 128.667C160.087 126.129 149.843 121.035 148.737 118.565C148.577 118.2 148.367 117.138 148.941 117.145C154.097 117.422 163.49 114.162 166.429 109.926C167.849 107.888 168.572 104.677 169.763 102.775C170.245 102.003 170.344 101.472 171.468 101.707L171.461 101.695Z" fill="#1C1C1C"/>
<path d="M193.062 57.8891C192.938 58.6548 193.333 60.5197 193 60.9149C192.598 61.3903 181.273 63.3355 180.724 62.8229L181.403 59.192L193.062 57.8891Z" fill="#1C1C1C"/>
<path d="M180.107 38.7651C180.242 30.5214 175.167 20.8205 177.951 12.8609C181.267 3.38229 196.551 4.88281 193.642 17.449C192.494 22.4198 185.386 33.8745 181.842 37.7277C181.292 38.3205 181.298 39.0553 180.107 38.7651Z" fill="#1C1C1C"/>
<path d="M223.912 175.721C225.277 178.32 221.936 181.723 220.244 180.006C220.133 179.895 219.781 177.048 219.861 176.912C220.232 176.338 223.646 175.43 223.912 175.721Z" fill="#1C1C1C"/>
<path d="M238.497 165.933C242.764 165.13 243.802 177.832 239.615 178.209C234.953 178.629 235.49 166.501 238.497 165.933Z" fill="#1C1C1C"/>
<path d="M120.548 67.7568C119.406 67.5098 118.35 65.9599 117.788 64.9781C125.606 61.0508 134.8 61.4892 143.371 60.3345C144.316 60.3221 144.47 60.2171 144.316 61.2854C144.051 63.1873 137.128 72.5424 135.671 70.8443C135.554 70.3565 135.819 67.763 135.671 67.763C131.867 67.763 123.692 68.4422 120.555 67.763L120.548 67.7568Z" fill="#1C1C1C"/>
<path d="M99.2447 166.464L93.7057 165.223C94.3974 160.468 102.067 160.833 99.2447 166.464Z" fill="#1C1C1C"/>
<path d="M124.562 157.214L124.26 161.524C121.456 160.215 121.147 158.023 124.562 157.214Z" fill="#1C1C1C"/>
</svg>
