<svg width="230" height="165" viewBox="0 0 230 165" fill="none" xmlns="http://www.w3.org/2000/svg">
<path d="M190.706 41.6074C191.079 39.9977 189.426 40.6135 188.826 39.4305C187.838 37.4967 187.195 36.3516 185.861 34.4231C185.536 33.9586 183.873 34.0504 185.045 32.9701H187.476V31.355L185.866 31.0903C187.292 19.8278 206.365 21.3727 207.862 30.669C208.413 34.1098 206.841 39.5223 204.248 41.9207C203.486 42.6229 202.282 42.4176 201.871 43.3359C200.078 47.3926 200.305 54.1123 199.219 58.466C198.614 60.8914 193.201 70.2957 191.646 72.7481C191.408 73.1154 190.182 73.5043 189.609 74.2173C184.402 80.7318 188.248 79.1167 193.158 82.0606C205.344 89.3691 215.629 105.941 205.28 119.024C200.532 125.026 188.934 126.576 181.793 125.258C180.372 124.993 180.88 123.648 179.659 123.562C177.812 123.432 173.161 126.09 170.774 126.619C163.946 128.142 156.535 127.354 149.696 126.322L147.53 136.844C149.016 136.634 150.301 135.602 151.83 135.208C163.995 132.064 174.463 139.799 175.705 152.131C176.5 153.687 176.077 151.946 178 156.5C177 158.5 177.029 158.5 172.5 160.5C157.529 168 131.06 161.5 122.5 156.5C120.753 157.167 107.045 157.063 105.003 157.063C102.386 157.063 96 163.5 69.5 164.5C66.5021 164.613 65 165.5 55 162.5C52.2067 159.197 52.2067 158 52.2067 153.255C54 147.41 56.2688 145.493 58.451 143.305C63.9283 137.811 73.0248 137.023 80.0524 139.561C84.8653 141.301 90.4992 147.016 94.4965 147.799C101.238 149.122 99.5146 141.117 97.2189 140.172C92.984 138.427 85.8214 140.026 81.2353 138.654L78.4211 127.435C74.6777 127.148 70.594 127.764 66.8939 127.354C64.4847 127.089 59.472 124.637 58.2404 124.718C57.0088 124.799 52.7091 126.835 50.4836 127.251C30.0058 131.097 18.511 113.936 28.8822 95.9483C33.6033 87.7648 40.2042 82.6062 48.6254 78.5981C47.7287 76.5401 47.3506 74.1039 45.5194 72.6401C47.6207 70.7603 49.1817 70.8521 49.7003 67.6489C51.1588 58.6605 51.2236 50.6552 53.7624 41.4939C56.6577 31.0579 59.2181 25.0026 70.8587 22.9662C72.8898 22.6097 74.6939 22.9662 76.5197 22.6907C79.7391 22.2045 81.5162 18.9041 83.8876 17.1054C86.2589 15.3066 92.3088 12.5355 93.5944 11.1581C94.7071 9.96972 94.4047 8.9326 94.961 8.18717C100.228 1.13257 105.262 0.322304 113.775 0.0360152C117.518 -0.0882235 125.659 0.00899875 128.603 1.98601C130.828 3.47688 135.922 7.6956 137.559 9.75904C139.195 11.8225 142.361 19.2228 143.533 19.9736C145.402 21.1674 148.783 20.3031 151.031 20.5732C161.083 21.7886 167.624 25.7318 175.565 31.6629C180.491 35.3414 184.056 41.3859 190.711 41.6074H190.706ZM114.596 3.83341C112.522 4.0981 106.348 2.94753 105.511 5.27565C104.538 7.97109 106.634 8.05211 108.908 8.17095C112.576 8.36541 115.32 8.306 114.602 3.82801L114.596 3.83341ZM97.2621 15.2364C95.8847 14.021 93.3567 16.7975 92.6221 17.3376C92.0927 17.7265 90.899 17.8076 90.8395 17.8778C90.7423 17.9966 91.7794 20.3356 92.1359 20.6164C94.1346 22.1883 98.6828 20.6326 98.2236 17.6941C98.202 17.5645 97.3594 15.3174 97.2567 15.231L97.2621 15.2364ZM167.5 65.8987C167.473 57.3857 167.457 48.7322 166.409 40.2732C165.604 33.7695 165.302 26.8662 158.134 24.8028C139.498 19.4281 95.3932 22.3072 75.5312 25.4996C63.4368 27.4442 61.476 28.1788 57.6624 40.0193C57.0034 42.0665 51.4829 64.7104 53.3303 64.8292C54.8049 64.6023 57.025 64.1702 57.8082 62.8306C59.2073 55.3168 59.5584 47.479 62.216 40.257C63.426 36.9727 65.5002 31.9384 68.7142 30.5609C75.4934 27.6602 82.9585 27.9735 89.9699 27.536C107.023 26.4665 124.2 25.3267 141.329 25.9425C154.277 26.407 160.23 25.6238 162.082 40.2732C162.342 42.3204 162.552 45.6586 162.65 47.7977C162.833 51.6383 161.823 62.3391 162.704 65.0129C163.195 66.5092 166.166 65.7421 167.489 65.8987H167.5ZM199.181 28.276C196.68 25.2187 190.339 27.671 193.174 31.8627C195.697 35.5899 201.958 31.6683 199.181 28.276ZM154.536 63.1925C154.401 61.6314 155.006 60.1675 155.103 58.6335C155.498 52.3243 155.811 39.8464 155.028 33.8398C154.623 30.723 153.386 30.5879 150.485 30.2854C132.935 28.4759 109.702 30.4151 91.6768 31.3766C85.6377 31.7007 70.6697 30.0802 67.5151 36.3623C63.9662 43.4223 63.4584 55.3655 63.3126 63.1925H154.542H154.536ZM179.314 51.2656C179.568 51.0873 180.021 48.2515 180.524 47.3494C181.318 45.9179 184.499 44.3622 182.917 42.1151C182.241 41.1536 175.106 41.4399 173.761 42.2124C171.886 43.2927 171.195 47.4196 172.075 49.1751C172.572 50.1583 178.503 51.822 179.308 51.2656H179.314ZM179.373 68.5996C190.128 68.3889 195.184 57.1912 195.589 47.7923C195.719 44.8268 194.244 45.3507 191.792 45.3886C191.964 47.8517 190.117 58.9252 187.2 58.9144C183.862 58.9036 185.45 48.0516 185.315 45.9287C184.732 46.0314 183.549 45.7235 183.219 45.9935C182.911 46.2528 181.069 53.3074 181.069 53.7504C181.058 56.2027 185.012 61.0426 184.667 62.8522C184.256 64.9967 177.45 65.969 177.461 69.9446C177.461 70.5442 179.038 74.6171 179.362 74.8439C180.281 75.4921 182.868 73.742 184.235 75.0654C184.532 72.1755 181.788 71.3112 180.07 69.8258C179.686 69.4963 179.054 69.8474 179.384 68.5942L179.373 68.5996ZM174.425 77.6798C175.851 75.3571 173.691 71.5543 171.125 70.6252C161.672 67.2113 147.509 68.4591 137.559 66.9467C111.047 68.3781 82.2563 65.58 55.9987 67.4868C53.1952 67.6921 52.682 68.0864 52.5092 71.0196C52.4444 72.1431 52.5092 71.711 53.3086 71.8298C91.8983 73.2234 130.855 68.4808 169.148 73.688C171.611 74.4172 172.724 75.6488 172.362 78.301C172.524 78.4901 174.312 77.8689 174.431 77.6744L174.425 77.6798ZM134.923 74.7197C131.752 71.8676 125.702 72.5374 129.688 76.4428C132.038 76.8534 134.852 83.0167 136.624 80.089C137.737 78.247 136.338 75.9999 134.923 74.7251V74.7197ZM84.0874 74.8169C78.0754 76.4806 79.6689 84.8749 83.8228 82.3523C84.1577 82.1524 88.0361 76.1998 88.0955 75.8163C88.3494 74.1633 85.13 74.5306 84.0874 74.8169ZM151.16 75.2005C141.761 76.8102 142.885 89.7958 154.142 87.889C164.756 86.0902 162.358 73.2775 151.16 75.2005ZM130.115 78.9816C128.419 77.2261 125.183 80.4563 123.595 81.1045C113.732 85.1666 102.361 85.3178 92.325 81.9526C90.3642 81.2936 87.4095 78.2416 88.1171 82.914C88.425 84.9397 90.7963 91.9457 91.8064 93.7984C98.9853 106.919 120.03 109.35 127.987 95.7485C129.645 92.918 132.238 81.1801 130.11 78.9762L130.115 78.9816ZM195.027 110.144C195.735 103.392 198.457 99.6161 195.983 92.7289C192.018 81.6987 178.509 79.1761 169.099 85.0369C167.327 86.1388 165.053 87.9268 165.431 90.336C166.242 95.4567 172.021 91.4703 175.333 91.2705C177.564 91.1354 179.379 91.5568 181.528 91.8052C181.204 94.9922 178.196 93.2259 175.867 93.4149C172.011 93.7228 163.303 99.8375 167.214 103.689C169.353 105.796 177.828 101.469 180.994 102.598V104.213C172.383 103.376 166.685 111.462 177.067 114.881C181.577 116.367 189.177 111.829 189.626 112.31C191.187 113.979 184.51 115.762 185.547 117.717C187.794 121.957 197.291 117.82 199.905 115.297C203.448 111.872 204.113 106.482 203.659 101.793C202.962 94.6033 201.077 102.068 199.981 104.04C199.451 104.991 198.76 106.195 198.16 107.076C197.48 108.081 196.383 110.101 195.027 110.144ZM50.8941 93.9551H63.0425C63.7285 93.9551 65.5435 92.0861 65.7865 91.2759C67.191 86.652 58.6671 82.8816 54.9345 82.6061C46.3621 81.9688 35.0131 91.3299 34.6782 100.14C34.5378 103.748 37.5303 112.45 37.4007 113.099C37.3305 113.434 36.5418 114.022 36.0556 113.92C34.5486 113.601 30.4595 104.656 30.9133 102.592L29.3522 107.794C28.7526 110.976 32.2043 117.361 34.7269 119.019C37.849 121.072 45.1791 121.855 48.3499 119.743C52.5848 116.918 44.7524 116.064 43.3371 114.73C38.6809 110.338 50.6942 115.313 51.2938 115.411C60.0121 116.783 64.9655 110.392 55.21 106.644C52.9089 105.758 49.8516 106.487 48.7388 104.213C52.0122 103.176 58.3052 106.103 60.8764 105.828C61.7785 105.731 64.7332 103.214 64.8304 102.203C65.3706 96.7694 54.7239 95.3487 50.8887 95.5648V93.9497L50.8941 93.9551ZM67.164 113.309L163.579 113.677C163.173 108.75 162.32 103.894 160.208 99.3622C157.129 101.01 159.679 108.026 156.972 108.523C138.072 108.156 119.069 109.01 100.352 109.004C99.5416 109.004 98.6126 108.496 97.6132 108.496C93.9347 108.491 68.2065 108.016 67.0991 109.069C66.9479 109.215 67.0019 113.028 67.1694 113.304L67.164 113.309ZM105.003 151.035C105.824 151.861 121.213 152.077 122.175 151.445L129.996 126.862L95.1663 126.878C95.647 133.485 100.789 138.044 102.983 143.613C103.55 145.055 104.733 150.765 105.003 151.035ZM150.301 144.067C151.409 145.844 162.228 144.029 160.964 140.183C160.24 137.973 155.055 137.979 153.153 138.708C151.252 139.437 149.151 142.214 150.301 144.067ZM145.904 139.826H131.06C128.884 139.826 125.923 146.832 131.568 147.41C138.806 148.156 141.637 144.958 145.904 139.826ZM74.6507 141.992C72.6791 140.318 62.4159 143.672 62.7994 145.979C63.318 149.106 75.5258 146.567 74.6507 141.992ZM100.017 150.619C99.493 150.095 87.8956 154.681 85.9834 155.205C76.0335 157.933 67.4989 157.279 57.3707 156.015C56.9332 157.052 57.9325 158.883 58.8832 159.197C60.8656 159.856 67.7311 160.709 70.0647 160.86C75.2719 161.206 97.4404 158.656 99.7523 153.854C100.039 153.255 100.211 150.808 100.017 150.613V150.619ZM173.971 154.4C167.949 154.962 161.953 156.345 155.87 156.037C151.468 155.815 145.883 154.578 141.486 153.687C139.417 153.266 129.872 150.392 128.981 150.667C127.614 151.094 127.782 152.882 128.965 153.795C130.272 154.805 135.247 156.561 137.029 157.063C145.937 159.58 162.785 160.86 171.406 157.495C172.924 156.901 174.236 156.318 173.971 154.4Z" fill="#1C1C1C"/>
<path d="M212.151 79.9082C211.444 74.4039 211.843 71.5464 207.014 68.0407C205.334 66.8199 204.232 66.9658 202.833 66.2852C199.97 64.8915 203.779 64.454 204.956 63.8166C209.872 61.1482 210.46 57.8316 213.761 54.0126C214.009 57.5183 217.223 62.4878 220.389 63.849C221.62 64.3784 223.1 63.9463 224.008 65.0752C220.329 68.0785 215.943 68.7214 214.193 73.5991C213.453 75.6517 213.831 78.574 212.151 79.9137V79.9082ZM212.157 60.4838C212.292 62.1745 208.192 64.3082 208.408 65.5344C208.483 65.9611 212.27 69.7207 212.88 69.618C213.399 69.5262 216.969 65.5776 218.071 65.0698C216.797 64.6917 212.999 59.8842 212.157 60.4838Z" fill="#1C1C1C"/>
<path d="M43.7211 59.4089C44.5367 60.2839 41.4416 61.0564 40.4693 61.818C35.8022 65.4804 37.7684 68.4729 36.6989 73.4262L33.5821 66.5715C32.8313 65.2049 29.6119 62.3582 28.2128 62.1583C26.8138 61.9585 24.6963 64.6431 22.6815 61.8234C27.0029 59.5601 30.0386 57.394 31.967 52.7648C32.5504 51.3603 31.9562 49.1403 34.0251 50.4745C34.4194 50.7284 37.2607 55.5196 38.5949 56.6972C39.8319 57.7937 43.5212 59.1928 43.7211 59.4034V59.4089ZM38.314 59.4413C36.445 58.9227 35.0406 57.5129 33.7387 56.1732C31.6375 59.0902 29.3688 59.2738 32.6746 62.0827C36.0615 64.9564 36.8069 62.8389 38.314 59.4413Z" fill="#1C1C1C"/>
<path d="M225.52 36.3167C225.958 36.8839 226.12 39.2336 226.622 40.3464C227.071 41.3403 230.398 46.5745 229.96 46.985L221.361 49.1133C220.977 47.5954 215.808 40.6164 214.868 40.2653C214.269 40.0438 213.426 40.8703 213.231 40.2437C216.019 38.6448 220.47 36.7218 223.603 36.0142C224.186 35.8846 225.148 35.8251 225.526 36.3113L225.52 36.3167ZM224.019 40.5192C223.884 40.3247 222.058 39.7522 221.582 40.5084C221.107 41.2646 222.031 42.318 221.863 43.2092C223.133 43.5387 224.564 41.3078 224.013 40.5192H224.019Z" fill="#1C1C1C"/>
<path d="M49.123 143.583C46.595 143.329 44.4019 144.664 42.1224 145.49L40.7611 149.514L34.009 140.11C34.1387 139.527 43.8131 135.346 44.4451 135.535C45.439 136.437 49.7928 142.935 49.123 143.583Z" fill="#1C1C1C"/>
<path d="M0 70.196C2.44156 70.6282 9.70141 67.1171 11.5002 67.5654C12.4995 67.8139 15.7513 74.0852 15.6109 74.7226C15.1895 76.597 10.8034 75.9272 9.49075 76.1703C8.10791 76.4242 4.8561 77.861 3.75416 77.4505C2.23629 76.8887 0.631986 71.8435 0.00539047 70.196H0Z" fill="#1C1C1C"/>
<path d="M38.8544 37.8237L25.9065 34.0372C25.5824 33.5996 30.1846 25.4161 29.1475 23.7956C31.3136 25.1352 40.3722 26.0481 41.3175 27.5606C42.2628 29.073 39.011 35.7117 38.8544 37.8237ZM36.6505 33.994C36.8665 33.8373 38.406 30.0993 37.8497 29.4241C37.1204 28.5437 31.8808 26.7233 30.9085 27.6902C30.3521 28.2466 29.2934 31.2067 29.7363 31.8279C29.947 32.125 36.2994 34.2479 36.6505 33.994Z" fill="#1C1C1C"/>
<path d="M58.2948 7.59055C58.4245 8.91936 58.4839 11.9767 59.1159 12.9868C59.5264 13.6404 65.2252 17.0057 66.3812 17.6215C67.105 18.005 67.764 17.454 67.4723 18.9287C65.6627 19.3986 62.0436 17.6593 60.5689 18.5127C60.3421 18.6424 57.9815 22.2777 57.6628 22.8827C57.1605 23.8334 56.7878 26.2371 56.6203 26.4424C56.5717 26.5018 55.1672 26.4964 55.1186 26.4424C54.6811 25.9076 54.1085 21.6997 53.3685 20.3493C52.8607 19.4202 49.6629 16.768 49.6683 16.4979C51.3753 15.0341 54.4056 12.9328 55.5994 11.107C56.7932 9.28128 55.9559 7.02337 58.2948 7.59055ZM59.3157 16.2872C59.2347 16.163 56.7607 15.1745 56.4853 15.2339C56.2368 15.2825 54.2165 16.876 53.4549 17.0381L55.6102 21.0839C56.4096 20.7923 56.7661 19.6471 57.463 18.8855C58.1598 18.1238 60.2664 17.7187 59.3211 16.2872H59.3157Z" fill="#1C1C1C"/>
<path d="M216.996 85.8501C217.072 85.9041 217.196 86.9088 217.78 87.4814C220.01 89.6691 222.538 91.0303 225.65 91.5165C225.617 92.613 220.572 97.9606 219.432 98.7925C216.272 101.094 217.536 99.2246 215.975 97.9498C215.116 97.2476 213.955 97.145 213.204 96.3996C212.07 95.2706 211.389 92.2349 209.996 90.9763C211.346 90.4523 212.853 90.0364 213.966 89.0155C214.857 88.1944 216.002 85.1641 217.002 85.8555L216.996 85.8501ZM216.845 91.3166C216.272 91.4678 214.684 93.0073 214.846 93.6501C215.446 94.1525 217.077 95.6163 217.736 95.5029C218.017 95.4543 220.232 93.3044 220.232 93.1315C220.232 92.5752 217.817 91.0627 216.845 91.3166Z" fill="#1C1C1C"/>
<path d="M195.952 136.577L190.285 147.354C189.464 147.364 188.411 142.319 187.719 141.563C186.445 140.169 181.507 140.44 180.843 138.997C183.376 138.322 186.218 134.6 188.697 134.438C191.176 134.276 193.542 136.437 195.957 136.577H195.952Z" fill="#1C1C1C"/>
<path d="M85.7895 9.70801C83.5478 10.5507 81.6032 10.9666 79.8908 12.7276C79.3669 13.2623 79.583 14.2778 78.8267 14.0726C78.1677 12.4089 72.0584 6.09428 72.8795 4.91131C79.9557 2.57778 84.0502 0.752023 85.7895 9.71342V9.70801Z" fill="#1C1C1C"/>
<path d="M21.0503 49.1457C18.2252 49.8101 15.0922 50.8526 12.6831 52.3759C10.625 49.5184 10.6845 45.7156 8.09705 43.22C8.48057 42.9121 14.7411 42.3342 15.8917 42.1019C16.8316 41.9128 17.4474 41.0648 17.5446 41.0648C17.9875 41.0648 20.845 48.1302 21.0503 49.1457Z" fill="#1C1C1C"/>
<path d="M181.912 16.7788C179.055 18.8801 176.684 20.8247 174.62 23.7848C173.448 20.6788 171.39 19.3176 168.424 18.1238C172.179 15.5959 174.301 12.4683 175.436 8.14691L178.131 13.8079C179.303 14.8666 180.265 16.5304 181.907 16.7842L181.912 16.7788Z" fill="#1C1C1C"/>
<path d="M156.535 15.1528C154.413 12.7599 151.863 13.6458 148.984 13.5323L152.279 4.96527C153.71 5.0625 160.652 5.20833 160.862 6.26166C160.965 6.76401 156.384 13.4999 156.535 15.1528Z" fill="#1C1C1C"/>
<path d="M24.8206 90.1552C23.9833 90.3335 24.3452 89.2261 23.7457 88.8318C23.038 88.3673 21.9307 88.5401 21.2069 88.108C20.2346 87.53 16.9449 85.3585 16.7883 84.4132C16.5506 83.0034 20.7207 80.7887 17.8092 80.1783C19.165 78.0609 24.5019 79.4221 25.62 81.0156C26.8354 82.7441 24.9232 87.8595 24.8206 90.1552Z" fill="#1C1C1C"/>
<path d="M113.36 59.4036H100.947C100.071 58.415 109.589 45.5104 110.67 43.4902C110.783 42.3882 110.616 42.7718 109.849 42.6637C104.96 41.9831 103.388 47.0175 98.7859 47.5307L100.914 38.0615C104.036 37.5159 107.24 37.9589 110.383 37.8184C111.961 37.7482 118.745 36.603 119.609 37.786C121.014 39.7144 116.811 45.316 116.033 47.239C114.64 50.6906 113.408 55.671 113.36 59.409V59.4036Z" fill="#1C1C1C"/>
<path d="M152.225 37.2781C153.267 38.3531 149.184 44.3111 148.589 45.7858C147.007 49.7344 145.84 55.2171 145.743 59.4034H133.324C134.621 53.1429 140.519 48.1193 144.117 42.9391C138.067 40.8325 135.901 45.5103 131.169 46.985C130.812 46.6285 132.611 38.2235 133.594 37.2728H152.219L152.225 37.2781Z" fill="#1C1C1C"/>
<path d="M70.7132 59.4035C69.4492 58.2854 79.4747 45.7805 79.8961 43.4848C80.1067 42.3342 80.0635 42.8906 79.3451 42.923C78.1405 42.9824 75.4775 43.4524 74.3755 43.9007C73.0845 44.4247 70.1946 47.5036 69.9083 47.5198C69.0009 47.5684 69.4276 46.3963 69.46 46.0236C69.6815 43.6522 70.6754 41.3295 70.7402 38.9204C72.3607 39.2175 89.1059 37.1756 89.0789 38.0939C88.4685 41.9723 85.7461 45.0621 84.6009 48.7298C83.4774 52.3381 83.7799 56.2436 82.3214 59.4035H70.7132Z" fill="#1C1C1C"/>
<path d="M128.474 35.6577C127.566 38.7096 126.632 58.5176 125.746 59.3765C125.459 59.652 122.299 59.2523 121.451 59.4089C120.447 58.3988 124.293 40.1195 124.401 37.262C124.946 35.2202 126.745 35.6145 128.474 35.6631V35.6577Z" fill="#1C1C1C"/>
<path d="M95.7988 36.4841C96.0311 36.7164 96.6091 36.7866 96.6253 37.0675C94.6753 39.871 94.7131 58.5986 93.9082 59.3819C93.7516 59.5385 90.4241 60.3596 90.1487 58.5986C89.6733 55.5251 91.1318 44.8567 91.9042 41.4645C92.2931 39.7629 93.3896 35.9872 95.2856 35.6577C95.5989 35.7927 95.5287 36.2194 95.7988 36.4841Z" fill="#1C1C1C"/>
<path d="M93.3898 86.3848C104.798 90.6143 117.632 88.6643 128.468 83.684C126.745 91.2733 124.422 99.9592 115.25 100.959C104.155 102.163 96.5227 96.7776 93.3898 86.3848ZM119.831 93.4016C117.989 94.6764 116.012 93.1099 114.132 93.8769C112.474 94.5521 113.155 95.9296 114.969 95.8756C116.784 95.8215 120.479 95.9566 119.831 93.407V93.4016Z" fill="#1C1C1C"/>
</svg>
