<svg width="50" height="45" viewBox="0 0 50 45" fill="none" xmlns="http://www.w3.org/2000/svg">
<path d="M18.54 0.75H31.31C39.46 0.75 46.07 7.36 46.07 15.51C46.07 17.06 44.81 18.32 43.26 18.32H6.58002C5.03002 18.32 3.77002 17.06 3.77002 15.51C3.77002 7.36 10.39 0.75 18.54 0.75Z" stroke="#1C1C1F" stroke-width="1.5" stroke-miterlimit="10"/>
<path d="M44.9199 34.5801V35.8201C44.9199 40.3101 41.2799 43.9501 36.7899 43.9501H13.0499C8.55992 43.9501 4.91992 40.3101 4.91992 35.8201V34.5801C4.91992 33.4901 5.80992 32.6001 6.89992 32.6001H24.4399C25.1599 32.6001 25.8599 32.8501 26.4099 33.3101L30.6999 36.8801C31.9199 37.9001 33.7199 37.8201 34.8499 36.6901L38.0399 33.5001C38.6199 32.9201 39.3999 32.6001 40.2199 32.6001H42.9599C44.0499 32.6001 44.9399 33.4901 44.9399 34.5801H44.9199Z" stroke="#1C1C1F" stroke-width="1.5" stroke-miterlimit="10"/>
<path d="M44.81 21.1602H5.03C2.66622 21.1602 0.75 23.0764 0.75 25.4402C0.75 27.8039 2.66622 29.7202 5.03 29.7202H44.81C47.1738 29.7202 49.09 27.8039 49.09 25.4402C49.09 23.0764 47.1738 21.1602 44.81 21.1602Z" stroke="#1C1C1F" stroke-width="1.5" stroke-miterlimit="10"/>
<path d="M24.92 10.9899C25.279 10.9899 25.57 10.6989 25.57 10.3399C25.57 9.98096 25.279 9.68994 24.92 9.68994C24.561 9.68994 24.27 9.98096 24.27 10.3399C24.27 10.6989 24.561 10.9899 24.92 10.9899Z" stroke="#1C1C1F" stroke-width="1.5" stroke-miterlimit="10"/>
<path d="M15.2401 10.9899C15.5991 10.9899 15.8901 10.6989 15.8901 10.3399C15.8901 9.98096 15.5991 9.68994 15.2401 9.68994C14.8811 9.68994 14.5901 9.98096 14.5901 10.3399C14.5901 10.6989 14.8811 10.9899 15.2401 10.9899Z" stroke="#1C1C1F" stroke-width="1.5" stroke-miterlimit="10"/>
<path d="M34.68 10.9899C35.039 10.9899 35.33 10.6989 35.33 10.3399C35.33 9.98096 35.039 9.68994 34.68 9.68994C34.321 9.68994 34.03 9.98096 34.03 10.3399C34.03 10.6989 34.321 10.9899 34.68 10.9899Z" stroke="#1C1C1F" stroke-width="1.5" stroke-miterlimit="10"/>
</svg>
