<svg width="45" height="60" viewBox="0 0 45 60" fill="none" xmlns="http://www.w3.org/2000/svg">
<path d="M21.94 59.1798C33.6429 59.1798 43.13 49.6927 43.13 37.9898C43.13 26.2869 33.6429 16.7998 21.94 16.7998C10.2371 16.7998 0.75 26.2869 0.75 37.9898C0.75 49.6927 10.2371 59.1798 21.94 59.1798Z" stroke="#1C1C1F" stroke-width="1.5" stroke-miterlimit="10" stroke-linecap="round"/>
<path d="M21.9399 59.1702V2.91016" stroke="#1C1C1F" stroke-width="1.5" stroke-miterlimit="10" stroke-linecap="round"/>
<path d="M21.2599 59.2098C14.2499 56.4298 9.1499 48.0498 9.1499 38.1398C9.1499 28.2298 14.6599 19.1698 22.1099 16.7598" stroke="#1C1C1F" stroke-width="1.5" stroke-miterlimit="10" stroke-linecap="round"/>
<path d="M22.7999 59.1601C29.9799 56.3901 35.1899 48.0301 35.1899 38.1401C35.1899 28.2501 29.5499 19.2201 21.9299 16.8101" stroke="#1C1C1F" stroke-width="1.5" stroke-miterlimit="10" stroke-linecap="round"/>
<path d="M6.30005 23.7002H37.57" stroke="#1C1C1F" stroke-width="1.5" stroke-miterlimit="10" stroke-linecap="round"/>
<path d="M1.98999 31.2803H42.05" stroke="#1C1C1F" stroke-width="1.5" stroke-miterlimit="10" stroke-linecap="round"/>
<path d="M0.76001 37.9902H43.13" stroke="#1C1C1F" stroke-width="1.5" stroke-miterlimit="10" stroke-linecap="round"/>
<path d="M2.33008 45.1602H41.8801" stroke="#1C1C1F" stroke-width="1.5" stroke-miterlimit="10" stroke-linecap="round"/>
<path d="M6.30005 52.04H37.79" stroke="#1C1C1F" stroke-width="1.5" stroke-miterlimit="10" stroke-linecap="round"/>
<path d="M40.5201 11.2998C40.5201 11.2998 40.8301 14.4698 37.5701 15.3598" stroke="#1C1C1F" stroke-width="1.5" stroke-miterlimit="10" stroke-linecap="round"/>
<path d="M40.5301 11.2998C40.5301 11.2998 40.2201 14.4698 43.4801 15.3598" stroke="#1C1C1F" stroke-width="1.5" stroke-miterlimit="10" stroke-linecap="round"/>
<path d="M40.5201 19.4096C40.5201 19.4096 40.8301 16.2396 37.5701 15.3496" stroke="#1C1C1F" stroke-width="1.5" stroke-miterlimit="10" stroke-linecap="round"/>
<path d="M40.5301 19.4096C40.5301 19.4096 40.2201 16.2396 43.4801 15.3496" stroke="#1C1C1F" stroke-width="1.5" stroke-miterlimit="10" stroke-linecap="round"/>
<path d="M32.3299 0.75C32.3299 0.75 32.8699 6.33003 27.1299 7.91003" stroke="#1C1C1F" stroke-width="1.5" stroke-miterlimit="10" stroke-linecap="round"/>
<path d="M32.36 0.75C32.36 0.75 31.82 6.33003 37.56 7.91003" stroke="#1C1C1F" stroke-width="1.5" stroke-miterlimit="10" stroke-linecap="round"/>
<path d="M32.3299 15.0599C32.3299 15.0599 32.8699 9.4799 27.1299 7.8999" stroke="#1C1C1F" stroke-width="1.5" stroke-miterlimit="10" stroke-linecap="round"/>
<path d="M32.36 15.0599C32.36 15.0599 31.82 9.4799 37.56 7.8999" stroke="#1C1C1F" stroke-width="1.5" stroke-miterlimit="10" stroke-linecap="round"/>
</svg>
