<svg width="50" height="54" viewBox="0 0 50 54" fill="none" xmlns="http://www.w3.org/2000/svg">
<path d="M18.6131 6.8989L7.58309 18.0689C7.13309 18.5289 7.45309 19.2989 8.09309 19.2989H13.8031C14.4031 19.2989 14.7431 19.9989 14.3731 20.4689L0.913093 37.4289C0.533093 37.8989 0.873093 38.5989 1.48309 38.5989H36.6231C37.2231 38.5989 37.5631 37.8989 37.1831 37.4289L23.6731 20.4489C23.2931 19.9789 23.6331 19.2789 24.2431 19.2789L29.9831 19.3089C30.6231 19.3089 30.9531 18.5389 30.5031 18.0889L19.6531 6.90891C19.3731 6.61891 18.9031 6.61891 18.6231 6.90891L18.6131 6.8989Z" stroke="#1C1C1F" stroke-width="1.5" stroke-miterlimit="10" stroke-linecap="round"/>
<path d="M19.133 38.5991L19.053 52.7991" stroke="#1C1C1F" stroke-width="1.5" stroke-miterlimit="10" stroke-linecap="round"/>
<path d="M26.3232 23.9592C26.2832 23.3992 26.2632 22.8292 26.2632 22.2592C26.2632 21.3592 26.3432 20.4192 26.4832 19.4492" stroke="#1C1C1F" stroke-width="1.5" stroke-miterlimit="10" stroke-linecap="round"/>
<path d="M27.7432 14.309C30.1032 7.22899 34.7032 0.469006 37.3532 0.759006C41.2832 1.18901 48.4432 13.489 48.4432 22.259C48.4432 31.029 43.4732 38.149 37.3532 38.149C37.0532 38.149 36.7532 38.129 36.4532 38.099" stroke="#1C1C1F" stroke-width="1.5" stroke-miterlimit="10" stroke-linecap="round"/>
<path d="M37.343 26.939V52.799" stroke="#1C1C1F" stroke-width="1.5" stroke-miterlimit="10" stroke-linecap="round"/>
</svg>
