<svg width="47" height="48" viewBox="0 0 47 48" fill="none" xmlns="http://www.w3.org/2000/svg">
<path d="M1.95864 15.3618L37.4801 0.880231C38.3783 0.514038 39.4081 0.947351 39.7743 1.84557L42.3225 8.09609C42.6887 8.99431 42.2554 10.0241 41.3572 10.3903L4.21524 25.5325L1.00634 17.6615C0.640145 16.7633 1.07346 15.7335 1.97168 15.3673L1.95864 15.3618Z" stroke="#1C1C1F" stroke-width="1.5" stroke-miterlimit="10" stroke-linecap="round"/>
<path d="M4.02905 24.9414H43.2791C44.6791 24.9414 45.819 26.0814 45.819 27.4814V44.2414C45.819 45.6414 44.6791 46.7814 43.2791 46.7814H6.56905C5.16905 46.7814 4.02905 45.6414 4.02905 44.2414V24.9514V24.9414Z" stroke="#1C1C1F" stroke-width="1.5" stroke-miterlimit="10" stroke-linecap="round"/>
<path d="M10.489 11.8813V22.9614" stroke="#1C1C1F" stroke-width="1.5" stroke-miterlimit="10" stroke-linecap="round"/>
<path d="M21.6689 7.32129V18.4013" stroke="#1C1C1F" stroke-width="1.5" stroke-miterlimit="10" stroke-linecap="round"/>
<path d="M32.5591 2.88135L32.0591 14.1613" stroke="#1C1C1F" stroke-width="1.5" stroke-miterlimit="10" stroke-linecap="round"/>
<path d="M13.179 33.0015H35.759" stroke="#1C1C1F" stroke-width="1.5" stroke-miterlimit="10" stroke-linecap="round"/>
<path d="M13.179 38.4614H35.759" stroke="#1C1C1F" stroke-width="1.5" stroke-miterlimit="10" stroke-linecap="round"/>
</svg>
