<svg width="53" height="51" viewBox="0 0 53 51" fill="none" xmlns="http://www.w3.org/2000/svg">
<path d="M32.9857 49.3901H4.12569C2.13569 49.3901 0.575689 47.6801 0.765689 45.7001L3.53569 16.1801C3.69569 14.4401 5.15569 13.1201 6.89569 13.1201H30.2157C31.9557 13.1201 33.4157 14.4501 33.5757 16.1801L36.3457 45.7001C36.5357 47.6801 34.9757 49.3901 32.9857 49.3901Z" stroke="#1C1C1F" stroke-width="1.5" stroke-miterlimit="10"/>
<path d="M9.56567 21.99V9.73999C9.56567 4.76999 13.5957 0.75 18.5557 0.75C23.5257 0.75 27.5457 4.77999 27.5457 9.73999V21.99" stroke="#1C1C1F" stroke-width="1.5" stroke-miterlimit="10" stroke-linecap="round"/>
<path d="M29.6157 13.1201H45.8057C47.5457 13.1201 49.0057 14.4501 49.1657 16.1801L51.9357 45.7001C52.1257 47.6801 50.5657 49.3901 48.5757 49.3901H33.7257" stroke="#1C1C1F" stroke-width="1.5" stroke-miterlimit="10"/>
<path d="M26.4358 5.12976C28.0058 2.50976 30.8758 0.759766 34.1558 0.759766C39.1258 0.759766 43.1458 4.78977 43.1458 9.74977V21.9998" stroke="#1C1C1F" stroke-width="1.5" stroke-miterlimit="10" stroke-linecap="round"/>
</svg>
