<svg width="129" height="67" viewBox="0 0 129 67" fill="none" xmlns="http://www.w3.org/2000/svg">
<path d="M0.0100098 57.9811L3.67999 57.5611C5.76999 52.6911 7.93001 47.8411 10.2 43.0611C15.98 30.8511 22.31 18.9911 28.54 7.02108C28.79 6.53108 30.06 4.83107 29.94 4.65107C28.63 4.10107 25.69 2.62107 25.52 1.11107C25.41 0.0810727 25.76 -0.258931 26.71 0.201069C30.59 2.11107 34.64 5.97107 38.55 8.13107C40.81 9.38107 42.63 9.55108 45.17 9.84108C48.2 10.1911 51.37 10.3711 54.4 10.2311L44.11 2.56107L43.21 0.99107L44.78 1.10107L60.4 12.5611L42.27 53.2711C42.05 54.3711 41.96 56.6911 42.67 57.5911C42.91 57.9011 43.45 58.0011 43.69 58.3911C44.09 59.0211 44.12 64.1311 43.99 65.1411C43.94 65.5011 43.93 65.8211 43.61 66.0611L0 66.0311V57.9611L0.0100098 57.9811ZM20.29 41.8411C24.52 30.5111 29.55 19.5311 35.35 8.92107L31.62 5.93107L28.89 11.7911C28.91 12.6811 32.63 13.9911 32.01 14.5111C30.64 14.7311 29.69 14.0411 28.63 13.3111H28.11C27.8 13.4811 25.78 17.4111 25.76 17.7911C25.68 19.3611 29.12 20.1811 29.14 20.6311C27.86 22.1711 25.62 19.2611 24.72 19.8311L22.16 25.2711L23.04 26.2111C23.29 26.7211 25.71 27.4311 25.5 27.9011C24.88 29.3011 21.61 26.3811 21.09 26.7411L18.79 31.8511C18.71 33.2911 23.35 34.9711 22.64 35.5811C20.58 36.0311 19.53 33.9211 17.71 33.7711L15.66 38.6211C15.58 39.5011 19.21 41.9111 20.29 41.8211V41.8411ZM33.84 17.9111C34.48 17.3011 36.88 20.1811 38.26 19.3411L42.05 12.9611C40.84 11.6911 39.14 11.0811 37.49 10.6211L30.76 23.2911C30.69 24.0811 33.47 25.8911 34.36 25.3311C34.64 25.1611 37.44 20.7511 37.23 20.5111C36.45 20.7811 33.11 18.6111 33.85 17.9111H33.84ZM53.61 14.0011L49.58 15.0411L47.63 18.9411C48.32 19.0511 48.93 19.4411 49.48 19.8311C49.78 20.0511 50.12 19.8311 49.97 20.5011C49.14 20.5311 47.97 20.6411 47.65 19.6311L47.11 19.4611L44.28 24.7411C44.84 25.8111 47.08 26.8111 48.02 25.9711L53.61 14.0011ZM33.58 26.4911L29.93 25.0411L27.89 29.7111L30.45 32.4811C29.05 32.6811 28.25 31.5411 27.07 31.1811L25.23 36.7711C25.28 37.5711 28.09 38.6911 28.1 39.1211C28.13 40.3211 25.06 38.5011 24.73 38.2111L22.95 43.6011C23.54 45.1711 25.23 45.4011 26.41 46.2811C28.14 41.5911 29.2 36.3111 31.1 31.7211C31.43 30.9311 33.76 26.7911 33.56 26.5111L33.58 26.4911ZM43.37 26.2711C42.67 26.4011 39.99 31.3711 39.57 32.3511C39.6 33.5111 43.35 35.2611 44.22 34.1311C44.6 33.6411 47.16 28.2711 47.09 27.9311L43.37 26.2611V26.2711ZM40.85 41.3211L43.17 36.2411L38.69 34.3111L36.5 39.1111C37.74 40.3011 39.17 40.9811 40.85 41.3111V41.3211ZM40.34 42.1111C38.63 42.1711 37.35 40.9711 35.92 40.2911L34.12 45.5811C34.76 46.3211 35.63 46.7011 36.44 47.1911C36.77 47.3911 37.1 47.1411 36.95 47.8411C35.55 48.0611 34.58 47.3911 33.57 46.5411C33.38 47.8511 30.75 51.7011 31.74 52.6611C32.07 52.9811 34.56 53.8911 35 53.3111L40.33 42.1211L40.34 42.1111ZM14.59 40.8111L12.57 45.6211C12.61 46.1211 16.64 48.7211 17.28 48.5711L19.39 43.3911C18.71 43.0211 15.08 40.4511 14.58 40.8111H14.59ZM26.29 46.7911C24.76 47.1111 23.97 46.3211 22.78 45.7411C22.54 45.6211 22.59 45.3011 22.26 45.7411C21.44 48.7911 20.38 51.7511 19.01 54.5811C20.44 55.1911 22.17 55.4211 23.63 54.7811L26.3 46.7811L26.29 46.7911ZM10.16 53.5511H16.14L16.62 50.2111C15.36 49.7911 12.41 47.2211 11.2 47.9511C10.55 48.3411 10.38 52.5411 10.16 53.5511Z" fill="white"/>
<path d="M80.8699 11.0811C81.1899 11.2611 81.8099 11.1411 82.1899 11.0811C84.0499 10.7511 89.8699 9.33107 91.4199 8.60107C94.6299 7.07107 98.7799 1.89107 102.01 0.46107C103.14 -0.0389304 103.76 0.0410677 103.73 1.38107C103.69 3.12107 101.81 2.80107 100.89 4.02107C100.75 5.08107 102.19 4.98107 102.39 5.59107C102.74 6.65107 101.76 6.92107 100.9 6.68107C99.8799 3.47107 98.5399 6.51107 96.6099 6.76107L94.8799 8.02107C95.8999 7.91107 96.6699 8.00107 97.1699 8.98107C106.44 25.0111 116.32 40.7011 124.57 57.3011C125.31 58.3211 127.76 57.0911 128.32 58.2411C128.67 58.9711 128.59 65.7611 127.94 66.1911L84.9699 65.9511C84.7599 65.7211 84.7599 65.4411 84.7199 65.1611C84.6099 64.2611 84.6399 58.7811 84.9699 58.3611C85.2999 57.9411 86.2899 58.0211 86.5099 57.3011C86.6599 56.8011 86.4899 56.1511 86.6299 55.5911C86.8299 54.7711 87.2499 53.9411 87.3899 53.2111C87.6799 51.6911 82.4199 40.1211 81.3999 37.7911C77.7999 29.5011 73.7999 21.3811 70.1499 13.1211L70.5899 12.5011L91.0499 0.171069C92.0199 -0.158931 91.7899 0.771068 91.4699 1.38107C90.2499 3.67107 82.2299 6.92107 80.0299 8.96107L79.8999 9.37107L80.8899 11.1211L80.8699 11.0811ZM83.1599 20.7611C82.2899 18.6011 79.7399 15.5911 79.5199 13.3211C79.4299 12.4211 79.9999 10.8911 78.7299 10.2111C78.1999 9.93107 73.5999 12.6111 73.3799 12.9511C73.1999 13.2211 73.3199 13.4211 73.4699 13.6611C74.6999 14.8011 77.4499 21.1711 78.4699 21.6811C79.3999 22.1411 82.0999 21.0611 83.1499 20.7611H83.1599ZM93.5699 21.5511C92.8599 20.8511 96.2599 19.4311 96.8199 18.9411C97.2799 18.5411 98.0299 17.7411 98.1299 17.1511C98.2499 16.5011 95.6399 12.1111 94.5499 12.2311C93.0699 12.3911 90.7699 13.8111 89.1599 14.0311L89.5399 15.5711L108.53 51.2211C109.67 52.2811 113.5 49.3611 114.26 48.3611C115.61 46.5711 113.7 44.9811 112.82 43.2811C111.84 42.6711 108.93 45.5711 107.62 45.9011C107.26 45.9911 106.67 46.1011 106.57 45.6211C106.35 44.5411 112.2 43.3011 111.4 40.2811C111.32 39.9811 109.76 37.3511 109.56 37.1611C109.33 36.9511 109.25 36.8111 108.91 37.0011C107.6 37.8011 105.71 39.5411 104.25 39.9111C103.48 40.1011 103.06 39.3611 103.79 38.9211C105.01 38.1811 108.79 36.4011 108.21 34.6511C107.99 34.0011 106.38 30.8911 105.71 30.9611C104.91 31.0411 102.65 33.3111 101.38 33.6711C101.01 33.7711 100.06 33.8911 100.07 33.4011C100.09 32.5311 105.64 31.0911 104.82 28.6711C104.72 28.3711 102.96 25.3611 102.79 25.2111C102 24.5111 100.54 26.2611 99.6799 26.7711C99.3899 26.9411 97.1199 28.3611 96.9399 27.4111C96.8499 26.9011 100.38 25.3711 101.1 24.2911C102.26 22.5511 99.8899 20.3311 99.1199 18.7111C98.4099 18.5411 94.9599 22.0811 93.5499 21.5511H93.5699ZM83.9099 22.1011C82.9999 22.1711 79.4399 22.5611 79.2799 23.5411C81.0899 27.2011 82.0199 29.9011 86.5199 27.1511L83.9099 22.1011ZM87.3099 28.5811C86.5099 28.8411 82.8299 29.2911 82.6599 30.0311L85.1599 34.2611C86.8999 34.5211 88.3599 34.2011 89.9299 33.5211L87.3099 28.5911V28.5811ZM90.6899 34.8211L86.0299 35.8611C85.7599 36.2311 87.5899 39.6411 88.1099 39.8911C89.4499 40.5411 91.6399 39.7611 92.7999 38.9711L90.7 34.8211H90.6899ZM90.4899 45.4411C91.6599 45.6411 95.7799 45.6311 95.2799 43.6611C95.2099 43.3611 93.7199 40.4911 93.5699 40.3911L88.9199 41.3511C88.6399 42.9411 90.0299 44.0611 90.4899 45.4411ZM93.9599 53.2911H99.4199C99.4199 53.2911 100.09 52.9911 100.07 52.9011L96.5699 46.2611C95.9799 45.7211 91.3499 46.8111 91.2799 47.1611L93.9599 53.2911ZM117.77 53.5511C117.87 52.6911 116.68 49.4011 115.83 49.3811C115.15 49.3611 111.51 52.0211 111.56 52.5911L112.17 53.5511H117.76H117.77Z" fill="white"/>
</svg>
