<svg width="109" height="88" viewBox="0 0 109 88" fill="none" xmlns="http://www.w3.org/2000/svg">
<path d="M8.93999 72.3225C9.27999 72.1025 9.4 65.5925 9.23 64.7225C9.05 63.8025 7.76001 63.3925 7.87001 62.7525C9.19001 61.6325 9.21001 59.9525 10.28 58.5925C11.35 57.2325 14.58 55.8425 15.08 55.0125C15.37 54.5325 14.92 54.1125 14.98 53.7125C15.05 53.2525 15.94 53.0025 16.1 52.1825C16.22 51.5825 16.05 50.8725 16.1 50.2525C17.41 50.2125 16.82 51.6325 17.05 52.4325C17.21 52.9825 18.03 53.2525 18.14 53.7425C18.23 54.1625 17.85 54.5725 18.03 55.0225C18.34 55.8325 21.26 57.3125 22.07 58.1625C23.28 59.4425 23.77 61.4325 24.9 62.7825C25.21 63.6725 23.57 64.0825 23.57 64.4225V71.8825L24.02 72.3325H30.88C31.55 71.7425 31.45 70.0925 31.26 69.2625C31.02 68.2125 29.73 67.8025 29.82 66.8225C29.99 64.9625 35.67 64.4325 37.15 64.2725C45.92 63.3525 54.91 63.1725 63.72 63.6625C66.81 63.8325 72.49 63.9525 75.28 64.6325C75.89 64.7825 78.57 66.0625 78.73 66.5625C79.27 68.3125 77.37 68.1625 77.05 69.2525C76.89 69.7925 76.84 71.8925 77.27 72.1925C79.33 72.6125 81.39 72.2125 83.42 72.0225C83.93 71.9725 84.37 72.5525 84.75 71.8725V64.4125C84.75 64.1025 83.03 63.5325 83.4 62.7625C84.84 61.5225 84.73 59.7725 86.09 58.2825C87.06 57.2225 89.98 55.8325 90.44 55.0925C90.84 54.4425 90.35 53.8925 90.47 53.4325C90.57 53.0525 91.1 52.8525 91.25 52.4125C91.47 51.7325 91.1 50.0525 92.21 50.2425C91.83 51.7225 92.93 52.4725 93.34 53.4425C93.51 53.8525 93.33 54.4825 93.56 55.0125C93.83 55.6425 96.96 57.4325 97.75 58.2825C98.72 59.3425 98.93 60.4225 99.55 61.5525C99.89 62.1725 100.95 62.4625 100.44 63.3725C98.93 64.1325 99.57 64.3725 99.39 65.6125C99.34 65.9725 99.08 66.4225 99.08 66.5025V71.8725L99.53 72.3225H107.14L108.33 87.5425H0L1.64 72.3225H8.95H8.93999ZM18.79 72.0225V64.1125C18.79 63.7025 17.69 62.5825 17.14 62.4825C11.85 61.4625 15.01 69.2425 13.72 72.0225H18.79ZM94.29 72.0225V64.1125C94.29 62.4325 90.44 61.7325 89.66 63.3625C88.85 65.0725 90.18 70.0125 89.21 72.0225H94.28H94.29ZM81.74 81.2925L77.36 80.7425L54.5 68.8025C46.71 72.4625 39.63 77.5725 31.74 80.9425L26.84 81.2725L26.97 83.0825L27.87 83.3725H80.72L81.62 83.0825L81.73 81.2925H81.74Z" fill="white"/>
<path d="M34.0099 46.5026C33.9999 46.3826 33.6099 46.0626 33.5499 45.7626C33.2799 44.3326 33.9399 43.9726 31.9099 43.1726L31.9499 38.9226C46.4499 35.7426 62.1499 35.3126 76.5499 39.1826C76.8099 39.5726 76.7899 42.9526 76.5399 43.3726C76.3299 43.7126 75.5499 43.8226 75.3399 44.2626C74.1099 46.7926 74.4499 58.8526 74.5799 62.3326C74.6099 63.0026 74.8899 63.5926 74.8899 64.2626C72.5499 63.9026 70.1899 63.3926 67.8399 63.1126C56.5899 61.7526 45.1499 61.8726 34.0099 63.9726C33.5799 58.3926 34.5799 51.9926 34.0099 46.5126V46.5026ZM73.3999 43.0726C69.9799 42.5926 66.5499 41.8926 63.0999 41.5826C57.0799 41.0426 50.6099 40.9726 44.5999 41.5826C41.9599 41.8526 39.2699 42.3126 36.6899 42.9226C36.6899 43.3926 45.3299 42.2226 46.0999 42.1826C51.1499 41.8926 56.8799 41.8626 61.9099 42.1826C65.3899 42.4026 68.8899 43.1026 72.3599 43.3726C72.6899 43.4026 73.4699 43.5926 73.3999 43.0826V43.0726ZM56.9899 60.3826V47.9926C56.9899 47.2726 55.2999 46.0326 54.4499 46.0326C53.6699 46.0326 52.2099 46.9926 52.2099 47.6926V60.3726H56.9899V60.3826ZM44.1499 48.8926V60.3826L47.2999 59.8026C47.4499 59.5826 47.4099 59.3026 47.4399 59.0526C47.6399 57.4226 47.6699 48.8426 47.2999 47.5226C46.9299 46.2026 45.0399 46.0226 44.3099 47.2626C43.8899 47.9826 44.1599 48.3526 44.1499 48.8926ZM64.7499 60.3826V47.9926C64.7499 47.1526 63.0999 46.1426 62.2599 46.9226C62.0399 47.0526 61.9599 47.2826 61.8899 47.5126C61.5199 48.8526 61.5399 57.4026 61.7399 59.0426C61.7699 59.2926 61.7399 59.5626 61.8899 59.7826L64.7399 60.3726L64.7499 60.3826ZM37.2899 48.5926V60.8326L37.5799 61.1426C38.3099 61.4826 38.9299 61.3826 39.0799 60.5326C39.7099 57.1126 38.4599 52.2026 39.2799 48.6226C39.2499 47.9326 38.7199 47.6226 38.0699 47.5826C37.8299 47.6426 37.3299 48.3826 37.2899 48.5926ZM71.3099 61.5726V48.2926C71.3099 47.7026 69.5199 47.7026 69.5199 48.2926V60.5326C69.5199 60.6826 70.6599 61.5226 70.8699 61.5726H71.3099Z" fill="white"/>
<path d="M52.21 16.5125L51.02 16.8125C50.36 14.6425 51.92 11.6225 49.53 10.3925C50.79 8.90254 51.47 7.51254 53.42 6.76254C53.74 5.44254 52.77 0.81254 53.7 0.24254C56.44 -1.42746 54.68 6.04255 55.24 6.91255C55.29 6.98255 56.17 7.24255 56.54 7.55255C57.01 7.95255 58.67 9.67254 58.74 10.1525C58.79 10.4825 58 11.1125 57.82 11.8525C57.66 12.5125 57.87 17.1225 57.14 17.1025C55.33 15.6725 57.46 12.5425 55.64 11.1425L54.9 11.5925V16.8125C57.07 16.3825 56.9 17.7525 57.66 18.5225C58.12 18.9925 61.25 20.2425 62.28 20.9225C67.24 24.2125 71.55 29.7225 72.81 35.6125C70.24 35.3725 67.73 34.7425 65.16 34.4625C55.18 33.3525 45.38 33.9425 35.5 35.6125C36.73 30.0825 40.33 24.3325 45.07 21.1625C46.55 20.1725 49.62 19.3425 50.54 18.5725C51.5 17.7625 51.3 16.2725 53.7 16.8125C53.76 16.5825 53.4 16.4525 53.4 16.3725V11.5925L52.66 11.1425L52.21 11.5925V16.5125Z" fill="white"/>
<path d="M75.49 81.5726L32.51 81.4326L54.45 70.2526C60.46 73.5426 66.7 76.4426 72.7 79.7426C73.6 80.2326 74.81 80.8426 75.48 81.5826L75.49 81.5726ZM48.25 76.2326C44.75 76.7526 47.65 81.9326 49.84 77.8226C49.91 77.0726 49.05 76.1126 48.25 76.2326ZM60.18 76.2426L59.12 77.3126C58.74 78.6926 60.56 79.6626 61.76 79.0326L62.32 78.3726C62.71 77.3726 61.04 76.0226 60.19 76.2426H60.18Z" fill="white"/>
</svg>
