<svg width="87" height="140" viewBox="0 0 87 140" fill="none" xmlns="http://www.w3.org/2000/svg">
<path d="M46.312 57.6834C54.492 50.7934 57.692 55.9535 64.092 60.3535C66.142 61.7635 71.9921 64.9135 73.6721 61.6335C75.1521 58.7535 70.432 58.9935 70.432 56.9435C70.302 55.3935 73.8421 55.3035 73.8921 54.4835C73.3921 52.8035 71.582 52.2435 70.742 51.2435C68.362 48.4035 67.982 37.1735 66.132 32.7035C65.812 31.9335 64.912 31.4735 64.662 30.7235C63.652 27.7535 65.8621 28.8335 67.0021 27.8635C67.5521 27.4035 67.602 26.3035 68.222 25.6335C69.812 23.9035 73.5321 22.1434 74.1721 20.2334C74.3821 19.6134 73.252 19.1735 73.492 18.1635C73.592 17.7735 74.152 17.3735 74.262 16.9035C74.602 15.5335 74.122 14.2535 75.632 13.3535C75.822 14.5235 77.282 17.2434 77.342 18.0534C77.442 19.1834 76.592 19.4334 77.292 21.0134C78.192 23.0234 80.612 23.2334 81.982 24.7334C82.822 25.6534 82.992 27.0435 83.402 27.5035C84.002 28.1735 86.3521 28.3634 86.6721 29.4434C87.0421 30.6934 84.942 32.4835 84.372 33.9235C82.422 38.8935 82.932 47.6235 79.812 51.5335C78.032 53.7735 75.442 53.7535 80.082 56.2035C81.272 58.7935 78.752 58.4735 77.962 59.2835C77.512 59.7535 77.282 61.4135 76.772 62.2835C73.872 67.2535 68.562 67.4235 64.082 64.3135C63.232 63.7235 59.842 59.5635 59.122 60.1635C60.322 62.2335 60.332 65.9535 58.012 67.1735C51.152 70.7635 49.632 58.9335 57.642 61.6335C57.122 57.0335 52.302 55.0235 48.752 58.4135C44.942 62.0535 49.632 63.4335 49.272 67.0535L46.812 67.7835C50.692 70.2035 50.822 71.0835 51.112 75.6935L47.262 76.6235L46.802 77.6435L47.302 110.603C47.872 114.393 52.832 115.093 53.472 116.313C54.482 118.233 52.192 119.523 51.832 121.103C50.712 125.973 54.562 124.913 55.112 125.743C55.442 126.243 55.062 129.293 55.172 130.363C55.582 134.303 58.192 132.353 61.012 133.623L61.082 139.463L25.592 139.243C24.822 138.693 24.922 134.923 25.352 134.033C26.042 132.613 27.962 133.243 29.182 132.943C32.522 132.113 30.312 128.663 31.082 126.463C31.382 125.603 34.162 125.373 34.752 123.213C35.272 121.323 31.862 117.813 33.072 115.883C33.522 115.163 38.222 114.693 38.882 111.103L39.402 76.3935C38.492 76.2835 35.302 76.8634 35.092 75.6834C35.022 71.0034 36.792 70.1135 39.892 67.2835L37.742 67.5034C34.912 64.9834 39.602 63.5834 39.202 61.1134C38.452 56.4134 29.952 54.5835 30.082 60.6035C33.302 61.0535 36.152 64.1735 33.032 66.8335C28.732 70.5035 24.972 64.4035 27.082 60.1535C23.392 63.9234 17.862 68.6235 12.322 65.3035C9.68204 63.7135 9.91204 61.3935 8.60204 59.6635C8.02204 58.8935 6.68204 58.5635 6.44204 57.8535C5.66204 55.5435 9.07204 55.0635 9.24204 53.9935C8.63204 52.2035 6.37204 51.8035 5.54204 49.9135C3.73204 45.7835 4.00204 37.5535 2.23204 33.0235C1.68204 31.6235 -0.0679588 31.4735 0.00204124 29.8235C0.0720412 28.1735 2.72204 28.2335 3.31204 27.5035C3.77204 26.9435 3.57204 25.7934 4.67204 24.6734C6.14204 23.1634 9.72204 22.6535 9.78204 20.0235C9.79204 19.4235 9.30204 18.7335 9.36204 18.0435C9.42204 17.4235 10.712 14.2235 11.082 13.3535C11.342 13.3535 13.182 17.8634 13.212 18.1234C13.322 19.0234 11.832 19.0134 12.872 20.8934C13.772 22.5234 16.462 23.4435 17.992 25.1535C19.522 26.8635 19.272 28.3534 22.182 28.8534C23.372 30.6934 21.072 31.8135 20.332 33.9335C18.772 38.4335 18.322 48.3135 15.762 51.4035C14.782 52.5834 12.692 52.8135 13.312 55.2035L15.642 55.8335L16.172 57.3735L13.032 59.6535C12.322 63.5935 15.952 63.2935 18.702 62.3535C25.792 59.9335 30.672 48.9734 39.652 57.6834C41.272 56.2934 40.052 54.0935 39.952 52.4635C39.902 51.6835 40.412 50.9435 40.302 50.1535C40.112 48.6934 32.892 44.5035 38.892 43.5935C40.242 43.3935 42.132 45.3335 42.842 43.9035C42.232 43.9335 41.832 44.0035 41.322 43.5735C40.332 42.7235 37.672 40.0935 37.172 38.9835C35.112 34.3435 35.682 26.0234 33.742 21.2334C33.172 19.8134 31.492 19.5735 31.482 18.5435C31.562 17.1035 33.492 17.2434 34.202 16.3034C34.812 15.4834 34.682 14.1335 35.092 13.2535C36.482 10.2235 40.572 10.3635 41.402 9.09345C42.402 7.56345 41.262 6.44345 41.372 5.25345C41.432 4.61345 42.132 4.13345 42.192 3.67345C42.362 2.17345 41.292 -0.506549 43.812 0.0834508C43.632 1.35345 45.322 4.72345 45.322 5.24345C45.322 5.95345 44.372 6.40345 44.422 7.12345C44.622 10.1334 48.592 10.1735 50.222 11.6735C51.532 12.8735 51.522 15.2235 52.472 16.3135C53.162 17.1035 54.522 17.1534 55.172 18.0534C54.172 19.8734 53.322 19.4735 52.572 21.8435C51.082 26.5335 50.662 37.6635 47.802 40.7335C46.832 41.7835 44.542 42.3735 45.562 43.9135C54.222 43.6035 46.302 48.9435 46.302 49.5735V57.7035L46.312 57.6834ZM38.182 19.7535C37.852 20.1335 37.242 20.4334 37.152 20.9634C36.922 22.4234 38.802 33.8635 39.332 35.8435C40.152 38.8535 42.242 40.0935 45.312 38.7135C48.382 37.3335 48.182 24.2034 49.272 20.9834C49.332 20.5734 48.762 19.7535 48.522 19.7535H38.172H38.182ZM15.522 31.5735C13.502 31.2335 9.90204 31.5735 7.64204 31.5735C6.74204 31.5735 6.01204 32.8735 6.00204 33.7635C5.99204 35.3635 7.77204 47.9034 8.33204 48.6134C9.33204 49.8834 13.732 49.8035 14.542 47.8435C15.172 46.3235 17.132 32.9035 16.672 32.1435C16.292 32.0535 15.792 31.6135 15.522 31.5735ZM70.5021 32.1235C70.4621 33.8035 70.332 35.5535 70.452 37.2335C70.572 38.9135 71.6721 47.3035 72.1721 48.3235C72.8721 49.7535 76.462 49.5635 77.722 48.9535C78.982 48.3435 78.9021 47.1735 79.1721 45.9735C79.4921 44.5235 80.932 33.5235 80.732 32.9035C80.032 30.7435 72.4721 31.5535 70.5021 32.1235ZM32.022 63.6035L28.082 61.6235C27.152 65.1335 31.582 67.7735 32.022 63.6035ZM54.762 65.4935C57.332 66.1535 58.282 64.5234 58.132 62.1134L54.412 63.5735L54.762 65.4935Z" fill="white"/>
</svg>
