<svg width="106" height="150" viewBox="0 0 106 150" fill="none" xmlns="http://www.w3.org/2000/svg">
<path d="M35.2635 14.1001C35.5735 25.1301 37.3735 36.0701 38.1735 47.0601C38.2735 48.4201 37.0835 49.9501 39.0335 51.3301L39.7835 50.3301C40.1335 52.5201 41.6135 54.3701 41.8035 56.6201C42.1035 60.1001 39.9735 63.8901 40.8035 68.1801C41.0735 69.5801 42.7035 69.9601 42.8135 71.4601C44.4635 71.8701 43.9035 68.8401 45.5835 70.4401C46.0035 73.6401 45.7335 74.8501 48.8335 76.2501C49.1035 77.4101 46.9735 77.7501 46.8135 78.3601C46.6035 79.1401 46.6035 93.4001 46.8135 94.2501C47.6335 95.2901 53.1335 98.8301 53.3235 99.4201C53.9235 101.29 51.4935 100.86 51.3135 101.45C51.0635 103.15 51.8035 104.76 51.8735 106.4C51.9435 108.23 51.3835 114.68 51.7235 115.59C52.1435 116.74 54.1535 117.91 54.6935 119.29L58.9335 118.45C60.0935 119.29 58.2735 123.71 61.4235 125.02C65.0735 126.54 72.8035 122.78 73.4935 129.81C75.1935 128.91 75.7735 126.18 77.7735 125.8C79.6735 125.44 94.4535 125.67 95.5035 126.41C96.4035 127.05 96.3535 130.43 97.6335 131.08C99.2335 131.89 103.033 130.62 103.943 131.82C104.453 134.06 106.603 146.75 105.223 147.71L89.5635 148.21C87.7835 144.22 91.7235 138.83 85.3235 138.83C79.0235 138.83 83.2235 143.68 81.5535 148.06C81.1935 148.79 80.0035 148.87 79.2935 148.93C64.1735 150.31 49.0635 148.72 34.0335 148.41C22.7235 148.17 11.2735 149.04 0.053483 147.92C-0.786517 146.95 8.53348 132.26 9.39348 129.84L6.60347 124.28C7.06347 123.83 17.7335 124.09 19.4335 123.78C20.0035 123.67 20.4535 123.61 20.6235 122.95L20.6735 105.39C20.6735 104.2 21.6735 102.18 20.5535 101.26C19.8435 100.68 18.6235 101.49 18.6335 99.3601C18.6335 98.3301 19.7735 98.5001 20.4235 97.6101C22.6735 94.5501 21.6935 88.2301 21.6735 84.2601C21.6735 83.2301 22.1835 82.2801 22.1535 81.3101C22.0835 78.9201 18.8435 75.1101 22.6335 74.9101C22.5435 72.4501 22.7335 68.0701 25.4735 71.4401C28.3635 69.5401 28.1335 64.2401 27.7535 61.1201C27.5235 59.2401 26.4235 58.4301 26.7535 56.1401C26.8535 55.4701 28.1335 52.4901 28.5335 51.8601C28.8735 51.3201 29.9535 51.2001 30.2035 50.4801C30.7735 48.8501 28.7635 47.6201 30.7635 46.9601L32.7735 14.0901H35.2935L35.2635 14.1001ZM36.2635 61.3901L33.0635 60.9201C31.4835 61.4101 32.5335 66.9301 32.2335 68.4301H36.2635V61.3801V61.3901ZM30.7335 91.5801V82.7801L29.4735 82.0101C28.9535 81.9801 27.7135 83.0601 27.7135 83.2901V92.0901L30.7335 91.5901V91.5801ZM41.2935 92.5801V83.2701C41.2935 83.1401 40.1235 81.9001 39.6035 82.0501C39.3335 82.1001 38.2735 83.1801 38.2735 83.2701V91.3201L41.2935 92.5801ZM34.2535 120.75V109.93C34.2535 106.82 27.7135 106.66 27.7135 108.92V120.74H34.2535V120.75ZM40.2835 121.76C41.3335 121.59 45.4635 122.32 45.6935 121.03C44.5335 118.73 46.8635 110.31 43.0635 110.2C42.3535 110.18 40.2835 111.53 40.2835 111.95V121.76ZM52.6135 130.82H19.6635V132.33C26.2835 132.44 32.9335 132.19 39.5535 132.31C43.2735 132.38 47.1535 133.18 51.1235 132.86C52.0135 132.79 52.7735 132.98 53.3635 132.07L52.6135 130.82Z" fill="white"/>
<path d="M35.2534 3.54011H38.7834L38.7234 5.24011C38.3134 6.48011 36.3234 6.00011 35.2634 6.05011L34.7534 12.5901L33.2834 12.5701L32.6934 6.10011L29.2634 5.51011L29.2234 3.53011H32.7534C33.0534 2.60011 31.9534 -0.0198861 33.5134 0.000113873C35.8934 0.0301139 35.2334 1.75011 35.2634 3.54011H35.2534Z" fill="white"/>
</svg>
