<svg width="36" height="162" viewBox="0 0 36 162" fill="none" xmlns="http://www.w3.org/2000/svg">
<path d="M0 161.53L2.39 141.87L3.08 141.17L8.82 140.64C5.59 137.19 8.26 137.35 9.5 135.52C10.67 133.78 10.19 129.19 10.21 126.96C10.41 108.03 9.87 88.5901 9.73 69.3801C9.73 68.4301 10.12 67.4401 10.07 66.6801C9.92 64.6101 7.33 63.9001 8.83 61.2901L4.86 60.3801L4.18 55.7201H9.75C9.96 55.5101 9.55 52.6501 9.74 51.8701C9.87 51.3401 11.06 51.3001 11.38 50.6301C12.14 49.0601 11.21 45.0801 14.39 44.5701L10.68 42.0201C11.98 40.3201 13.81 39.1201 14.29 36.8101C14.93 33.7401 12.58 32.4801 13.46 29.7201C12.16 30.9401 12.12 32.9601 11.06 34.5101C10 36.0601 7.24 38.0201 5.56 38.7501C5.08 38.9601 3.29 39.8201 3.26 38.7601C3.25 38.4201 5.5 34.0901 5.9 32.5901C7.02 28.4001 6.81 15.6801 12.38 15.4401C16.72 15.2501 13.45 20.8801 13.93 21.3501C14.91 21.6601 17.46 20.6401 17.61 19.6701C17.69 19.1201 16.77 18.5801 16.73 17.8801C16.64 16.2701 18.64 15.2601 20.11 15.3901C21.96 16.4101 21.69 17.7501 21.59 19.5001C24.09 17.4901 22.67 14.9701 22.75 12.3101C22.77 11.7601 22.43 10.2701 23.45 10.6801C23.68 10.7701 25.22 14.7601 25.34 15.3001C25.71 17.0501 25.92 19.7401 24.63 21.1401C23.12 22.7801 21.52 21.9401 21.38 25.8301C21.33 27.3201 22.79 27.4701 22.8 29.0001C22.81 30.7401 20.55 35.0801 20.43 37.8501C20.39 38.9201 20.68 42.8301 20.89 43.7701C20.94 43.9801 23.16 45.2801 23.78 46.5501C24.49 48.0001 24.2 50.2101 24.4 50.6201C24.95 51.7701 27.66 52.1101 26.47 55.7001L31.12 55.9601L30.69 60.0301L27.6 61.2401C27.68 63.5201 26.72 64.3301 25.75 66.1201C25.99 85.6001 26.3 105.15 26.03 124.64C25.99 127.71 24.49 132.99 26.46 135.65C27.2 136.64 29.35 136.86 28.11 139.25C27.7 140.05 26.49 139.82 26.48 140.63L32.68 141.16L33.38 141.85L35.76 161.51H0V161.53ZM18.1 37.6001C16.88 37.3801 17.38 37.7901 17.13 38.2601C16.34 39.7701 16.07 41.4701 16.24 43.1701L17.81 43.1101C19.52 42.5401 17.81 38.9601 18.1 37.6001Z" fill="white"/>
<path d="M19.4899 5.58C19.3299 5.42 13.5199 6.03 15.3199 4.65L19.4299 4.58L19.9599 0C21.5799 0.8 20.6799 3.21 20.8799 4.64C21.2399 5 25.0999 3.86 25.5199 5.56H20.8799C20.2299 8.79 21.0799 11.75 20.4099 14.84C19.9399 15.04 19.4899 13.76 19.4899 13.68V5.58Z" fill="white"/>
</svg>
